<?xml version="1.0" encoding="UTF-8"?>
<svg xmlns="http://www.w3.org/2000/svg" xmlns:xlink="http://www.w3.org/1999/xlink" width="384.56pt" height="61.96366pt" viewBox="0 0 384.56 61.96366" version="1.1">
<defs>
<clipPath id="clip1">
  <path d="M 0 52 L 16 52 L 16 61.964844 L 0 61.964844 Z M 0 52 "/>
</clipPath>
<clipPath id="clip2">
  <path d="M 29 52 L 44 52 L 44 61.964844 L 29 61.964844 Z M 29 52 "/>
</clipPath>
<clipPath id="clip3">
  <path d="M 15 52 L 30 52 L 30 61.964844 L 15 61.964844 Z M 15 52 "/>
</clipPath>
<clipPath id="clip4">
  <path d="M 57 52 L 72 52 L 72 61.964844 L 57 61.964844 Z M 57 52 "/>
</clipPath>
<clipPath id="clip5">
  <path d="M 85 52 L 101 52 L 101 61.964844 L 85 61.964844 Z M 85 52 "/>
</clipPath>
<clipPath id="clip6">
  <path d="M 71 52 L 87 52 L 87 61.964844 L 71 61.964844 Z M 71 52 "/>
</clipPath>
<clipPath id="clip7">
  <path d="M 114 52 L 129 52 L 129 61.964844 L 114 61.964844 Z M 114 52 "/>
</clipPath>
<clipPath id="clip8">
  <path d="M 142 52 L 157 52 L 157 61.964844 L 142 61.964844 Z M 142 52 "/>
</clipPath>
<clipPath id="clip9">
  <path d="M 128 52 L 143 52 L 143 61.964844 L 128 61.964844 Z M 128 52 "/>
</clipPath>
<clipPath id="clip10">
  <path d="M 170 52 L 186 52 L 186 61.964844 L 170 61.964844 Z M 170 52 "/>
</clipPath>
<clipPath id="clip11">
  <path d="M 199 52 L 214 52 L 214 61.964844 L 199 61.964844 Z M 199 52 "/>
</clipPath>
<clipPath id="clip12">
  <path d="M 185 52 L 200 52 L 200 61.964844 L 185 61.964844 Z M 185 52 "/>
</clipPath>
<clipPath id="clip13">
  <path d="M 227 52 L 242 52 L 242 61.964844 L 227 61.964844 Z M 227 52 "/>
</clipPath>
<clipPath id="clip14">
  <path d="M 256 52 L 271 52 L 271 61.964844 L 256 61.964844 Z M 256 52 "/>
</clipPath>
<clipPath id="clip15">
  <path d="M 241 52 L 257 52 L 257 61.964844 L 241 61.964844 Z M 241 52 "/>
</clipPath>
<clipPath id="clip16">
  <path d="M 284 52 L 299 52 L 299 61.964844 L 284 61.964844 Z M 284 52 "/>
</clipPath>
<clipPath id="clip17">
  <path d="M 312 52 L 327 52 L 327 61.964844 L 312 61.964844 Z M 312 52 "/>
</clipPath>
<clipPath id="clip18">
  <path d="M 298 52 L 313 52 L 313 61.964844 L 298 61.964844 Z M 298 52 "/>
</clipPath>
<clipPath id="clip19">
  <path d="M 341 52 L 356 52 L 356 61.964844 L 341 61.964844 Z M 341 52 "/>
</clipPath>
<clipPath id="clip20">
  <path d="M 369 52 L 384 52 L 384 61.964844 L 369 61.964844 Z M 369 52 "/>
</clipPath>
<clipPath id="clip21">
  <path d="M 355 52 L 370 52 L 370 61.964844 L 355 61.964844 Z M 355 52 "/>
</clipPath>
</defs>
<g id="surface1">
<path style="fill:none;stroke-width:0.3985;stroke-linecap:butt;stroke-linejoin:miter;stroke:rgb(0%,0%,0%);stroke-opacity:1;stroke-dasharray:2.98883,2.98883;stroke-miterlimit:10;" d="M 7.085594 0.000015 L 49.605125 0.000015 " transform="matrix(1,0,0,-1,-6.152,59.42189)"/>
<path style=" stroke:none;fill-rule:nonzero;fill:rgb(0%,0%,0%);fill-opacity:1;" d="M 9.515625 59.421875 C 9.515625 58.597656 8.847656 57.925781 8.019531 57.925781 C 7.195312 57.925781 6.527344 58.597656 6.527344 59.421875 C 6.527344 60.246094 7.195312 60.917969 8.019531 60.917969 C 8.847656 60.917969 9.515625 60.246094 9.515625 59.421875 Z M 9.515625 59.421875 "/>
<g clip-path="url(#clip1)" clip-rule="nonzero">
<path style="fill:none;stroke-width:0.3985;stroke-linecap:butt;stroke-linejoin:miter;stroke:rgb(0%,0%,0%);stroke-opacity:1;stroke-miterlimit:10;" d="M 15.667625 0.000015 C 15.667625 0.824234 14.999656 1.496109 14.171531 1.496109 C 13.347313 1.496109 12.679344 0.824234 12.679344 0.000015 C 12.679344 -0.824204 13.347313 -1.496079 14.171531 -1.496079 C 14.999656 -1.496079 15.667625 -0.824204 15.667625 0.000015 Z M 15.667625 0.000015 " transform="matrix(1,0,0,-1,-6.152,59.42189)"/>
</g>
<path style="fill-rule:nonzero;fill:rgb(0%,0%,0%);fill-opacity:1;stroke-width:0.3985;stroke-linecap:butt;stroke-linejoin:miter;stroke:rgb(0%,0%,0%);stroke-opacity:1;stroke-miterlimit:10;" d="M 15.667625 14.17189 C 15.667625 15.000015 14.999656 15.667984 14.171531 15.667984 C 13.347313 15.667984 12.679344 15.000015 12.679344 14.17189 C 12.679344 13.347671 13.347313 12.679702 14.171531 12.679702 C 14.999656 12.679702 15.667625 13.347671 15.667625 14.17189 Z M 15.667625 14.17189 " transform="matrix(1,0,0,-1,-6.152,59.42189)"/>
<path style="fill-rule:nonzero;fill:rgb(0%,0%,0%);fill-opacity:1;stroke-width:0.3985;stroke-linecap:butt;stroke-linejoin:miter;stroke:rgb(0%,0%,0%);stroke-opacity:1;stroke-miterlimit:10;" d="M 15.667625 28.347671 C 15.667625 29.17189 14.999656 29.839859 14.171531 29.839859 C 13.347313 29.839859 12.679344 29.17189 12.679344 28.347671 C 12.679344 27.519546 13.347313 26.851577 14.171531 26.851577 C 14.999656 26.851577 15.667625 27.519546 15.667625 28.347671 Z M 15.667625 28.347671 " transform="matrix(1,0,0,-1,-6.152,59.42189)"/>
<path style="fill-rule:nonzero;fill:rgb(0%,0%,0%);fill-opacity:1;stroke-width:0.3985;stroke-linecap:butt;stroke-linejoin:miter;stroke:rgb(0%,0%,0%);stroke-opacity:1;stroke-miterlimit:10;" d="M 15.667625 42.519546 C 15.667625 43.343765 14.999656 44.01564 14.171531 44.01564 C 13.347313 44.01564 12.679344 43.343765 12.679344 42.519546 C 12.679344 41.695327 13.347313 41.027359 14.171531 41.027359 C 14.999656 41.027359 15.667625 41.695327 15.667625 42.519546 Z M 15.667625 42.519546 " transform="matrix(1,0,0,-1,-6.152,59.42189)"/>
<path style="fill:none;stroke-width:0.79701;stroke-linecap:butt;stroke-linejoin:miter;stroke:rgb(0%,0%,0%);stroke-opacity:1;stroke-miterlimit:10;" d="M 14.171531 0.000015 L 14.171531 42.519546 " transform="matrix(1,0,0,-1,-6.152,59.42189)"/>
<path style=" stroke:none;fill-rule:nonzero;fill:rgb(0%,0%,0%);fill-opacity:1;" d="M 37.863281 59.421875 C 37.863281 58.597656 37.195312 57.925781 36.367188 57.925781 C 35.542969 57.925781 34.875 58.597656 34.875 59.421875 C 34.875 60.246094 35.542969 60.917969 36.367188 60.917969 C 37.195312 60.917969 37.863281 60.246094 37.863281 59.421875 Z M 37.863281 59.421875 "/>
<g clip-path="url(#clip2)" clip-rule="nonzero">
<path style="fill:none;stroke-width:0.3985;stroke-linecap:butt;stroke-linejoin:miter;stroke:rgb(0%,0%,0%);stroke-opacity:1;stroke-miterlimit:10;" d="M 44.015281 0.000015 C 44.015281 0.824234 43.347313 1.496109 42.519188 1.496109 C 41.694969 1.496109 41.027 0.824234 41.027 0.000015 C 41.027 -0.824204 41.694969 -1.496079 42.519188 -1.496079 C 43.347313 -1.496079 44.015281 -0.824204 44.015281 0.000015 Z M 44.015281 0.000015 " transform="matrix(1,0,0,-1,-6.152,59.42189)"/>
</g>
<path style="fill-rule:nonzero;fill:rgb(0%,0%,0%);fill-opacity:1;stroke-width:0.3985;stroke-linecap:butt;stroke-linejoin:miter;stroke:rgb(0%,0%,0%);stroke-opacity:1;stroke-miterlimit:10;" d="M 44.015281 14.17189 C 44.015281 15.000015 43.347313 15.667984 42.519188 15.667984 C 41.694969 15.667984 41.027 15.000015 41.027 14.17189 C 41.027 13.347671 41.694969 12.679702 42.519188 12.679702 C 43.347313 12.679702 44.015281 13.347671 44.015281 14.17189 Z M 44.015281 14.17189 " transform="matrix(1,0,0,-1,-6.152,59.42189)"/>
<path style="fill-rule:nonzero;fill:rgb(0%,0%,0%);fill-opacity:1;stroke-width:0.3985;stroke-linecap:butt;stroke-linejoin:miter;stroke:rgb(0%,0%,0%);stroke-opacity:1;stroke-miterlimit:10;" d="M 44.015281 28.347671 C 44.015281 29.17189 43.347313 29.839859 42.519188 29.839859 C 41.694969 29.839859 41.027 29.17189 41.027 28.347671 C 41.027 27.519546 41.694969 26.851577 42.519188 26.851577 C 43.347313 26.851577 44.015281 27.519546 44.015281 28.347671 Z M 44.015281 28.347671 " transform="matrix(1,0,0,-1,-6.152,59.42189)"/>
<path style="fill:none;stroke-width:0.79701;stroke-linecap:butt;stroke-linejoin:miter;stroke:rgb(0%,0%,0%);stroke-opacity:1;stroke-miterlimit:10;" d="M 42.519188 0.000015 L 42.519188 28.347671 " transform="matrix(1,0,0,-1,-6.152,59.42189)"/>
<path style=" stroke:none;fill-rule:nonzero;fill:rgb(0%,0%,0%);fill-opacity:1;" d="M 23.6875 59.421875 C 23.6875 58.597656 23.019531 57.925781 22.195312 57.925781 C 21.371094 57.925781 20.699219 58.597656 20.699219 59.421875 C 20.699219 60.246094 21.371094 60.917969 22.195312 60.917969 C 23.019531 60.917969 23.6875 60.246094 23.6875 59.421875 Z M 23.6875 59.421875 "/>
<g clip-path="url(#clip3)" clip-rule="nonzero">
<path style="fill:none;stroke-width:0.3985;stroke-linecap:butt;stroke-linejoin:miter;stroke:rgb(0%,0%,0%);stroke-opacity:1;stroke-miterlimit:10;" d="M 29.8395 0.000015 C 29.8395 0.824234 29.171531 1.496109 28.347313 1.496109 C 27.523094 1.496109 26.851219 0.824234 26.851219 0.000015 C 26.851219 -0.824204 27.523094 -1.496079 28.347313 -1.496079 C 29.171531 -1.496079 29.8395 -0.824204 29.8395 0.000015 Z M 29.8395 0.000015 " transform="matrix(1,0,0,-1,-6.152,59.42189)"/>
</g>
<path style="fill-rule:nonzero;fill:rgb(0%,0%,0%);fill-opacity:1;stroke-width:0.3985;stroke-linecap:butt;stroke-linejoin:miter;stroke:rgb(0%,0%,0%);stroke-opacity:1;stroke-miterlimit:10;" d="M 29.8395 14.17189 C 29.8395 15.000015 29.171531 15.667984 28.347313 15.667984 C 27.523094 15.667984 26.851219 15.000015 26.851219 14.17189 C 26.851219 13.347671 27.523094 12.679702 28.347313 12.679702 C 29.171531 12.679702 29.8395 13.347671 29.8395 14.17189 Z M 29.8395 14.17189 " transform="matrix(1,0,0,-1,-6.152,59.42189)"/>
<path style="fill:none;stroke-width:0.79701;stroke-linecap:butt;stroke-linejoin:miter;stroke:rgb(0%,0%,0%);stroke-opacity:1;stroke-miterlimit:10;" d="M 28.347313 0.000015 L 28.347313 14.17189 " transform="matrix(1,0,0,-1,-6.152,59.42189)"/>
<path style="fill:none;stroke-width:0.3985;stroke-linecap:butt;stroke-linejoin:miter;stroke:rgb(0%,0%,0%);stroke-opacity:1;stroke-dasharray:2.98883,2.98883;stroke-miterlimit:10;" d="M 63.780906 0.000015 L 106.300438 0.000015 " transform="matrix(1,0,0,-1,-6.152,59.42189)"/>
<path style=" stroke:none;fill-rule:nonzero;fill:rgb(0%,0%,0%);fill-opacity:1;" d="M 66.210938 59.421875 C 66.210938 58.597656 65.539062 57.925781 64.714844 57.925781 C 63.890625 57.925781 63.21875 58.597656 63.21875 59.421875 C 63.21875 60.246094 63.890625 60.917969 64.714844 60.917969 C 65.539062 60.917969 66.210938 60.246094 66.210938 59.421875 Z M 66.210938 59.421875 "/>
<g clip-path="url(#clip4)" clip-rule="nonzero">
<path style="fill:none;stroke-width:0.3985;stroke-linecap:butt;stroke-linejoin:miter;stroke:rgb(0%,0%,0%);stroke-opacity:1;stroke-miterlimit:10;" d="M 72.362938 0.000015 C 72.362938 0.824234 71.691063 1.496109 70.866844 1.496109 C 70.042625 1.496109 69.37075 0.824234 69.37075 0.000015 C 69.37075 -0.824204 70.042625 -1.496079 70.866844 -1.496079 C 71.691063 -1.496079 72.362938 -0.824204 72.362938 0.000015 Z M 72.362938 0.000015 " transform="matrix(1,0,0,-1,-6.152,59.42189)"/>
</g>
<path style="fill-rule:nonzero;fill:rgb(0%,0%,0%);fill-opacity:1;stroke-width:0.3985;stroke-linecap:butt;stroke-linejoin:miter;stroke:rgb(0%,0%,0%);stroke-opacity:1;stroke-miterlimit:10;" d="M 72.362938 14.17189 C 72.362938 15.000015 71.691063 15.667984 70.866844 15.667984 C 70.042625 15.667984 69.37075 15.000015 69.37075 14.17189 C 69.37075 13.347671 70.042625 12.679702 70.866844 12.679702 C 71.691063 12.679702 72.362938 13.347671 72.362938 14.17189 Z M 72.362938 14.17189 " transform="matrix(1,0,0,-1,-6.152,59.42189)"/>
<path style="fill-rule:nonzero;fill:rgb(0%,0%,0%);fill-opacity:1;stroke-width:0.3985;stroke-linecap:butt;stroke-linejoin:miter;stroke:rgb(0%,0%,0%);stroke-opacity:1;stroke-miterlimit:10;" d="M 72.362938 28.347671 C 72.362938 29.17189 71.691063 29.839859 70.866844 29.839859 C 70.042625 29.839859 69.37075 29.17189 69.37075 28.347671 C 69.37075 27.519546 70.042625 26.851577 70.866844 26.851577 C 71.691063 26.851577 72.362938 27.519546 72.362938 28.347671 Z M 72.362938 28.347671 " transform="matrix(1,0,0,-1,-6.152,59.42189)"/>
<path style="fill:none;stroke-width:0.79701;stroke-linecap:butt;stroke-linejoin:miter;stroke:rgb(0%,0%,0%);stroke-opacity:1;stroke-miterlimit:10;" d="M 70.866844 0.000015 L 70.866844 28.347671 " transform="matrix(1,0,0,-1,-6.152,59.42189)"/>
<path style=" stroke:none;fill-rule:nonzero;fill:rgb(0%,0%,0%);fill-opacity:1;" d="M 94.554688 59.421875 C 94.554688 58.597656 93.886719 57.925781 93.0625 57.925781 C 92.238281 57.925781 91.566406 58.597656 91.566406 59.421875 C 91.566406 60.246094 92.238281 60.917969 93.0625 60.917969 C 93.886719 60.917969 94.554688 60.246094 94.554688 59.421875 Z M 94.554688 59.421875 "/>
<g clip-path="url(#clip5)" clip-rule="nonzero">
<path style="fill:none;stroke-width:0.3985;stroke-linecap:butt;stroke-linejoin:miter;stroke:rgb(0%,0%,0%);stroke-opacity:1;stroke-miterlimit:10;" d="M 100.706688 0.000015 C 100.706688 0.824234 100.038719 1.496109 99.2145 1.496109 C 98.390281 1.496109 97.718406 0.824234 97.718406 0.000015 C 97.718406 -0.824204 98.390281 -1.496079 99.2145 -1.496079 C 100.038719 -1.496079 100.706688 -0.824204 100.706688 0.000015 Z M 100.706688 0.000015 " transform="matrix(1,0,0,-1,-6.152,59.42189)"/>
</g>
<path style="fill-rule:nonzero;fill:rgb(0%,0%,0%);fill-opacity:1;stroke-width:0.3985;stroke-linecap:butt;stroke-linejoin:miter;stroke:rgb(0%,0%,0%);stroke-opacity:1;stroke-miterlimit:10;" d="M 100.706688 14.17189 C 100.706688 15.000015 100.038719 15.667984 99.2145 15.667984 C 98.390281 15.667984 97.718406 15.000015 97.718406 14.17189 C 97.718406 13.347671 98.390281 12.679702 99.2145 12.679702 C 100.038719 12.679702 100.706688 13.347671 100.706688 14.17189 Z M 100.706688 14.17189 " transform="matrix(1,0,0,-1,-6.152,59.42189)"/>
<path style="fill-rule:nonzero;fill:rgb(0%,0%,0%);fill-opacity:1;stroke-width:0.3985;stroke-linecap:butt;stroke-linejoin:miter;stroke:rgb(0%,0%,0%);stroke-opacity:1;stroke-miterlimit:10;" d="M 100.706688 28.347671 C 100.706688 29.17189 100.038719 29.839859 99.2145 29.839859 C 98.390281 29.839859 97.718406 29.17189 97.718406 28.347671 C 97.718406 27.519546 98.390281 26.851577 99.2145 26.851577 C 100.038719 26.851577 100.706688 27.519546 100.706688 28.347671 Z M 100.706688 28.347671 " transform="matrix(1,0,0,-1,-6.152,59.42189)"/>
<path style="fill:none;stroke-width:0.79701;stroke-linecap:butt;stroke-linejoin:miter;stroke:rgb(0%,0%,0%);stroke-opacity:1;stroke-miterlimit:10;" d="M 99.2145 0.000015 L 99.2145 28.347671 " transform="matrix(1,0,0,-1,-6.152,59.42189)"/>
<path style=" stroke:none;fill-rule:nonzero;fill:rgb(0%,0%,0%);fill-opacity:1;" d="M 80.382812 59.421875 C 80.382812 58.597656 79.714844 57.925781 78.886719 57.925781 C 78.0625 57.925781 77.394531 58.597656 77.394531 59.421875 C 77.394531 60.246094 78.0625 60.917969 78.886719 60.917969 C 79.714844 60.917969 80.382812 60.246094 80.382812 59.421875 Z M 80.382812 59.421875 "/>
<g clip-path="url(#clip6)" clip-rule="nonzero">
<path style="fill:none;stroke-width:0.3985;stroke-linecap:butt;stroke-linejoin:miter;stroke:rgb(0%,0%,0%);stroke-opacity:1;stroke-miterlimit:10;" d="M 86.534813 0.000015 C 86.534813 0.824234 85.866844 1.496109 85.038719 1.496109 C 84.2145 1.496109 83.546531 0.824234 83.546531 0.000015 C 83.546531 -0.824204 84.2145 -1.496079 85.038719 -1.496079 C 85.866844 -1.496079 86.534813 -0.824204 86.534813 0.000015 Z M 86.534813 0.000015 " transform="matrix(1,0,0,-1,-6.152,59.42189)"/>
</g>
<path style="fill-rule:nonzero;fill:rgb(0%,0%,0%);fill-opacity:1;stroke-width:0.3985;stroke-linecap:butt;stroke-linejoin:miter;stroke:rgb(0%,0%,0%);stroke-opacity:1;stroke-miterlimit:10;" d="M 86.534813 14.17189 C 86.534813 15.000015 85.866844 15.667984 85.038719 15.667984 C 84.2145 15.667984 83.546531 15.000015 83.546531 14.17189 C 83.546531 13.347671 84.2145 12.679702 85.038719 12.679702 C 85.866844 12.679702 86.534813 13.347671 86.534813 14.17189 Z M 86.534813 14.17189 " transform="matrix(1,0,0,-1,-6.152,59.42189)"/>
<path style="fill:none;stroke-width:0.79701;stroke-linecap:butt;stroke-linejoin:miter;stroke:rgb(0%,0%,0%);stroke-opacity:1;stroke-miterlimit:10;" d="M 85.038719 0.000015 L 85.038719 14.17189 " transform="matrix(1,0,0,-1,-6.152,59.42189)"/>
<path style="fill:none;stroke-width:0.3985;stroke-linecap:butt;stroke-linejoin:miter;stroke:rgb(0%,0%,0%);stroke-opacity:1;stroke-dasharray:2.98883,2.98883;stroke-miterlimit:10;" d="M 120.472313 0.000015 L 162.99575 0.000015 " transform="matrix(1,0,0,-1,-6.152,59.42189)"/>
<path style=" stroke:none;fill-rule:nonzero;fill:rgb(0%,0%,0%);fill-opacity:1;" d="M 122.902344 59.421875 C 122.902344 58.597656 122.234375 57.925781 121.410156 57.925781 C 120.582031 57.925781 119.914062 58.597656 119.914062 59.421875 C 119.914062 60.246094 120.582031 60.917969 121.410156 60.917969 C 122.234375 60.917969 122.902344 60.246094 122.902344 59.421875 Z M 122.902344 59.421875 "/>
<g clip-path="url(#clip7)" clip-rule="nonzero">
<path style="fill:none;stroke-width:0.3985;stroke-linecap:butt;stroke-linejoin:miter;stroke:rgb(0%,0%,0%);stroke-opacity:1;stroke-miterlimit:10;" d="M 129.054344 0.000015 C 129.054344 0.824234 128.386375 1.496109 127.562156 1.496109 C 126.734031 1.496109 126.066063 0.824234 126.066063 0.000015 C 126.066063 -0.824204 126.734031 -1.496079 127.562156 -1.496079 C 128.386375 -1.496079 129.054344 -0.824204 129.054344 0.000015 Z M 129.054344 0.000015 " transform="matrix(1,0,0,-1,-6.152,59.42189)"/>
</g>
<path style="fill-rule:nonzero;fill:rgb(0%,0%,0%);fill-opacity:1;stroke-width:0.3985;stroke-linecap:butt;stroke-linejoin:miter;stroke:rgb(0%,0%,0%);stroke-opacity:1;stroke-miterlimit:10;" d="M 129.054344 14.17189 C 129.054344 15.000015 128.386375 15.667984 127.562156 15.667984 C 126.734031 15.667984 126.066063 15.000015 126.066063 14.17189 C 126.066063 13.347671 126.734031 12.679702 127.562156 12.679702 C 128.386375 12.679702 129.054344 13.347671 129.054344 14.17189 Z M 129.054344 14.17189 " transform="matrix(1,0,0,-1,-6.152,59.42189)"/>
<path style="fill:none;stroke-width:0.79701;stroke-linecap:butt;stroke-linejoin:miter;stroke:rgb(0%,0%,0%);stroke-opacity:1;stroke-miterlimit:10;" d="M 127.562156 0.000015 L 127.562156 14.17189 " transform="matrix(1,0,0,-1,-6.152,59.42189)"/>
<path style=" stroke:none;fill-rule:nonzero;fill:rgb(0%,0%,0%);fill-opacity:1;" d="M 151.25 59.421875 C 151.25 58.597656 150.582031 57.925781 149.753906 57.925781 C 148.929688 57.925781 148.261719 58.597656 148.261719 59.421875 C 148.261719 60.246094 148.929688 60.917969 149.753906 60.917969 C 150.582031 60.917969 151.25 60.246094 151.25 59.421875 Z M 151.25 59.421875 "/>
<g clip-path="url(#clip8)" clip-rule="nonzero">
<path style="fill:none;stroke-width:0.3985;stroke-linecap:butt;stroke-linejoin:miter;stroke:rgb(0%,0%,0%);stroke-opacity:1;stroke-miterlimit:10;" d="M 157.402 0.000015 C 157.402 0.824234 156.734031 1.496109 155.905906 1.496109 C 155.081688 1.496109 154.413719 0.824234 154.413719 0.000015 C 154.413719 -0.824204 155.081688 -1.496079 155.905906 -1.496079 C 156.734031 -1.496079 157.402 -0.824204 157.402 0.000015 Z M 157.402 0.000015 " transform="matrix(1,0,0,-1,-6.152,59.42189)"/>
</g>
<path style="fill-rule:nonzero;fill:rgb(0%,0%,0%);fill-opacity:1;stroke-width:0.3985;stroke-linecap:butt;stroke-linejoin:miter;stroke:rgb(0%,0%,0%);stroke-opacity:1;stroke-miterlimit:10;" d="M 157.402 14.17189 C 157.402 15.000015 156.734031 15.667984 155.905906 15.667984 C 155.081688 15.667984 154.413719 15.000015 154.413719 14.17189 C 154.413719 13.347671 155.081688 12.679702 155.905906 12.679702 C 156.734031 12.679702 157.402 13.347671 157.402 14.17189 Z M 157.402 14.17189 " transform="matrix(1,0,0,-1,-6.152,59.42189)"/>
<path style="fill-rule:nonzero;fill:rgb(0%,0%,0%);fill-opacity:1;stroke-width:0.3985;stroke-linecap:butt;stroke-linejoin:miter;stroke:rgb(0%,0%,0%);stroke-opacity:1;stroke-miterlimit:10;" d="M 157.402 28.347671 C 157.402 29.17189 156.734031 29.839859 155.905906 29.839859 C 155.081688 29.839859 154.413719 29.17189 154.413719 28.347671 C 154.413719 27.519546 155.081688 26.851577 155.905906 26.851577 C 156.734031 26.851577 157.402 27.519546 157.402 28.347671 Z M 157.402 28.347671 " transform="matrix(1,0,0,-1,-6.152,59.42189)"/>
<path style="fill:none;stroke-width:0.79701;stroke-linecap:butt;stroke-linejoin:miter;stroke:rgb(0%,0%,0%);stroke-opacity:1;stroke-miterlimit:10;" d="M 155.905906 0.000015 L 155.905906 28.347671 " transform="matrix(1,0,0,-1,-6.152,59.42189)"/>
<path style=" stroke:none;fill-rule:nonzero;fill:rgb(0%,0%,0%);fill-opacity:1;" d="M 137.078125 59.421875 C 137.078125 58.597656 136.40625 57.925781 135.582031 57.925781 C 134.757812 57.925781 134.085938 58.597656 134.085938 59.421875 C 134.085938 60.246094 134.757812 60.917969 135.582031 60.917969 C 136.40625 60.917969 137.078125 60.246094 137.078125 59.421875 Z M 137.078125 59.421875 "/>
<g clip-path="url(#clip9)" clip-rule="nonzero">
<path style="fill:none;stroke-width:0.3985;stroke-linecap:butt;stroke-linejoin:miter;stroke:rgb(0%,0%,0%);stroke-opacity:1;stroke-miterlimit:10;" d="M 143.230125 0.000015 C 143.230125 0.824234 142.55825 1.496109 141.734031 1.496109 C 140.909813 1.496109 140.237938 0.824234 140.237938 0.000015 C 140.237938 -0.824204 140.909813 -1.496079 141.734031 -1.496079 C 142.55825 -1.496079 143.230125 -0.824204 143.230125 0.000015 Z M 143.230125 0.000015 " transform="matrix(1,0,0,-1,-6.152,59.42189)"/>
</g>
<path style="fill-rule:nonzero;fill:rgb(0%,0%,0%);fill-opacity:1;stroke-width:0.3985;stroke-linecap:butt;stroke-linejoin:miter;stroke:rgb(0%,0%,0%);stroke-opacity:1;stroke-miterlimit:10;" d="M 143.230125 14.17189 C 143.230125 15.000015 142.55825 15.667984 141.734031 15.667984 C 140.909813 15.667984 140.237938 15.000015 140.237938 14.17189 C 140.237938 13.347671 140.909813 12.679702 141.734031 12.679702 C 142.55825 12.679702 143.230125 13.347671 143.230125 14.17189 Z M 143.230125 14.17189 " transform="matrix(1,0,0,-1,-6.152,59.42189)"/>
<path style="fill:none;stroke-width:0.79701;stroke-linecap:butt;stroke-linejoin:miter;stroke:rgb(0%,0%,0%);stroke-opacity:1;stroke-miterlimit:10;" d="M 141.734031 0.000015 L 141.734031 14.17189 " transform="matrix(1,0,0,-1,-6.152,59.42189)"/>
<path style="fill:none;stroke-width:0.3985;stroke-linecap:butt;stroke-linejoin:miter;stroke:rgb(0%,0%,0%);stroke-opacity:1;stroke-dasharray:2.98883,2.98883;stroke-miterlimit:10;" d="M 177.167625 0.000015 L 219.687156 0.000015 " transform="matrix(1,0,0,-1,-6.152,59.42189)"/>
<path style=" stroke:none;fill-rule:nonzero;fill:rgb(0%,0%,0%);fill-opacity:1;" d="M 179.597656 59.421875 C 179.597656 58.597656 178.925781 57.925781 178.101562 57.925781 C 177.277344 57.925781 176.609375 58.597656 176.609375 59.421875 C 176.609375 60.246094 177.277344 60.917969 178.101562 60.917969 C 178.925781 60.917969 179.597656 60.246094 179.597656 59.421875 Z M 179.597656 59.421875 "/>
<g clip-path="url(#clip10)" clip-rule="nonzero">
<path style="fill:none;stroke-width:0.3985;stroke-linecap:butt;stroke-linejoin:miter;stroke:rgb(0%,0%,0%);stroke-opacity:1;stroke-miterlimit:10;" d="M 185.749656 0.000015 C 185.749656 0.824234 185.077781 1.496109 184.253563 1.496109 C 183.429344 1.496109 182.761375 0.824234 182.761375 0.000015 C 182.761375 -0.824204 183.429344 -1.496079 184.253563 -1.496079 C 185.077781 -1.496079 185.749656 -0.824204 185.749656 0.000015 Z M 185.749656 0.000015 " transform="matrix(1,0,0,-1,-6.152,59.42189)"/>
</g>
<path style=" stroke:none;fill-rule:nonzero;fill:rgb(0%,0%,0%);fill-opacity:1;" d="M 207.945312 59.421875 C 207.945312 58.597656 207.273438 57.925781 206.449219 57.925781 C 205.625 57.925781 204.953125 58.597656 204.953125 59.421875 C 204.953125 60.246094 205.625 60.917969 206.449219 60.917969 C 207.273438 60.917969 207.945312 60.246094 207.945312 59.421875 Z M 207.945312 59.421875 "/>
<g clip-path="url(#clip11)" clip-rule="nonzero">
<path style="fill:none;stroke-width:0.3985;stroke-linecap:butt;stroke-linejoin:miter;stroke:rgb(0%,0%,0%);stroke-opacity:1;stroke-miterlimit:10;" d="M 214.097313 0.000015 C 214.097313 0.824234 213.425438 1.496109 212.601219 1.496109 C 211.777 1.496109 211.105125 0.824234 211.105125 0.000015 C 211.105125 -0.824204 211.777 -1.496079 212.601219 -1.496079 C 213.425438 -1.496079 214.097313 -0.824204 214.097313 0.000015 Z M 214.097313 0.000015 " transform="matrix(1,0,0,-1,-6.152,59.42189)"/>
</g>
<path style="fill-rule:nonzero;fill:rgb(0%,0%,0%);fill-opacity:1;stroke-width:0.3985;stroke-linecap:butt;stroke-linejoin:miter;stroke:rgb(0%,0%,0%);stroke-opacity:1;stroke-miterlimit:10;" d="M 214.097313 14.17189 C 214.097313 15.000015 213.425438 15.667984 212.601219 15.667984 C 211.777 15.667984 211.105125 15.000015 211.105125 14.17189 C 211.105125 13.347671 211.777 12.679702 212.601219 12.679702 C 213.425438 12.679702 214.097313 13.347671 214.097313 14.17189 Z M 214.097313 14.17189 " transform="matrix(1,0,0,-1,-6.152,59.42189)"/>
<path style="fill-rule:nonzero;fill:rgb(0%,0%,0%);fill-opacity:1;stroke-width:0.3985;stroke-linecap:butt;stroke-linejoin:miter;stroke:rgb(0%,0%,0%);stroke-opacity:1;stroke-miterlimit:10;" d="M 214.097313 28.347671 C 214.097313 29.17189 213.425438 29.839859 212.601219 29.839859 C 211.777 29.839859 211.105125 29.17189 211.105125 28.347671 C 211.105125 27.519546 211.777 26.851577 212.601219 26.851577 C 213.425438 26.851577 214.097313 27.519546 214.097313 28.347671 Z M 214.097313 28.347671 " transform="matrix(1,0,0,-1,-6.152,59.42189)"/>
<path style="fill:none;stroke-width:0.79701;stroke-linecap:butt;stroke-linejoin:miter;stroke:rgb(0%,0%,0%);stroke-opacity:1;stroke-miterlimit:10;" d="M 212.601219 0.000015 L 212.601219 28.347671 " transform="matrix(1,0,0,-1,-6.152,59.42189)"/>
<path style=" stroke:none;fill-rule:nonzero;fill:rgb(0%,0%,0%);fill-opacity:1;" d="M 193.769531 59.421875 C 193.769531 58.597656 193.101562 57.925781 192.277344 57.925781 C 191.449219 57.925781 190.78125 58.597656 190.78125 59.421875 C 190.78125 60.246094 191.449219 60.917969 192.277344 60.917969 C 193.101562 60.917969 193.769531 60.246094 193.769531 59.421875 Z M 193.769531 59.421875 "/>
<g clip-path="url(#clip12)" clip-rule="nonzero">
<path style="fill:none;stroke-width:0.3985;stroke-linecap:butt;stroke-linejoin:miter;stroke:rgb(0%,0%,0%);stroke-opacity:1;stroke-miterlimit:10;" d="M 199.921531 0.000015 C 199.921531 0.824234 199.253563 1.496109 198.429344 1.496109 C 197.601219 1.496109 196.93325 0.824234 196.93325 0.000015 C 196.93325 -0.824204 197.601219 -1.496079 198.429344 -1.496079 C 199.253563 -1.496079 199.921531 -0.824204 199.921531 0.000015 Z M 199.921531 0.000015 " transform="matrix(1,0,0,-1,-6.152,59.42189)"/>
</g>
<path style="fill-rule:nonzero;fill:rgb(0%,0%,0%);fill-opacity:1;stroke-width:0.3985;stroke-linecap:butt;stroke-linejoin:miter;stroke:rgb(0%,0%,0%);stroke-opacity:1;stroke-miterlimit:10;" d="M 199.921531 14.17189 C 199.921531 15.000015 199.253563 15.667984 198.429344 15.667984 C 197.601219 15.667984 196.93325 15.000015 196.93325 14.17189 C 196.93325 13.347671 197.601219 12.679702 198.429344 12.679702 C 199.253563 12.679702 199.921531 13.347671 199.921531 14.17189 Z M 199.921531 14.17189 " transform="matrix(1,0,0,-1,-6.152,59.42189)"/>
<path style="fill:none;stroke-width:0.79701;stroke-linecap:butt;stroke-linejoin:miter;stroke:rgb(0%,0%,0%);stroke-opacity:1;stroke-miterlimit:10;" d="M 198.429344 0.000015 L 198.429344 14.17189 " transform="matrix(1,0,0,-1,-6.152,59.42189)"/>
<path style="fill:none;stroke-width:0.3985;stroke-linecap:butt;stroke-linejoin:miter;stroke:rgb(0%,0%,0%);stroke-opacity:1;stroke-dasharray:2.98883,2.98883;stroke-miterlimit:10;" d="M 233.862938 0.000015 L 276.382469 0.000015 " transform="matrix(1,0,0,-1,-6.152,59.42189)"/>
<path style=" stroke:none;fill-rule:nonzero;fill:rgb(0%,0%,0%);fill-opacity:1;" d="M 236.289062 59.421875 C 236.289062 58.597656 235.621094 57.925781 234.796875 57.925781 C 233.96875 57.925781 233.300781 58.597656 233.300781 59.421875 C 233.300781 60.246094 233.96875 60.917969 234.796875 60.917969 C 235.621094 60.917969 236.289062 60.246094 236.289062 59.421875 Z M 236.289062 59.421875 "/>
<g clip-path="url(#clip13)" clip-rule="nonzero">
<path style="fill:none;stroke-width:0.3985;stroke-linecap:butt;stroke-linejoin:miter;stroke:rgb(0%,0%,0%);stroke-opacity:1;stroke-miterlimit:10;" d="M 242.441063 0.000015 C 242.441063 0.824234 241.773094 1.496109 240.948875 1.496109 C 240.12075 1.496109 239.452781 0.824234 239.452781 0.000015 C 239.452781 -0.824204 240.12075 -1.496079 240.948875 -1.496079 C 241.773094 -1.496079 242.441063 -0.824204 242.441063 0.000015 Z M 242.441063 0.000015 " transform="matrix(1,0,0,-1,-6.152,59.42189)"/>
</g>
<path style="fill-rule:nonzero;fill:rgb(0%,0%,0%);fill-opacity:1;stroke-width:0.3985;stroke-linecap:butt;stroke-linejoin:miter;stroke:rgb(0%,0%,0%);stroke-opacity:1;stroke-miterlimit:10;" d="M 242.441063 14.17189 C 242.441063 15.000015 241.773094 15.667984 240.948875 15.667984 C 240.12075 15.667984 239.452781 15.000015 239.452781 14.17189 C 239.452781 13.347671 240.12075 12.679702 240.948875 12.679702 C 241.773094 12.679702 242.441063 13.347671 242.441063 14.17189 Z M 242.441063 14.17189 " transform="matrix(1,0,0,-1,-6.152,59.42189)"/>
<path style="fill-rule:nonzero;fill:rgb(0%,0%,0%);fill-opacity:1;stroke-width:0.3985;stroke-linecap:butt;stroke-linejoin:miter;stroke:rgb(0%,0%,0%);stroke-opacity:1;stroke-miterlimit:10;" d="M 242.441063 28.347671 C 242.441063 29.17189 241.773094 29.839859 240.948875 29.839859 C 240.12075 29.839859 239.452781 29.17189 239.452781 28.347671 C 239.452781 27.519546 240.12075 26.851577 240.948875 26.851577 C 241.773094 26.851577 242.441063 27.519546 242.441063 28.347671 Z M 242.441063 28.347671 " transform="matrix(1,0,0,-1,-6.152,59.42189)"/>
<path style="fill-rule:nonzero;fill:rgb(0%,0%,0%);fill-opacity:1;stroke-width:0.3985;stroke-linecap:butt;stroke-linejoin:miter;stroke:rgb(0%,0%,0%);stroke-opacity:1;stroke-miterlimit:10;" d="M 242.441063 42.519546 C 242.441063 43.343765 241.773094 44.01564 240.948875 44.01564 C 240.12075 44.01564 239.452781 43.343765 239.452781 42.519546 C 239.452781 41.695327 240.12075 41.027359 240.948875 41.027359 C 241.773094 41.027359 242.441063 41.695327 242.441063 42.519546 Z M 242.441063 42.519546 " transform="matrix(1,0,0,-1,-6.152,59.42189)"/>
<path style="fill-rule:nonzero;fill:rgb(0%,0%,0%);fill-opacity:1;stroke-width:0.3985;stroke-linecap:butt;stroke-linejoin:miter;stroke:rgb(0%,0%,0%);stroke-opacity:1;stroke-miterlimit:10;" d="M 242.441063 56.695327 C 242.441063 57.519546 241.773094 58.187515 240.948875 58.187515 C 240.12075 58.187515 239.452781 57.519546 239.452781 56.695327 C 239.452781 55.867202 240.12075 55.199234 240.948875 55.199234 C 241.773094 55.199234 242.441063 55.867202 242.441063 56.695327 Z M 242.441063 56.695327 " transform="matrix(1,0,0,-1,-6.152,59.42189)"/>
<path style="fill:none;stroke-width:0.79701;stroke-linecap:butt;stroke-linejoin:miter;stroke:rgb(0%,0%,0%);stroke-opacity:1;stroke-miterlimit:10;" d="M 240.948875 0.000015 L 240.948875 56.695327 " transform="matrix(1,0,0,-1,-6.152,59.42189)"/>
<path style=" stroke:none;fill-rule:nonzero;fill:rgb(0%,0%,0%);fill-opacity:1;" d="M 264.636719 59.421875 C 264.636719 58.597656 263.96875 57.925781 263.144531 57.925781 C 262.316406 57.925781 261.648438 58.597656 261.648438 59.421875 C 261.648438 60.246094 262.316406 60.917969 263.144531 60.917969 C 263.96875 60.917969 264.636719 60.246094 264.636719 59.421875 Z M 264.636719 59.421875 "/>
<g clip-path="url(#clip14)" clip-rule="nonzero">
<path style="fill:none;stroke-width:0.3985;stroke-linecap:butt;stroke-linejoin:miter;stroke:rgb(0%,0%,0%);stroke-opacity:1;stroke-miterlimit:10;" d="M 270.788719 0.000015 C 270.788719 0.824234 270.12075 1.496109 269.296531 1.496109 C 268.468406 1.496109 267.800437 0.824234 267.800437 0.000015 C 267.800437 -0.824204 268.468406 -1.496079 269.296531 -1.496079 C 270.12075 -1.496079 270.788719 -0.824204 270.788719 0.000015 Z M 270.788719 0.000015 " transform="matrix(1,0,0,-1,-6.152,59.42189)"/>
</g>
<path style="fill-rule:nonzero;fill:rgb(0%,0%,0%);fill-opacity:1;stroke-width:0.3985;stroke-linecap:butt;stroke-linejoin:miter;stroke:rgb(0%,0%,0%);stroke-opacity:1;stroke-miterlimit:10;" d="M 270.788719 14.17189 C 270.788719 15.000015 270.12075 15.667984 269.296531 15.667984 C 268.468406 15.667984 267.800437 15.000015 267.800437 14.17189 C 267.800437 13.347671 268.468406 12.679702 269.296531 12.679702 C 270.12075 12.679702 270.788719 13.347671 270.788719 14.17189 Z M 270.788719 14.17189 " transform="matrix(1,0,0,-1,-6.152,59.42189)"/>
<path style="fill-rule:nonzero;fill:rgb(0%,0%,0%);fill-opacity:1;stroke-width:0.3985;stroke-linecap:butt;stroke-linejoin:miter;stroke:rgb(0%,0%,0%);stroke-opacity:1;stroke-miterlimit:10;" d="M 270.788719 28.347671 C 270.788719 29.17189 270.12075 29.839859 269.296531 29.839859 C 268.468406 29.839859 267.800437 29.17189 267.800437 28.347671 C 267.800437 27.519546 268.468406 26.851577 269.296531 26.851577 C 270.12075 26.851577 270.788719 27.519546 270.788719 28.347671 Z M 270.788719 28.347671 " transform="matrix(1,0,0,-1,-6.152,59.42189)"/>
<path style="fill:none;stroke-width:0.79701;stroke-linecap:butt;stroke-linejoin:miter;stroke:rgb(0%,0%,0%);stroke-opacity:1;stroke-miterlimit:10;" d="M 269.296531 0.000015 L 269.296531 28.347671 " transform="matrix(1,0,0,-1,-6.152,59.42189)"/>
<path style=" stroke:none;fill-rule:nonzero;fill:rgb(0%,0%,0%);fill-opacity:1;" d="M 250.464844 59.421875 C 250.464844 58.597656 249.792969 57.925781 248.96875 57.925781 C 248.144531 57.925781 247.476562 58.597656 247.476562 59.421875 C 247.476562 60.246094 248.144531 60.917969 248.96875 60.917969 C 249.792969 60.917969 250.464844 60.246094 250.464844 59.421875 Z M 250.464844 59.421875 "/>
<g clip-path="url(#clip15)" clip-rule="nonzero">
<path style="fill:none;stroke-width:0.3985;stroke-linecap:butt;stroke-linejoin:miter;stroke:rgb(0%,0%,0%);stroke-opacity:1;stroke-miterlimit:10;" d="M 256.616844 0.000015 C 256.616844 0.824234 255.944969 1.496109 255.12075 1.496109 C 254.296531 1.496109 253.628563 0.824234 253.628563 0.000015 C 253.628563 -0.824204 254.296531 -1.496079 255.12075 -1.496079 C 255.944969 -1.496079 256.616844 -0.824204 256.616844 0.000015 Z M 256.616844 0.000015 " transform="matrix(1,0,0,-1,-6.152,59.42189)"/>
</g>
<path style="fill:none;stroke-width:0.3985;stroke-linecap:butt;stroke-linejoin:miter;stroke:rgb(0%,0%,0%);stroke-opacity:1;stroke-dasharray:2.98883,2.98883;stroke-miterlimit:10;" d="M 290.554344 0.000015 L 333.073875 0.000015 " transform="matrix(1,0,0,-1,-6.152,59.42189)"/>
<path style=" stroke:none;fill-rule:nonzero;fill:rgb(0%,0%,0%);fill-opacity:1;" d="M 292.984375 59.421875 C 292.984375 58.597656 292.316406 57.925781 291.488281 57.925781 C 290.664062 57.925781 289.996094 58.597656 289.996094 59.421875 C 289.996094 60.246094 290.664062 60.917969 291.488281 60.917969 C 292.316406 60.917969 292.984375 60.246094 292.984375 59.421875 Z M 292.984375 59.421875 "/>
<g clip-path="url(#clip16)" clip-rule="nonzero">
<path style="fill:none;stroke-width:0.3985;stroke-linecap:butt;stroke-linejoin:miter;stroke:rgb(0%,0%,0%);stroke-opacity:1;stroke-miterlimit:10;" d="M 299.136375 0.000015 C 299.136375 0.824234 298.468406 1.496109 297.640281 1.496109 C 296.816062 1.496109 296.148094 0.824234 296.148094 0.000015 C 296.148094 -0.824204 296.816062 -1.496079 297.640281 -1.496079 C 298.468406 -1.496079 299.136375 -0.824204 299.136375 0.000015 Z M 299.136375 0.000015 " transform="matrix(1,0,0,-1,-6.152,59.42189)"/>
</g>
<path style="fill-rule:nonzero;fill:rgb(0%,0%,0%);fill-opacity:1;stroke-width:0.3985;stroke-linecap:butt;stroke-linejoin:miter;stroke:rgb(0%,0%,0%);stroke-opacity:1;stroke-miterlimit:10;" d="M 299.136375 14.17189 C 299.136375 15.000015 298.468406 15.667984 297.640281 15.667984 C 296.816062 15.667984 296.148094 15.000015 296.148094 14.17189 C 296.148094 13.347671 296.816062 12.679702 297.640281 12.679702 C 298.468406 12.679702 299.136375 13.347671 299.136375 14.17189 Z M 299.136375 14.17189 " transform="matrix(1,0,0,-1,-6.152,59.42189)"/>
<path style="fill-rule:nonzero;fill:rgb(0%,0%,0%);fill-opacity:1;stroke-width:0.3985;stroke-linecap:butt;stroke-linejoin:miter;stroke:rgb(0%,0%,0%);stroke-opacity:1;stroke-miterlimit:10;" d="M 299.136375 28.347671 C 299.136375 29.17189 298.468406 29.839859 297.640281 29.839859 C 296.816062 29.839859 296.148094 29.17189 296.148094 28.347671 C 296.148094 27.519546 296.816062 26.851577 297.640281 26.851577 C 298.468406 26.851577 299.136375 27.519546 299.136375 28.347671 Z M 299.136375 28.347671 " transform="matrix(1,0,0,-1,-6.152,59.42189)"/>
<path style="fill-rule:nonzero;fill:rgb(0%,0%,0%);fill-opacity:1;stroke-width:0.3985;stroke-linecap:butt;stroke-linejoin:miter;stroke:rgb(0%,0%,0%);stroke-opacity:1;stroke-miterlimit:10;" d="M 299.136375 42.519546 C 299.136375 43.343765 298.468406 44.01564 297.640281 44.01564 C 296.816062 44.01564 296.148094 43.343765 296.148094 42.519546 C 296.148094 41.695327 296.816062 41.027359 297.640281 41.027359 C 298.468406 41.027359 299.136375 41.695327 299.136375 42.519546 Z M 299.136375 42.519546 " transform="matrix(1,0,0,-1,-6.152,59.42189)"/>
<path style="fill-rule:nonzero;fill:rgb(0%,0%,0%);fill-opacity:1;stroke-width:0.3985;stroke-linecap:butt;stroke-linejoin:miter;stroke:rgb(0%,0%,0%);stroke-opacity:1;stroke-miterlimit:10;" d="M 299.136375 56.695327 C 299.136375 57.519546 298.468406 58.187515 297.640281 58.187515 C 296.816062 58.187515 296.148094 57.519546 296.148094 56.695327 C 296.148094 55.867202 296.816062 55.199234 297.640281 55.199234 C 298.468406 55.199234 299.136375 55.867202 299.136375 56.695327 Z M 299.136375 56.695327 " transform="matrix(1,0,0,-1,-6.152,59.42189)"/>
<path style="fill:none;stroke-width:0.79701;stroke-linecap:butt;stroke-linejoin:miter;stroke:rgb(0%,0%,0%);stroke-opacity:1;stroke-miterlimit:10;" d="M 297.640281 0.000015 L 297.640281 56.695327 " transform="matrix(1,0,0,-1,-6.152,59.42189)"/>
<path style=" stroke:none;fill-rule:nonzero;fill:rgb(0%,0%,0%);fill-opacity:1;" d="M 321.332031 59.421875 C 321.332031 58.597656 320.660156 57.925781 319.835938 57.925781 C 319.011719 57.925781 318.34375 58.597656 318.34375 59.421875 C 318.34375 60.246094 319.011719 60.917969 319.835938 60.917969 C 320.660156 60.917969 321.332031 60.246094 321.332031 59.421875 Z M 321.332031 59.421875 "/>
<g clip-path="url(#clip17)" clip-rule="nonzero">
<path style="fill:none;stroke-width:0.3985;stroke-linecap:butt;stroke-linejoin:miter;stroke:rgb(0%,0%,0%);stroke-opacity:1;stroke-miterlimit:10;" d="M 327.484031 0.000015 C 327.484031 0.824234 326.812156 1.496109 325.987937 1.496109 C 325.163719 1.496109 324.49575 0.824234 324.49575 0.000015 C 324.49575 -0.824204 325.163719 -1.496079 325.987937 -1.496079 C 326.812156 -1.496079 327.484031 -0.824204 327.484031 0.000015 Z M 327.484031 0.000015 " transform="matrix(1,0,0,-1,-6.152,59.42189)"/>
</g>
<path style="fill-rule:nonzero;fill:rgb(0%,0%,0%);fill-opacity:1;stroke-width:0.3985;stroke-linecap:butt;stroke-linejoin:miter;stroke:rgb(0%,0%,0%);stroke-opacity:1;stroke-miterlimit:10;" d="M 327.484031 14.17189 C 327.484031 15.000015 326.812156 15.667984 325.987937 15.667984 C 325.163719 15.667984 324.49575 15.000015 324.49575 14.17189 C 324.49575 13.347671 325.163719 12.679702 325.987937 12.679702 C 326.812156 12.679702 327.484031 13.347671 327.484031 14.17189 Z M 327.484031 14.17189 " transform="matrix(1,0,0,-1,-6.152,59.42189)"/>
<path style="fill:none;stroke-width:0.79701;stroke-linecap:butt;stroke-linejoin:miter;stroke:rgb(0%,0%,0%);stroke-opacity:1;stroke-miterlimit:10;" d="M 325.987937 0.000015 L 325.987937 14.17189 " transform="matrix(1,0,0,-1,-6.152,59.42189)"/>
<path style=" stroke:none;fill-rule:nonzero;fill:rgb(0%,0%,0%);fill-opacity:1;" d="M 307.15625 59.421875 C 307.15625 58.597656 306.488281 57.925781 305.664062 57.925781 C 304.835938 57.925781 304.167969 58.597656 304.167969 59.421875 C 304.167969 60.246094 304.835938 60.917969 305.664062 60.917969 C 306.488281 60.917969 307.15625 60.246094 307.15625 59.421875 Z M 307.15625 59.421875 "/>
<g clip-path="url(#clip18)" clip-rule="nonzero">
<path style="fill:none;stroke-width:0.3985;stroke-linecap:butt;stroke-linejoin:miter;stroke:rgb(0%,0%,0%);stroke-opacity:1;stroke-miterlimit:10;" d="M 313.30825 0.000015 C 313.30825 0.824234 312.640281 1.496109 311.816062 1.496109 C 310.987937 1.496109 310.319969 0.824234 310.319969 0.000015 C 310.319969 -0.824204 310.987937 -1.496079 311.816062 -1.496079 C 312.640281 -1.496079 313.30825 -0.824204 313.30825 0.000015 Z M 313.30825 0.000015 " transform="matrix(1,0,0,-1,-6.152,59.42189)"/>
</g>
<path style="fill-rule:nonzero;fill:rgb(0%,0%,0%);fill-opacity:1;stroke-width:0.3985;stroke-linecap:butt;stroke-linejoin:miter;stroke:rgb(0%,0%,0%);stroke-opacity:1;stroke-miterlimit:10;" d="M 313.30825 14.17189 C 313.30825 15.000015 312.640281 15.667984 311.816062 15.667984 C 310.987937 15.667984 310.319969 15.000015 310.319969 14.17189 C 310.319969 13.347671 310.987937 12.679702 311.816062 12.679702 C 312.640281 12.679702 313.30825 13.347671 313.30825 14.17189 Z M 313.30825 14.17189 " transform="matrix(1,0,0,-1,-6.152,59.42189)"/>
<path style="fill:none;stroke-width:0.79701;stroke-linecap:butt;stroke-linejoin:miter;stroke:rgb(0%,0%,0%);stroke-opacity:1;stroke-miterlimit:10;" d="M 311.816062 0.000015 L 311.816062 14.17189 " transform="matrix(1,0,0,-1,-6.152,59.42189)"/>
<path style="fill:none;stroke-width:0.3985;stroke-linecap:butt;stroke-linejoin:miter;stroke:rgb(0%,0%,0%);stroke-opacity:1;stroke-dasharray:2.98883,2.98883;stroke-miterlimit:10;" d="M 347.249656 0.000015 L 389.769187 0.000015 " transform="matrix(1,0,0,-1,-6.152,59.42189)"/>
<path style=" stroke:none;fill-rule:nonzero;fill:rgb(0%,0%,0%);fill-opacity:1;" d="M 349.675781 59.421875 C 349.675781 58.597656 349.007812 57.925781 348.183594 57.925781 C 347.359375 57.925781 346.6875 58.597656 346.6875 59.421875 C 346.6875 60.246094 347.359375 60.917969 348.183594 60.917969 C 349.007812 60.917969 349.675781 60.246094 349.675781 59.421875 Z M 349.675781 59.421875 "/>
<g clip-path="url(#clip19)" clip-rule="nonzero">
<path style="fill:none;stroke-width:0.3985;stroke-linecap:butt;stroke-linejoin:miter;stroke:rgb(0%,0%,0%);stroke-opacity:1;stroke-miterlimit:10;" d="M 355.827781 0.000015 C 355.827781 0.824234 355.159812 1.496109 354.335594 1.496109 C 353.511375 1.496109 352.8395 0.824234 352.8395 0.000015 C 352.8395 -0.824204 353.511375 -1.496079 354.335594 -1.496079 C 355.159812 -1.496079 355.827781 -0.824204 355.827781 0.000015 Z M 355.827781 0.000015 " transform="matrix(1,0,0,-1,-6.152,59.42189)"/>
</g>
<path style="fill-rule:nonzero;fill:rgb(0%,0%,0%);fill-opacity:1;stroke-width:0.3985;stroke-linecap:butt;stroke-linejoin:miter;stroke:rgb(0%,0%,0%);stroke-opacity:1;stroke-miterlimit:10;" d="M 355.827781 14.17189 C 355.827781 15.000015 355.159812 15.667984 354.335594 15.667984 C 353.511375 15.667984 352.8395 15.000015 352.8395 14.17189 C 352.8395 13.347671 353.511375 12.679702 354.335594 12.679702 C 355.159812 12.679702 355.827781 13.347671 355.827781 14.17189 Z M 355.827781 14.17189 " transform="matrix(1,0,0,-1,-6.152,59.42189)"/>
<path style="fill-rule:nonzero;fill:rgb(0%,0%,0%);fill-opacity:1;stroke-width:0.3985;stroke-linecap:butt;stroke-linejoin:miter;stroke:rgb(0%,0%,0%);stroke-opacity:1;stroke-miterlimit:10;" d="M 355.827781 28.347671 C 355.827781 29.17189 355.159812 29.839859 354.335594 29.839859 C 353.511375 29.839859 352.8395 29.17189 352.8395 28.347671 C 352.8395 27.519546 353.511375 26.851577 354.335594 26.851577 C 355.159812 26.851577 355.827781 27.519546 355.827781 28.347671 Z M 355.827781 28.347671 " transform="matrix(1,0,0,-1,-6.152,59.42189)"/>
<path style="fill-rule:nonzero;fill:rgb(0%,0%,0%);fill-opacity:1;stroke-width:0.3985;stroke-linecap:butt;stroke-linejoin:miter;stroke:rgb(0%,0%,0%);stroke-opacity:1;stroke-miterlimit:10;" d="M 355.827781 42.519546 C 355.827781 43.343765 355.159812 44.01564 354.335594 44.01564 C 353.511375 44.01564 352.8395 43.343765 352.8395 42.519546 C 352.8395 41.695327 353.511375 41.027359 354.335594 41.027359 C 355.159812 41.027359 355.827781 41.695327 355.827781 42.519546 Z M 355.827781 42.519546 " transform="matrix(1,0,0,-1,-6.152,59.42189)"/>
<path style="fill-rule:nonzero;fill:rgb(0%,0%,0%);fill-opacity:1;stroke-width:0.3985;stroke-linecap:butt;stroke-linejoin:miter;stroke:rgb(0%,0%,0%);stroke-opacity:1;stroke-miterlimit:10;" d="M 355.827781 56.695327 C 355.827781 57.519546 355.159812 58.187515 354.335594 58.187515 C 353.511375 58.187515 352.8395 57.519546 352.8395 56.695327 C 352.8395 55.867202 353.511375 55.199234 354.335594 55.199234 C 355.159812 55.199234 355.827781 55.867202 355.827781 56.695327 Z M 355.827781 56.695327 " transform="matrix(1,0,0,-1,-6.152,59.42189)"/>
<path style="fill:none;stroke-width:0.79701;stroke-linecap:butt;stroke-linejoin:miter;stroke:rgb(0%,0%,0%);stroke-opacity:1;stroke-miterlimit:10;" d="M 354.335594 0.000015 L 354.335594 56.695327 " transform="matrix(1,0,0,-1,-6.152,59.42189)"/>
<path style=" stroke:none;fill-rule:nonzero;fill:rgb(0%,0%,0%);fill-opacity:1;" d="M 378.023438 59.421875 C 378.023438 58.597656 377.355469 57.925781 376.53125 57.925781 C 375.703125 57.925781 375.035156 58.597656 375.035156 59.421875 C 375.035156 60.246094 375.703125 60.917969 376.53125 60.917969 C 377.355469 60.917969 378.023438 60.246094 378.023438 59.421875 Z M 378.023438 59.421875 "/>
<g clip-path="url(#clip20)" clip-rule="nonzero">
<path style="fill:none;stroke-width:0.3985;stroke-linecap:butt;stroke-linejoin:miter;stroke:rgb(0%,0%,0%);stroke-opacity:1;stroke-miterlimit:10;" d="M 384.175437 0.000015 C 384.175437 0.824234 383.507469 1.496109 382.68325 1.496109 C 381.855125 1.496109 381.187156 0.824234 381.187156 0.000015 C 381.187156 -0.824204 381.855125 -1.496079 382.68325 -1.496079 C 383.507469 -1.496079 384.175437 -0.824204 384.175437 0.000015 Z M 384.175437 0.000015 " transform="matrix(1,0,0,-1,-6.152,59.42189)"/>
</g>
<path style=" stroke:none;fill-rule:nonzero;fill:rgb(0%,0%,0%);fill-opacity:1;" d="M 363.851562 59.421875 C 363.851562 58.597656 363.183594 57.925781 362.355469 57.925781 C 361.53125 57.925781 360.863281 58.597656 360.863281 59.421875 C 360.863281 60.246094 361.53125 60.917969 362.355469 60.917969 C 363.183594 60.917969 363.851562 60.246094 363.851562 59.421875 Z M 363.851562 59.421875 "/>
<g clip-path="url(#clip21)" clip-rule="nonzero">
<path style="fill:none;stroke-width:0.3985;stroke-linecap:butt;stroke-linejoin:miter;stroke:rgb(0%,0%,0%);stroke-opacity:1;stroke-miterlimit:10;" d="M 370.003562 0.000015 C 370.003562 0.824234 369.335594 1.496109 368.507469 1.496109 C 367.68325 1.496109 367.015281 0.824234 367.015281 0.000015 C 367.015281 -0.824204 367.68325 -1.496079 368.507469 -1.496079 C 369.335594 -1.496079 370.003562 -0.824204 370.003562 0.000015 Z M 370.003562 0.000015 " transform="matrix(1,0,0,-1,-6.152,59.42189)"/>
</g>
<path style="fill-rule:nonzero;fill:rgb(0%,0%,0%);fill-opacity:1;stroke-width:0.3985;stroke-linecap:butt;stroke-linejoin:miter;stroke:rgb(0%,0%,0%);stroke-opacity:1;stroke-miterlimit:10;" d="M 370.003562 14.17189 C 370.003562 15.000015 369.335594 15.667984 368.507469 15.667984 C 367.68325 15.667984 367.015281 15.000015 367.015281 14.17189 C 367.015281 13.347671 367.68325 12.679702 368.507469 12.679702 C 369.335594 12.679702 370.003562 13.347671 370.003562 14.17189 Z M 370.003562 14.17189 " transform="matrix(1,0,0,-1,-6.152,59.42189)"/>
<path style="fill:none;stroke-width:0.79701;stroke-linecap:butt;stroke-linejoin:miter;stroke:rgb(0%,0%,0%);stroke-opacity:1;stroke-miterlimit:10;" d="M 368.507469 0.000015 L 368.507469 14.17189 " transform="matrix(1,0,0,-1,-6.152,59.42189)"/>
</g>
</svg>
