<?xml version="1.0" encoding="UTF-8"?>
<svg xmlns="http://www.w3.org/2000/svg" xmlns:xlink="http://www.w3.org/1999/xlink" width="191.12pt" height="76.35494pt" viewBox="0 0 191.12 76.35494" version="1.1">
<defs>
<clipPath id="clip1">
  <path d="M 4 66 L 19 66 L 19 76.355469 L 4 76.355469 Z M 4 66 "/>
</clipPath>
<clipPath id="clip2">
  <path d="M 47 66 L 62 66 L 62 76.355469 L 47 76.355469 Z M 47 66 "/>
</clipPath>
<clipPath id="clip3">
  <path d="M 89 66 L 104 66 L 104 76.355469 L 89 76.355469 Z M 89 66 "/>
</clipPath>
<clipPath id="clip4">
  <path d="M 132 66 L 147 66 L 147 76.355469 L 132 76.355469 Z M 132 66 "/>
</clipPath>
<clipPath id="clip5">
  <path d="M 182 31 L 191.121094 31 L 191.121094 45 L 182 45 Z M 182 31 "/>
</clipPath>
</defs>
<g id="surface1">
<path style=" stroke:none;fill-rule:nonzero;fill:rgb(0%,0%,0%);fill-opacity:1;" d="M 13.257812 73.59375 C 13.257812 72.769531 12.589844 72.101562 11.761719 72.101562 C 10.9375 72.101562 10.269531 72.769531 10.269531 73.59375 C 10.269531 74.421875 10.9375 75.089844 11.761719 75.089844 C 12.589844 75.089844 13.257812 74.421875 13.257812 73.59375 Z M 13.257812 73.59375 "/>
<g clip-path="url(#clip1)" clip-rule="nonzero">
<path style="fill:none;stroke-width:0.3985;stroke-linecap:butt;stroke-linejoin:miter;stroke:rgb(0%,0%,0%);stroke-opacity:1;stroke-miterlimit:10;" d="M 1.494813 0.00114 C 1.494813 0.825359 0.826844 1.493327 -0.00128125 1.493327 C -0.8255 1.493327 -1.493469 0.825359 -1.493469 0.00114 C -1.493469 -0.826985 -0.8255 -1.494954 -0.00128125 -1.494954 C 0.826844 -1.494954 1.494813 -0.826985 1.494813 0.00114 Z M 1.494813 0.00114 " transform="matrix(1,0,0,-1,11.763,73.59489)"/>
</g>
<path style="fill-rule:nonzero;fill:rgb(0%,0%,0%);fill-opacity:1;stroke-width:0.3985;stroke-linecap:butt;stroke-linejoin:miter;stroke:rgb(0%,0%,0%);stroke-opacity:1;stroke-miterlimit:10;" d="M 1.494813 14.173015 C 1.494813 14.997234 0.826844 15.669109 -0.00128125 15.669109 C -0.8255 15.669109 -1.493469 14.997234 -1.493469 14.173015 C -1.493469 13.348796 -0.8255 12.680827 -0.00128125 12.680827 C 0.826844 12.680827 1.494813 13.348796 1.494813 14.173015 Z M 1.494813 14.173015 " transform="matrix(1,0,0,-1,11.763,73.59489)"/>
<path style="fill-rule:nonzero;fill:rgb(0%,0%,0%);fill-opacity:1;stroke-width:0.3985;stroke-linecap:butt;stroke-linejoin:miter;stroke:rgb(0%,0%,0%);stroke-opacity:1;stroke-miterlimit:10;" d="M 1.494813 28.34489 C 1.494813 29.173015 0.826844 29.840984 -0.00128125 29.840984 C -0.8255 29.840984 -1.493469 29.173015 -1.493469 28.34489 C -1.493469 27.520671 -0.8255 26.852702 -0.00128125 26.852702 C 0.826844 26.852702 1.494813 27.520671 1.494813 28.34489 Z M 1.494813 28.34489 " transform="matrix(1,0,0,-1,11.763,73.59489)"/>
<path style="fill-rule:nonzero;fill:rgb(0%,0%,0%);fill-opacity:1;stroke-width:0.3985;stroke-linecap:butt;stroke-linejoin:miter;stroke:rgb(0%,0%,0%);stroke-opacity:1;stroke-miterlimit:10;" d="M 15.666688 14.173015 C 15.666688 14.997234 14.998719 15.669109 14.1745 15.669109 C 13.346375 15.669109 12.678406 14.997234 12.678406 14.173015 C 12.678406 13.348796 13.346375 12.680827 14.1745 12.680827 C 14.998719 12.680827 15.666688 13.348796 15.666688 14.173015 Z M 15.666688 14.173015 " transform="matrix(1,0,0,-1,11.763,73.59489)"/>
<path style="fill:none;stroke-width:0.79701;stroke-linecap:butt;stroke-linejoin:miter;stroke:rgb(0%,0%,0%);stroke-opacity:1;stroke-miterlimit:10;" d="M -0.00128125 14.173015 L 14.1745 14.173015 " transform="matrix(1,0,0,-1,11.763,73.59489)"/>
<path style="fill:none;stroke-width:0.79701;stroke-linecap:butt;stroke-linejoin:miter;stroke:rgb(0%,0%,0%);stroke-opacity:1;stroke-miterlimit:10;" d="M -0.00128125 0.00114 L -0.00128125 28.34489 " transform="matrix(1,0,0,-1,11.763,73.59489)"/>
<path style="fill:none;stroke-width:0.79701;stroke-linecap:butt;stroke-linejoin:miter;stroke:rgb(0%,0%,0%);stroke-opacity:1;stroke-dasharray:2.98883,2.98883;stroke-miterlimit:10;" d="M -10.630187 0.00114 L 10.631531 0.00114 " transform="matrix(1,0,0,-1,11.763,73.59489)"/>
<path style=" stroke:none;fill-rule:nonzero;fill:rgb(0%,0%,0%);fill-opacity:1;" d="M 55.777344 73.59375 C 55.777344 72.769531 55.109375 72.101562 54.28125 72.101562 C 53.457031 72.101562 52.789062 72.769531 52.789062 73.59375 C 52.789062 74.421875 53.457031 75.089844 54.28125 75.089844 C 55.109375 75.089844 55.777344 74.421875 55.777344 73.59375 Z M 55.777344 73.59375 "/>
<g clip-path="url(#clip2)" clip-rule="nonzero">
<path style="fill:none;stroke-width:0.3985;stroke-linecap:butt;stroke-linejoin:miter;stroke:rgb(0%,0%,0%);stroke-opacity:1;stroke-miterlimit:10;" d="M 44.014344 0.00114 C 44.014344 0.825359 43.346375 1.493327 42.51825 1.493327 C 41.694031 1.493327 41.026063 0.825359 41.026063 0.00114 C 41.026063 -0.826985 41.694031 -1.494954 42.51825 -1.494954 C 43.346375 -1.494954 44.014344 -0.826985 44.014344 0.00114 Z M 44.014344 0.00114 " transform="matrix(1,0,0,-1,11.763,73.59489)"/>
</g>
<path style="fill-rule:nonzero;fill:rgb(0%,0%,0%);fill-opacity:1;stroke-width:0.3985;stroke-linecap:butt;stroke-linejoin:miter;stroke:rgb(0%,0%,0%);stroke-opacity:1;stroke-miterlimit:10;" d="M 44.014344 14.173015 C 44.014344 14.997234 43.346375 15.669109 42.51825 15.669109 C 41.694031 15.669109 41.026063 14.997234 41.026063 14.173015 C 41.026063 13.348796 41.694031 12.680827 42.51825 12.680827 C 43.346375 12.680827 44.014344 13.348796 44.014344 14.173015 Z M 44.014344 14.173015 " transform="matrix(1,0,0,-1,11.763,73.59489)"/>
<path style="fill-rule:nonzero;fill:rgb(0%,0%,0%);fill-opacity:1;stroke-width:0.3985;stroke-linecap:butt;stroke-linejoin:miter;stroke:rgb(0%,0%,0%);stroke-opacity:1;stroke-miterlimit:10;" d="M 44.014344 28.34489 C 44.014344 29.173015 43.346375 29.840984 42.51825 29.840984 C 41.694031 29.840984 41.026063 29.173015 41.026063 28.34489 C 41.026063 27.520671 41.694031 26.852702 42.51825 26.852702 C 43.346375 26.852702 44.014344 27.520671 44.014344 28.34489 Z M 44.014344 28.34489 " transform="matrix(1,0,0,-1,11.763,73.59489)"/>
<path style="fill-rule:nonzero;fill:rgb(0%,0%,0%);fill-opacity:1;stroke-width:0.3985;stroke-linecap:butt;stroke-linejoin:miter;stroke:rgb(0%,0%,0%);stroke-opacity:1;stroke-miterlimit:10;" d="M 44.014344 42.520671 C 44.014344 43.34489 43.346375 44.012859 42.51825 44.012859 C 41.694031 44.012859 41.026063 43.34489 41.026063 42.520671 C 41.026063 41.696452 41.694031 41.024577 42.51825 41.024577 C 43.346375 41.024577 44.014344 41.696452 44.014344 42.520671 Z M 44.014344 42.520671 " transform="matrix(1,0,0,-1,11.763,73.59489)"/>
<path style="fill-rule:nonzero;fill:rgb(0%,0%,0%);fill-opacity:1;stroke-width:0.3985;stroke-linecap:butt;stroke-linejoin:miter;stroke:rgb(0%,0%,0%);stroke-opacity:1;stroke-miterlimit:10;" d="M 58.186219 14.173015 C 58.186219 14.997234 57.51825 15.669109 56.694031 15.669109 C 55.869813 15.669109 55.197938 14.997234 55.197938 14.173015 C 55.197938 13.348796 55.869813 12.680827 56.694031 12.680827 C 57.51825 12.680827 58.186219 13.348796 58.186219 14.173015 Z M 58.186219 14.173015 " transform="matrix(1,0,0,-1,11.763,73.59489)"/>
<path style="fill:none;stroke-width:0.79701;stroke-linecap:butt;stroke-linejoin:miter;stroke:rgb(0%,0%,0%);stroke-opacity:1;stroke-miterlimit:10;" d="M 42.51825 14.173015 L 56.694031 14.173015 " transform="matrix(1,0,0,-1,11.763,73.59489)"/>
<path style="fill-rule:nonzero;fill:rgb(0%,0%,0%);fill-opacity:1;stroke-width:0.3985;stroke-linecap:butt;stroke-linejoin:miter;stroke:rgb(0%,0%,0%);stroke-opacity:1;stroke-miterlimit:10;" d="M 58.186219 28.34489 C 58.186219 29.173015 57.51825 29.840984 56.694031 29.840984 C 55.869813 29.840984 55.197938 29.173015 55.197938 28.34489 C 55.197938 27.520671 55.869813 26.852702 56.694031 26.852702 C 57.51825 26.852702 58.186219 27.520671 58.186219 28.34489 Z M 58.186219 28.34489 " transform="matrix(1,0,0,-1,11.763,73.59489)"/>
<path style="fill:none;stroke-width:0.79701;stroke-linecap:butt;stroke-linejoin:miter;stroke:rgb(0%,0%,0%);stroke-opacity:1;stroke-miterlimit:10;" d="M 42.51825 28.34489 L 56.694031 28.34489 " transform="matrix(1,0,0,-1,11.763,73.59489)"/>
<path style="fill:none;stroke-width:0.79701;stroke-linecap:butt;stroke-linejoin:miter;stroke:rgb(0%,0%,0%);stroke-opacity:1;stroke-miterlimit:10;" d="M 42.51825 0.00114 L 42.51825 42.520671 " transform="matrix(1,0,0,-1,11.763,73.59489)"/>
<path style="fill:none;stroke-width:0.79701;stroke-linecap:butt;stroke-linejoin:miter;stroke:rgb(0%,0%,0%);stroke-opacity:1;stroke-dasharray:2.98883,2.98883;stroke-miterlimit:10;" d="M 31.889344 0.00114 L 53.151063 0.00114 " transform="matrix(1,0,0,-1,11.763,73.59489)"/>
<path style=" stroke:none;fill-rule:nonzero;fill:rgb(0%,0%,0%);fill-opacity:1;" d="M 98.296875 73.59375 C 98.296875 72.769531 97.628906 72.101562 96.804688 72.101562 C 95.976562 72.101562 95.308594 72.769531 95.308594 73.59375 C 95.308594 74.421875 95.976562 75.089844 96.804688 75.089844 C 97.628906 75.089844 98.296875 74.421875 98.296875 73.59375 Z M 98.296875 73.59375 "/>
<g clip-path="url(#clip3)" clip-rule="nonzero">
<path style="fill:none;stroke-width:0.3985;stroke-linecap:butt;stroke-linejoin:miter;stroke:rgb(0%,0%,0%);stroke-opacity:1;stroke-miterlimit:10;" d="M 86.533875 0.00114 C 86.533875 0.825359 85.865906 1.493327 85.041687 1.493327 C 84.213562 1.493327 83.545594 0.825359 83.545594 0.00114 C 83.545594 -0.826985 84.213562 -1.494954 85.041687 -1.494954 C 85.865906 -1.494954 86.533875 -0.826985 86.533875 0.00114 Z M 86.533875 0.00114 " transform="matrix(1,0,0,-1,11.763,73.59489)"/>
</g>
<path style="fill-rule:nonzero;fill:rgb(0%,0%,0%);fill-opacity:1;stroke-width:0.3985;stroke-linecap:butt;stroke-linejoin:miter;stroke:rgb(0%,0%,0%);stroke-opacity:1;stroke-miterlimit:10;" d="M 86.533875 14.173015 C 86.533875 14.997234 85.865906 15.669109 85.041687 15.669109 C 84.213562 15.669109 83.545594 14.997234 83.545594 14.173015 C 83.545594 13.348796 84.213562 12.680827 85.041687 12.680827 C 85.865906 12.680827 86.533875 13.348796 86.533875 14.173015 Z M 86.533875 14.173015 " transform="matrix(1,0,0,-1,11.763,73.59489)"/>
<path style="fill-rule:nonzero;fill:rgb(0%,0%,0%);fill-opacity:1;stroke-width:0.3985;stroke-linecap:butt;stroke-linejoin:miter;stroke:rgb(0%,0%,0%);stroke-opacity:1;stroke-miterlimit:10;" d="M 86.533875 28.34489 C 86.533875 29.173015 85.865906 29.840984 85.041687 29.840984 C 84.213562 29.840984 83.545594 29.173015 83.545594 28.34489 C 83.545594 27.520671 84.213562 26.852702 85.041687 26.852702 C 85.865906 26.852702 86.533875 27.520671 86.533875 28.34489 Z M 86.533875 28.34489 " transform="matrix(1,0,0,-1,11.763,73.59489)"/>
<path style="fill-rule:nonzero;fill:rgb(0%,0%,0%);fill-opacity:1;stroke-width:0.3985;stroke-linecap:butt;stroke-linejoin:miter;stroke:rgb(0%,0%,0%);stroke-opacity:1;stroke-miterlimit:10;" d="M 86.533875 42.520671 C 86.533875 43.34489 85.865906 44.012859 85.041687 44.012859 C 84.213562 44.012859 83.545594 43.34489 83.545594 42.520671 C 83.545594 41.696452 84.213562 41.024577 85.041687 41.024577 C 85.865906 41.024577 86.533875 41.696452 86.533875 42.520671 Z M 86.533875 42.520671 " transform="matrix(1,0,0,-1,11.763,73.59489)"/>
<path style="fill-rule:nonzero;fill:rgb(0%,0%,0%);fill-opacity:1;stroke-width:0.3985;stroke-linecap:butt;stroke-linejoin:miter;stroke:rgb(0%,0%,0%);stroke-opacity:1;stroke-miterlimit:10;" d="M 86.533875 56.692546 C 86.533875 57.520671 85.865906 58.18864 85.041687 58.18864 C 84.213562 58.18864 83.545594 57.520671 83.545594 56.692546 C 83.545594 55.868327 84.213562 55.200359 85.041687 55.200359 C 85.865906 55.200359 86.533875 55.868327 86.533875 56.692546 Z M 86.533875 56.692546 " transform="matrix(1,0,0,-1,11.763,73.59489)"/>
<path style="fill-rule:nonzero;fill:rgb(0%,0%,0%);fill-opacity:1;stroke-width:0.3985;stroke-linecap:butt;stroke-linejoin:miter;stroke:rgb(0%,0%,0%);stroke-opacity:1;stroke-miterlimit:10;" d="M 100.709656 14.173015 C 100.709656 14.997234 100.037781 15.669109 99.213562 15.669109 C 98.389344 15.669109 97.717469 14.997234 97.717469 14.173015 C 97.717469 13.348796 98.389344 12.680827 99.213562 12.680827 C 100.037781 12.680827 100.709656 13.348796 100.709656 14.173015 Z M 100.709656 14.173015 " transform="matrix(1,0,0,-1,11.763,73.59489)"/>
<path style="fill:none;stroke-width:0.79701;stroke-linecap:butt;stroke-linejoin:miter;stroke:rgb(0%,0%,0%);stroke-opacity:1;stroke-miterlimit:10;" d="M 85.041687 14.173015 L 99.213562 14.173015 " transform="matrix(1,0,0,-1,11.763,73.59489)"/>
<path style="fill-rule:nonzero;fill:rgb(0%,0%,0%);fill-opacity:1;stroke-width:0.3985;stroke-linecap:butt;stroke-linejoin:miter;stroke:rgb(0%,0%,0%);stroke-opacity:1;stroke-miterlimit:10;" d="M 100.709656 28.34489 C 100.709656 29.173015 100.037781 29.840984 99.213562 29.840984 C 98.389344 29.840984 97.717469 29.173015 97.717469 28.34489 C 97.717469 27.520671 98.389344 26.852702 99.213562 26.852702 C 100.037781 26.852702 100.709656 27.520671 100.709656 28.34489 Z M 100.709656 28.34489 " transform="matrix(1,0,0,-1,11.763,73.59489)"/>
<path style="fill:none;stroke-width:0.79701;stroke-linecap:butt;stroke-linejoin:miter;stroke:rgb(0%,0%,0%);stroke-opacity:1;stroke-miterlimit:10;" d="M 85.041687 28.34489 L 99.213562 28.34489 " transform="matrix(1,0,0,-1,11.763,73.59489)"/>
<path style="fill-rule:nonzero;fill:rgb(0%,0%,0%);fill-opacity:1;stroke-width:0.3985;stroke-linecap:butt;stroke-linejoin:miter;stroke:rgb(0%,0%,0%);stroke-opacity:1;stroke-miterlimit:10;" d="M 100.709656 42.520671 C 100.709656 43.34489 100.037781 44.012859 99.213562 44.012859 C 98.389344 44.012859 97.717469 43.34489 97.717469 42.520671 C 97.717469 41.696452 98.389344 41.024577 99.213562 41.024577 C 100.037781 41.024577 100.709656 41.696452 100.709656 42.520671 Z M 100.709656 42.520671 " transform="matrix(1,0,0,-1,11.763,73.59489)"/>
<path style="fill:none;stroke-width:0.79701;stroke-linecap:butt;stroke-linejoin:miter;stroke:rgb(0%,0%,0%);stroke-opacity:1;stroke-miterlimit:10;" d="M 85.041687 42.520671 L 99.213562 42.520671 " transform="matrix(1,0,0,-1,11.763,73.59489)"/>
<path style="fill:none;stroke-width:0.79701;stroke-linecap:butt;stroke-linejoin:miter;stroke:rgb(0%,0%,0%);stroke-opacity:1;stroke-miterlimit:10;" d="M 85.041687 0.00114 L 85.041687 56.692546 " transform="matrix(1,0,0,-1,11.763,73.59489)"/>
<path style="fill:none;stroke-width:0.79701;stroke-linecap:butt;stroke-linejoin:miter;stroke:rgb(0%,0%,0%);stroke-opacity:1;stroke-dasharray:2.98883,2.98883;stroke-miterlimit:10;" d="M 74.408875 0.00114 L 95.670594 0.00114 " transform="matrix(1,0,0,-1,11.763,73.59489)"/>
<path style=" stroke:none;fill-rule:nonzero;fill:rgb(0%,0%,0%);fill-opacity:1;" d="M 140.816406 73.59375 C 140.816406 72.769531 140.148438 72.101562 139.324219 72.101562 C 138.5 72.101562 137.828125 72.769531 137.828125 73.59375 C 137.828125 74.421875 138.5 75.089844 139.324219 75.089844 C 140.148438 75.089844 140.816406 74.421875 140.816406 73.59375 Z M 140.816406 73.59375 "/>
<g clip-path="url(#clip4)" clip-rule="nonzero">
<path style="fill:none;stroke-width:0.3985;stroke-linecap:butt;stroke-linejoin:miter;stroke:rgb(0%,0%,0%);stroke-opacity:1;stroke-miterlimit:10;" d="M 129.053406 0.00114 C 129.053406 0.825359 128.385437 1.493327 127.561219 1.493327 C 126.737 1.493327 126.065125 0.825359 126.065125 0.00114 C 126.065125 -0.826985 126.737 -1.494954 127.561219 -1.494954 C 128.385437 -1.494954 129.053406 -0.826985 129.053406 0.00114 Z M 129.053406 0.00114 " transform="matrix(1,0,0,-1,11.763,73.59489)"/>
</g>
<path style="fill-rule:nonzero;fill:rgb(0%,0%,0%);fill-opacity:1;stroke-width:0.3985;stroke-linecap:butt;stroke-linejoin:miter;stroke:rgb(0%,0%,0%);stroke-opacity:1;stroke-miterlimit:10;" d="M 129.053406 14.173015 C 129.053406 14.997234 128.385437 15.669109 127.561219 15.669109 C 126.737 15.669109 126.065125 14.997234 126.065125 14.173015 C 126.065125 13.348796 126.737 12.680827 127.561219 12.680827 C 128.385437 12.680827 129.053406 13.348796 129.053406 14.173015 Z M 129.053406 14.173015 " transform="matrix(1,0,0,-1,11.763,73.59489)"/>
<path style="fill-rule:nonzero;fill:rgb(0%,0%,0%);fill-opacity:1;stroke-width:0.3985;stroke-linecap:butt;stroke-linejoin:miter;stroke:rgb(0%,0%,0%);stroke-opacity:1;stroke-miterlimit:10;" d="M 129.053406 28.34489 C 129.053406 29.173015 128.385437 29.840984 127.561219 29.840984 C 126.737 29.840984 126.065125 29.173015 126.065125 28.34489 C 126.065125 27.520671 126.737 26.852702 127.561219 26.852702 C 128.385437 26.852702 129.053406 27.520671 129.053406 28.34489 Z M 129.053406 28.34489 " transform="matrix(1,0,0,-1,11.763,73.59489)"/>
<path style="fill-rule:nonzero;fill:rgb(0%,0%,0%);fill-opacity:1;stroke-width:0.3985;stroke-linecap:butt;stroke-linejoin:miter;stroke:rgb(0%,0%,0%);stroke-opacity:1;stroke-miterlimit:10;" d="M 129.053406 42.520671 C 129.053406 43.34489 128.385437 44.012859 127.561219 44.012859 C 126.737 44.012859 126.065125 43.34489 126.065125 42.520671 C 126.065125 41.696452 126.737 41.024577 127.561219 41.024577 C 128.385437 41.024577 129.053406 41.696452 129.053406 42.520671 Z M 129.053406 42.520671 " transform="matrix(1,0,0,-1,11.763,73.59489)"/>
<path style="fill-rule:nonzero;fill:rgb(0%,0%,0%);fill-opacity:1;stroke-width:0.3985;stroke-linecap:butt;stroke-linejoin:miter;stroke:rgb(0%,0%,0%);stroke-opacity:1;stroke-miterlimit:10;" d="M 129.053406 56.692546 C 129.053406 57.520671 128.385437 58.18864 127.561219 58.18864 C 126.737 58.18864 126.065125 57.520671 126.065125 56.692546 C 126.065125 55.868327 126.737 55.200359 127.561219 55.200359 C 128.385437 55.200359 129.053406 55.868327 129.053406 56.692546 Z M 129.053406 56.692546 " transform="matrix(1,0,0,-1,11.763,73.59489)"/>
<path style="fill-rule:nonzero;fill:rgb(0%,0%,0%);fill-opacity:1;stroke-width:0.3985;stroke-linecap:butt;stroke-linejoin:miter;stroke:rgb(0%,0%,0%);stroke-opacity:1;stroke-miterlimit:10;" d="M 129.053406 70.868327 C 129.053406 71.692546 128.385437 72.360515 127.561219 72.360515 C 126.737 72.360515 126.065125 71.692546 126.065125 70.868327 C 126.065125 70.040202 126.737 69.372234 127.561219 69.372234 C 128.385437 69.372234 129.053406 70.040202 129.053406 70.868327 Z M 129.053406 70.868327 " transform="matrix(1,0,0,-1,11.763,73.59489)"/>
<path style="fill-rule:nonzero;fill:rgb(0%,0%,0%);fill-opacity:1;stroke-width:0.3985;stroke-linecap:butt;stroke-linejoin:miter;stroke:rgb(0%,0%,0%);stroke-opacity:1;stroke-miterlimit:10;" d="M 143.229187 14.173015 C 143.229187 14.997234 142.561219 15.669109 141.733094 15.669109 C 140.908875 15.669109 140.240906 14.997234 140.240906 14.173015 C 140.240906 13.348796 140.908875 12.680827 141.733094 12.680827 C 142.561219 12.680827 143.229187 13.348796 143.229187 14.173015 Z M 143.229187 14.173015 " transform="matrix(1,0,0,-1,11.763,73.59489)"/>
<path style="fill:none;stroke-width:0.79701;stroke-linecap:butt;stroke-linejoin:miter;stroke:rgb(0%,0%,0%);stroke-opacity:1;stroke-miterlimit:10;" d="M 127.561219 14.173015 L 141.733094 14.173015 " transform="matrix(1,0,0,-1,11.763,73.59489)"/>
<path style="fill-rule:nonzero;fill:rgb(0%,0%,0%);fill-opacity:1;stroke-width:0.3985;stroke-linecap:butt;stroke-linejoin:miter;stroke:rgb(0%,0%,0%);stroke-opacity:1;stroke-miterlimit:10;" d="M 143.229187 28.34489 C 143.229187 29.173015 142.561219 29.840984 141.733094 29.840984 C 140.908875 29.840984 140.240906 29.173015 140.240906 28.34489 C 140.240906 27.520671 140.908875 26.852702 141.733094 26.852702 C 142.561219 26.852702 143.229187 27.520671 143.229187 28.34489 Z M 143.229187 28.34489 " transform="matrix(1,0,0,-1,11.763,73.59489)"/>
<path style="fill:none;stroke-width:0.79701;stroke-linecap:butt;stroke-linejoin:miter;stroke:rgb(0%,0%,0%);stroke-opacity:1;stroke-miterlimit:10;" d="M 127.561219 28.34489 L 141.733094 28.34489 " transform="matrix(1,0,0,-1,11.763,73.59489)"/>
<path style="fill-rule:nonzero;fill:rgb(0%,0%,0%);fill-opacity:1;stroke-width:0.3985;stroke-linecap:butt;stroke-linejoin:miter;stroke:rgb(0%,0%,0%);stroke-opacity:1;stroke-miterlimit:10;" d="M 143.229187 42.520671 C 143.229187 43.34489 142.561219 44.012859 141.733094 44.012859 C 140.908875 44.012859 140.240906 43.34489 140.240906 42.520671 C 140.240906 41.696452 140.908875 41.024577 141.733094 41.024577 C 142.561219 41.024577 143.229187 41.696452 143.229187 42.520671 Z M 143.229187 42.520671 " transform="matrix(1,0,0,-1,11.763,73.59489)"/>
<path style="fill:none;stroke-width:0.79701;stroke-linecap:butt;stroke-linejoin:miter;stroke:rgb(0%,0%,0%);stroke-opacity:1;stroke-miterlimit:10;" d="M 127.561219 42.520671 L 141.733094 42.520671 " transform="matrix(1,0,0,-1,11.763,73.59489)"/>
<path style="fill-rule:nonzero;fill:rgb(0%,0%,0%);fill-opacity:1;stroke-width:0.3985;stroke-linecap:butt;stroke-linejoin:miter;stroke:rgb(0%,0%,0%);stroke-opacity:1;stroke-miterlimit:10;" d="M 143.229187 56.692546 C 143.229187 57.520671 142.561219 58.18864 141.733094 58.18864 C 140.908875 58.18864 140.240906 57.520671 140.240906 56.692546 C 140.240906 55.868327 140.908875 55.200359 141.733094 55.200359 C 142.561219 55.200359 143.229187 55.868327 143.229187 56.692546 Z M 143.229187 56.692546 " transform="matrix(1,0,0,-1,11.763,73.59489)"/>
<path style="fill:none;stroke-width:0.79701;stroke-linecap:butt;stroke-linejoin:miter;stroke:rgb(0%,0%,0%);stroke-opacity:1;stroke-miterlimit:10;" d="M 127.561219 56.692546 L 141.733094 56.692546 " transform="matrix(1,0,0,-1,11.763,73.59489)"/>
<path style="fill:none;stroke-width:0.79701;stroke-linecap:butt;stroke-linejoin:miter;stroke:rgb(0%,0%,0%);stroke-opacity:1;stroke-miterlimit:10;" d="M 127.561219 0.00114 L 127.561219 70.868327 " transform="matrix(1,0,0,-1,11.763,73.59489)"/>
<path style="fill:none;stroke-width:0.79701;stroke-linecap:butt;stroke-linejoin:miter;stroke:rgb(0%,0%,0%);stroke-opacity:1;stroke-dasharray:2.98883,2.98883;stroke-miterlimit:10;" d="M 116.932312 0.00114 L 138.190125 0.00114 " transform="matrix(1,0,0,-1,11.763,73.59489)"/>
<path style="fill-rule:nonzero;fill:rgb(0%,0%,0%);fill-opacity:1;stroke-width:0.3985;stroke-linecap:butt;stroke-linejoin:miter;stroke:rgb(0%,0%,0%);stroke-opacity:1;stroke-miterlimit:10;" d="M 163.990906 35.434734 C 163.990906 35.985515 163.545594 36.430827 162.994812 36.430827 C 162.444031 36.430827 161.998719 35.985515 161.998719 35.434734 C 161.998719 34.883952 162.444031 34.43864 162.994812 34.43864 C 163.545594 34.43864 163.990906 34.883952 163.990906 35.434734 Z M 163.990906 35.434734 " transform="matrix(1,0,0,-1,11.763,73.59489)"/>
<path style="fill-rule:nonzero;fill:rgb(0%,0%,0%);fill-opacity:1;stroke-width:0.3985;stroke-linecap:butt;stroke-linejoin:miter;stroke:rgb(0%,0%,0%);stroke-opacity:1;stroke-miterlimit:10;" d="M 171.076844 35.434734 C 171.076844 35.985515 170.631531 36.430827 170.08075 36.430827 C 169.529969 36.430827 169.084656 35.985515 169.084656 35.434734 C 169.084656 34.883952 169.529969 34.43864 170.08075 34.43864 C 170.631531 34.43864 171.076844 34.883952 171.076844 35.434734 Z M 171.076844 35.434734 " transform="matrix(1,0,0,-1,11.763,73.59489)"/>
<path style=" stroke:none;fill-rule:nonzero;fill:rgb(0%,0%,0%);fill-opacity:1;" d="M 189.925781 38.160156 C 189.925781 37.609375 189.480469 37.164062 188.929688 37.164062 C 188.378906 37.164062 187.933594 37.609375 187.933594 38.160156 C 187.933594 38.710938 188.378906 39.15625 188.929688 39.15625 C 189.480469 39.15625 189.925781 38.710938 189.925781 38.160156 Z M 189.925781 38.160156 "/>
<g clip-path="url(#clip5)" clip-rule="nonzero">
<path style="fill:none;stroke-width:0.3985;stroke-linecap:butt;stroke-linejoin:miter;stroke:rgb(0%,0%,0%);stroke-opacity:1;stroke-miterlimit:10;" d="M 178.162781 35.434734 C 178.162781 35.985515 177.717469 36.430827 177.166687 36.430827 C 176.615906 36.430827 176.170594 35.985515 176.170594 35.434734 C 176.170594 34.883952 176.615906 34.43864 177.166687 34.43864 C 177.717469 34.43864 178.162781 34.883952 178.162781 35.434734 Z M 178.162781 35.434734 " transform="matrix(1,0,0,-1,11.763,73.59489)"/>
</g>
</g>
</svg>
