<?xml version="1.0" encoding="UTF-8"?>
<svg xmlns="http://www.w3.org/2000/svg" xmlns:xlink="http://www.w3.org/1999/xlink" width="368.24pt" height="118.56935pt" viewBox="0 0 368.24 118.56935" version="1.1">
<defs>
<clipPath id="clip1">
  <path d="M 4 108 L 19 108 L 19 118.570312 L 4 118.570312 Z M 4 108 "/>
</clipPath>
<clipPath id="clip2">
  <path d="M 47 108 L 62 108 L 62 118.570312 L 47 118.570312 Z M 47 108 "/>
</clipPath>
<clipPath id="clip3">
  <path d="M 89 108 L 104 108 L 104 118.570312 L 89 118.570312 Z M 89 108 "/>
</clipPath>
<clipPath id="clip4">
  <path d="M 132 108 L 147 108 L 147 118.570312 L 132 118.570312 Z M 132 108 "/>
</clipPath>
<clipPath id="clip5">
  <path d="M 174 108 L 189 108 L 189 118.570312 L 174 118.570312 Z M 174 108 "/>
</clipPath>
<clipPath id="clip6">
  <path d="M 217 108 L 232 108 L 232 118.570312 L 217 118.570312 Z M 217 108 "/>
</clipPath>
<clipPath id="clip7">
  <path d="M 259 108 L 275 108 L 275 118.570312 L 259 118.570312 Z M 259 108 "/>
</clipPath>
<clipPath id="clip8">
  <path d="M 302 108 L 317 108 L 317 118.570312 L 302 118.570312 Z M 302 108 "/>
</clipPath>
<clipPath id="clip9">
  <path d="M 359 74 L 368.238281 74 L 368.238281 88 L 359 88 Z M 359 74 "/>
</clipPath>
</defs>
<g id="surface1">
<path style=" stroke:none;fill-rule:nonzero;fill:rgb(0%,0%,0%);fill-opacity:1;" d="M 13.257812 116.113281 C 13.257812 115.289062 12.589844 114.621094 11.761719 114.621094 C 10.9375 114.621094 10.269531 115.289062 10.269531 116.113281 C 10.269531 116.9375 10.9375 117.609375 11.761719 117.609375 C 12.589844 117.609375 13.257812 116.9375 13.257812 116.113281 Z M 13.257812 116.113281 "/>
<g clip-path="url(#clip1)" clip-rule="nonzero">
<path style="fill:none;stroke-width:0.3985;stroke-linecap:butt;stroke-linejoin:miter;stroke:rgb(0%,0%,0%);stroke-opacity:1;stroke-miterlimit:10;" d="M 1.494813 0.00060875 C 1.494813 0.824827 0.826844 1.492796 -0.00128125 1.492796 C -0.8255 1.492796 -1.493469 0.824827 -1.493469 0.00060875 C -1.493469 -0.82361 -0.8255 -1.495485 -0.00128125 -1.495485 C 0.826844 -1.495485 1.494813 -0.82361 1.494813 0.00060875 Z M 1.494813 0.00060875 " transform="matrix(1,0,0,-1,11.763,116.11389)"/>
</g>
<path style="fill-rule:nonzero;fill:rgb(0%,0%,0%);fill-opacity:1;stroke-width:0.3985;stroke-linecap:butt;stroke-linejoin:miter;stroke:rgb(0%,0%,0%);stroke-opacity:1;stroke-miterlimit:10;" d="M 1.494813 14.172484 C 1.494813 15.000609 0.826844 15.668577 -0.00128125 15.668577 C -0.8255 15.668577 -1.493469 15.000609 -1.493469 14.172484 C -1.493469 13.348265 -0.8255 12.680296 -0.00128125 12.680296 C 0.826844 12.680296 1.494813 13.348265 1.494813 14.172484 Z M 1.494813 14.172484 " transform="matrix(1,0,0,-1,11.763,116.11389)"/>
<path style="fill-rule:nonzero;fill:rgb(0%,0%,0%);fill-opacity:1;stroke-width:0.3985;stroke-linecap:butt;stroke-linejoin:miter;stroke:rgb(0%,0%,0%);stroke-opacity:1;stroke-miterlimit:10;" d="M 15.666688 14.172484 C 15.666688 15.000609 14.998719 15.668577 14.1745 15.668577 C 13.346375 15.668577 12.678406 15.000609 12.678406 14.172484 C 12.678406 13.348265 13.346375 12.680296 14.1745 12.680296 C 14.998719 12.680296 15.666688 13.348265 15.666688 14.172484 Z M 15.666688 14.172484 " transform="matrix(1,0,0,-1,11.763,116.11389)"/>
<path style="fill-rule:nonzero;fill:rgb(0%,0%,0%);fill-opacity:1;stroke-width:0.3985;stroke-linecap:butt;stroke-linejoin:miter;stroke:rgb(0%,0%,0%);stroke-opacity:1;stroke-miterlimit:10;" d="M 29.842469 14.172484 C 29.842469 15.000609 29.170594 15.668577 28.346375 15.668577 C 27.522156 15.668577 26.854188 15.000609 26.854188 14.172484 C 26.854188 13.348265 27.522156 12.680296 28.346375 12.680296 C 29.170594 12.680296 29.842469 13.348265 29.842469 14.172484 Z M 29.842469 14.172484 " transform="matrix(1,0,0,-1,11.763,116.11389)"/>
<path style="fill:none;stroke-width:0.79701;stroke-linecap:butt;stroke-linejoin:miter;stroke:rgb(0%,0%,0%);stroke-opacity:1;stroke-miterlimit:10;" d="M -0.00128125 14.172484 L 28.346375 14.172484 " transform="matrix(1,0,0,-1,11.763,116.11389)"/>
<path style="fill:none;stroke-width:0.79701;stroke-linecap:butt;stroke-linejoin:miter;stroke:rgb(0%,0%,0%);stroke-opacity:1;stroke-miterlimit:10;" d="M -0.00128125 0.00060875 L -0.00128125 14.172484 " transform="matrix(1,0,0,-1,11.763,116.11389)"/>
<path style="fill:none;stroke-width:0.79701;stroke-linecap:butt;stroke-linejoin:miter;stroke:rgb(0%,0%,0%);stroke-opacity:1;stroke-dasharray:2.98883,2.98883;stroke-miterlimit:10;" d="M -10.630187 0.00060875 L 10.631531 0.00060875 " transform="matrix(1,0,0,-1,11.763,116.11389)"/>
<path style=" stroke:none;fill-rule:nonzero;fill:rgb(0%,0%,0%);fill-opacity:1;" d="M 55.777344 116.113281 C 55.777344 115.289062 55.109375 114.621094 54.28125 114.621094 C 53.457031 114.621094 52.789062 115.289062 52.789062 116.113281 C 52.789062 116.9375 53.457031 117.609375 54.28125 117.609375 C 55.109375 117.609375 55.777344 116.9375 55.777344 116.113281 Z M 55.777344 116.113281 "/>
<g clip-path="url(#clip2)" clip-rule="nonzero">
<path style="fill:none;stroke-width:0.3985;stroke-linecap:butt;stroke-linejoin:miter;stroke:rgb(0%,0%,0%);stroke-opacity:1;stroke-miterlimit:10;" d="M 44.014344 0.00060875 C 44.014344 0.824827 43.346375 1.492796 42.51825 1.492796 C 41.694031 1.492796 41.026063 0.824827 41.026063 0.00060875 C 41.026063 -0.82361 41.694031 -1.495485 42.51825 -1.495485 C 43.346375 -1.495485 44.014344 -0.82361 44.014344 0.00060875 Z M 44.014344 0.00060875 " transform="matrix(1,0,0,-1,11.763,116.11389)"/>
</g>
<path style="fill-rule:nonzero;fill:rgb(0%,0%,0%);fill-opacity:1;stroke-width:0.3985;stroke-linecap:butt;stroke-linejoin:miter;stroke:rgb(0%,0%,0%);stroke-opacity:1;stroke-miterlimit:10;" d="M 44.014344 14.172484 C 44.014344 15.000609 43.346375 15.668577 42.51825 15.668577 C 41.694031 15.668577 41.026063 15.000609 41.026063 14.172484 C 41.026063 13.348265 41.694031 12.680296 42.51825 12.680296 C 43.346375 12.680296 44.014344 13.348265 44.014344 14.172484 Z M 44.014344 14.172484 " transform="matrix(1,0,0,-1,11.763,116.11389)"/>
<path style="fill-rule:nonzero;fill:rgb(0%,0%,0%);fill-opacity:1;stroke-width:0.3985;stroke-linecap:butt;stroke-linejoin:miter;stroke:rgb(0%,0%,0%);stroke-opacity:1;stroke-miterlimit:10;" d="M 44.014344 28.348265 C 44.014344 29.172484 43.346375 29.840452 42.51825 29.840452 C 41.694031 29.840452 41.026063 29.172484 41.026063 28.348265 C 41.026063 27.52014 41.694031 26.852171 42.51825 26.852171 C 43.346375 26.852171 44.014344 27.52014 44.014344 28.348265 Z M 44.014344 28.348265 " transform="matrix(1,0,0,-1,11.763,116.11389)"/>
<path style="fill-rule:nonzero;fill:rgb(0%,0%,0%);fill-opacity:1;stroke-width:0.3985;stroke-linecap:butt;stroke-linejoin:miter;stroke:rgb(0%,0%,0%);stroke-opacity:1;stroke-miterlimit:10;" d="M 58.186219 14.172484 C 58.186219 15.000609 57.51825 15.668577 56.694031 15.668577 C 55.869813 15.668577 55.197938 15.000609 55.197938 14.172484 C 55.197938 13.348265 55.869813 12.680296 56.694031 12.680296 C 57.51825 12.680296 58.186219 13.348265 58.186219 14.172484 Z M 58.186219 14.172484 " transform="matrix(1,0,0,-1,11.763,116.11389)"/>
<path style="fill-rule:nonzero;fill:rgb(0%,0%,0%);fill-opacity:1;stroke-width:0.3985;stroke-linecap:butt;stroke-linejoin:miter;stroke:rgb(0%,0%,0%);stroke-opacity:1;stroke-miterlimit:10;" d="M 72.362 14.172484 C 72.362 15.000609 71.694031 15.668577 70.865906 15.668577 C 70.041687 15.668577 69.373719 15.000609 69.373719 14.172484 C 69.373719 13.348265 70.041687 12.680296 70.865906 12.680296 C 71.694031 12.680296 72.362 13.348265 72.362 14.172484 Z M 72.362 14.172484 " transform="matrix(1,0,0,-1,11.763,116.11389)"/>
<path style="fill:none;stroke-width:0.79701;stroke-linecap:butt;stroke-linejoin:miter;stroke:rgb(0%,0%,0%);stroke-opacity:1;stroke-miterlimit:10;" d="M 42.51825 14.172484 L 70.865906 14.172484 " transform="matrix(1,0,0,-1,11.763,116.11389)"/>
<path style="fill-rule:nonzero;fill:rgb(0%,0%,0%);fill-opacity:1;stroke-width:0.3985;stroke-linecap:butt;stroke-linejoin:miter;stroke:rgb(0%,0%,0%);stroke-opacity:1;stroke-miterlimit:10;" d="M 58.186219 28.348265 C 58.186219 29.172484 57.51825 29.840452 56.694031 29.840452 C 55.869813 29.840452 55.197938 29.172484 55.197938 28.348265 C 55.197938 27.52014 55.869813 26.852171 56.694031 26.852171 C 57.51825 26.852171 58.186219 27.52014 58.186219 28.348265 Z M 58.186219 28.348265 " transform="matrix(1,0,0,-1,11.763,116.11389)"/>
<path style="fill-rule:nonzero;fill:rgb(0%,0%,0%);fill-opacity:1;stroke-width:0.3985;stroke-linecap:butt;stroke-linejoin:miter;stroke:rgb(0%,0%,0%);stroke-opacity:1;stroke-miterlimit:10;" d="M 72.362 28.348265 C 72.362 29.172484 71.694031 29.840452 70.865906 29.840452 C 70.041687 29.840452 69.373719 29.172484 69.373719 28.348265 C 69.373719 27.52014 70.041687 26.852171 70.865906 26.852171 C 71.694031 26.852171 72.362 27.52014 72.362 28.348265 Z M 72.362 28.348265 " transform="matrix(1,0,0,-1,11.763,116.11389)"/>
<path style="fill:none;stroke-width:0.79701;stroke-linecap:butt;stroke-linejoin:miter;stroke:rgb(0%,0%,0%);stroke-opacity:1;stroke-miterlimit:10;" d="M 42.51825 28.348265 L 70.865906 28.348265 " transform="matrix(1,0,0,-1,11.763,116.11389)"/>
<path style="fill:none;stroke-width:0.79701;stroke-linecap:butt;stroke-linejoin:miter;stroke:rgb(0%,0%,0%);stroke-opacity:1;stroke-miterlimit:10;" d="M 42.51825 0.00060875 L 42.51825 28.348265 " transform="matrix(1,0,0,-1,11.763,116.11389)"/>
<path style="fill:none;stroke-width:0.79701;stroke-linecap:butt;stroke-linejoin:miter;stroke:rgb(0%,0%,0%);stroke-opacity:1;stroke-dasharray:2.98883,2.98883;stroke-miterlimit:10;" d="M 31.889344 0.00060875 L 53.151063 0.00060875 " transform="matrix(1,0,0,-1,11.763,116.11389)"/>
<path style=" stroke:none;fill-rule:nonzero;fill:rgb(0%,0%,0%);fill-opacity:1;" d="M 98.296875 116.113281 C 98.296875 115.289062 97.628906 114.621094 96.804688 114.621094 C 95.976562 114.621094 95.308594 115.289062 95.308594 116.113281 C 95.308594 116.9375 95.976562 117.609375 96.804688 117.609375 C 97.628906 117.609375 98.296875 116.9375 98.296875 116.113281 Z M 98.296875 116.113281 "/>
<g clip-path="url(#clip3)" clip-rule="nonzero">
<path style="fill:none;stroke-width:0.3985;stroke-linecap:butt;stroke-linejoin:miter;stroke:rgb(0%,0%,0%);stroke-opacity:1;stroke-miterlimit:10;" d="M 86.533875 0.00060875 C 86.533875 0.824827 85.865906 1.492796 85.041687 1.492796 C 84.213562 1.492796 83.545594 0.824827 83.545594 0.00060875 C 83.545594 -0.82361 84.213562 -1.495485 85.041687 -1.495485 C 85.865906 -1.495485 86.533875 -0.82361 86.533875 0.00060875 Z M 86.533875 0.00060875 " transform="matrix(1,0,0,-1,11.763,116.11389)"/>
</g>
<path style="fill-rule:nonzero;fill:rgb(0%,0%,0%);fill-opacity:1;stroke-width:0.3985;stroke-linecap:butt;stroke-linejoin:miter;stroke:rgb(0%,0%,0%);stroke-opacity:1;stroke-miterlimit:10;" d="M 86.533875 14.172484 C 86.533875 15.000609 85.865906 15.668577 85.041687 15.668577 C 84.213562 15.668577 83.545594 15.000609 83.545594 14.172484 C 83.545594 13.348265 84.213562 12.680296 85.041687 12.680296 C 85.865906 12.680296 86.533875 13.348265 86.533875 14.172484 Z M 86.533875 14.172484 " transform="matrix(1,0,0,-1,11.763,116.11389)"/>
<path style="fill-rule:nonzero;fill:rgb(0%,0%,0%);fill-opacity:1;stroke-width:0.3985;stroke-linecap:butt;stroke-linejoin:miter;stroke:rgb(0%,0%,0%);stroke-opacity:1;stroke-miterlimit:10;" d="M 86.533875 28.348265 C 86.533875 29.172484 85.865906 29.840452 85.041687 29.840452 C 84.213562 29.840452 83.545594 29.172484 83.545594 28.348265 C 83.545594 27.52014 84.213562 26.852171 85.041687 26.852171 C 85.865906 26.852171 86.533875 27.52014 86.533875 28.348265 Z M 86.533875 28.348265 " transform="matrix(1,0,0,-1,11.763,116.11389)"/>
<path style="fill-rule:nonzero;fill:rgb(0%,0%,0%);fill-opacity:1;stroke-width:0.3985;stroke-linecap:butt;stroke-linejoin:miter;stroke:rgb(0%,0%,0%);stroke-opacity:1;stroke-miterlimit:10;" d="M 86.533875 42.52014 C 86.533875 43.344359 85.865906 44.016234 85.041687 44.016234 C 84.213562 44.016234 83.545594 43.344359 83.545594 42.52014 C 83.545594 41.695921 84.213562 41.024046 85.041687 41.024046 C 85.865906 41.024046 86.533875 41.695921 86.533875 42.52014 Z M 86.533875 42.52014 " transform="matrix(1,0,0,-1,11.763,116.11389)"/>
<path style="fill-rule:nonzero;fill:rgb(0%,0%,0%);fill-opacity:1;stroke-width:0.3985;stroke-linecap:butt;stroke-linejoin:miter;stroke:rgb(0%,0%,0%);stroke-opacity:1;stroke-miterlimit:10;" d="M 100.709656 14.172484 C 100.709656 15.000609 100.037781 15.668577 99.213562 15.668577 C 98.389344 15.668577 97.717469 15.000609 97.717469 14.172484 C 97.717469 13.348265 98.389344 12.680296 99.213562 12.680296 C 100.037781 12.680296 100.709656 13.348265 100.709656 14.172484 Z M 100.709656 14.172484 " transform="matrix(1,0,0,-1,11.763,116.11389)"/>
<path style="fill-rule:nonzero;fill:rgb(0%,0%,0%);fill-opacity:1;stroke-width:0.3985;stroke-linecap:butt;stroke-linejoin:miter;stroke:rgb(0%,0%,0%);stroke-opacity:1;stroke-miterlimit:10;" d="M 114.881531 14.172484 C 114.881531 15.000609 114.213562 15.668577 113.385437 15.668577 C 112.561219 15.668577 111.89325 15.000609 111.89325 14.172484 C 111.89325 13.348265 112.561219 12.680296 113.385437 12.680296 C 114.213562 12.680296 114.881531 13.348265 114.881531 14.172484 Z M 114.881531 14.172484 " transform="matrix(1,0,0,-1,11.763,116.11389)"/>
<path style="fill:none;stroke-width:0.79701;stroke-linecap:butt;stroke-linejoin:miter;stroke:rgb(0%,0%,0%);stroke-opacity:1;stroke-miterlimit:10;" d="M 85.041687 14.172484 L 113.385437 14.172484 " transform="matrix(1,0,0,-1,11.763,116.11389)"/>
<path style="fill-rule:nonzero;fill:rgb(0%,0%,0%);fill-opacity:1;stroke-width:0.3985;stroke-linecap:butt;stroke-linejoin:miter;stroke:rgb(0%,0%,0%);stroke-opacity:1;stroke-miterlimit:10;" d="M 100.709656 28.348265 C 100.709656 29.172484 100.037781 29.840452 99.213562 29.840452 C 98.389344 29.840452 97.717469 29.172484 97.717469 28.348265 C 97.717469 27.52014 98.389344 26.852171 99.213562 26.852171 C 100.037781 26.852171 100.709656 27.52014 100.709656 28.348265 Z M 100.709656 28.348265 " transform="matrix(1,0,0,-1,11.763,116.11389)"/>
<path style="fill-rule:nonzero;fill:rgb(0%,0%,0%);fill-opacity:1;stroke-width:0.3985;stroke-linecap:butt;stroke-linejoin:miter;stroke:rgb(0%,0%,0%);stroke-opacity:1;stroke-miterlimit:10;" d="M 114.881531 28.348265 C 114.881531 29.172484 114.213562 29.840452 113.385437 29.840452 C 112.561219 29.840452 111.89325 29.172484 111.89325 28.348265 C 111.89325 27.52014 112.561219 26.852171 113.385437 26.852171 C 114.213562 26.852171 114.881531 27.52014 114.881531 28.348265 Z M 114.881531 28.348265 " transform="matrix(1,0,0,-1,11.763,116.11389)"/>
<path style="fill:none;stroke-width:0.79701;stroke-linecap:butt;stroke-linejoin:miter;stroke:rgb(0%,0%,0%);stroke-opacity:1;stroke-miterlimit:10;" d="M 85.041687 28.348265 L 113.385437 28.348265 " transform="matrix(1,0,0,-1,11.763,116.11389)"/>
<path style="fill-rule:nonzero;fill:rgb(0%,0%,0%);fill-opacity:1;stroke-width:0.3985;stroke-linecap:butt;stroke-linejoin:miter;stroke:rgb(0%,0%,0%);stroke-opacity:1;stroke-miterlimit:10;" d="M 100.709656 42.52014 C 100.709656 43.344359 100.037781 44.016234 99.213562 44.016234 C 98.389344 44.016234 97.717469 43.344359 97.717469 42.52014 C 97.717469 41.695921 98.389344 41.024046 99.213562 41.024046 C 100.037781 41.024046 100.709656 41.695921 100.709656 42.52014 Z M 100.709656 42.52014 " transform="matrix(1,0,0,-1,11.763,116.11389)"/>
<path style="fill-rule:nonzero;fill:rgb(0%,0%,0%);fill-opacity:1;stroke-width:0.3985;stroke-linecap:butt;stroke-linejoin:miter;stroke:rgb(0%,0%,0%);stroke-opacity:1;stroke-miterlimit:10;" d="M 114.881531 42.52014 C 114.881531 43.344359 114.213562 44.016234 113.385437 44.016234 C 112.561219 44.016234 111.89325 43.344359 111.89325 42.52014 C 111.89325 41.695921 112.561219 41.024046 113.385437 41.024046 C 114.213562 41.024046 114.881531 41.695921 114.881531 42.52014 Z M 114.881531 42.52014 " transform="matrix(1,0,0,-1,11.763,116.11389)"/>
<path style="fill:none;stroke-width:0.79701;stroke-linecap:butt;stroke-linejoin:miter;stroke:rgb(0%,0%,0%);stroke-opacity:1;stroke-miterlimit:10;" d="M 85.041687 42.52014 L 113.385437 42.52014 " transform="matrix(1,0,0,-1,11.763,116.11389)"/>
<path style="fill:none;stroke-width:0.79701;stroke-linecap:butt;stroke-linejoin:miter;stroke:rgb(0%,0%,0%);stroke-opacity:1;stroke-miterlimit:10;" d="M 85.041687 0.00060875 L 85.041687 42.52014 " transform="matrix(1,0,0,-1,11.763,116.11389)"/>
<path style="fill:none;stroke-width:0.79701;stroke-linecap:butt;stroke-linejoin:miter;stroke:rgb(0%,0%,0%);stroke-opacity:1;stroke-dasharray:2.98883,2.98883;stroke-miterlimit:10;" d="M 74.408875 0.00060875 L 95.670594 0.00060875 " transform="matrix(1,0,0,-1,11.763,116.11389)"/>
<path style=" stroke:none;fill-rule:nonzero;fill:rgb(0%,0%,0%);fill-opacity:1;" d="M 140.816406 116.113281 C 140.816406 115.289062 140.148438 114.621094 139.324219 114.621094 C 138.5 114.621094 137.828125 115.289062 137.828125 116.113281 C 137.828125 116.9375 138.5 117.609375 139.324219 117.609375 C 140.148438 117.609375 140.816406 116.9375 140.816406 116.113281 Z M 140.816406 116.113281 "/>
<g clip-path="url(#clip4)" clip-rule="nonzero">
<path style="fill:none;stroke-width:0.3985;stroke-linecap:butt;stroke-linejoin:miter;stroke:rgb(0%,0%,0%);stroke-opacity:1;stroke-miterlimit:10;" d="M 129.053406 0.00060875 C 129.053406 0.824827 128.385437 1.492796 127.561219 1.492796 C 126.737 1.492796 126.065125 0.824827 126.065125 0.00060875 C 126.065125 -0.82361 126.737 -1.495485 127.561219 -1.495485 C 128.385437 -1.495485 129.053406 -0.82361 129.053406 0.00060875 Z M 129.053406 0.00060875 " transform="matrix(1,0,0,-1,11.763,116.11389)"/>
</g>
<path style="fill-rule:nonzero;fill:rgb(0%,0%,0%);fill-opacity:1;stroke-width:0.3985;stroke-linecap:butt;stroke-linejoin:miter;stroke:rgb(0%,0%,0%);stroke-opacity:1;stroke-miterlimit:10;" d="M 129.053406 14.172484 C 129.053406 15.000609 128.385437 15.668577 127.561219 15.668577 C 126.737 15.668577 126.065125 15.000609 126.065125 14.172484 C 126.065125 13.348265 126.737 12.680296 127.561219 12.680296 C 128.385437 12.680296 129.053406 13.348265 129.053406 14.172484 Z M 129.053406 14.172484 " transform="matrix(1,0,0,-1,11.763,116.11389)"/>
<path style="fill-rule:nonzero;fill:rgb(0%,0%,0%);fill-opacity:1;stroke-width:0.3985;stroke-linecap:butt;stroke-linejoin:miter;stroke:rgb(0%,0%,0%);stroke-opacity:1;stroke-miterlimit:10;" d="M 129.053406 28.348265 C 129.053406 29.172484 128.385437 29.840452 127.561219 29.840452 C 126.737 29.840452 126.065125 29.172484 126.065125 28.348265 C 126.065125 27.52014 126.737 26.852171 127.561219 26.852171 C 128.385437 26.852171 129.053406 27.52014 129.053406 28.348265 Z M 129.053406 28.348265 " transform="matrix(1,0,0,-1,11.763,116.11389)"/>
<path style="fill-rule:nonzero;fill:rgb(0%,0%,0%);fill-opacity:1;stroke-width:0.3985;stroke-linecap:butt;stroke-linejoin:miter;stroke:rgb(0%,0%,0%);stroke-opacity:1;stroke-miterlimit:10;" d="M 129.053406 42.52014 C 129.053406 43.344359 128.385437 44.016234 127.561219 44.016234 C 126.737 44.016234 126.065125 43.344359 126.065125 42.52014 C 126.065125 41.695921 126.737 41.024046 127.561219 41.024046 C 128.385437 41.024046 129.053406 41.695921 129.053406 42.52014 Z M 129.053406 42.52014 " transform="matrix(1,0,0,-1,11.763,116.11389)"/>
<path style="fill-rule:nonzero;fill:rgb(0%,0%,0%);fill-opacity:1;stroke-width:0.3985;stroke-linecap:butt;stroke-linejoin:miter;stroke:rgb(0%,0%,0%);stroke-opacity:1;stroke-miterlimit:10;" d="M 129.053406 56.692015 C 129.053406 57.52014 128.385437 58.188109 127.561219 58.188109 C 126.737 58.188109 126.065125 57.52014 126.065125 56.692015 C 126.065125 55.867796 126.737 55.199827 127.561219 55.199827 C 128.385437 55.199827 129.053406 55.867796 129.053406 56.692015 Z M 129.053406 56.692015 " transform="matrix(1,0,0,-1,11.763,116.11389)"/>
<path style="fill-rule:nonzero;fill:rgb(0%,0%,0%);fill-opacity:1;stroke-width:0.3985;stroke-linecap:butt;stroke-linejoin:miter;stroke:rgb(0%,0%,0%);stroke-opacity:1;stroke-miterlimit:10;" d="M 143.229187 14.172484 C 143.229187 15.000609 142.561219 15.668577 141.733094 15.668577 C 140.908875 15.668577 140.240906 15.000609 140.240906 14.172484 C 140.240906 13.348265 140.908875 12.680296 141.733094 12.680296 C 142.561219 12.680296 143.229187 13.348265 143.229187 14.172484 Z M 143.229187 14.172484 " transform="matrix(1,0,0,-1,11.763,116.11389)"/>
<path style="fill-rule:nonzero;fill:rgb(0%,0%,0%);fill-opacity:1;stroke-width:0.3985;stroke-linecap:butt;stroke-linejoin:miter;stroke:rgb(0%,0%,0%);stroke-opacity:1;stroke-miterlimit:10;" d="M 157.401062 14.172484 C 157.401062 15.000609 156.733094 15.668577 155.908875 15.668577 C 155.08075 15.668577 154.412781 15.000609 154.412781 14.172484 C 154.412781 13.348265 155.08075 12.680296 155.908875 12.680296 C 156.733094 12.680296 157.401062 13.348265 157.401062 14.172484 Z M 157.401062 14.172484 " transform="matrix(1,0,0,-1,11.763,116.11389)"/>
<path style="fill:none;stroke-width:0.79701;stroke-linecap:butt;stroke-linejoin:miter;stroke:rgb(0%,0%,0%);stroke-opacity:1;stroke-miterlimit:10;" d="M 127.561219 14.172484 L 155.908875 14.172484 " transform="matrix(1,0,0,-1,11.763,116.11389)"/>
<path style="fill-rule:nonzero;fill:rgb(0%,0%,0%);fill-opacity:1;stroke-width:0.3985;stroke-linecap:butt;stroke-linejoin:miter;stroke:rgb(0%,0%,0%);stroke-opacity:1;stroke-miterlimit:10;" d="M 143.229187 28.348265 C 143.229187 29.172484 142.561219 29.840452 141.733094 29.840452 C 140.908875 29.840452 140.240906 29.172484 140.240906 28.348265 C 140.240906 27.52014 140.908875 26.852171 141.733094 26.852171 C 142.561219 26.852171 143.229187 27.52014 143.229187 28.348265 Z M 143.229187 28.348265 " transform="matrix(1,0,0,-1,11.763,116.11389)"/>
<path style="fill-rule:nonzero;fill:rgb(0%,0%,0%);fill-opacity:1;stroke-width:0.3985;stroke-linecap:butt;stroke-linejoin:miter;stroke:rgb(0%,0%,0%);stroke-opacity:1;stroke-miterlimit:10;" d="M 157.401062 28.348265 C 157.401062 29.172484 156.733094 29.840452 155.908875 29.840452 C 155.08075 29.840452 154.412781 29.172484 154.412781 28.348265 C 154.412781 27.52014 155.08075 26.852171 155.908875 26.852171 C 156.733094 26.852171 157.401062 27.52014 157.401062 28.348265 Z M 157.401062 28.348265 " transform="matrix(1,0,0,-1,11.763,116.11389)"/>
<path style="fill:none;stroke-width:0.79701;stroke-linecap:butt;stroke-linejoin:miter;stroke:rgb(0%,0%,0%);stroke-opacity:1;stroke-miterlimit:10;" d="M 127.561219 28.348265 L 155.908875 28.348265 " transform="matrix(1,0,0,-1,11.763,116.11389)"/>
<path style="fill-rule:nonzero;fill:rgb(0%,0%,0%);fill-opacity:1;stroke-width:0.3985;stroke-linecap:butt;stroke-linejoin:miter;stroke:rgb(0%,0%,0%);stroke-opacity:1;stroke-miterlimit:10;" d="M 143.229187 42.52014 C 143.229187 43.344359 142.561219 44.016234 141.733094 44.016234 C 140.908875 44.016234 140.240906 43.344359 140.240906 42.52014 C 140.240906 41.695921 140.908875 41.024046 141.733094 41.024046 C 142.561219 41.024046 143.229187 41.695921 143.229187 42.52014 Z M 143.229187 42.52014 " transform="matrix(1,0,0,-1,11.763,116.11389)"/>
<path style="fill-rule:nonzero;fill:rgb(0%,0%,0%);fill-opacity:1;stroke-width:0.3985;stroke-linecap:butt;stroke-linejoin:miter;stroke:rgb(0%,0%,0%);stroke-opacity:1;stroke-miterlimit:10;" d="M 157.401062 42.52014 C 157.401062 43.344359 156.733094 44.016234 155.908875 44.016234 C 155.08075 44.016234 154.412781 43.344359 154.412781 42.52014 C 154.412781 41.695921 155.08075 41.024046 155.908875 41.024046 C 156.733094 41.024046 157.401062 41.695921 157.401062 42.52014 Z M 157.401062 42.52014 " transform="matrix(1,0,0,-1,11.763,116.11389)"/>
<path style="fill:none;stroke-width:0.79701;stroke-linecap:butt;stroke-linejoin:miter;stroke:rgb(0%,0%,0%);stroke-opacity:1;stroke-miterlimit:10;" d="M 127.561219 42.52014 L 155.908875 42.52014 " transform="matrix(1,0,0,-1,11.763,116.11389)"/>
<path style="fill-rule:nonzero;fill:rgb(0%,0%,0%);fill-opacity:1;stroke-width:0.3985;stroke-linecap:butt;stroke-linejoin:miter;stroke:rgb(0%,0%,0%);stroke-opacity:1;stroke-miterlimit:10;" d="M 143.229187 56.692015 C 143.229187 57.52014 142.561219 58.188109 141.733094 58.188109 C 140.908875 58.188109 140.240906 57.52014 140.240906 56.692015 C 140.240906 55.867796 140.908875 55.199827 141.733094 55.199827 C 142.561219 55.199827 143.229187 55.867796 143.229187 56.692015 Z M 143.229187 56.692015 " transform="matrix(1,0,0,-1,11.763,116.11389)"/>
<path style="fill-rule:nonzero;fill:rgb(0%,0%,0%);fill-opacity:1;stroke-width:0.3985;stroke-linecap:butt;stroke-linejoin:miter;stroke:rgb(0%,0%,0%);stroke-opacity:1;stroke-miterlimit:10;" d="M 157.401062 56.692015 C 157.401062 57.52014 156.733094 58.188109 155.908875 58.188109 C 155.08075 58.188109 154.412781 57.52014 154.412781 56.692015 C 154.412781 55.867796 155.08075 55.199827 155.908875 55.199827 C 156.733094 55.199827 157.401062 55.867796 157.401062 56.692015 Z M 157.401062 56.692015 " transform="matrix(1,0,0,-1,11.763,116.11389)"/>
<path style="fill:none;stroke-width:0.79701;stroke-linecap:butt;stroke-linejoin:miter;stroke:rgb(0%,0%,0%);stroke-opacity:1;stroke-miterlimit:10;" d="M 127.561219 56.692015 L 155.908875 56.692015 " transform="matrix(1,0,0,-1,11.763,116.11389)"/>
<path style="fill:none;stroke-width:0.79701;stroke-linecap:butt;stroke-linejoin:miter;stroke:rgb(0%,0%,0%);stroke-opacity:1;stroke-miterlimit:10;" d="M 127.561219 0.00060875 L 127.561219 56.692015 " transform="matrix(1,0,0,-1,11.763,116.11389)"/>
<path style="fill:none;stroke-width:0.79701;stroke-linecap:butt;stroke-linejoin:miter;stroke:rgb(0%,0%,0%);stroke-opacity:1;stroke-dasharray:2.98883,2.98883;stroke-miterlimit:10;" d="M 116.932312 0.00060875 L 138.190125 0.00060875 " transform="matrix(1,0,0,-1,11.763,116.11389)"/>
<path style=" stroke:none;fill-rule:nonzero;fill:rgb(0%,0%,0%);fill-opacity:1;" d="M 183.339844 116.113281 C 183.339844 115.289062 182.667969 114.621094 181.84375 114.621094 C 181.019531 114.621094 180.347656 115.289062 180.347656 116.113281 C 180.347656 116.9375 181.019531 117.609375 181.84375 117.609375 C 182.667969 117.609375 183.339844 116.9375 183.339844 116.113281 Z M 183.339844 116.113281 "/>
<g clip-path="url(#clip5)" clip-rule="nonzero">
<path style="fill:none;stroke-width:0.3985;stroke-linecap:butt;stroke-linejoin:miter;stroke:rgb(0%,0%,0%);stroke-opacity:1;stroke-miterlimit:10;" d="M 171.576844 0.00060875 C 171.576844 0.824827 170.904969 1.492796 170.08075 1.492796 C 169.256531 1.492796 168.584656 0.824827 168.584656 0.00060875 C 168.584656 -0.82361 169.256531 -1.495485 170.08075 -1.495485 C 170.904969 -1.495485 171.576844 -0.82361 171.576844 0.00060875 Z M 171.576844 0.00060875 " transform="matrix(1,0,0,-1,11.763,116.11389)"/>
</g>
<path style="fill-rule:nonzero;fill:rgb(0%,0%,0%);fill-opacity:1;stroke-width:0.3985;stroke-linecap:butt;stroke-linejoin:miter;stroke:rgb(0%,0%,0%);stroke-opacity:1;stroke-miterlimit:10;" d="M 171.576844 14.172484 C 171.576844 15.000609 170.904969 15.668577 170.08075 15.668577 C 169.256531 15.668577 168.584656 15.000609 168.584656 14.172484 C 168.584656 13.348265 169.256531 12.680296 170.08075 12.680296 C 170.904969 12.680296 171.576844 13.348265 171.576844 14.172484 Z M 171.576844 14.172484 " transform="matrix(1,0,0,-1,11.763,116.11389)"/>
<path style="fill-rule:nonzero;fill:rgb(0%,0%,0%);fill-opacity:1;stroke-width:0.3985;stroke-linecap:butt;stroke-linejoin:miter;stroke:rgb(0%,0%,0%);stroke-opacity:1;stroke-miterlimit:10;" d="M 171.576844 28.348265 C 171.576844 29.172484 170.904969 29.840452 170.08075 29.840452 C 169.256531 29.840452 168.584656 29.172484 168.584656 28.348265 C 168.584656 27.52014 169.256531 26.852171 170.08075 26.852171 C 170.904969 26.852171 171.576844 27.52014 171.576844 28.348265 Z M 171.576844 28.348265 " transform="matrix(1,0,0,-1,11.763,116.11389)"/>
<path style="fill-rule:nonzero;fill:rgb(0%,0%,0%);fill-opacity:1;stroke-width:0.3985;stroke-linecap:butt;stroke-linejoin:miter;stroke:rgb(0%,0%,0%);stroke-opacity:1;stroke-miterlimit:10;" d="M 171.576844 42.52014 C 171.576844 43.344359 170.904969 44.016234 170.08075 44.016234 C 169.256531 44.016234 168.584656 43.344359 168.584656 42.52014 C 168.584656 41.695921 169.256531 41.024046 170.08075 41.024046 C 170.904969 41.024046 171.576844 41.695921 171.576844 42.52014 Z M 171.576844 42.52014 " transform="matrix(1,0,0,-1,11.763,116.11389)"/>
<path style="fill-rule:nonzero;fill:rgb(0%,0%,0%);fill-opacity:1;stroke-width:0.3985;stroke-linecap:butt;stroke-linejoin:miter;stroke:rgb(0%,0%,0%);stroke-opacity:1;stroke-miterlimit:10;" d="M 171.576844 56.692015 C 171.576844 57.52014 170.904969 58.188109 170.08075 58.188109 C 169.256531 58.188109 168.584656 57.52014 168.584656 56.692015 C 168.584656 55.867796 169.256531 55.199827 170.08075 55.199827 C 170.904969 55.199827 171.576844 55.867796 171.576844 56.692015 Z M 171.576844 56.692015 " transform="matrix(1,0,0,-1,11.763,116.11389)"/>
<path style="fill-rule:nonzero;fill:rgb(0%,0%,0%);fill-opacity:1;stroke-width:0.3985;stroke-linecap:butt;stroke-linejoin:miter;stroke:rgb(0%,0%,0%);stroke-opacity:1;stroke-miterlimit:10;" d="M 171.576844 70.867796 C 171.576844 71.692015 170.904969 72.359984 170.08075 72.359984 C 169.256531 72.359984 168.584656 71.692015 168.584656 70.867796 C 168.584656 70.043577 169.256531 69.371702 170.08075 69.371702 C 170.904969 69.371702 171.576844 70.043577 171.576844 70.867796 Z M 171.576844 70.867796 " transform="matrix(1,0,0,-1,11.763,116.11389)"/>
<path style="fill-rule:nonzero;fill:rgb(0%,0%,0%);fill-opacity:1;stroke-width:0.3985;stroke-linecap:butt;stroke-linejoin:miter;stroke:rgb(0%,0%,0%);stroke-opacity:1;stroke-miterlimit:10;" d="M 185.748719 14.172484 C 185.748719 15.000609 185.08075 15.668577 184.252625 15.668577 C 183.428406 15.668577 182.760437 15.000609 182.760437 14.172484 C 182.760437 13.348265 183.428406 12.680296 184.252625 12.680296 C 185.08075 12.680296 185.748719 13.348265 185.748719 14.172484 Z M 185.748719 14.172484 " transform="matrix(1,0,0,-1,11.763,116.11389)"/>
<path style="fill-rule:nonzero;fill:rgb(0%,0%,0%);fill-opacity:1;stroke-width:0.3985;stroke-linecap:butt;stroke-linejoin:miter;stroke:rgb(0%,0%,0%);stroke-opacity:1;stroke-miterlimit:10;" d="M 199.920594 14.172484 C 199.920594 15.000609 199.252625 15.668577 198.428406 15.668577 C 197.604187 15.668577 196.932312 15.000609 196.932312 14.172484 C 196.932312 13.348265 197.604187 12.680296 198.428406 12.680296 C 199.252625 12.680296 199.920594 13.348265 199.920594 14.172484 Z M 199.920594 14.172484 " transform="matrix(1,0,0,-1,11.763,116.11389)"/>
<path style="fill:none;stroke-width:0.79701;stroke-linecap:butt;stroke-linejoin:miter;stroke:rgb(0%,0%,0%);stroke-opacity:1;stroke-miterlimit:10;" d="M 170.08075 14.172484 L 198.428406 14.172484 " transform="matrix(1,0,0,-1,11.763,116.11389)"/>
<path style="fill-rule:nonzero;fill:rgb(0%,0%,0%);fill-opacity:1;stroke-width:0.3985;stroke-linecap:butt;stroke-linejoin:miter;stroke:rgb(0%,0%,0%);stroke-opacity:1;stroke-miterlimit:10;" d="M 185.748719 28.348265 C 185.748719 29.172484 185.08075 29.840452 184.252625 29.840452 C 183.428406 29.840452 182.760437 29.172484 182.760437 28.348265 C 182.760437 27.52014 183.428406 26.852171 184.252625 26.852171 C 185.08075 26.852171 185.748719 27.52014 185.748719 28.348265 Z M 185.748719 28.348265 " transform="matrix(1,0,0,-1,11.763,116.11389)"/>
<path style="fill-rule:nonzero;fill:rgb(0%,0%,0%);fill-opacity:1;stroke-width:0.3985;stroke-linecap:butt;stroke-linejoin:miter;stroke:rgb(0%,0%,0%);stroke-opacity:1;stroke-miterlimit:10;" d="M 199.920594 28.348265 C 199.920594 29.172484 199.252625 29.840452 198.428406 29.840452 C 197.604187 29.840452 196.932312 29.172484 196.932312 28.348265 C 196.932312 27.52014 197.604187 26.852171 198.428406 26.852171 C 199.252625 26.852171 199.920594 27.52014 199.920594 28.348265 Z M 199.920594 28.348265 " transform="matrix(1,0,0,-1,11.763,116.11389)"/>
<path style="fill:none;stroke-width:0.79701;stroke-linecap:butt;stroke-linejoin:miter;stroke:rgb(0%,0%,0%);stroke-opacity:1;stroke-miterlimit:10;" d="M 170.08075 28.348265 L 198.428406 28.348265 " transform="matrix(1,0,0,-1,11.763,116.11389)"/>
<path style="fill-rule:nonzero;fill:rgb(0%,0%,0%);fill-opacity:1;stroke-width:0.3985;stroke-linecap:butt;stroke-linejoin:miter;stroke:rgb(0%,0%,0%);stroke-opacity:1;stroke-miterlimit:10;" d="M 185.748719 42.52014 C 185.748719 43.344359 185.08075 44.016234 184.252625 44.016234 C 183.428406 44.016234 182.760437 43.344359 182.760437 42.52014 C 182.760437 41.695921 183.428406 41.024046 184.252625 41.024046 C 185.08075 41.024046 185.748719 41.695921 185.748719 42.52014 Z M 185.748719 42.52014 " transform="matrix(1,0,0,-1,11.763,116.11389)"/>
<path style="fill-rule:nonzero;fill:rgb(0%,0%,0%);fill-opacity:1;stroke-width:0.3985;stroke-linecap:butt;stroke-linejoin:miter;stroke:rgb(0%,0%,0%);stroke-opacity:1;stroke-miterlimit:10;" d="M 199.920594 42.52014 C 199.920594 43.344359 199.252625 44.016234 198.428406 44.016234 C 197.604187 44.016234 196.932312 43.344359 196.932312 42.52014 C 196.932312 41.695921 197.604187 41.024046 198.428406 41.024046 C 199.252625 41.024046 199.920594 41.695921 199.920594 42.52014 Z M 199.920594 42.52014 " transform="matrix(1,0,0,-1,11.763,116.11389)"/>
<path style="fill:none;stroke-width:0.79701;stroke-linecap:butt;stroke-linejoin:miter;stroke:rgb(0%,0%,0%);stroke-opacity:1;stroke-miterlimit:10;" d="M 170.08075 42.52014 L 198.428406 42.52014 " transform="matrix(1,0,0,-1,11.763,116.11389)"/>
<path style="fill-rule:nonzero;fill:rgb(0%,0%,0%);fill-opacity:1;stroke-width:0.3985;stroke-linecap:butt;stroke-linejoin:miter;stroke:rgb(0%,0%,0%);stroke-opacity:1;stroke-miterlimit:10;" d="M 185.748719 56.692015 C 185.748719 57.52014 185.08075 58.188109 184.252625 58.188109 C 183.428406 58.188109 182.760437 57.52014 182.760437 56.692015 C 182.760437 55.867796 183.428406 55.199827 184.252625 55.199827 C 185.08075 55.199827 185.748719 55.867796 185.748719 56.692015 Z M 185.748719 56.692015 " transform="matrix(1,0,0,-1,11.763,116.11389)"/>
<path style="fill-rule:nonzero;fill:rgb(0%,0%,0%);fill-opacity:1;stroke-width:0.3985;stroke-linecap:butt;stroke-linejoin:miter;stroke:rgb(0%,0%,0%);stroke-opacity:1;stroke-miterlimit:10;" d="M 199.920594 56.692015 C 199.920594 57.52014 199.252625 58.188109 198.428406 58.188109 C 197.604187 58.188109 196.932312 57.52014 196.932312 56.692015 C 196.932312 55.867796 197.604187 55.199827 198.428406 55.199827 C 199.252625 55.199827 199.920594 55.867796 199.920594 56.692015 Z M 199.920594 56.692015 " transform="matrix(1,0,0,-1,11.763,116.11389)"/>
<path style="fill:none;stroke-width:0.79701;stroke-linecap:butt;stroke-linejoin:miter;stroke:rgb(0%,0%,0%);stroke-opacity:1;stroke-miterlimit:10;" d="M 170.08075 56.692015 L 198.428406 56.692015 " transform="matrix(1,0,0,-1,11.763,116.11389)"/>
<path style="fill-rule:nonzero;fill:rgb(0%,0%,0%);fill-opacity:1;stroke-width:0.3985;stroke-linecap:butt;stroke-linejoin:miter;stroke:rgb(0%,0%,0%);stroke-opacity:1;stroke-miterlimit:10;" d="M 185.748719 70.867796 C 185.748719 71.692015 185.08075 72.359984 184.252625 72.359984 C 183.428406 72.359984 182.760437 71.692015 182.760437 70.867796 C 182.760437 70.043577 183.428406 69.371702 184.252625 69.371702 C 185.08075 69.371702 185.748719 70.043577 185.748719 70.867796 Z M 185.748719 70.867796 " transform="matrix(1,0,0,-1,11.763,116.11389)"/>
<path style="fill-rule:nonzero;fill:rgb(0%,0%,0%);fill-opacity:1;stroke-width:0.3985;stroke-linecap:butt;stroke-linejoin:miter;stroke:rgb(0%,0%,0%);stroke-opacity:1;stroke-miterlimit:10;" d="M 199.920594 70.867796 C 199.920594 71.692015 199.252625 72.359984 198.428406 72.359984 C 197.604187 72.359984 196.932312 71.692015 196.932312 70.867796 C 196.932312 70.043577 197.604187 69.371702 198.428406 69.371702 C 199.252625 69.371702 199.920594 70.043577 199.920594 70.867796 Z M 199.920594 70.867796 " transform="matrix(1,0,0,-1,11.763,116.11389)"/>
<path style="fill:none;stroke-width:0.79701;stroke-linecap:butt;stroke-linejoin:miter;stroke:rgb(0%,0%,0%);stroke-opacity:1;stroke-miterlimit:10;" d="M 170.08075 70.867796 L 198.428406 70.867796 " transform="matrix(1,0,0,-1,11.763,116.11389)"/>
<path style="fill:none;stroke-width:0.79701;stroke-linecap:butt;stroke-linejoin:miter;stroke:rgb(0%,0%,0%);stroke-opacity:1;stroke-miterlimit:10;" d="M 170.08075 0.00060875 L 170.08075 70.867796 " transform="matrix(1,0,0,-1,11.763,116.11389)"/>
<path style="fill:none;stroke-width:0.79701;stroke-linecap:butt;stroke-linejoin:miter;stroke:rgb(0%,0%,0%);stroke-opacity:1;stroke-dasharray:2.98883,2.98883;stroke-miterlimit:10;" d="M 159.451844 0.00060875 L 180.709656 0.00060875 " transform="matrix(1,0,0,-1,11.763,116.11389)"/>
<path style=" stroke:none;fill-rule:nonzero;fill:rgb(0%,0%,0%);fill-opacity:1;" d="M 225.859375 116.113281 C 225.859375 115.289062 225.1875 114.621094 224.363281 114.621094 C 223.539062 114.621094 222.871094 115.289062 222.871094 116.113281 C 222.871094 116.9375 223.539062 117.609375 224.363281 117.609375 C 225.1875 117.609375 225.859375 116.9375 225.859375 116.113281 Z M 225.859375 116.113281 "/>
<g clip-path="url(#clip6)" clip-rule="nonzero">
<path style="fill:none;stroke-width:0.3985;stroke-linecap:butt;stroke-linejoin:miter;stroke:rgb(0%,0%,0%);stroke-opacity:1;stroke-miterlimit:10;" d="M 214.096375 0.00060875 C 214.096375 0.824827 213.4245 1.492796 212.600281 1.492796 C 211.776062 1.492796 211.108094 0.824827 211.108094 0.00060875 C 211.108094 -0.82361 211.776062 -1.495485 212.600281 -1.495485 C 213.4245 -1.495485 214.096375 -0.82361 214.096375 0.00060875 Z M 214.096375 0.00060875 " transform="matrix(1,0,0,-1,11.763,116.11389)"/>
</g>
<path style="fill-rule:nonzero;fill:rgb(0%,0%,0%);fill-opacity:1;stroke-width:0.3985;stroke-linecap:butt;stroke-linejoin:miter;stroke:rgb(0%,0%,0%);stroke-opacity:1;stroke-miterlimit:10;" d="M 214.096375 14.172484 C 214.096375 15.000609 213.4245 15.668577 212.600281 15.668577 C 211.776062 15.668577 211.108094 15.000609 211.108094 14.172484 C 211.108094 13.348265 211.776062 12.680296 212.600281 12.680296 C 213.4245 12.680296 214.096375 13.348265 214.096375 14.172484 Z M 214.096375 14.172484 " transform="matrix(1,0,0,-1,11.763,116.11389)"/>
<path style="fill-rule:nonzero;fill:rgb(0%,0%,0%);fill-opacity:1;stroke-width:0.3985;stroke-linecap:butt;stroke-linejoin:miter;stroke:rgb(0%,0%,0%);stroke-opacity:1;stroke-miterlimit:10;" d="M 214.096375 28.348265 C 214.096375 29.172484 213.4245 29.840452 212.600281 29.840452 C 211.776062 29.840452 211.108094 29.172484 211.108094 28.348265 C 211.108094 27.52014 211.776062 26.852171 212.600281 26.852171 C 213.4245 26.852171 214.096375 27.52014 214.096375 28.348265 Z M 214.096375 28.348265 " transform="matrix(1,0,0,-1,11.763,116.11389)"/>
<path style="fill-rule:nonzero;fill:rgb(0%,0%,0%);fill-opacity:1;stroke-width:0.3985;stroke-linecap:butt;stroke-linejoin:miter;stroke:rgb(0%,0%,0%);stroke-opacity:1;stroke-miterlimit:10;" d="M 214.096375 42.52014 C 214.096375 43.344359 213.4245 44.016234 212.600281 44.016234 C 211.776062 44.016234 211.108094 43.344359 211.108094 42.52014 C 211.108094 41.695921 211.776062 41.024046 212.600281 41.024046 C 213.4245 41.024046 214.096375 41.695921 214.096375 42.52014 Z M 214.096375 42.52014 " transform="matrix(1,0,0,-1,11.763,116.11389)"/>
<path style="fill-rule:nonzero;fill:rgb(0%,0%,0%);fill-opacity:1;stroke-width:0.3985;stroke-linecap:butt;stroke-linejoin:miter;stroke:rgb(0%,0%,0%);stroke-opacity:1;stroke-miterlimit:10;" d="M 214.096375 56.692015 C 214.096375 57.52014 213.4245 58.188109 212.600281 58.188109 C 211.776062 58.188109 211.108094 57.52014 211.108094 56.692015 C 211.108094 55.867796 211.776062 55.199827 212.600281 55.199827 C 213.4245 55.199827 214.096375 55.867796 214.096375 56.692015 Z M 214.096375 56.692015 " transform="matrix(1,0,0,-1,11.763,116.11389)"/>
<path style="fill-rule:nonzero;fill:rgb(0%,0%,0%);fill-opacity:1;stroke-width:0.3985;stroke-linecap:butt;stroke-linejoin:miter;stroke:rgb(0%,0%,0%);stroke-opacity:1;stroke-miterlimit:10;" d="M 214.096375 70.867796 C 214.096375 71.692015 213.4245 72.359984 212.600281 72.359984 C 211.776062 72.359984 211.108094 71.692015 211.108094 70.867796 C 211.108094 70.043577 211.776062 69.371702 212.600281 69.371702 C 213.4245 69.371702 214.096375 70.043577 214.096375 70.867796 Z M 214.096375 70.867796 " transform="matrix(1,0,0,-1,11.763,116.11389)"/>
<path style="fill-rule:nonzero;fill:rgb(0%,0%,0%);fill-opacity:1;stroke-width:0.3985;stroke-linecap:butt;stroke-linejoin:miter;stroke:rgb(0%,0%,0%);stroke-opacity:1;stroke-miterlimit:10;" d="M 214.096375 85.039671 C 214.096375 85.86389 213.4245 86.535765 212.600281 86.535765 C 211.776062 86.535765 211.108094 85.86389 211.108094 85.039671 C 211.108094 84.215452 211.776062 83.547484 212.600281 83.547484 C 213.4245 83.547484 214.096375 84.215452 214.096375 85.039671 Z M 214.096375 85.039671 " transform="matrix(1,0,0,-1,11.763,116.11389)"/>
<path style="fill-rule:nonzero;fill:rgb(0%,0%,0%);fill-opacity:1;stroke-width:0.3985;stroke-linecap:butt;stroke-linejoin:miter;stroke:rgb(0%,0%,0%);stroke-opacity:1;stroke-miterlimit:10;" d="M 228.26825 14.172484 C 228.26825 15.000609 227.600281 15.668577 226.776062 15.668577 C 225.947937 15.668577 225.279969 15.000609 225.279969 14.172484 C 225.279969 13.348265 225.947937 12.680296 226.776062 12.680296 C 227.600281 12.680296 228.26825 13.348265 228.26825 14.172484 Z M 228.26825 14.172484 " transform="matrix(1,0,0,-1,11.763,116.11389)"/>
<path style="fill-rule:nonzero;fill:rgb(0%,0%,0%);fill-opacity:1;stroke-width:0.3985;stroke-linecap:butt;stroke-linejoin:miter;stroke:rgb(0%,0%,0%);stroke-opacity:1;stroke-miterlimit:10;" d="M 242.444031 14.172484 C 242.444031 15.000609 241.772156 15.668577 240.947937 15.668577 C 240.123719 15.668577 239.451844 15.000609 239.451844 14.172484 C 239.451844 13.348265 240.123719 12.680296 240.947937 12.680296 C 241.772156 12.680296 242.444031 13.348265 242.444031 14.172484 Z M 242.444031 14.172484 " transform="matrix(1,0,0,-1,11.763,116.11389)"/>
<path style="fill:none;stroke-width:0.79701;stroke-linecap:butt;stroke-linejoin:miter;stroke:rgb(0%,0%,0%);stroke-opacity:1;stroke-miterlimit:10;" d="M 212.600281 14.172484 L 240.947937 14.172484 " transform="matrix(1,0,0,-1,11.763,116.11389)"/>
<path style="fill-rule:nonzero;fill:rgb(0%,0%,0%);fill-opacity:1;stroke-width:0.3985;stroke-linecap:butt;stroke-linejoin:miter;stroke:rgb(0%,0%,0%);stroke-opacity:1;stroke-miterlimit:10;" d="M 228.26825 28.348265 C 228.26825 29.172484 227.600281 29.840452 226.776062 29.840452 C 225.947937 29.840452 225.279969 29.172484 225.279969 28.348265 C 225.279969 27.52014 225.947937 26.852171 226.776062 26.852171 C 227.600281 26.852171 228.26825 27.52014 228.26825 28.348265 Z M 228.26825 28.348265 " transform="matrix(1,0,0,-1,11.763,116.11389)"/>
<path style="fill-rule:nonzero;fill:rgb(0%,0%,0%);fill-opacity:1;stroke-width:0.3985;stroke-linecap:butt;stroke-linejoin:miter;stroke:rgb(0%,0%,0%);stroke-opacity:1;stroke-miterlimit:10;" d="M 242.444031 28.348265 C 242.444031 29.172484 241.772156 29.840452 240.947937 29.840452 C 240.123719 29.840452 239.451844 29.172484 239.451844 28.348265 C 239.451844 27.52014 240.123719 26.852171 240.947937 26.852171 C 241.772156 26.852171 242.444031 27.52014 242.444031 28.348265 Z M 242.444031 28.348265 " transform="matrix(1,0,0,-1,11.763,116.11389)"/>
<path style="fill:none;stroke-width:0.79701;stroke-linecap:butt;stroke-linejoin:miter;stroke:rgb(0%,0%,0%);stroke-opacity:1;stroke-miterlimit:10;" d="M 212.600281 28.348265 L 240.947937 28.348265 " transform="matrix(1,0,0,-1,11.763,116.11389)"/>
<path style="fill-rule:nonzero;fill:rgb(0%,0%,0%);fill-opacity:1;stroke-width:0.3985;stroke-linecap:butt;stroke-linejoin:miter;stroke:rgb(0%,0%,0%);stroke-opacity:1;stroke-miterlimit:10;" d="M 228.26825 42.52014 C 228.26825 43.344359 227.600281 44.016234 226.776062 44.016234 C 225.947937 44.016234 225.279969 43.344359 225.279969 42.52014 C 225.279969 41.695921 225.947937 41.024046 226.776062 41.024046 C 227.600281 41.024046 228.26825 41.695921 228.26825 42.52014 Z M 228.26825 42.52014 " transform="matrix(1,0,0,-1,11.763,116.11389)"/>
<path style="fill-rule:nonzero;fill:rgb(0%,0%,0%);fill-opacity:1;stroke-width:0.3985;stroke-linecap:butt;stroke-linejoin:miter;stroke:rgb(0%,0%,0%);stroke-opacity:1;stroke-miterlimit:10;" d="M 242.444031 42.52014 C 242.444031 43.344359 241.772156 44.016234 240.947937 44.016234 C 240.123719 44.016234 239.451844 43.344359 239.451844 42.52014 C 239.451844 41.695921 240.123719 41.024046 240.947937 41.024046 C 241.772156 41.024046 242.444031 41.695921 242.444031 42.52014 Z M 242.444031 42.52014 " transform="matrix(1,0,0,-1,11.763,116.11389)"/>
<path style="fill:none;stroke-width:0.79701;stroke-linecap:butt;stroke-linejoin:miter;stroke:rgb(0%,0%,0%);stroke-opacity:1;stroke-miterlimit:10;" d="M 212.600281 42.52014 L 240.947937 42.52014 " transform="matrix(1,0,0,-1,11.763,116.11389)"/>
<path style="fill-rule:nonzero;fill:rgb(0%,0%,0%);fill-opacity:1;stroke-width:0.3985;stroke-linecap:butt;stroke-linejoin:miter;stroke:rgb(0%,0%,0%);stroke-opacity:1;stroke-miterlimit:10;" d="M 228.26825 56.692015 C 228.26825 57.52014 227.600281 58.188109 226.776062 58.188109 C 225.947937 58.188109 225.279969 57.52014 225.279969 56.692015 C 225.279969 55.867796 225.947937 55.199827 226.776062 55.199827 C 227.600281 55.199827 228.26825 55.867796 228.26825 56.692015 Z M 228.26825 56.692015 " transform="matrix(1,0,0,-1,11.763,116.11389)"/>
<path style="fill-rule:nonzero;fill:rgb(0%,0%,0%);fill-opacity:1;stroke-width:0.3985;stroke-linecap:butt;stroke-linejoin:miter;stroke:rgb(0%,0%,0%);stroke-opacity:1;stroke-miterlimit:10;" d="M 242.444031 56.692015 C 242.444031 57.52014 241.772156 58.188109 240.947937 58.188109 C 240.123719 58.188109 239.451844 57.52014 239.451844 56.692015 C 239.451844 55.867796 240.123719 55.199827 240.947937 55.199827 C 241.772156 55.199827 242.444031 55.867796 242.444031 56.692015 Z M 242.444031 56.692015 " transform="matrix(1,0,0,-1,11.763,116.11389)"/>
<path style="fill:none;stroke-width:0.79701;stroke-linecap:butt;stroke-linejoin:miter;stroke:rgb(0%,0%,0%);stroke-opacity:1;stroke-miterlimit:10;" d="M 212.600281 56.692015 L 240.947937 56.692015 " transform="matrix(1,0,0,-1,11.763,116.11389)"/>
<path style="fill-rule:nonzero;fill:rgb(0%,0%,0%);fill-opacity:1;stroke-width:0.3985;stroke-linecap:butt;stroke-linejoin:miter;stroke:rgb(0%,0%,0%);stroke-opacity:1;stroke-miterlimit:10;" d="M 228.26825 70.867796 C 228.26825 71.692015 227.600281 72.359984 226.776062 72.359984 C 225.947937 72.359984 225.279969 71.692015 225.279969 70.867796 C 225.279969 70.043577 225.947937 69.371702 226.776062 69.371702 C 227.600281 69.371702 228.26825 70.043577 228.26825 70.867796 Z M 228.26825 70.867796 " transform="matrix(1,0,0,-1,11.763,116.11389)"/>
<path style="fill-rule:nonzero;fill:rgb(0%,0%,0%);fill-opacity:1;stroke-width:0.3985;stroke-linecap:butt;stroke-linejoin:miter;stroke:rgb(0%,0%,0%);stroke-opacity:1;stroke-miterlimit:10;" d="M 242.444031 70.867796 C 242.444031 71.692015 241.772156 72.359984 240.947937 72.359984 C 240.123719 72.359984 239.451844 71.692015 239.451844 70.867796 C 239.451844 70.043577 240.123719 69.371702 240.947937 69.371702 C 241.772156 69.371702 242.444031 70.043577 242.444031 70.867796 Z M 242.444031 70.867796 " transform="matrix(1,0,0,-1,11.763,116.11389)"/>
<path style="fill:none;stroke-width:0.79701;stroke-linecap:butt;stroke-linejoin:miter;stroke:rgb(0%,0%,0%);stroke-opacity:1;stroke-miterlimit:10;" d="M 212.600281 70.867796 L 240.947937 70.867796 " transform="matrix(1,0,0,-1,11.763,116.11389)"/>
<path style="fill-rule:nonzero;fill:rgb(0%,0%,0%);fill-opacity:1;stroke-width:0.3985;stroke-linecap:butt;stroke-linejoin:miter;stroke:rgb(0%,0%,0%);stroke-opacity:1;stroke-miterlimit:10;" d="M 228.26825 85.039671 C 228.26825 85.86389 227.600281 86.535765 226.776062 86.535765 C 225.947937 86.535765 225.279969 85.86389 225.279969 85.039671 C 225.279969 84.215452 225.947937 83.547484 226.776062 83.547484 C 227.600281 83.547484 228.26825 84.215452 228.26825 85.039671 Z M 228.26825 85.039671 " transform="matrix(1,0,0,-1,11.763,116.11389)"/>
<path style="fill-rule:nonzero;fill:rgb(0%,0%,0%);fill-opacity:1;stroke-width:0.3985;stroke-linecap:butt;stroke-linejoin:miter;stroke:rgb(0%,0%,0%);stroke-opacity:1;stroke-miterlimit:10;" d="M 242.444031 85.039671 C 242.444031 85.86389 241.772156 86.535765 240.947937 86.535765 C 240.123719 86.535765 239.451844 85.86389 239.451844 85.039671 C 239.451844 84.215452 240.123719 83.547484 240.947937 83.547484 C 241.772156 83.547484 242.444031 84.215452 242.444031 85.039671 Z M 242.444031 85.039671 " transform="matrix(1,0,0,-1,11.763,116.11389)"/>
<path style="fill:none;stroke-width:0.79701;stroke-linecap:butt;stroke-linejoin:miter;stroke:rgb(0%,0%,0%);stroke-opacity:1;stroke-miterlimit:10;" d="M 212.600281 85.039671 L 240.947937 85.039671 " transform="matrix(1,0,0,-1,11.763,116.11389)"/>
<path style="fill:none;stroke-width:0.79701;stroke-linecap:butt;stroke-linejoin:miter;stroke:rgb(0%,0%,0%);stroke-opacity:1;stroke-miterlimit:10;" d="M 212.600281 0.00060875 L 212.600281 85.039671 " transform="matrix(1,0,0,-1,11.763,116.11389)"/>
<path style="fill:none;stroke-width:0.79701;stroke-linecap:butt;stroke-linejoin:miter;stroke:rgb(0%,0%,0%);stroke-opacity:1;stroke-dasharray:2.98883,2.98883;stroke-miterlimit:10;" d="M 201.971375 0.00060875 L 223.229187 0.00060875 " transform="matrix(1,0,0,-1,11.763,116.11389)"/>
<path style=" stroke:none;fill-rule:nonzero;fill:rgb(0%,0%,0%);fill-opacity:1;" d="M 268.378906 116.113281 C 268.378906 115.289062 267.710938 114.621094 266.882812 114.621094 C 266.058594 114.621094 265.390625 115.289062 265.390625 116.113281 C 265.390625 116.9375 266.058594 117.609375 266.882812 117.609375 C 267.710938 117.609375 268.378906 116.9375 268.378906 116.113281 Z M 268.378906 116.113281 "/>
<g clip-path="url(#clip7)" clip-rule="nonzero">
<path style="fill:none;stroke-width:0.3985;stroke-linecap:butt;stroke-linejoin:miter;stroke:rgb(0%,0%,0%);stroke-opacity:1;stroke-miterlimit:10;" d="M 256.615906 0.00060875 C 256.615906 0.824827 255.947937 1.492796 255.119812 1.492796 C 254.295594 1.492796 253.627625 0.824827 253.627625 0.00060875 C 253.627625 -0.82361 254.295594 -1.495485 255.119812 -1.495485 C 255.947937 -1.495485 256.615906 -0.82361 256.615906 0.00060875 Z M 256.615906 0.00060875 " transform="matrix(1,0,0,-1,11.763,116.11389)"/>
</g>
<path style="fill-rule:nonzero;fill:rgb(0%,0%,0%);fill-opacity:1;stroke-width:0.3985;stroke-linecap:butt;stroke-linejoin:miter;stroke:rgb(0%,0%,0%);stroke-opacity:1;stroke-miterlimit:10;" d="M 256.615906 14.172484 C 256.615906 15.000609 255.947937 15.668577 255.119812 15.668577 C 254.295594 15.668577 253.627625 15.000609 253.627625 14.172484 C 253.627625 13.348265 254.295594 12.680296 255.119812 12.680296 C 255.947937 12.680296 256.615906 13.348265 256.615906 14.172484 Z M 256.615906 14.172484 " transform="matrix(1,0,0,-1,11.763,116.11389)"/>
<path style="fill-rule:nonzero;fill:rgb(0%,0%,0%);fill-opacity:1;stroke-width:0.3985;stroke-linecap:butt;stroke-linejoin:miter;stroke:rgb(0%,0%,0%);stroke-opacity:1;stroke-miterlimit:10;" d="M 256.615906 28.348265 C 256.615906 29.172484 255.947937 29.840452 255.119812 29.840452 C 254.295594 29.840452 253.627625 29.172484 253.627625 28.348265 C 253.627625 27.52014 254.295594 26.852171 255.119812 26.852171 C 255.947937 26.852171 256.615906 27.52014 256.615906 28.348265 Z M 256.615906 28.348265 " transform="matrix(1,0,0,-1,11.763,116.11389)"/>
<path style="fill-rule:nonzero;fill:rgb(0%,0%,0%);fill-opacity:1;stroke-width:0.3985;stroke-linecap:butt;stroke-linejoin:miter;stroke:rgb(0%,0%,0%);stroke-opacity:1;stroke-miterlimit:10;" d="M 256.615906 42.52014 C 256.615906 43.344359 255.947937 44.016234 255.119812 44.016234 C 254.295594 44.016234 253.627625 43.344359 253.627625 42.52014 C 253.627625 41.695921 254.295594 41.024046 255.119812 41.024046 C 255.947937 41.024046 256.615906 41.695921 256.615906 42.52014 Z M 256.615906 42.52014 " transform="matrix(1,0,0,-1,11.763,116.11389)"/>
<path style="fill-rule:nonzero;fill:rgb(0%,0%,0%);fill-opacity:1;stroke-width:0.3985;stroke-linecap:butt;stroke-linejoin:miter;stroke:rgb(0%,0%,0%);stroke-opacity:1;stroke-miterlimit:10;" d="M 256.615906 56.692015 C 256.615906 57.52014 255.947937 58.188109 255.119812 58.188109 C 254.295594 58.188109 253.627625 57.52014 253.627625 56.692015 C 253.627625 55.867796 254.295594 55.199827 255.119812 55.199827 C 255.947937 55.199827 256.615906 55.867796 256.615906 56.692015 Z M 256.615906 56.692015 " transform="matrix(1,0,0,-1,11.763,116.11389)"/>
<path style="fill-rule:nonzero;fill:rgb(0%,0%,0%);fill-opacity:1;stroke-width:0.3985;stroke-linecap:butt;stroke-linejoin:miter;stroke:rgb(0%,0%,0%);stroke-opacity:1;stroke-miterlimit:10;" d="M 256.615906 70.867796 C 256.615906 71.692015 255.947937 72.359984 255.119812 72.359984 C 254.295594 72.359984 253.627625 71.692015 253.627625 70.867796 C 253.627625 70.043577 254.295594 69.371702 255.119812 69.371702 C 255.947937 69.371702 256.615906 70.043577 256.615906 70.867796 Z M 256.615906 70.867796 " transform="matrix(1,0,0,-1,11.763,116.11389)"/>
<path style="fill-rule:nonzero;fill:rgb(0%,0%,0%);fill-opacity:1;stroke-width:0.3985;stroke-linecap:butt;stroke-linejoin:miter;stroke:rgb(0%,0%,0%);stroke-opacity:1;stroke-miterlimit:10;" d="M 256.615906 85.039671 C 256.615906 85.86389 255.947937 86.535765 255.119812 86.535765 C 254.295594 86.535765 253.627625 85.86389 253.627625 85.039671 C 253.627625 84.215452 254.295594 83.547484 255.119812 83.547484 C 255.947937 83.547484 256.615906 84.215452 256.615906 85.039671 Z M 256.615906 85.039671 " transform="matrix(1,0,0,-1,11.763,116.11389)"/>
<path style="fill-rule:nonzero;fill:rgb(0%,0%,0%);fill-opacity:1;stroke-width:0.3985;stroke-linecap:butt;stroke-linejoin:miter;stroke:rgb(0%,0%,0%);stroke-opacity:1;stroke-miterlimit:10;" d="M 256.615906 99.215452 C 256.615906 100.039671 255.947937 100.70764 255.119812 100.70764 C 254.295594 100.70764 253.627625 100.039671 253.627625 99.215452 C 253.627625 98.387327 254.295594 97.719359 255.119812 97.719359 C 255.947937 97.719359 256.615906 98.387327 256.615906 99.215452 Z M 256.615906 99.215452 " transform="matrix(1,0,0,-1,11.763,116.11389)"/>
<path style="fill-rule:nonzero;fill:rgb(0%,0%,0%);fill-opacity:1;stroke-width:0.3985;stroke-linecap:butt;stroke-linejoin:miter;stroke:rgb(0%,0%,0%);stroke-opacity:1;stroke-miterlimit:10;" d="M 270.787781 14.172484 C 270.787781 15.000609 270.119813 15.668577 269.295594 15.668577 C 268.467469 15.668577 267.7995 15.000609 267.7995 14.172484 C 267.7995 13.348265 268.467469 12.680296 269.295594 12.680296 C 270.119813 12.680296 270.787781 13.348265 270.787781 14.172484 Z M 270.787781 14.172484 " transform="matrix(1,0,0,-1,11.763,116.11389)"/>
<path style="fill-rule:nonzero;fill:rgb(0%,0%,0%);fill-opacity:1;stroke-width:0.3985;stroke-linecap:butt;stroke-linejoin:miter;stroke:rgb(0%,0%,0%);stroke-opacity:1;stroke-miterlimit:10;" d="M 284.963563 14.172484 C 284.963563 15.000609 284.291688 15.668577 283.467469 15.668577 C 282.64325 15.668577 281.975281 15.000609 281.975281 14.172484 C 281.975281 13.348265 282.64325 12.680296 283.467469 12.680296 C 284.291688 12.680296 284.963563 13.348265 284.963563 14.172484 Z M 284.963563 14.172484 " transform="matrix(1,0,0,-1,11.763,116.11389)"/>
<path style="fill:none;stroke-width:0.79701;stroke-linecap:butt;stroke-linejoin:miter;stroke:rgb(0%,0%,0%);stroke-opacity:1;stroke-miterlimit:10;" d="M 255.119812 14.172484 L 283.467469 14.172484 " transform="matrix(1,0,0,-1,11.763,116.11389)"/>
<path style="fill-rule:nonzero;fill:rgb(0%,0%,0%);fill-opacity:1;stroke-width:0.3985;stroke-linecap:butt;stroke-linejoin:miter;stroke:rgb(0%,0%,0%);stroke-opacity:1;stroke-miterlimit:10;" d="M 270.787781 28.348265 C 270.787781 29.172484 270.119813 29.840452 269.295594 29.840452 C 268.467469 29.840452 267.7995 29.172484 267.7995 28.348265 C 267.7995 27.52014 268.467469 26.852171 269.295594 26.852171 C 270.119813 26.852171 270.787781 27.52014 270.787781 28.348265 Z M 270.787781 28.348265 " transform="matrix(1,0,0,-1,11.763,116.11389)"/>
<path style="fill-rule:nonzero;fill:rgb(0%,0%,0%);fill-opacity:1;stroke-width:0.3985;stroke-linecap:butt;stroke-linejoin:miter;stroke:rgb(0%,0%,0%);stroke-opacity:1;stroke-miterlimit:10;" d="M 284.963563 28.348265 C 284.963563 29.172484 284.291688 29.840452 283.467469 29.840452 C 282.64325 29.840452 281.975281 29.172484 281.975281 28.348265 C 281.975281 27.52014 282.64325 26.852171 283.467469 26.852171 C 284.291688 26.852171 284.963563 27.52014 284.963563 28.348265 Z M 284.963563 28.348265 " transform="matrix(1,0,0,-1,11.763,116.11389)"/>
<path style="fill:none;stroke-width:0.79701;stroke-linecap:butt;stroke-linejoin:miter;stroke:rgb(0%,0%,0%);stroke-opacity:1;stroke-miterlimit:10;" d="M 255.119812 28.348265 L 283.467469 28.348265 " transform="matrix(1,0,0,-1,11.763,116.11389)"/>
<path style="fill-rule:nonzero;fill:rgb(0%,0%,0%);fill-opacity:1;stroke-width:0.3985;stroke-linecap:butt;stroke-linejoin:miter;stroke:rgb(0%,0%,0%);stroke-opacity:1;stroke-miterlimit:10;" d="M 270.787781 42.52014 C 270.787781 43.344359 270.119813 44.016234 269.295594 44.016234 C 268.467469 44.016234 267.7995 43.344359 267.7995 42.52014 C 267.7995 41.695921 268.467469 41.024046 269.295594 41.024046 C 270.119813 41.024046 270.787781 41.695921 270.787781 42.52014 Z M 270.787781 42.52014 " transform="matrix(1,0,0,-1,11.763,116.11389)"/>
<path style="fill-rule:nonzero;fill:rgb(0%,0%,0%);fill-opacity:1;stroke-width:0.3985;stroke-linecap:butt;stroke-linejoin:miter;stroke:rgb(0%,0%,0%);stroke-opacity:1;stroke-miterlimit:10;" d="M 284.963563 42.52014 C 284.963563 43.344359 284.291688 44.016234 283.467469 44.016234 C 282.64325 44.016234 281.975281 43.344359 281.975281 42.52014 C 281.975281 41.695921 282.64325 41.024046 283.467469 41.024046 C 284.291688 41.024046 284.963563 41.695921 284.963563 42.52014 Z M 284.963563 42.52014 " transform="matrix(1,0,0,-1,11.763,116.11389)"/>
<path style="fill:none;stroke-width:0.79701;stroke-linecap:butt;stroke-linejoin:miter;stroke:rgb(0%,0%,0%);stroke-opacity:1;stroke-miterlimit:10;" d="M 255.119812 42.52014 L 283.467469 42.52014 " transform="matrix(1,0,0,-1,11.763,116.11389)"/>
<path style="fill-rule:nonzero;fill:rgb(0%,0%,0%);fill-opacity:1;stroke-width:0.3985;stroke-linecap:butt;stroke-linejoin:miter;stroke:rgb(0%,0%,0%);stroke-opacity:1;stroke-miterlimit:10;" d="M 270.787781 56.692015 C 270.787781 57.52014 270.119813 58.188109 269.295594 58.188109 C 268.467469 58.188109 267.7995 57.52014 267.7995 56.692015 C 267.7995 55.867796 268.467469 55.199827 269.295594 55.199827 C 270.119813 55.199827 270.787781 55.867796 270.787781 56.692015 Z M 270.787781 56.692015 " transform="matrix(1,0,0,-1,11.763,116.11389)"/>
<path style="fill-rule:nonzero;fill:rgb(0%,0%,0%);fill-opacity:1;stroke-width:0.3985;stroke-linecap:butt;stroke-linejoin:miter;stroke:rgb(0%,0%,0%);stroke-opacity:1;stroke-miterlimit:10;" d="M 284.963563 56.692015 C 284.963563 57.52014 284.291688 58.188109 283.467469 58.188109 C 282.64325 58.188109 281.975281 57.52014 281.975281 56.692015 C 281.975281 55.867796 282.64325 55.199827 283.467469 55.199827 C 284.291688 55.199827 284.963563 55.867796 284.963563 56.692015 Z M 284.963563 56.692015 " transform="matrix(1,0,0,-1,11.763,116.11389)"/>
<path style="fill:none;stroke-width:0.79701;stroke-linecap:butt;stroke-linejoin:miter;stroke:rgb(0%,0%,0%);stroke-opacity:1;stroke-miterlimit:10;" d="M 255.119812 56.692015 L 283.467469 56.692015 " transform="matrix(1,0,0,-1,11.763,116.11389)"/>
<path style="fill-rule:nonzero;fill:rgb(0%,0%,0%);fill-opacity:1;stroke-width:0.3985;stroke-linecap:butt;stroke-linejoin:miter;stroke:rgb(0%,0%,0%);stroke-opacity:1;stroke-miterlimit:10;" d="M 270.787781 70.867796 C 270.787781 71.692015 270.119813 72.359984 269.295594 72.359984 C 268.467469 72.359984 267.7995 71.692015 267.7995 70.867796 C 267.7995 70.043577 268.467469 69.371702 269.295594 69.371702 C 270.119813 69.371702 270.787781 70.043577 270.787781 70.867796 Z M 270.787781 70.867796 " transform="matrix(1,0,0,-1,11.763,116.11389)"/>
<path style="fill-rule:nonzero;fill:rgb(0%,0%,0%);fill-opacity:1;stroke-width:0.3985;stroke-linecap:butt;stroke-linejoin:miter;stroke:rgb(0%,0%,0%);stroke-opacity:1;stroke-miterlimit:10;" d="M 284.963563 70.867796 C 284.963563 71.692015 284.291688 72.359984 283.467469 72.359984 C 282.64325 72.359984 281.975281 71.692015 281.975281 70.867796 C 281.975281 70.043577 282.64325 69.371702 283.467469 69.371702 C 284.291688 69.371702 284.963563 70.043577 284.963563 70.867796 Z M 284.963563 70.867796 " transform="matrix(1,0,0,-1,11.763,116.11389)"/>
<path style="fill:none;stroke-width:0.79701;stroke-linecap:butt;stroke-linejoin:miter;stroke:rgb(0%,0%,0%);stroke-opacity:1;stroke-miterlimit:10;" d="M 255.119812 70.867796 L 283.467469 70.867796 " transform="matrix(1,0,0,-1,11.763,116.11389)"/>
<path style="fill-rule:nonzero;fill:rgb(0%,0%,0%);fill-opacity:1;stroke-width:0.3985;stroke-linecap:butt;stroke-linejoin:miter;stroke:rgb(0%,0%,0%);stroke-opacity:1;stroke-miterlimit:10;" d="M 270.787781 85.039671 C 270.787781 85.86389 270.119813 86.535765 269.295594 86.535765 C 268.467469 86.535765 267.7995 85.86389 267.7995 85.039671 C 267.7995 84.215452 268.467469 83.547484 269.295594 83.547484 C 270.119813 83.547484 270.787781 84.215452 270.787781 85.039671 Z M 270.787781 85.039671 " transform="matrix(1,0,0,-1,11.763,116.11389)"/>
<path style="fill-rule:nonzero;fill:rgb(0%,0%,0%);fill-opacity:1;stroke-width:0.3985;stroke-linecap:butt;stroke-linejoin:miter;stroke:rgb(0%,0%,0%);stroke-opacity:1;stroke-miterlimit:10;" d="M 284.963563 85.039671 C 284.963563 85.86389 284.291688 86.535765 283.467469 86.535765 C 282.64325 86.535765 281.975281 85.86389 281.975281 85.039671 C 281.975281 84.215452 282.64325 83.547484 283.467469 83.547484 C 284.291688 83.547484 284.963563 84.215452 284.963563 85.039671 Z M 284.963563 85.039671 " transform="matrix(1,0,0,-1,11.763,116.11389)"/>
<path style="fill:none;stroke-width:0.79701;stroke-linecap:butt;stroke-linejoin:miter;stroke:rgb(0%,0%,0%);stroke-opacity:1;stroke-miterlimit:10;" d="M 255.119812 85.039671 L 283.467469 85.039671 " transform="matrix(1,0,0,-1,11.763,116.11389)"/>
<path style="fill-rule:nonzero;fill:rgb(0%,0%,0%);fill-opacity:1;stroke-width:0.3985;stroke-linecap:butt;stroke-linejoin:miter;stroke:rgb(0%,0%,0%);stroke-opacity:1;stroke-miterlimit:10;" d="M 270.787781 99.215452 C 270.787781 100.039671 270.119813 100.70764 269.295594 100.70764 C 268.467469 100.70764 267.7995 100.039671 267.7995 99.215452 C 267.7995 98.387327 268.467469 97.719359 269.295594 97.719359 C 270.119813 97.719359 270.787781 98.387327 270.787781 99.215452 Z M 270.787781 99.215452 " transform="matrix(1,0,0,-1,11.763,116.11389)"/>
<path style="fill-rule:nonzero;fill:rgb(0%,0%,0%);fill-opacity:1;stroke-width:0.3985;stroke-linecap:butt;stroke-linejoin:miter;stroke:rgb(0%,0%,0%);stroke-opacity:1;stroke-miterlimit:10;" d="M 284.963563 99.215452 C 284.963563 100.039671 284.291688 100.70764 283.467469 100.70764 C 282.64325 100.70764 281.975281 100.039671 281.975281 99.215452 C 281.975281 98.387327 282.64325 97.719359 283.467469 97.719359 C 284.291688 97.719359 284.963563 98.387327 284.963563 99.215452 Z M 284.963563 99.215452 " transform="matrix(1,0,0,-1,11.763,116.11389)"/>
<path style="fill:none;stroke-width:0.79701;stroke-linecap:butt;stroke-linejoin:miter;stroke:rgb(0%,0%,0%);stroke-opacity:1;stroke-miterlimit:10;" d="M 255.119812 99.215452 L 283.467469 99.215452 " transform="matrix(1,0,0,-1,11.763,116.11389)"/>
<path style="fill:none;stroke-width:0.79701;stroke-linecap:butt;stroke-linejoin:miter;stroke:rgb(0%,0%,0%);stroke-opacity:1;stroke-miterlimit:10;" d="M 255.119812 0.00060875 L 255.119812 99.215452 " transform="matrix(1,0,0,-1,11.763,116.11389)"/>
<path style="fill:none;stroke-width:0.79701;stroke-linecap:butt;stroke-linejoin:miter;stroke:rgb(0%,0%,0%);stroke-opacity:1;stroke-dasharray:2.98883,2.98883;stroke-miterlimit:10;" d="M 244.490906 0.00060875 L 265.752625 0.00060875 " transform="matrix(1,0,0,-1,11.763,116.11389)"/>
<path style=" stroke:none;fill-rule:nonzero;fill:rgb(0%,0%,0%);fill-opacity:1;" d="M 310.898438 116.113281 C 310.898438 115.289062 310.230469 114.621094 309.40625 114.621094 C 308.578125 114.621094 307.910156 115.289062 307.910156 116.113281 C 307.910156 116.9375 308.578125 117.609375 309.40625 117.609375 C 310.230469 117.609375 310.898438 116.9375 310.898438 116.113281 Z M 310.898438 116.113281 "/>
<g clip-path="url(#clip8)" clip-rule="nonzero">
<path style="fill:none;stroke-width:0.3985;stroke-linecap:butt;stroke-linejoin:miter;stroke:rgb(0%,0%,0%);stroke-opacity:1;stroke-miterlimit:10;" d="M 299.135438 0.00060875 C 299.135438 0.824827 298.467469 1.492796 297.64325 1.492796 C 296.815125 1.492796 296.147156 0.824827 296.147156 0.00060875 C 296.147156 -0.82361 296.815125 -1.495485 297.64325 -1.495485 C 298.467469 -1.495485 299.135438 -0.82361 299.135438 0.00060875 Z M 299.135438 0.00060875 " transform="matrix(1,0,0,-1,11.763,116.11389)"/>
</g>
<path style="fill-rule:nonzero;fill:rgb(0%,0%,0%);fill-opacity:1;stroke-width:0.3985;stroke-linecap:butt;stroke-linejoin:miter;stroke:rgb(0%,0%,0%);stroke-opacity:1;stroke-miterlimit:10;" d="M 299.135438 14.172484 C 299.135438 15.000609 298.467469 15.668577 297.64325 15.668577 C 296.815125 15.668577 296.147156 15.000609 296.147156 14.172484 C 296.147156 13.348265 296.815125 12.680296 297.64325 12.680296 C 298.467469 12.680296 299.135438 13.348265 299.135438 14.172484 Z M 299.135438 14.172484 " transform="matrix(1,0,0,-1,11.763,116.11389)"/>
<path style="fill-rule:nonzero;fill:rgb(0%,0%,0%);fill-opacity:1;stroke-width:0.3985;stroke-linecap:butt;stroke-linejoin:miter;stroke:rgb(0%,0%,0%);stroke-opacity:1;stroke-miterlimit:10;" d="M 299.135438 28.348265 C 299.135438 29.172484 298.467469 29.840452 297.64325 29.840452 C 296.815125 29.840452 296.147156 29.172484 296.147156 28.348265 C 296.147156 27.52014 296.815125 26.852171 297.64325 26.852171 C 298.467469 26.852171 299.135438 27.52014 299.135438 28.348265 Z M 299.135438 28.348265 " transform="matrix(1,0,0,-1,11.763,116.11389)"/>
<path style="fill-rule:nonzero;fill:rgb(0%,0%,0%);fill-opacity:1;stroke-width:0.3985;stroke-linecap:butt;stroke-linejoin:miter;stroke:rgb(0%,0%,0%);stroke-opacity:1;stroke-miterlimit:10;" d="M 299.135438 42.52014 C 299.135438 43.344359 298.467469 44.016234 297.64325 44.016234 C 296.815125 44.016234 296.147156 43.344359 296.147156 42.52014 C 296.147156 41.695921 296.815125 41.024046 297.64325 41.024046 C 298.467469 41.024046 299.135438 41.695921 299.135438 42.52014 Z M 299.135438 42.52014 " transform="matrix(1,0,0,-1,11.763,116.11389)"/>
<path style="fill-rule:nonzero;fill:rgb(0%,0%,0%);fill-opacity:1;stroke-width:0.3985;stroke-linecap:butt;stroke-linejoin:miter;stroke:rgb(0%,0%,0%);stroke-opacity:1;stroke-miterlimit:10;" d="M 299.135438 56.692015 C 299.135438 57.52014 298.467469 58.188109 297.64325 58.188109 C 296.815125 58.188109 296.147156 57.52014 296.147156 56.692015 C 296.147156 55.867796 296.815125 55.199827 297.64325 55.199827 C 298.467469 55.199827 299.135438 55.867796 299.135438 56.692015 Z M 299.135438 56.692015 " transform="matrix(1,0,0,-1,11.763,116.11389)"/>
<path style="fill-rule:nonzero;fill:rgb(0%,0%,0%);fill-opacity:1;stroke-width:0.3985;stroke-linecap:butt;stroke-linejoin:miter;stroke:rgb(0%,0%,0%);stroke-opacity:1;stroke-miterlimit:10;" d="M 299.135438 70.867796 C 299.135438 71.692015 298.467469 72.359984 297.64325 72.359984 C 296.815125 72.359984 296.147156 71.692015 296.147156 70.867796 C 296.147156 70.043577 296.815125 69.371702 297.64325 69.371702 C 298.467469 69.371702 299.135438 70.043577 299.135438 70.867796 Z M 299.135438 70.867796 " transform="matrix(1,0,0,-1,11.763,116.11389)"/>
<path style="fill-rule:nonzero;fill:rgb(0%,0%,0%);fill-opacity:1;stroke-width:0.3985;stroke-linecap:butt;stroke-linejoin:miter;stroke:rgb(0%,0%,0%);stroke-opacity:1;stroke-miterlimit:10;" d="M 299.135438 85.039671 C 299.135438 85.86389 298.467469 86.535765 297.64325 86.535765 C 296.815125 86.535765 296.147156 85.86389 296.147156 85.039671 C 296.147156 84.215452 296.815125 83.547484 297.64325 83.547484 C 298.467469 83.547484 299.135438 84.215452 299.135438 85.039671 Z M 299.135438 85.039671 " transform="matrix(1,0,0,-1,11.763,116.11389)"/>
<path style="fill-rule:nonzero;fill:rgb(0%,0%,0%);fill-opacity:1;stroke-width:0.3985;stroke-linecap:butt;stroke-linejoin:miter;stroke:rgb(0%,0%,0%);stroke-opacity:1;stroke-miterlimit:10;" d="M 299.135438 99.215452 C 299.135438 100.039671 298.467469 100.70764 297.64325 100.70764 C 296.815125 100.70764 296.147156 100.039671 296.147156 99.215452 C 296.147156 98.387327 296.815125 97.719359 297.64325 97.719359 C 298.467469 97.719359 299.135438 98.387327 299.135438 99.215452 Z M 299.135438 99.215452 " transform="matrix(1,0,0,-1,11.763,116.11389)"/>
<path style="fill-rule:nonzero;fill:rgb(0%,0%,0%);fill-opacity:1;stroke-width:0.3985;stroke-linecap:butt;stroke-linejoin:miter;stroke:rgb(0%,0%,0%);stroke-opacity:1;stroke-miterlimit:10;" d="M 299.135438 113.387327 C 299.135438 114.211546 298.467469 114.883421 297.64325 114.883421 C 296.815125 114.883421 296.147156 114.211546 296.147156 113.387327 C 296.147156 112.563109 296.815125 111.891234 297.64325 111.891234 C 298.467469 111.891234 299.135438 112.563109 299.135438 113.387327 Z M 299.135438 113.387327 " transform="matrix(1,0,0,-1,11.763,116.11389)"/>
<path style="fill-rule:nonzero;fill:rgb(0%,0%,0%);fill-opacity:1;stroke-width:0.3985;stroke-linecap:butt;stroke-linejoin:miter;stroke:rgb(0%,0%,0%);stroke-opacity:1;stroke-miterlimit:10;" d="M 313.311219 14.172484 C 313.311219 15.000609 312.639344 15.668577 311.815125 15.668577 C 310.990906 15.668577 310.319031 15.000609 310.319031 14.172484 C 310.319031 13.348265 310.990906 12.680296 311.815125 12.680296 C 312.639344 12.680296 313.311219 13.348265 313.311219 14.172484 Z M 313.311219 14.172484 " transform="matrix(1,0,0,-1,11.763,116.11389)"/>
<path style="fill-rule:nonzero;fill:rgb(0%,0%,0%);fill-opacity:1;stroke-width:0.3985;stroke-linecap:butt;stroke-linejoin:miter;stroke:rgb(0%,0%,0%);stroke-opacity:1;stroke-miterlimit:10;" d="M 327.483094 14.172484 C 327.483094 15.000609 326.815125 15.668577 325.987 15.668577 C 325.162781 15.668577 324.494813 15.000609 324.494813 14.172484 C 324.494813 13.348265 325.162781 12.680296 325.987 12.680296 C 326.815125 12.680296 327.483094 13.348265 327.483094 14.172484 Z M 327.483094 14.172484 " transform="matrix(1,0,0,-1,11.763,116.11389)"/>
<path style="fill:none;stroke-width:0.79701;stroke-linecap:butt;stroke-linejoin:miter;stroke:rgb(0%,0%,0%);stroke-opacity:1;stroke-miterlimit:10;" d="M 297.64325 14.172484 L 325.987 14.172484 " transform="matrix(1,0,0,-1,11.763,116.11389)"/>
<path style="fill-rule:nonzero;fill:rgb(0%,0%,0%);fill-opacity:1;stroke-width:0.3985;stroke-linecap:butt;stroke-linejoin:miter;stroke:rgb(0%,0%,0%);stroke-opacity:1;stroke-miterlimit:10;" d="M 313.311219 28.348265 C 313.311219 29.172484 312.639344 29.840452 311.815125 29.840452 C 310.990906 29.840452 310.319031 29.172484 310.319031 28.348265 C 310.319031 27.52014 310.990906 26.852171 311.815125 26.852171 C 312.639344 26.852171 313.311219 27.52014 313.311219 28.348265 Z M 313.311219 28.348265 " transform="matrix(1,0,0,-1,11.763,116.11389)"/>
<path style="fill-rule:nonzero;fill:rgb(0%,0%,0%);fill-opacity:1;stroke-width:0.3985;stroke-linecap:butt;stroke-linejoin:miter;stroke:rgb(0%,0%,0%);stroke-opacity:1;stroke-miterlimit:10;" d="M 327.483094 28.348265 C 327.483094 29.172484 326.815125 29.840452 325.987 29.840452 C 325.162781 29.840452 324.494813 29.172484 324.494813 28.348265 C 324.494813 27.52014 325.162781 26.852171 325.987 26.852171 C 326.815125 26.852171 327.483094 27.52014 327.483094 28.348265 Z M 327.483094 28.348265 " transform="matrix(1,0,0,-1,11.763,116.11389)"/>
<path style="fill:none;stroke-width:0.79701;stroke-linecap:butt;stroke-linejoin:miter;stroke:rgb(0%,0%,0%);stroke-opacity:1;stroke-miterlimit:10;" d="M 297.64325 28.348265 L 325.987 28.348265 " transform="matrix(1,0,0,-1,11.763,116.11389)"/>
<path style="fill-rule:nonzero;fill:rgb(0%,0%,0%);fill-opacity:1;stroke-width:0.3985;stroke-linecap:butt;stroke-linejoin:miter;stroke:rgb(0%,0%,0%);stroke-opacity:1;stroke-miterlimit:10;" d="M 313.311219 42.52014 C 313.311219 43.344359 312.639344 44.016234 311.815125 44.016234 C 310.990906 44.016234 310.319031 43.344359 310.319031 42.52014 C 310.319031 41.695921 310.990906 41.024046 311.815125 41.024046 C 312.639344 41.024046 313.311219 41.695921 313.311219 42.52014 Z M 313.311219 42.52014 " transform="matrix(1,0,0,-1,11.763,116.11389)"/>
<path style="fill-rule:nonzero;fill:rgb(0%,0%,0%);fill-opacity:1;stroke-width:0.3985;stroke-linecap:butt;stroke-linejoin:miter;stroke:rgb(0%,0%,0%);stroke-opacity:1;stroke-miterlimit:10;" d="M 327.483094 42.52014 C 327.483094 43.344359 326.815125 44.016234 325.987 44.016234 C 325.162781 44.016234 324.494813 43.344359 324.494813 42.52014 C 324.494813 41.695921 325.162781 41.024046 325.987 41.024046 C 326.815125 41.024046 327.483094 41.695921 327.483094 42.52014 Z M 327.483094 42.52014 " transform="matrix(1,0,0,-1,11.763,116.11389)"/>
<path style="fill:none;stroke-width:0.79701;stroke-linecap:butt;stroke-linejoin:miter;stroke:rgb(0%,0%,0%);stroke-opacity:1;stroke-miterlimit:10;" d="M 297.64325 42.52014 L 325.987 42.52014 " transform="matrix(1,0,0,-1,11.763,116.11389)"/>
<path style="fill-rule:nonzero;fill:rgb(0%,0%,0%);fill-opacity:1;stroke-width:0.3985;stroke-linecap:butt;stroke-linejoin:miter;stroke:rgb(0%,0%,0%);stroke-opacity:1;stroke-miterlimit:10;" d="M 313.311219 56.692015 C 313.311219 57.52014 312.639344 58.188109 311.815125 58.188109 C 310.990906 58.188109 310.319031 57.52014 310.319031 56.692015 C 310.319031 55.867796 310.990906 55.199827 311.815125 55.199827 C 312.639344 55.199827 313.311219 55.867796 313.311219 56.692015 Z M 313.311219 56.692015 " transform="matrix(1,0,0,-1,11.763,116.11389)"/>
<path style="fill-rule:nonzero;fill:rgb(0%,0%,0%);fill-opacity:1;stroke-width:0.3985;stroke-linecap:butt;stroke-linejoin:miter;stroke:rgb(0%,0%,0%);stroke-opacity:1;stroke-miterlimit:10;" d="M 327.483094 56.692015 C 327.483094 57.52014 326.815125 58.188109 325.987 58.188109 C 325.162781 58.188109 324.494813 57.52014 324.494813 56.692015 C 324.494813 55.867796 325.162781 55.199827 325.987 55.199827 C 326.815125 55.199827 327.483094 55.867796 327.483094 56.692015 Z M 327.483094 56.692015 " transform="matrix(1,0,0,-1,11.763,116.11389)"/>
<path style="fill:none;stroke-width:0.79701;stroke-linecap:butt;stroke-linejoin:miter;stroke:rgb(0%,0%,0%);stroke-opacity:1;stroke-miterlimit:10;" d="M 297.64325 56.692015 L 325.987 56.692015 " transform="matrix(1,0,0,-1,11.763,116.11389)"/>
<path style="fill-rule:nonzero;fill:rgb(0%,0%,0%);fill-opacity:1;stroke-width:0.3985;stroke-linecap:butt;stroke-linejoin:miter;stroke:rgb(0%,0%,0%);stroke-opacity:1;stroke-miterlimit:10;" d="M 313.311219 70.867796 C 313.311219 71.692015 312.639344 72.359984 311.815125 72.359984 C 310.990906 72.359984 310.319031 71.692015 310.319031 70.867796 C 310.319031 70.043577 310.990906 69.371702 311.815125 69.371702 C 312.639344 69.371702 313.311219 70.043577 313.311219 70.867796 Z M 313.311219 70.867796 " transform="matrix(1,0,0,-1,11.763,116.11389)"/>
<path style="fill-rule:nonzero;fill:rgb(0%,0%,0%);fill-opacity:1;stroke-width:0.3985;stroke-linecap:butt;stroke-linejoin:miter;stroke:rgb(0%,0%,0%);stroke-opacity:1;stroke-miterlimit:10;" d="M 327.483094 70.867796 C 327.483094 71.692015 326.815125 72.359984 325.987 72.359984 C 325.162781 72.359984 324.494813 71.692015 324.494813 70.867796 C 324.494813 70.043577 325.162781 69.371702 325.987 69.371702 C 326.815125 69.371702 327.483094 70.043577 327.483094 70.867796 Z M 327.483094 70.867796 " transform="matrix(1,0,0,-1,11.763,116.11389)"/>
<path style="fill:none;stroke-width:0.79701;stroke-linecap:butt;stroke-linejoin:miter;stroke:rgb(0%,0%,0%);stroke-opacity:1;stroke-miterlimit:10;" d="M 297.64325 70.867796 L 325.987 70.867796 " transform="matrix(1,0,0,-1,11.763,116.11389)"/>
<path style="fill-rule:nonzero;fill:rgb(0%,0%,0%);fill-opacity:1;stroke-width:0.3985;stroke-linecap:butt;stroke-linejoin:miter;stroke:rgb(0%,0%,0%);stroke-opacity:1;stroke-miterlimit:10;" d="M 313.311219 85.039671 C 313.311219 85.86389 312.639344 86.535765 311.815125 86.535765 C 310.990906 86.535765 310.319031 85.86389 310.319031 85.039671 C 310.319031 84.215452 310.990906 83.547484 311.815125 83.547484 C 312.639344 83.547484 313.311219 84.215452 313.311219 85.039671 Z M 313.311219 85.039671 " transform="matrix(1,0,0,-1,11.763,116.11389)"/>
<path style="fill-rule:nonzero;fill:rgb(0%,0%,0%);fill-opacity:1;stroke-width:0.3985;stroke-linecap:butt;stroke-linejoin:miter;stroke:rgb(0%,0%,0%);stroke-opacity:1;stroke-miterlimit:10;" d="M 327.483094 85.039671 C 327.483094 85.86389 326.815125 86.535765 325.987 86.535765 C 325.162781 86.535765 324.494813 85.86389 324.494813 85.039671 C 324.494813 84.215452 325.162781 83.547484 325.987 83.547484 C 326.815125 83.547484 327.483094 84.215452 327.483094 85.039671 Z M 327.483094 85.039671 " transform="matrix(1,0,0,-1,11.763,116.11389)"/>
<path style="fill:none;stroke-width:0.79701;stroke-linecap:butt;stroke-linejoin:miter;stroke:rgb(0%,0%,0%);stroke-opacity:1;stroke-miterlimit:10;" d="M 297.64325 85.039671 L 325.987 85.039671 " transform="matrix(1,0,0,-1,11.763,116.11389)"/>
<path style="fill-rule:nonzero;fill:rgb(0%,0%,0%);fill-opacity:1;stroke-width:0.3985;stroke-linecap:butt;stroke-linejoin:miter;stroke:rgb(0%,0%,0%);stroke-opacity:1;stroke-miterlimit:10;" d="M 313.311219 99.215452 C 313.311219 100.039671 312.639344 100.70764 311.815125 100.70764 C 310.990906 100.70764 310.319031 100.039671 310.319031 99.215452 C 310.319031 98.387327 310.990906 97.719359 311.815125 97.719359 C 312.639344 97.719359 313.311219 98.387327 313.311219 99.215452 Z M 313.311219 99.215452 " transform="matrix(1,0,0,-1,11.763,116.11389)"/>
<path style="fill-rule:nonzero;fill:rgb(0%,0%,0%);fill-opacity:1;stroke-width:0.3985;stroke-linecap:butt;stroke-linejoin:miter;stroke:rgb(0%,0%,0%);stroke-opacity:1;stroke-miterlimit:10;" d="M 327.483094 99.215452 C 327.483094 100.039671 326.815125 100.70764 325.987 100.70764 C 325.162781 100.70764 324.494813 100.039671 324.494813 99.215452 C 324.494813 98.387327 325.162781 97.719359 325.987 97.719359 C 326.815125 97.719359 327.483094 98.387327 327.483094 99.215452 Z M 327.483094 99.215452 " transform="matrix(1,0,0,-1,11.763,116.11389)"/>
<path style="fill:none;stroke-width:0.79701;stroke-linecap:butt;stroke-linejoin:miter;stroke:rgb(0%,0%,0%);stroke-opacity:1;stroke-miterlimit:10;" d="M 297.64325 99.215452 L 325.987 99.215452 " transform="matrix(1,0,0,-1,11.763,116.11389)"/>
<path style="fill-rule:nonzero;fill:rgb(0%,0%,0%);fill-opacity:1;stroke-width:0.3985;stroke-linecap:butt;stroke-linejoin:miter;stroke:rgb(0%,0%,0%);stroke-opacity:1;stroke-miterlimit:10;" d="M 313.311219 113.387327 C 313.311219 114.211546 312.639344 114.883421 311.815125 114.883421 C 310.990906 114.883421 310.319031 114.211546 310.319031 113.387327 C 310.319031 112.563109 310.990906 111.891234 311.815125 111.891234 C 312.639344 111.891234 313.311219 112.563109 313.311219 113.387327 Z M 313.311219 113.387327 " transform="matrix(1,0,0,-1,11.763,116.11389)"/>
<path style="fill-rule:nonzero;fill:rgb(0%,0%,0%);fill-opacity:1;stroke-width:0.3985;stroke-linecap:butt;stroke-linejoin:miter;stroke:rgb(0%,0%,0%);stroke-opacity:1;stroke-miterlimit:10;" d="M 327.483094 113.387327 C 327.483094 114.211546 326.815125 114.883421 325.987 114.883421 C 325.162781 114.883421 324.494813 114.211546 324.494813 113.387327 C 324.494813 112.563109 325.162781 111.891234 325.987 111.891234 C 326.815125 111.891234 327.483094 112.563109 327.483094 113.387327 Z M 327.483094 113.387327 " transform="matrix(1,0,0,-1,11.763,116.11389)"/>
<path style="fill:none;stroke-width:0.79701;stroke-linecap:butt;stroke-linejoin:miter;stroke:rgb(0%,0%,0%);stroke-opacity:1;stroke-miterlimit:10;" d="M 297.64325 113.387327 L 325.987 113.387327 " transform="matrix(1,0,0,-1,11.763,116.11389)"/>
<path style="fill:none;stroke-width:0.79701;stroke-linecap:butt;stroke-linejoin:miter;stroke:rgb(0%,0%,0%);stroke-opacity:1;stroke-miterlimit:10;" d="M 297.64325 0.00060875 L 297.64325 113.387327 " transform="matrix(1,0,0,-1,11.763,116.11389)"/>
<path style="fill:none;stroke-width:0.79701;stroke-linecap:butt;stroke-linejoin:miter;stroke:rgb(0%,0%,0%);stroke-opacity:1;stroke-dasharray:2.98883,2.98883;stroke-miterlimit:10;" d="M 287.010438 0.00060875 L 308.272156 0.00060875 " transform="matrix(1,0,0,-1,11.763,116.11389)"/>
<path style="fill-rule:nonzero;fill:rgb(0%,0%,0%);fill-opacity:1;stroke-width:0.3985;stroke-linecap:butt;stroke-linejoin:miter;stroke:rgb(0%,0%,0%);stroke-opacity:1;stroke-miterlimit:10;" d="M 341.158875 35.434202 C 341.158875 35.984984 340.713563 36.430296 340.162781 36.430296 C 339.612 36.430296 339.166688 35.984984 339.166688 35.434202 C 339.166688 34.883421 339.612 34.438109 340.162781 34.438109 C 340.713563 34.438109 341.158875 34.883421 341.158875 35.434202 Z M 341.158875 35.434202 " transform="matrix(1,0,0,-1,11.763,116.11389)"/>
<path style="fill-rule:nonzero;fill:rgb(0%,0%,0%);fill-opacity:1;stroke-width:0.3985;stroke-linecap:butt;stroke-linejoin:miter;stroke:rgb(0%,0%,0%);stroke-opacity:1;stroke-miterlimit:10;" d="M 348.244813 35.434202 C 348.244813 35.984984 347.7995 36.430296 347.248719 36.430296 C 346.697938 36.430296 346.252625 35.984984 346.252625 35.434202 C 346.252625 34.883421 346.697938 34.438109 347.248719 34.438109 C 347.7995 34.438109 348.244813 34.883421 348.244813 35.434202 Z M 348.244813 35.434202 " transform="matrix(1,0,0,-1,11.763,116.11389)"/>
<path style=" stroke:none;fill-rule:nonzero;fill:rgb(0%,0%,0%);fill-opacity:1;" d="M 367.09375 80.679688 C 367.09375 80.128906 366.648438 79.683594 366.097656 79.683594 C 365.546875 79.683594 365.101562 80.128906 365.101562 80.679688 C 365.101562 81.230469 365.546875 81.675781 366.097656 81.675781 C 366.648438 81.675781 367.09375 81.230469 367.09375 80.679688 Z M 367.09375 80.679688 "/>
<g clip-path="url(#clip9)" clip-rule="nonzero">
<path style="fill:none;stroke-width:0.3985;stroke-linecap:butt;stroke-linejoin:miter;stroke:rgb(0%,0%,0%);stroke-opacity:1;stroke-miterlimit:10;" d="M 355.33075 35.434202 C 355.33075 35.984984 354.885438 36.430296 354.334656 36.430296 C 353.783875 36.430296 353.338563 35.984984 353.338563 35.434202 C 353.338563 34.883421 353.783875 34.438109 354.334656 34.438109 C 354.885438 34.438109 355.33075 34.883421 355.33075 35.434202 Z M 355.33075 35.434202 " transform="matrix(1,0,0,-1,11.763,116.11389)"/>
</g>
</g>
</svg>
