<?xml version="1.0" encoding="UTF-8"?>
<svg xmlns="http://www.w3.org/2000/svg" xmlns:xlink="http://www.w3.org/1999/xlink" width="119.12pt" height="118.56935pt" viewBox="0 0 119.12 118.56935" version="1.1">
<defs>
<clipPath id="clip1">
  <path d="M 47 89 L 87 89 L 87 118.570312 L 47 118.570312 Z M 47 89 "/>
</clipPath>
<clipPath id="clip2">
  <path d="M 75 89 L 115 89 L 115 118.570312 L 75 118.570312 Z M 75 89 "/>
</clipPath>
<clipPath id="clip3">
  <path d="M 89 18 L 119.121094 18 L 119.121094 58 L 89 58 Z M 89 18 "/>
</clipPath>
</defs>
<g id="surface1">
<path style="fill:none;stroke-width:0.3985;stroke-linecap:butt;stroke-linejoin:miter;stroke:rgb(0%,0%,0%);stroke-opacity:1;stroke-miterlimit:10;" d="M -1.417937 -1.416235 L 114.804719 -1.416235 L 114.804719 114.806421 L -1.417937 114.806421 Z M -1.417937 -1.416235 " transform="matrix(1,0,0,-1,2.832,116.03689)"/>
<path style="fill:none;stroke-width:0.3985;stroke-linecap:butt;stroke-linejoin:miter;stroke:rgb(0%,0%,0%);stroke-opacity:1;stroke-miterlimit:10;" d="M 0.00003125 0.00173375 L 113.38675 0.00173375 " transform="matrix(1,0,0,-1,2.832,116.03689)"/>
<path style="fill:none;stroke-width:0.3985;stroke-linecap:butt;stroke-linejoin:miter;stroke:rgb(0%,0%,0%);stroke-opacity:1;stroke-miterlimit:10;" d="M 0.00003125 0.00173375 L 0.00003125 113.388452 " transform="matrix(1,0,0,-1,2.832,116.03689)"/>
<path style="fill:none;stroke-width:0.3985;stroke-linecap:butt;stroke-linejoin:miter;stroke:rgb(0%,0%,0%);stroke-opacity:1;stroke-miterlimit:10;" d="M 0.00003125 14.173609 L 113.38675 14.173609 " transform="matrix(1,0,0,-1,2.832,116.03689)"/>
<path style="fill:none;stroke-width:0.3985;stroke-linecap:butt;stroke-linejoin:miter;stroke:rgb(0%,0%,0%);stroke-opacity:1;stroke-miterlimit:10;" d="M 14.171906 0.00173375 L 14.171906 113.388452 " transform="matrix(1,0,0,-1,2.832,116.03689)"/>
<path style="fill:none;stroke-width:0.3985;stroke-linecap:butt;stroke-linejoin:miter;stroke:rgb(0%,0%,0%);stroke-opacity:1;stroke-miterlimit:10;" d="M 0.00003125 28.345484 L 113.38675 28.345484 " transform="matrix(1,0,0,-1,2.832,116.03689)"/>
<path style="fill:none;stroke-width:0.3985;stroke-linecap:butt;stroke-linejoin:miter;stroke:rgb(0%,0%,0%);stroke-opacity:1;stroke-miterlimit:10;" d="M 28.347688 0.00173375 L 28.347688 113.388452 " transform="matrix(1,0,0,-1,2.832,116.03689)"/>
<path style="fill:none;stroke-width:0.3985;stroke-linecap:butt;stroke-linejoin:miter;stroke:rgb(0%,0%,0%);stroke-opacity:1;stroke-miterlimit:10;" d="M 0.00003125 42.521265 L 113.38675 42.521265 " transform="matrix(1,0,0,-1,2.832,116.03689)"/>
<path style="fill:none;stroke-width:0.3985;stroke-linecap:butt;stroke-linejoin:miter;stroke:rgb(0%,0%,0%);stroke-opacity:1;stroke-miterlimit:10;" d="M 42.519563 0.00173375 L 42.519563 113.388452 " transform="matrix(1,0,0,-1,2.832,116.03689)"/>
<path style="fill:none;stroke-width:0.3985;stroke-linecap:butt;stroke-linejoin:miter;stroke:rgb(0%,0%,0%);stroke-opacity:1;stroke-miterlimit:10;" d="M 0.00003125 56.69314 L 113.38675 56.69314 " transform="matrix(1,0,0,-1,2.832,116.03689)"/>
<path style="fill:none;stroke-width:0.3985;stroke-linecap:butt;stroke-linejoin:miter;stroke:rgb(0%,0%,0%);stroke-opacity:1;stroke-miterlimit:10;" d="M 56.695344 0.00173375 L 56.695344 113.388452 " transform="matrix(1,0,0,-1,2.832,116.03689)"/>
<path style="fill:none;stroke-width:0.3985;stroke-linecap:butt;stroke-linejoin:miter;stroke:rgb(0%,0%,0%);stroke-opacity:1;stroke-miterlimit:10;" d="M 0.00003125 70.868921 L 113.38675 70.868921 " transform="matrix(1,0,0,-1,2.832,116.03689)"/>
<path style="fill:none;stroke-width:0.3985;stroke-linecap:butt;stroke-linejoin:miter;stroke:rgb(0%,0%,0%);stroke-opacity:1;stroke-miterlimit:10;" d="M 70.867219 0.00173375 L 70.867219 113.388452 " transform="matrix(1,0,0,-1,2.832,116.03689)"/>
<path style="fill:none;stroke-width:0.3985;stroke-linecap:butt;stroke-linejoin:miter;stroke:rgb(0%,0%,0%);stroke-opacity:1;stroke-miterlimit:10;" d="M 0.00003125 85.040796 L 113.38675 85.040796 " transform="matrix(1,0,0,-1,2.832,116.03689)"/>
<path style="fill:none;stroke-width:0.3985;stroke-linecap:butt;stroke-linejoin:miter;stroke:rgb(0%,0%,0%);stroke-opacity:1;stroke-miterlimit:10;" d="M 85.039094 0.00173375 L 85.039094 113.388452 " transform="matrix(1,0,0,-1,2.832,116.03689)"/>
<path style="fill:none;stroke-width:0.3985;stroke-linecap:butt;stroke-linejoin:miter;stroke:rgb(0%,0%,0%);stroke-opacity:1;stroke-miterlimit:10;" d="M 0.00003125 99.212671 L 113.38675 99.212671 " transform="matrix(1,0,0,-1,2.832,116.03689)"/>
<path style="fill:none;stroke-width:0.3985;stroke-linecap:butt;stroke-linejoin:miter;stroke:rgb(0%,0%,0%);stroke-opacity:1;stroke-miterlimit:10;" d="M 99.214875 0.00173375 L 99.214875 113.388452 " transform="matrix(1,0,0,-1,2.832,116.03689)"/>
<path style="fill:none;stroke-width:0.3985;stroke-linecap:butt;stroke-linejoin:miter;stroke:rgb(0%,0%,0%);stroke-opacity:1;stroke-miterlimit:10;" d="M 0.00003125 113.388452 L 113.38675 113.388452 " transform="matrix(1,0,0,-1,2.832,116.03689)"/>
<path style="fill:none;stroke-width:0.3985;stroke-linecap:butt;stroke-linejoin:miter;stroke:rgb(0%,0%,0%);stroke-opacity:1;stroke-miterlimit:10;" d="M 113.38675 0.00173375 L 113.38675 113.388452 " transform="matrix(1,0,0,-1,2.832,116.03689)"/>
<path style=" stroke:none;fill-rule:nonzero;fill:rgb(81.748962%,87.748718%,92.749023%);fill-opacity:1;" d="M 69.101562 108.949219 C 69.101562 107.574219 67.988281 106.460938 66.613281 106.460938 C 65.238281 106.460938 64.121094 107.574219 64.121094 108.949219 C 64.121094 110.324219 65.238281 111.441406 66.613281 111.441406 C 67.988281 111.441406 69.101562 110.324219 69.101562 108.949219 Z M 69.101562 108.949219 "/>
<g clip-path="url(#clip1)" clip-rule="nonzero">
<path style="fill:none;stroke-width:1.19553;stroke-linecap:butt;stroke-linejoin:miter;stroke:rgb(26.998901%,50.999451%,70.999146%);stroke-opacity:1;stroke-miterlimit:10;" d="M 66.269563 7.087671 C 66.269563 8.462671 65.156281 9.575952 63.781281 9.575952 C 62.406281 9.575952 61.289094 8.462671 61.289094 7.087671 C 61.289094 5.712671 62.406281 4.595484 63.781281 4.595484 C 65.156281 4.595484 66.269563 5.712671 66.269563 7.087671 Z M 66.269563 7.087671 " transform="matrix(1,0,0,-1,2.832,116.03689)"/>
</g>
<path style="fill-rule:nonzero;fill:rgb(81.748962%,87.748718%,92.749023%);fill-opacity:1;stroke-width:1.19553;stroke-linecap:butt;stroke-linejoin:miter;stroke:rgb(26.998901%,50.999451%,70.999146%);stroke-opacity:1;stroke-miterlimit:10;" d="M 37.925813 21.259546 C 37.925813 22.634546 36.808625 23.751734 35.433625 23.751734 C 34.058625 23.751734 32.941438 22.634546 32.941438 21.259546 C 32.941438 19.884546 34.058625 18.771265 35.433625 18.771265 C 36.808625 18.771265 37.925813 19.884546 37.925813 21.259546 Z M 37.925813 21.259546 " transform="matrix(1,0,0,-1,2.832,116.03689)"/>
<path style="fill-rule:nonzero;fill:rgb(81.748962%,87.748718%,92.749023%);fill-opacity:1;stroke-width:1.19553;stroke-linecap:butt;stroke-linejoin:miter;stroke:rgb(26.998901%,50.999451%,70.999146%);stroke-opacity:1;stroke-miterlimit:10;" d="M 37.925813 35.435327 C 37.925813 36.810327 36.808625 37.923609 35.433625 37.923609 C 34.058625 37.923609 32.941438 36.810327 32.941438 35.435327 C 32.941438 34.056421 34.058625 32.94314 35.433625 32.94314 C 36.808625 32.94314 37.925813 34.056421 37.925813 35.435327 Z M 37.925813 35.435327 " transform="matrix(1,0,0,-1,2.832,116.03689)"/>
<path style="fill-rule:nonzero;fill:rgb(81.748962%,87.748718%,92.749023%);fill-opacity:1;stroke-width:1.19553;stroke-linecap:butt;stroke-linejoin:miter;stroke:rgb(26.998901%,50.999451%,70.999146%);stroke-opacity:1;stroke-miterlimit:10;" d="M 9.578156 49.607202 C 9.578156 50.982202 8.460969 52.09939 7.085969 52.09939 C 5.710969 52.09939 4.597688 50.982202 4.597688 49.607202 C 4.597688 48.232202 5.710969 47.115015 7.085969 47.115015 C 8.460969 47.115015 9.578156 48.232202 9.578156 49.607202 Z M 9.578156 49.607202 " transform="matrix(1,0,0,-1,2.832,116.03689)"/>
<path style="fill-rule:nonzero;fill:rgb(81.748962%,87.748718%,92.749023%);fill-opacity:1;stroke-width:1.19553;stroke-linecap:butt;stroke-linejoin:miter;stroke:rgb(26.998901%,50.999451%,70.999146%);stroke-opacity:1;stroke-miterlimit:10;" d="M 52.097688 63.779077 C 52.097688 65.154077 50.984406 66.271265 49.6055 66.271265 C 48.2305 66.271265 47.117219 65.154077 47.117219 63.779077 C 47.117219 62.404077 48.2305 61.290796 49.6055 61.290796 C 50.984406 61.290796 52.097688 62.404077 52.097688 63.779077 Z M 52.097688 63.779077 " transform="matrix(1,0,0,-1,2.832,116.03689)"/>
<path style="fill-rule:nonzero;fill:rgb(81.748962%,87.748718%,92.749023%);fill-opacity:1;stroke-width:1.19553;stroke-linecap:butt;stroke-linejoin:miter;stroke:rgb(26.998901%,50.999451%,70.999146%);stroke-opacity:1;stroke-miterlimit:10;" d="M 80.445344 77.954859 C 80.445344 79.329859 79.328156 80.44314 77.953156 80.44314 C 76.578156 80.44314 75.464875 79.329859 75.464875 77.954859 C 75.464875 76.579859 76.578156 75.462671 77.953156 75.462671 C 79.328156 75.462671 80.445344 76.579859 80.445344 77.954859 Z M 80.445344 77.954859 " transform="matrix(1,0,0,-1,2.832,116.03689)"/>
<path style="fill-rule:nonzero;fill:rgb(81.748962%,87.748718%,92.749023%);fill-opacity:1;stroke-width:1.19553;stroke-linecap:butt;stroke-linejoin:miter;stroke:rgb(26.998901%,50.999451%,70.999146%);stroke-opacity:1;stroke-miterlimit:10;" d="M 23.750031 92.126734 C 23.750031 93.501734 22.63675 94.618921 21.26175 94.618921 C 19.882844 94.618921 18.769563 93.501734 18.769563 92.126734 C 18.769563 90.751734 19.882844 89.634546 21.26175 89.634546 C 22.63675 89.634546 23.750031 90.751734 23.750031 92.126734 Z M 23.750031 92.126734 " transform="matrix(1,0,0,-1,2.832,116.03689)"/>
<path style="fill-rule:nonzero;fill:rgb(81.748962%,87.748718%,92.749023%);fill-opacity:1;stroke-width:1.19553;stroke-linecap:butt;stroke-linejoin:miter;stroke:rgb(26.998901%,50.999451%,70.999146%);stroke-opacity:1;stroke-miterlimit:10;" d="M 52.097688 106.298609 C 52.097688 107.677515 50.984406 108.790796 49.6055 108.790796 C 48.2305 108.790796 47.117219 107.677515 47.117219 106.298609 C 47.117219 104.923609 48.2305 103.810327 49.6055 103.810327 C 50.984406 103.810327 52.097688 104.923609 52.097688 106.298609 Z M 52.097688 106.298609 " transform="matrix(1,0,0,-1,2.832,116.03689)"/>
<path style=" stroke:none;fill-rule:nonzero;fill:rgb(96.566772%,76.959229%,80.880737%);fill-opacity:1;" d="M 97.449219 108.949219 C 97.449219 107.574219 96.335938 106.460938 94.960938 106.460938 C 93.582031 106.460938 92.46875 107.574219 92.46875 108.949219 C 92.46875 110.324219 93.582031 111.441406 94.960938 111.441406 C 96.335938 111.441406 97.449219 110.324219 97.449219 108.949219 Z M 97.449219 108.949219 "/>
<g clip-path="url(#clip2)" clip-rule="nonzero">
<path style="fill:none;stroke-width:1.19553;stroke-linecap:butt;stroke-linejoin:miter;stroke:rgb(86.299133%,7.798767%,23.498535%);stroke-opacity:1;stroke-miterlimit:10;" d="M 94.617219 7.087671 C 94.617219 8.462671 93.503938 9.575952 92.128938 9.575952 C 90.750031 9.575952 89.63675 8.462671 89.63675 7.087671 C 89.63675 5.712671 90.750031 4.595484 92.128938 4.595484 C 93.503938 4.595484 94.617219 5.712671 94.617219 7.087671 Z M 94.617219 7.087671 " transform="matrix(1,0,0,-1,2.832,116.03689)"/>
</g>
<path style="fill-rule:nonzero;fill:rgb(96.566772%,76.959229%,80.880737%);fill-opacity:1;stroke-width:1.19553;stroke-linecap:butt;stroke-linejoin:miter;stroke:rgb(86.299133%,7.798767%,23.498535%);stroke-opacity:1;stroke-miterlimit:10;" d="M 94.617219 21.259546 C 94.617219 22.634546 93.503938 23.751734 92.128938 23.751734 C 90.750031 23.751734 89.63675 22.634546 89.63675 21.259546 C 89.63675 19.884546 90.750031 18.771265 92.128938 18.771265 C 93.503938 18.771265 94.617219 19.884546 94.617219 21.259546 Z M 94.617219 21.259546 " transform="matrix(1,0,0,-1,2.832,116.03689)"/>
<path style="fill-rule:nonzero;fill:rgb(96.566772%,76.959229%,80.880737%);fill-opacity:1;stroke-width:1.19553;stroke-linecap:butt;stroke-linejoin:miter;stroke:rgb(86.299133%,7.798767%,23.498535%);stroke-opacity:1;stroke-miterlimit:10;" d="M 66.269563 35.435327 C 66.269563 36.810327 65.156281 37.923609 63.781281 37.923609 C 62.406281 37.923609 61.289094 36.810327 61.289094 35.435327 C 61.289094 34.056421 62.406281 32.94314 63.781281 32.94314 C 65.156281 32.94314 66.269563 34.056421 66.269563 35.435327 Z M 66.269563 35.435327 " transform="matrix(1,0,0,-1,2.832,116.03689)"/>
<path style="fill-rule:nonzero;fill:rgb(96.566772%,76.959229%,80.880737%);fill-opacity:1;stroke-width:1.19553;stroke-linecap:butt;stroke-linejoin:miter;stroke:rgb(86.299133%,7.798767%,23.498535%);stroke-opacity:1;stroke-miterlimit:10;" d="M 80.445344 49.607202 C 80.445344 50.982202 79.328156 52.09939 77.953156 52.09939 C 76.578156 52.09939 75.464875 50.982202 75.464875 49.607202 C 75.464875 48.232202 76.578156 47.115015 77.953156 47.115015 C 79.328156 47.115015 80.445344 48.232202 80.445344 49.607202 Z M 80.445344 49.607202 " transform="matrix(1,0,0,-1,2.832,116.03689)"/>
<path style="fill-rule:nonzero;fill:rgb(96.566772%,76.959229%,80.880737%);fill-opacity:1;stroke-width:1.19553;stroke-linecap:butt;stroke-linejoin:miter;stroke:rgb(86.299133%,7.798767%,23.498535%);stroke-opacity:1;stroke-miterlimit:10;" d="M 94.617219 63.779077 C 94.617219 65.154077 93.503938 66.271265 92.128938 66.271265 C 90.750031 66.271265 89.63675 65.154077 89.63675 63.779077 C 89.63675 62.404077 90.750031 61.290796 92.128938 61.290796 C 93.503938 61.290796 94.617219 62.404077 94.617219 63.779077 Z M 94.617219 63.779077 " transform="matrix(1,0,0,-1,2.832,116.03689)"/>
<path style=" stroke:none;fill-rule:nonzero;fill:rgb(96.566772%,76.959229%,80.880737%);fill-opacity:1;" d="M 111.625 38.082031 C 111.625 36.707031 110.507812 35.59375 109.132812 35.59375 C 107.757812 35.59375 106.640625 36.707031 106.640625 38.082031 C 106.640625 39.457031 107.757812 40.574219 109.132812 40.574219 C 110.507812 40.574219 111.625 39.457031 111.625 38.082031 Z M 111.625 38.082031 "/>
<g clip-path="url(#clip3)" clip-rule="nonzero">
<path style="fill:none;stroke-width:1.19553;stroke-linecap:butt;stroke-linejoin:miter;stroke:rgb(86.299133%,7.798767%,23.498535%);stroke-opacity:1;stroke-miterlimit:10;" d="M 108.793 77.954859 C 108.793 79.329859 107.675813 80.44314 106.300813 80.44314 C 104.925813 80.44314 103.808625 79.329859 103.808625 77.954859 C 103.808625 76.579859 104.925813 75.462671 106.300813 75.462671 C 107.675813 75.462671 108.793 76.579859 108.793 77.954859 Z M 108.793 77.954859 " transform="matrix(1,0,0,-1,2.832,116.03689)"/>
</g>
<path style="fill-rule:nonzero;fill:rgb(96.566772%,76.959229%,80.880737%);fill-opacity:1;stroke-width:1.19553;stroke-linecap:butt;stroke-linejoin:miter;stroke:rgb(86.299133%,7.798767%,23.498535%);stroke-opacity:1;stroke-miterlimit:10;" d="M 52.097688 92.126734 C 52.097688 93.501734 50.984406 94.618921 49.6055 94.618921 C 48.2305 94.618921 47.117219 93.501734 47.117219 92.126734 C 47.117219 90.751734 48.2305 89.634546 49.6055 89.634546 C 50.984406 89.634546 52.097688 90.751734 52.097688 92.126734 Z M 52.097688 92.126734 " transform="matrix(1,0,0,-1,2.832,116.03689)"/>
<path style="fill-rule:nonzero;fill:rgb(96.566772%,76.959229%,80.880737%);fill-opacity:1;stroke-width:1.19553;stroke-linecap:butt;stroke-linejoin:miter;stroke:rgb(86.299133%,7.798767%,23.498535%);stroke-opacity:1;stroke-miterlimit:10;" d="M 80.445344 106.298609 C 80.445344 107.677515 79.328156 108.790796 77.953156 108.790796 C 76.578156 108.790796 75.464875 107.677515 75.464875 106.298609 C 75.464875 104.923609 76.578156 103.810327 77.953156 103.810327 C 79.328156 103.810327 80.445344 104.923609 80.445344 106.298609 Z M 80.445344 106.298609 " transform="matrix(1,0,0,-1,2.832,116.03689)"/>
</g>
</svg>
