<?xml version="1.0" encoding="UTF-8"?>
<svg xmlns="http://www.w3.org/2000/svg" xmlns:xlink="http://www.w3.org/1999/xlink" width="226.16pt" height="70.59843pt" viewBox="0 0 226.16 70.59843" version="1.1">
<defs>
<clipPath id="clip1">
  <path d="M 0 64 L 226.160156 64 L 226.160156 65 L 0 65 Z M 0 64 "/>
</clipPath>
<clipPath id="clip2">
  <path d="M 22 0 L 71 0 L 71 70.597656 L 22 70.597656 Z M 22 0 "/>
</clipPath>
<clipPath id="clip3">
  <path d="M 38 56 L 55 56 L 55 70.597656 L 38 70.597656 Z M 38 56 "/>
</clipPath>
<clipPath id="clip4">
  <path d="M 135 0 L 184 0 L 184 70.597656 L 135 70.597656 Z M 135 0 "/>
</clipPath>
<clipPath id="clip5">
  <path d="M 151 56 L 168 56 L 168 70.597656 L 151 70.597656 Z M 151 56 "/>
</clipPath>
</defs>
<g id="surface1">
<g clip-path="url(#clip1)" clip-rule="nonzero">
<path style="fill:none;stroke-width:0.3985;stroke-linecap:butt;stroke-linejoin:miter;stroke:rgb(0%,0%,0%);stroke-opacity:1;stroke-dasharray:2.98883,2.98883;stroke-miterlimit:10;" d="M -45.355406 0.00042125 L 181.421938 0.00042125 " transform="matrix(1,0,0,-1,46.289,64.73089)"/>
</g>
<g clip-path="url(#clip2)" clip-rule="nonzero">
<path style="fill:none;stroke-width:0.3985;stroke-linecap:butt;stroke-linejoin:miter;stroke:rgb(0%,0%,0%);stroke-opacity:1;stroke-miterlimit:10;" d="M 18.140687 29.48089 C 18.140687 48.266046 10.019594 63.496515 0.0000625 63.496515 C -10.019469 63.496515 -18.140563 48.266046 -18.140563 29.48089 C -18.140563 10.695734 -10.019469 -4.534735 0.0000625 -4.534735 C 10.019594 -4.534735 18.140687 10.695734 18.140687 29.48089 Z M 18.140687 29.48089 " transform="matrix(1,0,0,-1,46.289,64.73089)"/>
</g>
<path style=" stroke:none;fill-rule:nonzero;fill:rgb(0%,0%,0%);fill-opacity:1;" d="M 48.679688 64.730469 C 48.679688 63.410156 47.609375 62.339844 46.289062 62.339844 C 44.96875 62.339844 43.898438 63.410156 43.898438 64.730469 C 43.898438 66.050781 44.96875 67.121094 46.289062 67.121094 C 47.609375 67.121094 48.679688 66.050781 48.679688 64.730469 Z M 48.679688 64.730469 "/>
<g clip-path="url(#clip3)" clip-rule="nonzero">
<path style="fill:none;stroke-width:0.3985;stroke-linecap:butt;stroke-linejoin:miter;stroke:rgb(0%,0%,0%);stroke-opacity:1;stroke-miterlimit:10;" d="M 2.390687 0.00042125 C 2.390687 1.320734 1.320375 2.391046 0.0000625 2.391046 C -1.32025 2.391046 -2.390563 1.320734 -2.390563 0.00042125 C -2.390563 -1.319891 -1.32025 -2.390204 0.0000625 -2.390204 C 1.320375 -2.390204 2.390687 -1.319891 2.390687 0.00042125 Z M 2.390687 0.00042125 " transform="matrix(1,0,0,-1,46.289,64.73089)"/>
</g>
<path style="fill-rule:nonzero;fill:rgb(0%,0%,0%);fill-opacity:1;stroke-width:0.3985;stroke-linecap:butt;stroke-linejoin:miter;stroke:rgb(0%,0%,0%);stroke-opacity:1;stroke-miterlimit:10;" d="M 18.265687 45.35589 C 18.265687 46.676203 17.195375 47.746515 15.875062 47.746515 C 14.55475 47.746515 13.484437 46.676203 13.484437 45.35589 C 13.484437 44.035578 14.55475 42.965265 15.875062 42.965265 C 17.195375 42.965265 18.265687 44.035578 18.265687 45.35589 Z M 18.265687 45.35589 " transform="matrix(1,0,0,-1,46.289,64.73089)"/>
<g clip-path="url(#clip4)" clip-rule="nonzero">
<path style="fill:none;stroke-width:0.3985;stroke-linecap:butt;stroke-linejoin:miter;stroke:rgb(0%,0%,0%);stroke-opacity:1;stroke-miterlimit:10;" d="M 131.531313 29.48089 C 131.531313 48.266046 123.406312 63.496515 113.386781 63.496515 C 103.36725 63.496515 95.246156 48.266046 95.246156 29.48089 C 95.246156 10.695734 103.36725 -4.534735 113.386781 -4.534735 C 123.406312 -4.534735 131.531313 10.695734 131.531313 29.48089 Z M 131.531313 29.48089 " transform="matrix(1,0,0,-1,46.289,64.73089)"/>
</g>
<path style=" stroke:none;fill-rule:nonzero;fill:rgb(0%,0%,0%);fill-opacity:1;" d="M 162.066406 64.730469 C 162.066406 63.410156 160.996094 62.339844 159.675781 62.339844 C 158.355469 62.339844 157.285156 63.410156 157.285156 64.730469 C 157.285156 66.050781 158.355469 67.121094 159.675781 67.121094 C 160.996094 67.121094 162.066406 66.050781 162.066406 64.730469 Z M 162.066406 64.730469 "/>
<g clip-path="url(#clip5)" clip-rule="nonzero">
<path style="fill:none;stroke-width:0.3985;stroke-linecap:butt;stroke-linejoin:miter;stroke:rgb(0%,0%,0%);stroke-opacity:1;stroke-miterlimit:10;" d="M 115.777406 0.00042125 C 115.777406 1.320734 114.707094 2.391046 113.386781 2.391046 C 112.066469 2.391046 110.996156 1.320734 110.996156 0.00042125 C 110.996156 -1.319891 112.066469 -2.390204 113.386781 -2.390204 C 114.707094 -2.390204 115.777406 -1.319891 115.777406 0.00042125 Z M 115.777406 0.00042125 " transform="matrix(1,0,0,-1,46.289,64.73089)"/>
</g>
<path style="fill-rule:nonzero;fill:rgb(0%,0%,0%);fill-opacity:1;stroke-width:0.3985;stroke-linecap:butt;stroke-linejoin:miter;stroke:rgb(0%,0%,0%);stroke-opacity:1;stroke-miterlimit:10;" d="M 131.652406 45.35589 C 131.652406 46.676203 130.582094 47.746515 129.261781 47.746515 C 127.941469 47.746515 126.871156 46.676203 126.871156 45.35589 C 126.871156 44.035578 127.941469 42.965265 129.261781 42.965265 C 130.582094 42.965265 131.652406 44.035578 131.652406 45.35589 Z M 131.652406 45.35589 " transform="matrix(1,0,0,-1,46.289,64.73089)"/>
<path style="fill:none;stroke-width:0.79701;stroke-linecap:butt;stroke-linejoin:miter;stroke:rgb(0%,0%,0%);stroke-opacity:1;stroke-miterlimit:10;" d="M 27.211 48.758234 C 27.211 51.88714 24.675844 54.426203 21.543031 54.426203 C 18.414125 54.426203 15.875062 51.88714 15.875062 48.758234 C 15.875062 45.625421 18.414125 43.086359 21.543031 43.086359 C 24.675844 43.086359 27.211 45.625421 27.211 48.758234 Z M 27.211 48.758234 " transform="matrix(1,0,0,-1,46.289,64.73089)"/>
<path style="fill:none;stroke-width:0.79701;stroke-linecap:butt;stroke-linejoin:miter;stroke:rgb(0%,0%,0%);stroke-opacity:1;stroke-miterlimit:10;" d="M 129.261781 45.35589 L 145.136781 49.891046 " transform="matrix(1,0,0,-1,46.289,64.73089)"/>
<path style="fill-rule:nonzero;fill:rgb(0%,0%,0%);fill-opacity:1;stroke-width:0.3985;stroke-linecap:butt;stroke-linejoin:miter;stroke:rgb(0%,0%,0%);stroke-opacity:1;stroke-miterlimit:10;" d="M 147.527406 49.891046 C 147.527406 51.211359 146.457094 52.281671 145.136781 52.281671 C 143.816469 52.281671 142.746156 51.211359 142.746156 49.891046 C 142.746156 48.570734 143.816469 47.500421 145.136781 47.500421 C 146.457094 47.500421 147.527406 48.570734 147.527406 49.891046 Z M 147.527406 49.891046 " transform="matrix(1,0,0,-1,46.289,64.73089)"/>
</g>
</svg>
