<?xml version="1.0" encoding="UTF-8"?>
<svg xmlns="http://www.w3.org/2000/svg" xmlns:xlink="http://www.w3.org/1999/xlink" width="81.2pt" height="85.94912pt" viewBox="0 0 81.2 85.94912" version="1.1">
<defs>
<clipPath id="clip1">
  <path d="M 13 74 L 29 74 L 29 85.949219 L 13 85.949219 Z M 13 74 "/>
</clipPath>
<clipPath id="clip2">
  <path d="M 52 74 L 69 74 L 69 85.949219 L 52 85.949219 Z M 52 74 "/>
</clipPath>
<clipPath id="clip3">
  <path d="M 32 74 L 49 74 L 49 85.949219 L 32 85.949219 Z M 32 74 "/>
</clipPath>
</defs>
<g id="surface1">
<path style="fill:none;stroke-width:0.3985;stroke-linecap:butt;stroke-linejoin:miter;stroke:rgb(0%,0%,0%);stroke-opacity:1;stroke-dasharray:2.98883,2.98883;stroke-miterlimit:10;" d="M -0.00040625 0.0005775 L 79.370688 0.0005775 " transform="matrix(1,0,0,-1,0.934,82.69589)"/>
<path style=" stroke:none;fill-rule:nonzero;fill:rgb(0%,0%,0%);fill-opacity:1;" d="M 22.867188 82.695312 C 22.867188 81.539062 21.933594 80.605469 20.777344 80.605469 C 19.621094 80.605469 18.683594 81.539062 18.683594 82.695312 C 18.683594 83.851562 19.621094 84.789062 20.777344 84.789062 C 21.933594 84.789062 22.867188 83.851562 22.867188 82.695312 Z M 22.867188 82.695312 "/>
<g clip-path="url(#clip1)" clip-rule="nonzero">
<path style="fill:none;stroke-width:0.3985;stroke-linecap:butt;stroke-linejoin:miter;stroke:rgb(0%,0%,0%);stroke-opacity:1;stroke-miterlimit:10;" d="M 21.933188 0.0005775 C 21.933188 1.156828 20.999594 2.090421 19.843344 2.090421 C 18.687094 2.090421 17.749594 1.156828 17.749594 0.0005775 C 17.749594 -1.155672 18.687094 -2.093172 19.843344 -2.093172 C 20.999594 -2.093172 21.933188 -1.155672 21.933188 0.0005775 Z M 21.933188 0.0005775 " transform="matrix(1,0,0,-1,0.934,82.69589)"/>
</g>
<path style="fill-rule:nonzero;fill:rgb(0%,0%,0%);fill-opacity:1;stroke-width:0.3985;stroke-linecap:butt;stroke-linejoin:miter;stroke:rgb(0%,0%,0%);stroke-opacity:1;stroke-miterlimit:10;" d="M 21.933188 19.844328 C 21.933188 20.996671 20.999594 21.934171 19.843344 21.934171 C 18.687094 21.934171 17.749594 20.996671 17.749594 19.844328 C 17.749594 18.688078 18.687094 17.750578 19.843344 17.750578 C 20.999594 17.750578 21.933188 18.688078 21.933188 19.844328 Z M 21.933188 19.844328 " transform="matrix(1,0,0,-1,0.934,82.69589)"/>
<path style="fill-rule:nonzero;fill:rgb(0%,0%,0%);fill-opacity:1;stroke-width:0.3985;stroke-linecap:butt;stroke-linejoin:miter;stroke:rgb(0%,0%,0%);stroke-opacity:1;stroke-miterlimit:10;" d="M 21.933188 39.684171 C 21.933188 40.840421 20.999594 41.777921 19.843344 41.777921 C 18.687094 41.777921 17.749594 40.840421 17.749594 39.684171 C 17.749594 38.527921 18.687094 37.594328 19.843344 37.594328 C 20.999594 37.594328 21.933188 38.527921 21.933188 39.684171 Z M 21.933188 39.684171 " transform="matrix(1,0,0,-1,0.934,82.69589)"/>
<path style="fill-rule:nonzero;fill:rgb(0%,0%,0%);fill-opacity:1;stroke-width:0.3985;stroke-linecap:butt;stroke-linejoin:miter;stroke:rgb(0%,0%,0%);stroke-opacity:1;stroke-miterlimit:10;" d="M 21.933188 59.527921 C 21.933188 60.684171 20.999594 61.621671 19.843344 61.621671 C 18.687094 61.621671 17.749594 60.684171 17.749594 59.527921 C 17.749594 58.371671 18.687094 57.434171 19.843344 57.434171 C 20.999594 57.434171 21.933188 58.371671 21.933188 59.527921 Z M 21.933188 59.527921 " transform="matrix(1,0,0,-1,0.934,82.69589)"/>
<path style="fill-rule:nonzero;fill:rgb(0%,0%,0%);fill-opacity:1;stroke-width:0.3985;stroke-linecap:butt;stroke-linejoin:miter;stroke:rgb(0%,0%,0%);stroke-opacity:1;stroke-miterlimit:10;" d="M 21.933188 79.371671 C 21.933188 80.527921 20.999594 81.461515 19.843344 81.461515 C 18.687094 81.461515 17.749594 80.527921 17.749594 79.371671 C 17.749594 78.215421 18.687094 77.277921 19.843344 77.277921 C 20.999594 77.277921 21.933188 78.215421 21.933188 79.371671 Z M 21.933188 79.371671 " transform="matrix(1,0,0,-1,0.934,82.69589)"/>
<path style="fill:none;stroke-width:0.79701;stroke-linecap:butt;stroke-linejoin:miter;stroke:rgb(0%,0%,0%);stroke-opacity:1;stroke-miterlimit:10;" d="M 19.843344 0.0005775 L 19.843344 79.371671 " transform="matrix(1,0,0,-1,0.934,82.69589)"/>
<path style=" stroke:none;fill-rule:nonzero;fill:rgb(0%,0%,0%);fill-opacity:1;" d="M 62.554688 82.695312 C 62.554688 81.539062 61.617188 80.605469 60.460938 80.605469 C 59.304688 80.605469 58.371094 81.539062 58.371094 82.695312 C 58.371094 83.851562 59.304688 84.789062 60.460938 84.789062 C 61.617188 84.789062 62.554688 83.851562 62.554688 82.695312 Z M 62.554688 82.695312 "/>
<g clip-path="url(#clip2)" clip-rule="nonzero">
<path style="fill:none;stroke-width:0.3985;stroke-linecap:butt;stroke-linejoin:miter;stroke:rgb(0%,0%,0%);stroke-opacity:1;stroke-miterlimit:10;" d="M 61.620688 0.0005775 C 61.620688 1.156828 60.683188 2.090421 59.526938 2.090421 C 58.370688 2.090421 57.437094 1.156828 57.437094 0.0005775 C 57.437094 -1.155672 58.370688 -2.093172 59.526938 -2.093172 C 60.683188 -2.093172 61.620688 -1.155672 61.620688 0.0005775 Z M 61.620688 0.0005775 " transform="matrix(1,0,0,-1,0.934,82.69589)"/>
</g>
<path style="fill-rule:nonzero;fill:rgb(0%,0%,0%);fill-opacity:1;stroke-width:0.3985;stroke-linecap:butt;stroke-linejoin:miter;stroke:rgb(0%,0%,0%);stroke-opacity:1;stroke-miterlimit:10;" d="M 61.620688 19.844328 C 61.620688 20.996671 60.683188 21.934171 59.526938 21.934171 C 58.370688 21.934171 57.437094 20.996671 57.437094 19.844328 C 57.437094 18.688078 58.370688 17.750578 59.526938 17.750578 C 60.683188 17.750578 61.620688 18.688078 61.620688 19.844328 Z M 61.620688 19.844328 " transform="matrix(1,0,0,-1,0.934,82.69589)"/>
<path style="fill-rule:nonzero;fill:rgb(0%,0%,0%);fill-opacity:1;stroke-width:0.3985;stroke-linecap:butt;stroke-linejoin:miter;stroke:rgb(0%,0%,0%);stroke-opacity:1;stroke-miterlimit:10;" d="M 61.620688 39.684171 C 61.620688 40.840421 60.683188 41.777921 59.526938 41.777921 C 58.370688 41.777921 57.437094 40.840421 57.437094 39.684171 C 57.437094 38.527921 58.370688 37.594328 59.526938 37.594328 C 60.683188 37.594328 61.620688 38.527921 61.620688 39.684171 Z M 61.620688 39.684171 " transform="matrix(1,0,0,-1,0.934,82.69589)"/>
<path style="fill:none;stroke-width:0.79701;stroke-linecap:butt;stroke-linejoin:miter;stroke:rgb(0%,0%,0%);stroke-opacity:1;stroke-miterlimit:10;" d="M 59.526938 0.0005775 L 59.526938 39.684171 " transform="matrix(1,0,0,-1,0.934,82.69589)"/>
<path style=" stroke:none;fill-rule:nonzero;fill:rgb(0%,0%,0%);fill-opacity:1;" d="M 42.710938 82.695312 C 42.710938 81.539062 41.773438 80.605469 40.621094 80.605469 C 39.464844 80.605469 38.527344 81.539062 38.527344 82.695312 C 38.527344 83.851562 39.464844 84.789062 40.621094 84.789062 C 41.773438 84.789062 42.710938 83.851562 42.710938 82.695312 Z M 42.710938 82.695312 "/>
<g clip-path="url(#clip3)" clip-rule="nonzero">
<path style="fill:none;stroke-width:0.3985;stroke-linecap:butt;stroke-linejoin:miter;stroke:rgb(0%,0%,0%);stroke-opacity:1;stroke-miterlimit:10;" d="M 41.776938 0.0005775 C 41.776938 1.156828 40.839438 2.090421 39.687094 2.090421 C 38.530844 2.090421 37.593344 1.156828 37.593344 0.0005775 C 37.593344 -1.155672 38.530844 -2.093172 39.687094 -2.093172 C 40.839438 -2.093172 41.776938 -1.155672 41.776938 0.0005775 Z M 41.776938 0.0005775 " transform="matrix(1,0,0,-1,0.934,82.69589)"/>
</g>
<path style="fill-rule:nonzero;fill:rgb(0%,0%,0%);fill-opacity:1;stroke-width:0.3985;stroke-linecap:butt;stroke-linejoin:miter;stroke:rgb(0%,0%,0%);stroke-opacity:1;stroke-miterlimit:10;" d="M 41.776938 19.844328 C 41.776938 20.996671 40.839438 21.934171 39.687094 21.934171 C 38.530844 21.934171 37.593344 20.996671 37.593344 19.844328 C 37.593344 18.688078 38.530844 17.750578 39.687094 17.750578 C 40.839438 17.750578 41.776938 18.688078 41.776938 19.844328 Z M 41.776938 19.844328 " transform="matrix(1,0,0,-1,0.934,82.69589)"/>
<path style="fill:none;stroke-width:0.79701;stroke-linecap:butt;stroke-linejoin:miter;stroke:rgb(0%,0%,0%);stroke-opacity:1;stroke-miterlimit:10;" d="M 39.687094 0.0005775 L 39.687094 19.844328 " transform="matrix(1,0,0,-1,0.934,82.69589)"/>
</g>
</svg>
