<?xml version="1.0" encoding="UTF-8"?>
<svg xmlns="http://www.w3.org/2000/svg" xmlns:xlink="http://www.w3.org/1999/xlink" width="191.12pt" height="61.96366pt" viewBox="0 0 191.12 61.96366" version="1.1">
<defs>
<clipPath id="clip1">
  <path d="M 4 52 L 19 52 L 19 61.964844 L 4 61.964844 Z M 4 52 "/>
</clipPath>
<clipPath id="clip2">
  <path d="M 47 52 L 62 52 L 62 61.964844 L 47 61.964844 Z M 47 52 "/>
</clipPath>
<clipPath id="clip3">
  <path d="M 89 52 L 104 52 L 104 61.964844 L 89 61.964844 Z M 89 52 "/>
</clipPath>
<clipPath id="clip4">
  <path d="M 132 52 L 147 52 L 147 61.964844 L 132 61.964844 Z M 132 52 "/>
</clipPath>
<clipPath id="clip5">
  <path d="M 182 17 L 191.121094 17 L 191.121094 31 L 182 31 Z M 182 17 "/>
</clipPath>
</defs>
<g id="surface1">
<path style=" stroke:none;fill-rule:nonzero;fill:rgb(0%,0%,0%);fill-opacity:1;" d="M 13.257812 59.421875 C 13.257812 58.597656 12.589844 57.925781 11.761719 57.925781 C 10.9375 57.925781 10.269531 58.597656 10.269531 59.421875 C 10.269531 60.246094 10.9375 60.917969 11.761719 60.917969 C 12.589844 60.917969 13.257812 60.246094 13.257812 59.421875 Z M 13.257812 59.421875 "/>
<g clip-path="url(#clip1)" clip-rule="nonzero">
<path style="fill:none;stroke-width:0.3985;stroke-linecap:butt;stroke-linejoin:miter;stroke:rgb(0%,0%,0%);stroke-opacity:1;stroke-miterlimit:10;" d="M 1.494813 0.000015 C 1.494813 0.824234 0.826844 1.496109 -0.00128125 1.496109 C -0.8255 1.496109 -1.493469 0.824234 -1.493469 0.000015 C -1.493469 -0.824204 -0.8255 -1.496079 -0.00128125 -1.496079 C 0.826844 -1.496079 1.494813 -0.824204 1.494813 0.000015 Z M 1.494813 0.000015 " transform="matrix(1,0,0,-1,11.763,59.42189)"/>
</g>
<path style="fill-rule:nonzero;fill:rgb(0%,0%,0%);fill-opacity:1;stroke-width:0.3985;stroke-linecap:butt;stroke-linejoin:miter;stroke:rgb(0%,0%,0%);stroke-opacity:1;stroke-miterlimit:10;" d="M 1.494813 14.17189 C 1.494813 15.000015 0.826844 15.667984 -0.00128125 15.667984 C -0.8255 15.667984 -1.493469 15.000015 -1.493469 14.17189 C -1.493469 13.347671 -0.8255 12.679702 -0.00128125 12.679702 C 0.826844 12.679702 1.494813 13.347671 1.494813 14.17189 Z M 1.494813 14.17189 " transform="matrix(1,0,0,-1,11.763,59.42189)"/>
<path style="fill-rule:nonzero;fill:rgb(0%,0%,0%);fill-opacity:1;stroke-width:0.3985;stroke-linecap:butt;stroke-linejoin:miter;stroke:rgb(0%,0%,0%);stroke-opacity:1;stroke-miterlimit:10;" d="M 15.666688 14.17189 C 15.666688 15.000015 14.998719 15.667984 14.1745 15.667984 C 13.346375 15.667984 12.678406 15.000015 12.678406 14.17189 C 12.678406 13.347671 13.346375 12.679702 14.1745 12.679702 C 14.998719 12.679702 15.666688 13.347671 15.666688 14.17189 Z M 15.666688 14.17189 " transform="matrix(1,0,0,-1,11.763,59.42189)"/>
<path style="fill:none;stroke-width:0.79701;stroke-linecap:butt;stroke-linejoin:miter;stroke:rgb(0%,0%,0%);stroke-opacity:1;stroke-miterlimit:10;" d="M -0.00128125 14.17189 L 14.1745 14.17189 " transform="matrix(1,0,0,-1,11.763,59.42189)"/>
<path style="fill:none;stroke-width:0.79701;stroke-linecap:butt;stroke-linejoin:miter;stroke:rgb(0%,0%,0%);stroke-opacity:1;stroke-miterlimit:10;" d="M -0.00128125 0.000015 L -0.00128125 14.17189 " transform="matrix(1,0,0,-1,11.763,59.42189)"/>
<path style="fill:none;stroke-width:0.79701;stroke-linecap:butt;stroke-linejoin:miter;stroke:rgb(0%,0%,0%);stroke-opacity:1;stroke-dasharray:2.98883,2.98883;stroke-miterlimit:10;" d="M -10.630187 0.000015 L 10.631531 0.000015 " transform="matrix(1,0,0,-1,11.763,59.42189)"/>
<path style=" stroke:none;fill-rule:nonzero;fill:rgb(0%,0%,0%);fill-opacity:1;" d="M 55.777344 59.421875 C 55.777344 58.597656 55.109375 57.925781 54.28125 57.925781 C 53.457031 57.925781 52.789062 58.597656 52.789062 59.421875 C 52.789062 60.246094 53.457031 60.917969 54.28125 60.917969 C 55.109375 60.917969 55.777344 60.246094 55.777344 59.421875 Z M 55.777344 59.421875 "/>
<g clip-path="url(#clip2)" clip-rule="nonzero">
<path style="fill:none;stroke-width:0.3985;stroke-linecap:butt;stroke-linejoin:miter;stroke:rgb(0%,0%,0%);stroke-opacity:1;stroke-miterlimit:10;" d="M 44.014344 0.000015 C 44.014344 0.824234 43.346375 1.496109 42.51825 1.496109 C 41.694031 1.496109 41.026063 0.824234 41.026063 0.000015 C 41.026063 -0.824204 41.694031 -1.496079 42.51825 -1.496079 C 43.346375 -1.496079 44.014344 -0.824204 44.014344 0.000015 Z M 44.014344 0.000015 " transform="matrix(1,0,0,-1,11.763,59.42189)"/>
</g>
<path style="fill-rule:nonzero;fill:rgb(0%,0%,0%);fill-opacity:1;stroke-width:0.3985;stroke-linecap:butt;stroke-linejoin:miter;stroke:rgb(0%,0%,0%);stroke-opacity:1;stroke-miterlimit:10;" d="M 44.014344 14.17189 C 44.014344 15.000015 43.346375 15.667984 42.51825 15.667984 C 41.694031 15.667984 41.026063 15.000015 41.026063 14.17189 C 41.026063 13.347671 41.694031 12.679702 42.51825 12.679702 C 43.346375 12.679702 44.014344 13.347671 44.014344 14.17189 Z M 44.014344 14.17189 " transform="matrix(1,0,0,-1,11.763,59.42189)"/>
<path style="fill-rule:nonzero;fill:rgb(0%,0%,0%);fill-opacity:1;stroke-width:0.3985;stroke-linecap:butt;stroke-linejoin:miter;stroke:rgb(0%,0%,0%);stroke-opacity:1;stroke-miterlimit:10;" d="M 44.014344 28.347671 C 44.014344 29.17189 43.346375 29.839859 42.51825 29.839859 C 41.694031 29.839859 41.026063 29.17189 41.026063 28.347671 C 41.026063 27.519546 41.694031 26.851577 42.51825 26.851577 C 43.346375 26.851577 44.014344 27.519546 44.014344 28.347671 Z M 44.014344 28.347671 " transform="matrix(1,0,0,-1,11.763,59.42189)"/>
<path style="fill-rule:nonzero;fill:rgb(0%,0%,0%);fill-opacity:1;stroke-width:0.3985;stroke-linecap:butt;stroke-linejoin:miter;stroke:rgb(0%,0%,0%);stroke-opacity:1;stroke-miterlimit:10;" d="M 58.186219 14.17189 C 58.186219 15.000015 57.51825 15.667984 56.694031 15.667984 C 55.869813 15.667984 55.197938 15.000015 55.197938 14.17189 C 55.197938 13.347671 55.869813 12.679702 56.694031 12.679702 C 57.51825 12.679702 58.186219 13.347671 58.186219 14.17189 Z M 58.186219 14.17189 " transform="matrix(1,0,0,-1,11.763,59.42189)"/>
<path style="fill:none;stroke-width:0.79701;stroke-linecap:butt;stroke-linejoin:miter;stroke:rgb(0%,0%,0%);stroke-opacity:1;stroke-miterlimit:10;" d="M 42.51825 14.17189 L 56.694031 14.17189 " transform="matrix(1,0,0,-1,11.763,59.42189)"/>
<path style="fill-rule:nonzero;fill:rgb(0%,0%,0%);fill-opacity:1;stroke-width:0.3985;stroke-linecap:butt;stroke-linejoin:miter;stroke:rgb(0%,0%,0%);stroke-opacity:1;stroke-miterlimit:10;" d="M 58.186219 28.347671 C 58.186219 29.17189 57.51825 29.839859 56.694031 29.839859 C 55.869813 29.839859 55.197938 29.17189 55.197938 28.347671 C 55.197938 27.519546 55.869813 26.851577 56.694031 26.851577 C 57.51825 26.851577 58.186219 27.519546 58.186219 28.347671 Z M 58.186219 28.347671 " transform="matrix(1,0,0,-1,11.763,59.42189)"/>
<path style="fill:none;stroke-width:0.79701;stroke-linecap:butt;stroke-linejoin:miter;stroke:rgb(0%,0%,0%);stroke-opacity:1;stroke-miterlimit:10;" d="M 42.51825 28.347671 L 56.694031 28.347671 " transform="matrix(1,0,0,-1,11.763,59.42189)"/>
<path style="fill:none;stroke-width:0.79701;stroke-linecap:butt;stroke-linejoin:miter;stroke:rgb(0%,0%,0%);stroke-opacity:1;stroke-miterlimit:10;" d="M 42.51825 0.000015 L 42.51825 28.347671 " transform="matrix(1,0,0,-1,11.763,59.42189)"/>
<path style="fill:none;stroke-width:0.79701;stroke-linecap:butt;stroke-linejoin:miter;stroke:rgb(0%,0%,0%);stroke-opacity:1;stroke-dasharray:2.98883,2.98883;stroke-miterlimit:10;" d="M 31.889344 0.000015 L 53.151063 0.000015 " transform="matrix(1,0,0,-1,11.763,59.42189)"/>
<path style=" stroke:none;fill-rule:nonzero;fill:rgb(0%,0%,0%);fill-opacity:1;" d="M 98.296875 59.421875 C 98.296875 58.597656 97.628906 57.925781 96.804688 57.925781 C 95.976562 57.925781 95.308594 58.597656 95.308594 59.421875 C 95.308594 60.246094 95.976562 60.917969 96.804688 60.917969 C 97.628906 60.917969 98.296875 60.246094 98.296875 59.421875 Z M 98.296875 59.421875 "/>
<g clip-path="url(#clip3)" clip-rule="nonzero">
<path style="fill:none;stroke-width:0.3985;stroke-linecap:butt;stroke-linejoin:miter;stroke:rgb(0%,0%,0%);stroke-opacity:1;stroke-miterlimit:10;" d="M 86.533875 0.000015 C 86.533875 0.824234 85.865906 1.496109 85.041687 1.496109 C 84.213562 1.496109 83.545594 0.824234 83.545594 0.000015 C 83.545594 -0.824204 84.213562 -1.496079 85.041687 -1.496079 C 85.865906 -1.496079 86.533875 -0.824204 86.533875 0.000015 Z M 86.533875 0.000015 " transform="matrix(1,0,0,-1,11.763,59.42189)"/>
</g>
<path style="fill-rule:nonzero;fill:rgb(0%,0%,0%);fill-opacity:1;stroke-width:0.3985;stroke-linecap:butt;stroke-linejoin:miter;stroke:rgb(0%,0%,0%);stroke-opacity:1;stroke-miterlimit:10;" d="M 86.533875 14.17189 C 86.533875 15.000015 85.865906 15.667984 85.041687 15.667984 C 84.213562 15.667984 83.545594 15.000015 83.545594 14.17189 C 83.545594 13.347671 84.213562 12.679702 85.041687 12.679702 C 85.865906 12.679702 86.533875 13.347671 86.533875 14.17189 Z M 86.533875 14.17189 " transform="matrix(1,0,0,-1,11.763,59.42189)"/>
<path style="fill-rule:nonzero;fill:rgb(0%,0%,0%);fill-opacity:1;stroke-width:0.3985;stroke-linecap:butt;stroke-linejoin:miter;stroke:rgb(0%,0%,0%);stroke-opacity:1;stroke-miterlimit:10;" d="M 86.533875 28.347671 C 86.533875 29.17189 85.865906 29.839859 85.041687 29.839859 C 84.213562 29.839859 83.545594 29.17189 83.545594 28.347671 C 83.545594 27.519546 84.213562 26.851577 85.041687 26.851577 C 85.865906 26.851577 86.533875 27.519546 86.533875 28.347671 Z M 86.533875 28.347671 " transform="matrix(1,0,0,-1,11.763,59.42189)"/>
<path style="fill-rule:nonzero;fill:rgb(0%,0%,0%);fill-opacity:1;stroke-width:0.3985;stroke-linecap:butt;stroke-linejoin:miter;stroke:rgb(0%,0%,0%);stroke-opacity:1;stroke-miterlimit:10;" d="M 86.533875 42.519546 C 86.533875 43.343765 85.865906 44.01564 85.041687 44.01564 C 84.213562 44.01564 83.545594 43.343765 83.545594 42.519546 C 83.545594 41.695327 84.213562 41.027359 85.041687 41.027359 C 85.865906 41.027359 86.533875 41.695327 86.533875 42.519546 Z M 86.533875 42.519546 " transform="matrix(1,0,0,-1,11.763,59.42189)"/>
<path style="fill-rule:nonzero;fill:rgb(0%,0%,0%);fill-opacity:1;stroke-width:0.3985;stroke-linecap:butt;stroke-linejoin:miter;stroke:rgb(0%,0%,0%);stroke-opacity:1;stroke-miterlimit:10;" d="M 100.709656 14.17189 C 100.709656 15.000015 100.037781 15.667984 99.213562 15.667984 C 98.389344 15.667984 97.717469 15.000015 97.717469 14.17189 C 97.717469 13.347671 98.389344 12.679702 99.213562 12.679702 C 100.037781 12.679702 100.709656 13.347671 100.709656 14.17189 Z M 100.709656 14.17189 " transform="matrix(1,0,0,-1,11.763,59.42189)"/>
<path style="fill:none;stroke-width:0.79701;stroke-linecap:butt;stroke-linejoin:miter;stroke:rgb(0%,0%,0%);stroke-opacity:1;stroke-miterlimit:10;" d="M 85.041687 14.17189 L 99.213562 14.17189 " transform="matrix(1,0,0,-1,11.763,59.42189)"/>
<path style="fill-rule:nonzero;fill:rgb(0%,0%,0%);fill-opacity:1;stroke-width:0.3985;stroke-linecap:butt;stroke-linejoin:miter;stroke:rgb(0%,0%,0%);stroke-opacity:1;stroke-miterlimit:10;" d="M 100.709656 28.347671 C 100.709656 29.17189 100.037781 29.839859 99.213562 29.839859 C 98.389344 29.839859 97.717469 29.17189 97.717469 28.347671 C 97.717469 27.519546 98.389344 26.851577 99.213562 26.851577 C 100.037781 26.851577 100.709656 27.519546 100.709656 28.347671 Z M 100.709656 28.347671 " transform="matrix(1,0,0,-1,11.763,59.42189)"/>
<path style="fill:none;stroke-width:0.79701;stroke-linecap:butt;stroke-linejoin:miter;stroke:rgb(0%,0%,0%);stroke-opacity:1;stroke-miterlimit:10;" d="M 85.041687 28.347671 L 99.213562 28.347671 " transform="matrix(1,0,0,-1,11.763,59.42189)"/>
<path style="fill-rule:nonzero;fill:rgb(0%,0%,0%);fill-opacity:1;stroke-width:0.3985;stroke-linecap:butt;stroke-linejoin:miter;stroke:rgb(0%,0%,0%);stroke-opacity:1;stroke-miterlimit:10;" d="M 100.709656 42.519546 C 100.709656 43.343765 100.037781 44.01564 99.213562 44.01564 C 98.389344 44.01564 97.717469 43.343765 97.717469 42.519546 C 97.717469 41.695327 98.389344 41.027359 99.213562 41.027359 C 100.037781 41.027359 100.709656 41.695327 100.709656 42.519546 Z M 100.709656 42.519546 " transform="matrix(1,0,0,-1,11.763,59.42189)"/>
<path style="fill:none;stroke-width:0.79701;stroke-linecap:butt;stroke-linejoin:miter;stroke:rgb(0%,0%,0%);stroke-opacity:1;stroke-miterlimit:10;" d="M 85.041687 42.519546 L 99.213562 42.519546 " transform="matrix(1,0,0,-1,11.763,59.42189)"/>
<path style="fill:none;stroke-width:0.79701;stroke-linecap:butt;stroke-linejoin:miter;stroke:rgb(0%,0%,0%);stroke-opacity:1;stroke-miterlimit:10;" d="M 85.041687 0.000015 L 85.041687 42.519546 " transform="matrix(1,0,0,-1,11.763,59.42189)"/>
<path style="fill:none;stroke-width:0.79701;stroke-linecap:butt;stroke-linejoin:miter;stroke:rgb(0%,0%,0%);stroke-opacity:1;stroke-dasharray:2.98883,2.98883;stroke-miterlimit:10;" d="M 74.408875 0.000015 L 95.670594 0.000015 " transform="matrix(1,0,0,-1,11.763,59.42189)"/>
<path style=" stroke:none;fill-rule:nonzero;fill:rgb(0%,0%,0%);fill-opacity:1;" d="M 140.816406 59.421875 C 140.816406 58.597656 140.148438 57.925781 139.324219 57.925781 C 138.5 57.925781 137.828125 58.597656 137.828125 59.421875 C 137.828125 60.246094 138.5 60.917969 139.324219 60.917969 C 140.148438 60.917969 140.816406 60.246094 140.816406 59.421875 Z M 140.816406 59.421875 "/>
<g clip-path="url(#clip4)" clip-rule="nonzero">
<path style="fill:none;stroke-width:0.3985;stroke-linecap:butt;stroke-linejoin:miter;stroke:rgb(0%,0%,0%);stroke-opacity:1;stroke-miterlimit:10;" d="M 129.053406 0.000015 C 129.053406 0.824234 128.385437 1.496109 127.561219 1.496109 C 126.737 1.496109 126.065125 0.824234 126.065125 0.000015 C 126.065125 -0.824204 126.737 -1.496079 127.561219 -1.496079 C 128.385437 -1.496079 129.053406 -0.824204 129.053406 0.000015 Z M 129.053406 0.000015 " transform="matrix(1,0,0,-1,11.763,59.42189)"/>
</g>
<path style="fill-rule:nonzero;fill:rgb(0%,0%,0%);fill-opacity:1;stroke-width:0.3985;stroke-linecap:butt;stroke-linejoin:miter;stroke:rgb(0%,0%,0%);stroke-opacity:1;stroke-miterlimit:10;" d="M 129.053406 14.17189 C 129.053406 15.000015 128.385437 15.667984 127.561219 15.667984 C 126.737 15.667984 126.065125 15.000015 126.065125 14.17189 C 126.065125 13.347671 126.737 12.679702 127.561219 12.679702 C 128.385437 12.679702 129.053406 13.347671 129.053406 14.17189 Z M 129.053406 14.17189 " transform="matrix(1,0,0,-1,11.763,59.42189)"/>
<path style="fill-rule:nonzero;fill:rgb(0%,0%,0%);fill-opacity:1;stroke-width:0.3985;stroke-linecap:butt;stroke-linejoin:miter;stroke:rgb(0%,0%,0%);stroke-opacity:1;stroke-miterlimit:10;" d="M 129.053406 28.347671 C 129.053406 29.17189 128.385437 29.839859 127.561219 29.839859 C 126.737 29.839859 126.065125 29.17189 126.065125 28.347671 C 126.065125 27.519546 126.737 26.851577 127.561219 26.851577 C 128.385437 26.851577 129.053406 27.519546 129.053406 28.347671 Z M 129.053406 28.347671 " transform="matrix(1,0,0,-1,11.763,59.42189)"/>
<path style="fill-rule:nonzero;fill:rgb(0%,0%,0%);fill-opacity:1;stroke-width:0.3985;stroke-linecap:butt;stroke-linejoin:miter;stroke:rgb(0%,0%,0%);stroke-opacity:1;stroke-miterlimit:10;" d="M 129.053406 42.519546 C 129.053406 43.343765 128.385437 44.01564 127.561219 44.01564 C 126.737 44.01564 126.065125 43.343765 126.065125 42.519546 C 126.065125 41.695327 126.737 41.027359 127.561219 41.027359 C 128.385437 41.027359 129.053406 41.695327 129.053406 42.519546 Z M 129.053406 42.519546 " transform="matrix(1,0,0,-1,11.763,59.42189)"/>
<path style="fill-rule:nonzero;fill:rgb(0%,0%,0%);fill-opacity:1;stroke-width:0.3985;stroke-linecap:butt;stroke-linejoin:miter;stroke:rgb(0%,0%,0%);stroke-opacity:1;stroke-miterlimit:10;" d="M 129.053406 56.695327 C 129.053406 57.519546 128.385437 58.187515 127.561219 58.187515 C 126.737 58.187515 126.065125 57.519546 126.065125 56.695327 C 126.065125 55.867202 126.737 55.199234 127.561219 55.199234 C 128.385437 55.199234 129.053406 55.867202 129.053406 56.695327 Z M 129.053406 56.695327 " transform="matrix(1,0,0,-1,11.763,59.42189)"/>
<path style="fill-rule:nonzero;fill:rgb(0%,0%,0%);fill-opacity:1;stroke-width:0.3985;stroke-linecap:butt;stroke-linejoin:miter;stroke:rgb(0%,0%,0%);stroke-opacity:1;stroke-miterlimit:10;" d="M 143.229187 14.17189 C 143.229187 15.000015 142.561219 15.667984 141.733094 15.667984 C 140.908875 15.667984 140.240906 15.000015 140.240906 14.17189 C 140.240906 13.347671 140.908875 12.679702 141.733094 12.679702 C 142.561219 12.679702 143.229187 13.347671 143.229187 14.17189 Z M 143.229187 14.17189 " transform="matrix(1,0,0,-1,11.763,59.42189)"/>
<path style="fill:none;stroke-width:0.79701;stroke-linecap:butt;stroke-linejoin:miter;stroke:rgb(0%,0%,0%);stroke-opacity:1;stroke-miterlimit:10;" d="M 127.561219 14.17189 L 141.733094 14.17189 " transform="matrix(1,0,0,-1,11.763,59.42189)"/>
<path style="fill-rule:nonzero;fill:rgb(0%,0%,0%);fill-opacity:1;stroke-width:0.3985;stroke-linecap:butt;stroke-linejoin:miter;stroke:rgb(0%,0%,0%);stroke-opacity:1;stroke-miterlimit:10;" d="M 143.229187 28.347671 C 143.229187 29.17189 142.561219 29.839859 141.733094 29.839859 C 140.908875 29.839859 140.240906 29.17189 140.240906 28.347671 C 140.240906 27.519546 140.908875 26.851577 141.733094 26.851577 C 142.561219 26.851577 143.229187 27.519546 143.229187 28.347671 Z M 143.229187 28.347671 " transform="matrix(1,0,0,-1,11.763,59.42189)"/>
<path style="fill:none;stroke-width:0.79701;stroke-linecap:butt;stroke-linejoin:miter;stroke:rgb(0%,0%,0%);stroke-opacity:1;stroke-miterlimit:10;" d="M 127.561219 28.347671 L 141.733094 28.347671 " transform="matrix(1,0,0,-1,11.763,59.42189)"/>
<path style="fill-rule:nonzero;fill:rgb(0%,0%,0%);fill-opacity:1;stroke-width:0.3985;stroke-linecap:butt;stroke-linejoin:miter;stroke:rgb(0%,0%,0%);stroke-opacity:1;stroke-miterlimit:10;" d="M 143.229187 42.519546 C 143.229187 43.343765 142.561219 44.01564 141.733094 44.01564 C 140.908875 44.01564 140.240906 43.343765 140.240906 42.519546 C 140.240906 41.695327 140.908875 41.027359 141.733094 41.027359 C 142.561219 41.027359 143.229187 41.695327 143.229187 42.519546 Z M 143.229187 42.519546 " transform="matrix(1,0,0,-1,11.763,59.42189)"/>
<path style="fill:none;stroke-width:0.79701;stroke-linecap:butt;stroke-linejoin:miter;stroke:rgb(0%,0%,0%);stroke-opacity:1;stroke-miterlimit:10;" d="M 127.561219 42.519546 L 141.733094 42.519546 " transform="matrix(1,0,0,-1,11.763,59.42189)"/>
<path style="fill-rule:nonzero;fill:rgb(0%,0%,0%);fill-opacity:1;stroke-width:0.3985;stroke-linecap:butt;stroke-linejoin:miter;stroke:rgb(0%,0%,0%);stroke-opacity:1;stroke-miterlimit:10;" d="M 143.229187 56.695327 C 143.229187 57.519546 142.561219 58.187515 141.733094 58.187515 C 140.908875 58.187515 140.240906 57.519546 140.240906 56.695327 C 140.240906 55.867202 140.908875 55.199234 141.733094 55.199234 C 142.561219 55.199234 143.229187 55.867202 143.229187 56.695327 Z M 143.229187 56.695327 " transform="matrix(1,0,0,-1,11.763,59.42189)"/>
<path style="fill:none;stroke-width:0.79701;stroke-linecap:butt;stroke-linejoin:miter;stroke:rgb(0%,0%,0%);stroke-opacity:1;stroke-miterlimit:10;" d="M 127.561219 56.695327 L 141.733094 56.695327 " transform="matrix(1,0,0,-1,11.763,59.42189)"/>
<path style="fill:none;stroke-width:0.79701;stroke-linecap:butt;stroke-linejoin:miter;stroke:rgb(0%,0%,0%);stroke-opacity:1;stroke-miterlimit:10;" d="M 127.561219 0.000015 L 127.561219 56.695327 " transform="matrix(1,0,0,-1,11.763,59.42189)"/>
<path style="fill:none;stroke-width:0.79701;stroke-linecap:butt;stroke-linejoin:miter;stroke:rgb(0%,0%,0%);stroke-opacity:1;stroke-dasharray:2.98883,2.98883;stroke-miterlimit:10;" d="M 116.932312 0.000015 L 138.190125 0.000015 " transform="matrix(1,0,0,-1,11.763,59.42189)"/>
<path style="fill-rule:nonzero;fill:rgb(0%,0%,0%);fill-opacity:1;stroke-width:0.3985;stroke-linecap:butt;stroke-linejoin:miter;stroke:rgb(0%,0%,0%);stroke-opacity:1;stroke-miterlimit:10;" d="M 163.990906 35.433609 C 163.990906 35.98439 163.545594 36.429702 162.994812 36.429702 C 162.444031 36.429702 161.998719 35.98439 161.998719 35.433609 C 161.998719 34.882827 162.444031 34.437515 162.994812 34.437515 C 163.545594 34.437515 163.990906 34.882827 163.990906 35.433609 Z M 163.990906 35.433609 " transform="matrix(1,0,0,-1,11.763,59.42189)"/>
<path style="fill-rule:nonzero;fill:rgb(0%,0%,0%);fill-opacity:1;stroke-width:0.3985;stroke-linecap:butt;stroke-linejoin:miter;stroke:rgb(0%,0%,0%);stroke-opacity:1;stroke-miterlimit:10;" d="M 171.076844 35.433609 C 171.076844 35.98439 170.631531 36.429702 170.08075 36.429702 C 169.529969 36.429702 169.084656 35.98439 169.084656 35.433609 C 169.084656 34.882827 169.529969 34.437515 170.08075 34.437515 C 170.631531 34.437515 171.076844 34.882827 171.076844 35.433609 Z M 171.076844 35.433609 " transform="matrix(1,0,0,-1,11.763,59.42189)"/>
<path style=" stroke:none;fill-rule:nonzero;fill:rgb(0%,0%,0%);fill-opacity:1;" d="M 189.925781 23.988281 C 189.925781 23.4375 189.480469 22.992188 188.929688 22.992188 C 188.378906 22.992188 187.933594 23.4375 187.933594 23.988281 C 187.933594 24.539062 188.378906 24.984375 188.929688 24.984375 C 189.480469 24.984375 189.925781 24.539062 189.925781 23.988281 Z M 189.925781 23.988281 "/>
<g clip-path="url(#clip5)" clip-rule="nonzero">
<path style="fill:none;stroke-width:0.3985;stroke-linecap:butt;stroke-linejoin:miter;stroke:rgb(0%,0%,0%);stroke-opacity:1;stroke-miterlimit:10;" d="M 178.162781 35.433609 C 178.162781 35.98439 177.717469 36.429702 177.166687 36.429702 C 176.615906 36.429702 176.170594 35.98439 176.170594 35.433609 C 176.170594 34.882827 176.615906 34.437515 177.166687 34.437515 C 177.717469 34.437515 178.162781 34.882827 178.162781 35.433609 Z M 178.162781 35.433609 " transform="matrix(1,0,0,-1,11.763,59.42189)"/>
</g>
</g>
</svg>
