<?xml version="1.0" encoding="UTF-8"?>
<svg xmlns="http://www.w3.org/2000/svg" xmlns:xlink="http://www.w3.org/1999/xlink" width="275.6pt" height="71.07814pt" viewBox="0 0 275.6 71.07814" version="1.1">
<defs>
<clipPath id="clip1">
  <path d="M 0 0 L 87 0 L 87 71.078125 L 0 71.078125 Z M 0 0 "/>
</clipPath>
<clipPath id="clip2">
  <path d="M 8 34 L 57 34 L 57 71.078125 L 8 71.078125 Z M 8 34 "/>
</clipPath>
<clipPath id="clip3">
  <path d="M 86 0 L 189 0 L 189 71.078125 L 86 71.078125 Z M 86 0 "/>
</clipPath>
<clipPath id="clip4">
  <path d="M 107 32 L 155 32 L 155 71.078125 L 107 71.078125 Z M 107 32 "/>
</clipPath>
<clipPath id="clip5">
  <path d="M 189 0 L 275.601562 0 L 275.601562 71.078125 L 189 71.078125 Z M 189 0 "/>
</clipPath>
<clipPath id="clip6">
  <path d="M 231 27 L 275.601562 27 L 275.601562 71 L 231 71 Z M 231 27 "/>
</clipPath>
<clipPath id="clip7">
  <path d="M 206 34 L 254 34 L 254 71.078125 L 206 71.078125 Z M 206 34 "/>
</clipPath>
<clipPath id="clip8">
  <path d="M 239 0 L 275.601562 0 L 275.601562 46 L 239 46 Z M 239 0 "/>
</clipPath>
</defs>
<g id="surface1">
<g clip-path="url(#clip1)" clip-rule="nonzero">
<path style="fill:none;stroke-width:1.19553;stroke-linecap:butt;stroke-linejoin:miter;stroke:rgb(0%,0%,0%);stroke-opacity:1;stroke-miterlimit:10;" d="M 34.01575 -0.0005475 C 34.01575 18.788515 18.785281 34.015077 0.000125 34.015077 C -18.785031 34.015077 -34.0155 18.788515 -34.0155 -0.0005475 C -34.0155 -18.785704 -18.785031 -34.016173 0.000125 -34.016173 C 18.785281 -34.016173 34.01575 -18.785704 34.01575 -0.0005475 Z M 34.01575 -0.0005475 " transform="matrix(1,0,0,-1,35.828,35.64789)"/>
</g>
<path style="fill-rule:nonzero;fill:rgb(75%,75%,75%);fill-opacity:1;stroke-width:1.19553;stroke-linecap:butt;stroke-linejoin:miter;stroke:rgb(0%,0%,0%);stroke-opacity:1;stroke-miterlimit:10;" d="M -6.277219 1.311952 C -5.894406 1.858827 -4.749875 2.593202 -3.941281 2.761171 C -3.132687 2.925234 -1.370969 2.347109 -0.441281 2.511171 C 0.488406 2.675234 1.941531 3.819765 2.757938 3.940859 C 3.57825 4.061952 4.902469 3.761171 5.449344 3.378359 C 5.996219 2.995546 6.70325 1.851015 6.699344 1.183046 C 6.699344 0.511171 6.285281 -0.828673 5.437625 -1.457579 C 4.589969 -2.086485 1.9845 -3.106016 0.589969 -3.348204 C -0.804562 -3.594298 -3.601437 -3.531798 -4.613156 -3.231016 C -5.620969 -2.930235 -6.468625 -1.813048 -6.699094 -1.180235 C -6.929562 -0.551329 -6.660031 0.765077 -6.277219 1.311952 Z M -6.277219 1.311952 " transform="matrix(1,0,0,-1,35.828,35.64789)"/>
<path style="fill-rule:nonzero;fill:rgb(75%,75%,75%);fill-opacity:1;stroke-width:1.19553;stroke-linecap:butt;stroke-linejoin:miter;stroke:rgb(0%,0%,0%);stroke-opacity:1;stroke-miterlimit:10;" d="M 15.629031 11.077577 C 16.2345 11.358827 17.593875 11.425234 18.375125 11.163515 C 19.160281 10.901796 20.394656 9.52289 21.281375 9.198671 C 22.168094 8.878359 24.000125 9.140077 24.769656 8.83539 C 25.539188 8.530702 26.535281 7.608827 26.816531 7.003359 C 27.101688 6.401796 27.14075 5.058046 26.800906 4.476015 C 26.464969 3.893984 25.437625 2.940859 24.39075 2.819765 C 23.339969 2.698671 20.57825 3.120546 19.246219 3.604921 C 17.914188 4.089296 15.527469 5.542421 14.800906 6.311952 C 14.074344 7.077577 13.902469 8.468202 14.01575 9.128359 C 14.132938 9.792421 15.027469 10.796327 15.629031 11.077577 Z M 15.629031 11.077577 " transform="matrix(1,0,0,-1,35.828,35.64789)"/>
<path style=" stroke:none;fill-rule:nonzero;fill:rgb(75%,75%,75%);fill-opacity:1;" d="M 27.292969 52.21875 C 27.871094 51.882812 29.21875 51.699219 30.019531 51.890625 C 30.824219 52.082031 32.175781 53.347656 33.085938 53.59375 C 34 53.835938 35.800781 53.414062 36.59375 53.652344 C 37.382812 53.890625 38.457031 54.71875 38.792969 55.296875 C 39.125 55.875 39.28125 57.210938 38.996094 57.820312 C 38.710938 58.425781 37.773438 59.46875 36.738281 59.679688 C 35.703125 59.890625 32.914062 59.710938 31.546875 59.34375 C 30.179688 58.976562 27.671875 57.738281 26.882812 57.039062 C 26.09375 56.335938 25.796875 54.964844 25.855469 54.296875 C 25.910156 53.628906 26.714844 52.550781 27.292969 52.21875 Z M 27.292969 52.21875 "/>
<g clip-path="url(#clip2)" clip-rule="nonzero">
<path style="fill:none;stroke-width:1.19553;stroke-linecap:butt;stroke-linejoin:miter;stroke:rgb(0%,0%,0%);stroke-opacity:1;stroke-miterlimit:10;" d="M -8.535031 -16.57086 C -7.956906 -16.234923 -6.60925 -16.051329 -5.808469 -16.242735 C -5.003781 -16.434141 -3.652219 -17.699766 -2.742062 -17.94586 C -1.828 -18.188048 -0.0272187 -17.766173 0.76575 -18.004454 C 1.554813 -18.242735 2.629031 -19.07086 2.964969 -19.648985 C 3.297 -20.22711 3.45325 -21.563048 3.168094 -22.172423 C 2.882938 -22.777891 1.945438 -23.82086 0.910281 -24.031798 C -0.124875 -24.242735 -2.913937 -24.063048 -4.281125 -23.69586 C -5.648312 -23.328673 -8.156125 -22.090391 -8.945187 -21.391173 C -9.73425 -20.688048 -10.031125 -19.316954 -9.972531 -18.648985 C -9.917844 -17.981016 -9.113156 -16.902891 -8.535031 -16.57086 Z M -8.535031 -16.57086 " transform="matrix(1,0,0,-1,35.828,35.64789)"/>
</g>
<path style="fill-rule:nonzero;fill:rgb(75%,75%,75%);fill-opacity:1;stroke-width:1.19553;stroke-linecap:butt;stroke-linejoin:miter;stroke:rgb(0%,0%,0%);stroke-opacity:1;stroke-miterlimit:10;" d="M -12.941281 18.862734 C -12.511594 19.374452 -11.308469 20.003359 -10.488156 20.101015 C -9.667844 20.194765 -7.964719 19.468202 -7.027219 19.550234 C -6.085812 19.632265 -4.535031 20.643984 -3.710812 20.694765 C -2.886594 20.74164 -1.593625 20.327577 -1.081906 19.89789 C -0.570187 19.468202 0.0352813 18.268984 -0.0272187 17.601015 C -0.0858125 16.933046 -0.613156 15.632265 -1.511594 15.081484 C -2.413937 14.526796 -5.097531 13.74164 -6.507687 13.620546 C -7.917844 13.495546 -10.695187 13.80414 -11.679562 14.190859 C -12.660031 14.577577 -13.406125 15.768984 -13.581906 16.413515 C -13.753781 17.061952 -13.370969 18.351015 -12.941281 18.862734 Z M -12.941281 18.862734 " transform="matrix(1,0,0,-1,35.828,35.64789)"/>
<g clip-path="url(#clip3)" clip-rule="nonzero">
<path style="fill:none;stroke-width:1.19553;stroke-linecap:butt;stroke-linejoin:miter;stroke:rgb(0%,0%,0%);stroke-opacity:1;stroke-miterlimit:10;" d="M 136.062625 -0.0005475 C 136.062625 18.788515 120.836063 34.015077 102.047 34.015077 C 83.261844 34.015077 68.031375 18.788515 68.031375 -0.0005475 C 68.031375 -18.785704 83.261844 -34.016173 102.047 -34.016173 C 120.836063 -34.016173 136.062625 -18.785704 136.062625 -0.0005475 Z M 136.062625 -0.0005475 " transform="matrix(1,0,0,-1,35.828,35.64789)"/>
</g>
<path style="fill-rule:nonzero;fill:rgb(75%,75%,75%);fill-opacity:1;stroke-width:1.19553;stroke-linecap:butt;stroke-linejoin:miter;stroke:rgb(0%,0%,0%);stroke-opacity:1;stroke-miterlimit:10;" d="M 112.738406 1.093202 C 113.101688 1.651796 114.218875 2.425234 115.019656 2.620546 C 115.824344 2.815859 117.601688 2.300234 118.527469 2.495546 C 119.449344 2.690859 120.863406 3.886171 121.675906 4.034609 C 122.488406 4.183046 123.824344 3.92914 124.382938 3.565859 C 124.945438 3.202577 125.687625 2.08539 125.711063 1.413515 C 125.7345 0.74164 125.367313 -0.609923 124.543094 -1.270079 C 123.714969 -1.926329 121.148563 -3.031798 119.761844 -3.328673 C 118.379031 -3.621641 115.582156 -3.656798 114.562625 -3.391173 C 113.539188 -3.125548 112.656375 -2.035704 112.402469 -1.41461 C 112.148563 -0.793516 112.375125 0.530702 112.738406 1.093202 Z M 112.738406 1.093202 " transform="matrix(1,0,0,-1,35.828,35.64789)"/>
<path style="fill-rule:nonzero;fill:rgb(75%,75%,75%);fill-opacity:1;stroke-width:1.19553;stroke-linecap:butt;stroke-linejoin:miter;stroke:rgb(0%,0%,0%);stroke-opacity:1;stroke-miterlimit:10;" d="M 86.711063 19.14789 C 87.289188 19.479921 88.632938 19.663515 89.437625 19.472109 C 90.242313 19.280702 91.589969 18.015077 92.504031 17.77289 C 93.414188 17.526796 95.218875 17.948671 96.007938 17.714296 C 96.800906 17.476015 97.875125 16.643984 98.211063 16.065859 C 98.543094 15.487734 98.699344 14.155702 98.414188 13.546327 C 98.129031 12.936952 97.187625 11.89789 96.156375 11.686952 C 95.121219 11.476015 92.332156 11.655702 90.961063 12.02289 C 89.593875 12.386171 87.089969 13.628359 86.297 14.327577 C 85.507938 15.026796 85.214969 16.39789 85.273563 17.069765 C 85.32825 17.737734 86.132938 18.815859 86.711063 19.14789 Z M 86.711063 19.14789 " transform="matrix(1,0,0,-1,35.828,35.64789)"/>
<path style=" stroke:none;fill-rule:nonzero;fill:rgb(75%,75%,75%);fill-opacity:1;" d="M 124.933594 50.800781 C 125.363281 50.292969 126.566406 49.660156 127.386719 49.5625 C 128.207031 49.46875 129.910156 50.195312 130.851562 50.113281 C 131.792969 50.03125 133.339844 49.019531 134.164062 48.96875 C 134.992188 48.921875 136.285156 49.335938 136.796875 49.765625 C 137.308594 50.195312 137.910156 51.394531 137.851562 52.0625 C 137.789062 52.730469 137.261719 54.03125 136.363281 54.582031 C 135.464844 55.136719 132.78125 55.921875 131.371094 56.042969 C 129.960938 56.167969 127.179688 55.859375 126.199219 55.472656 C 125.214844 55.085938 124.472656 53.898438 124.296875 53.25 C 124.121094 52.601562 124.507812 51.3125 124.933594 50.800781 Z M 124.933594 50.800781 "/>
<g clip-path="url(#clip4)" clip-rule="nonzero">
<path style="fill:none;stroke-width:1.19553;stroke-linecap:butt;stroke-linejoin:miter;stroke:rgb(0%,0%,0%);stroke-opacity:1;stroke-miterlimit:10;" d="M 89.105594 -15.152891 C 89.535281 -14.645079 90.738406 -14.012266 91.558719 -13.91461 C 92.379031 -13.82086 94.082156 -14.547423 95.023563 -14.465391 C 95.964969 -14.38336 97.511844 -13.371641 98.336063 -13.32086 C 99.164188 -13.273985 100.457156 -13.688048 100.968875 -14.117735 C 101.480594 -14.547423 102.082156 -15.746641 102.023563 -16.41461 C 101.961063 -17.082579 101.433719 -18.38336 100.535281 -18.934141 C 99.636844 -19.488829 96.95325 -20.273985 95.543094 -20.395079 C 94.132938 -20.520079 91.351688 -20.211485 90.371219 -19.824766 C 89.386844 -19.438048 88.644656 -18.250548 88.468875 -17.60211 C 88.293094 -16.953673 88.679813 -15.66461 89.105594 -15.152891 Z M 89.105594 -15.152891 " transform="matrix(1,0,0,-1,35.828,35.64789)"/>
</g>
<g clip-path="url(#clip5)" clip-rule="nonzero">
<path style="fill:none;stroke-width:1.19553;stroke-linecap:butt;stroke-linejoin:miter;stroke:rgb(0%,0%,0%);stroke-opacity:1;stroke-miterlimit:10;" d="M 238.113406 -0.0005475 C 238.113406 18.788515 222.882938 34.015077 204.097781 34.015077 C 185.308719 34.015077 170.082156 18.788515 170.082156 -0.0005475 C 170.082156 -18.785704 185.308719 -34.016173 204.097781 -34.016173 C 222.882938 -34.016173 238.113406 -18.785704 238.113406 -0.0005475 Z M 238.113406 -0.0005475 " transform="matrix(1,0,0,-1,35.828,35.64789)"/>
</g>
<path style="fill-rule:nonzero;fill:rgb(75%,75%,75%);fill-opacity:1;stroke-width:1.19553;stroke-linecap:butt;stroke-linejoin:miter;stroke:rgb(0%,0%,0%);stroke-opacity:1;stroke-miterlimit:10;" d="M 207.898563 -0.356016 C 208.129031 0.268984 209.043094 1.276796 209.781375 1.643984 C 210.519656 2.015077 212.367313 1.913515 213.222781 2.311952 C 214.07825 2.71039 215.187625 4.194765 215.945438 4.518984 C 216.707156 4.847109 218.062625 4.901796 218.691531 4.675234 C 219.316531 4.444765 220.293094 3.52289 220.468875 2.874452 C 220.64075 2.226015 220.586063 0.823671 219.933719 -0.0005475 C 219.277469 -0.828673 217.023563 -2.484923 215.738406 -3.082579 C 214.457156 -3.680235 211.738406 -4.344298 210.683719 -4.313048 C 209.629031 -4.285704 208.523563 -3.422423 208.136844 -2.875548 C 207.750125 -2.324766 207.672 -0.984923 207.898563 -0.356016 Z M 207.898563 -0.356016 " transform="matrix(1,0,0,-1,35.828,35.64789)"/>
<path style=" stroke:none;fill-rule:nonzero;fill:rgb(75%,75%,75%);fill-opacity:1;" d="M 250.453125 44.980469 C 251.058594 44.699219 252.414062 44.632812 253.199219 44.894531 C 253.984375 45.15625 255.21875 46.535156 256.105469 46.855469 C 256.992188 47.179688 258.824219 46.917969 259.589844 47.222656 C 260.359375 47.527344 261.359375 48.449219 261.640625 49.050781 C 261.921875 49.65625 261.960938 51 261.625 51.582031 C 261.289062 52.160156 260.261719 53.117188 259.210938 53.238281 C 258.164062 53.359375 255.398438 52.933594 254.066406 52.449219 C 252.738281 51.964844 250.347656 50.511719 249.621094 49.746094 C 248.898438 48.980469 248.722656 47.589844 248.839844 46.925781 C 248.953125 46.265625 249.847656 45.261719 250.453125 44.980469 Z M 250.453125 44.980469 "/>
<g clip-path="url(#clip6)" clip-rule="nonzero">
<path style="fill:none;stroke-width:1.19553;stroke-linecap:butt;stroke-linejoin:miter;stroke:rgb(0%,0%,0%);stroke-opacity:1;stroke-miterlimit:10;" d="M 214.625125 -9.332579 C 215.230594 -9.051329 216.586063 -8.984923 217.371219 -9.246641 C 218.156375 -9.50836 219.39075 -10.887266 220.277469 -11.207579 C 221.164188 -11.531798 222.996219 -11.270079 223.761844 -11.574766 C 224.531375 -11.879454 225.531375 -12.801329 225.812625 -13.402891 C 226.093875 -14.00836 226.132938 -15.35211 225.797 -15.934141 C 225.461063 -16.512266 224.433719 -17.469298 223.382938 -17.590391 C 222.336063 -17.711485 219.570438 -17.285704 218.238406 -16.801329 C 216.910281 -16.316954 214.519656 -14.863829 213.793094 -14.098204 C 213.070438 -13.332579 212.894656 -11.941954 213.011844 -11.277891 C 213.125125 -10.617735 214.019656 -9.613829 214.625125 -9.332579 Z M 214.625125 -9.332579 " transform="matrix(1,0,0,-1,35.828,35.64789)"/>
</g>
<path style=" stroke:none;fill-rule:nonzero;fill:rgb(75%,75%,75%);fill-opacity:1;" d="M 224.585938 52.21875 C 225.164062 51.882812 226.511719 51.699219 227.3125 51.890625 C 228.117188 52.082031 229.46875 53.347656 230.378906 53.59375 C 231.292969 53.835938 233.09375 53.414062 233.886719 53.652344 C 234.675781 53.890625 235.753906 54.71875 236.085938 55.296875 C 236.417969 55.875 236.574219 57.210938 236.289062 57.820312 C 236.003906 58.425781 235.066406 59.46875 234.03125 59.679688 C 232.996094 59.890625 230.207031 59.710938 228.839844 59.34375 C 227.472656 58.976562 224.964844 57.738281 224.175781 57.039062 C 223.386719 56.335938 223.089844 54.964844 223.148438 54.296875 C 223.207031 53.628906 224.007812 52.550781 224.585938 52.21875 Z M 224.585938 52.21875 "/>
<g clip-path="url(#clip7)" clip-rule="nonzero">
<path style="fill:none;stroke-width:1.19553;stroke-linecap:butt;stroke-linejoin:miter;stroke:rgb(0%,0%,0%);stroke-opacity:1;stroke-miterlimit:10;" d="M 188.757938 -16.57086 C 189.336063 -16.234923 190.683719 -16.051329 191.4845 -16.242735 C 192.289188 -16.434141 193.64075 -17.699766 194.550906 -17.94586 C 195.464969 -18.188048 197.26575 -17.766173 198.058719 -18.004454 C 198.847781 -18.242735 199.925906 -19.07086 200.257938 -19.648985 C 200.589969 -20.22711 200.746219 -21.563048 200.461063 -22.172423 C 200.175906 -22.777891 199.238406 -23.82086 198.20325 -24.031798 C 197.168094 -24.242735 194.379031 -24.063048 193.011844 -23.69586 C 191.644656 -23.328673 189.136844 -22.090391 188.347781 -21.391173 C 187.558719 -20.688048 187.261844 -19.316954 187.320438 -18.648985 C 187.379031 -17.981016 188.179813 -16.902891 188.757938 -16.57086 Z M 188.757938 -16.57086 " transform="matrix(1,0,0,-1,35.828,35.64789)"/>
</g>
<path style="fill-rule:nonzero;fill:rgb(75%,75%,75%);fill-opacity:1;stroke-width:1.19553;stroke-linecap:butt;stroke-linejoin:miter;stroke:rgb(0%,0%,0%);stroke-opacity:1;stroke-miterlimit:10;" d="M 201.3595 22.265077 C 201.789188 22.77289 202.992313 23.405702 203.812625 23.503359 C 204.632938 23.597109 206.336063 22.870546 207.277469 22.952577 C 208.214969 23.034609 209.76575 24.046327 210.589969 24.093202 C 211.414188 24.143984 212.711063 23.729921 213.222781 23.300234 C 213.730594 22.870546 214.336063 21.671327 214.273563 21.003359 C 214.214969 20.33539 213.687625 19.034609 212.789188 18.483827 C 211.89075 17.92914 209.20325 17.143984 207.793094 17.02289 C 206.382938 16.89789 203.605594 17.206484 202.621219 17.593202 C 201.64075 17.979921 200.894656 19.167421 200.722781 19.815859 C 200.547 20.464296 200.929813 21.753359 201.3595 22.265077 Z M 201.3595 22.265077 " transform="matrix(1,0,0,-1,35.828,35.64789)"/>
<path style="fill-rule:nonzero;fill:rgb(75%,75%,75%);fill-opacity:1;stroke-width:1.19553;stroke-linecap:butt;stroke-linejoin:miter;stroke:rgb(0%,0%,0%);stroke-opacity:1;stroke-miterlimit:10;" d="M 184.539188 9.183046 C 185.007938 9.655702 186.261844 10.183046 187.089969 10.206484 C 187.914188 10.229921 189.547 9.354921 190.488406 9.354921 C 191.433719 9.354921 193.066531 10.229921 193.89075 10.206484 C 194.718875 10.183046 195.972781 9.655702 196.441531 9.183046 C 196.914188 8.714296 197.410281 7.464296 197.293094 6.80414 C 197.175906 6.143984 196.535281 4.893984 195.593875 4.421327 C 194.648563 3.948671 191.906375 3.401796 190.488406 3.401796 C 189.074344 3.401796 186.332156 3.948671 185.386844 4.421327 C 184.445438 4.893984 183.804813 6.143984 183.687625 6.80414 C 183.570438 7.464296 184.066531 8.714296 184.539188 9.183046 Z M 184.539188 9.183046 " transform="matrix(1,0,0,-1,35.828,35.64789)"/>
<path style="fill-rule:nonzero;fill:rgb(75%,75%,75%);fill-opacity:1;stroke-width:1.19553;stroke-linecap:butt;stroke-linejoin:miter;stroke:rgb(0%,0%,0%);stroke-opacity:1;stroke-miterlimit:10;" d="M 183.125125 -1.766173 C 183.769656 -1.590391 185.117313 -1.762266 185.843875 -2.156798 C 186.570438 -2.547423 187.547 -4.121641 188.363406 -4.594298 C 189.179813 -5.066954 191.031375 -5.125548 191.7345 -5.559141 C 192.437625 -5.992735 193.261844 -7.07086 193.433719 -7.715391 C 193.605594 -8.363829 193.414188 -9.691954 192.980594 -10.203673 C 192.547 -10.719298 191.371219 -11.481016 190.316531 -11.41461 C 189.261844 -11.35211 186.613406 -10.457579 185.386844 -9.750548 C 184.160281 -9.03961 182.058719 -7.19586 181.480594 -6.313048 C 180.898563 -5.434141 180.968875 -4.031798 181.195438 -3.402891 C 181.425906 -2.770079 182.480594 -1.938048 183.125125 -1.766173 Z M 183.125125 -1.766173 " transform="matrix(1,0,0,-1,35.828,35.64789)"/>
<path style=" stroke:none;fill-rule:nonzero;fill:rgb(75%,75%,75%);fill-opacity:1;" d="M 259.023438 28.316406 C 258.476562 27.933594 257.742188 26.792969 257.574219 25.984375 C 257.410156 25.171875 257.984375 23.414062 257.820312 22.484375 C 257.65625 21.554688 256.515625 20.101562 256.394531 19.28125 C 256.273438 18.464844 256.574219 17.140625 256.957031 16.59375 C 257.339844 16.046875 258.480469 15.339844 259.152344 15.34375 C 259.824219 15.34375 261.164062 15.753906 261.792969 16.601562 C 262.421875 17.449219 263.4375 20.058594 263.683594 21.449219 C 263.929688 22.84375 263.867188 25.640625 263.566406 26.652344 C 263.265625 27.664062 262.144531 28.511719 261.515625 28.742188 C 260.886719 28.972656 259.570312 28.699219 259.023438 28.316406 Z M 259.023438 28.316406 "/>
<g clip-path="url(#clip8)" clip-rule="nonzero">
<path style="fill:none;stroke-width:1.19553;stroke-linecap:butt;stroke-linejoin:miter;stroke:rgb(0%,0%,0%);stroke-opacity:1;stroke-miterlimit:10;" d="M 223.195438 7.331484 C 222.648563 7.714296 221.914188 8.854921 221.746219 9.663515 C 221.582156 10.476015 222.156375 12.233827 221.992313 13.163515 C 221.82825 14.093202 220.687625 15.546327 220.566531 16.36664 C 220.445438 17.183046 220.746219 18.507265 221.129031 19.05414 C 221.511844 19.601015 222.652469 20.308046 223.324344 20.30414 C 223.996219 20.30414 225.336063 19.893984 225.964969 19.046327 C 226.593875 18.198671 227.6095 15.589296 227.855594 14.198671 C 228.101688 12.80414 228.039188 10.007265 227.738406 8.995546 C 227.437625 7.983827 226.316531 7.136171 225.687625 6.905702 C 225.058719 6.675234 223.742313 6.948671 223.195438 7.331484 Z M 223.195438 7.331484 " transform="matrix(1,0,0,-1,35.828,35.64789)"/>
</g>
</g>
</svg>
