<?xml version="1.0" encoding="UTF-8"?>
<svg xmlns="http://www.w3.org/2000/svg" xmlns:xlink="http://www.w3.org/1999/xlink" width="368.24pt" height="132.96063pt" viewBox="0 0 368.24 132.96063" version="1.1">
<defs>
<clipPath id="clip1">
  <path d="M 4 123 L 19 123 L 19 132.960938 L 4 132.960938 Z M 4 123 "/>
</clipPath>
<clipPath id="clip2">
  <path d="M 47 123 L 62 123 L 62 132.960938 L 47 132.960938 Z M 47 123 "/>
</clipPath>
<clipPath id="clip3">
  <path d="M 89 123 L 104 123 L 104 132.960938 L 89 132.960938 Z M 89 123 "/>
</clipPath>
<clipPath id="clip4">
  <path d="M 132 123 L 147 123 L 147 132.960938 L 132 132.960938 Z M 132 123 "/>
</clipPath>
<clipPath id="clip5">
  <path d="M 174 123 L 189 123 L 189 132.960938 L 174 132.960938 Z M 174 123 "/>
</clipPath>
<clipPath id="clip6">
  <path d="M 217 123 L 232 123 L 232 132.960938 L 217 132.960938 Z M 217 123 "/>
</clipPath>
<clipPath id="clip7">
  <path d="M 259 123 L 275 123 L 275 132.960938 L 259 132.960938 Z M 259 123 "/>
</clipPath>
<clipPath id="clip8">
  <path d="M 302 123 L 317 123 L 317 132.960938 L 302 132.960938 Z M 302 123 "/>
</clipPath>
<clipPath id="clip9">
  <path d="M 359 88 L 368.238281 88 L 368.238281 102 L 359 102 Z M 359 88 "/>
</clipPath>
</defs>
<g id="surface1">
<path style=" stroke:none;fill-rule:nonzero;fill:rgb(0%,0%,0%);fill-opacity:1;" d="M 13.257812 130.289062 C 13.257812 129.460938 12.589844 128.792969 11.761719 128.792969 C 10.9375 128.792969 10.269531 129.460938 10.269531 130.289062 C 10.269531 131.113281 10.9375 131.78125 11.761719 131.78125 C 12.589844 131.78125 13.257812 131.113281 13.257812 130.289062 Z M 13.257812 130.289062 "/>
<g clip-path="url(#clip1)" clip-rule="nonzero">
<path style="fill:none;stroke-width:0.3985;stroke-linecap:butt;stroke-linejoin:miter;stroke:rgb(0%,0%,0%);stroke-opacity:1;stroke-miterlimit:10;" d="M 1.494813 -0.0011725 C 1.494813 0.826953 0.826844 1.494921 -0.00128125 1.494921 C -0.8255 1.494921 -1.493469 0.826953 -1.493469 -0.0011725 C -1.493469 -0.825391 -0.8255 -1.49336 -0.00128125 -1.49336 C 0.826844 -1.49336 1.494813 -0.825391 1.494813 -0.0011725 Z M 1.494813 -0.0011725 " transform="matrix(1,0,0,-1,11.763,130.28789)"/>
</g>
<path style="fill-rule:nonzero;fill:rgb(0%,0%,0%);fill-opacity:1;stroke-width:0.3985;stroke-linecap:butt;stroke-linejoin:miter;stroke:rgb(0%,0%,0%);stroke-opacity:1;stroke-miterlimit:10;" d="M 1.494813 14.174609 C 1.494813 14.998828 0.826844 15.666796 -0.00128125 15.666796 C -0.8255 15.666796 -1.493469 14.998828 -1.493469 14.174609 C -1.493469 13.346484 -0.8255 12.678515 -0.00128125 12.678515 C 0.826844 12.678515 1.494813 13.346484 1.494813 14.174609 Z M 1.494813 14.174609 " transform="matrix(1,0,0,-1,11.763,130.28789)"/>
<path style="fill-rule:nonzero;fill:rgb(0%,0%,0%);fill-opacity:1;stroke-width:0.3985;stroke-linecap:butt;stroke-linejoin:miter;stroke:rgb(0%,0%,0%);stroke-opacity:1;stroke-miterlimit:10;" d="M 1.494813 28.346484 C 1.494813 29.170703 0.826844 29.842578 -0.00128125 29.842578 C -0.8255 29.842578 -1.493469 29.170703 -1.493469 28.346484 C -1.493469 27.522265 -0.8255 26.854296 -0.00128125 26.854296 C 0.826844 26.854296 1.494813 27.522265 1.494813 28.346484 Z M 1.494813 28.346484 " transform="matrix(1,0,0,-1,11.763,130.28789)"/>
<path style="fill-rule:nonzero;fill:rgb(0%,0%,0%);fill-opacity:1;stroke-width:0.3985;stroke-linecap:butt;stroke-linejoin:miter;stroke:rgb(0%,0%,0%);stroke-opacity:1;stroke-miterlimit:10;" d="M 15.666688 14.174609 C 15.666688 14.998828 14.998719 15.666796 14.1745 15.666796 C 13.346375 15.666796 12.678406 14.998828 12.678406 14.174609 C 12.678406 13.346484 13.346375 12.678515 14.1745 12.678515 C 14.998719 12.678515 15.666688 13.346484 15.666688 14.174609 Z M 15.666688 14.174609 " transform="matrix(1,0,0,-1,11.763,130.28789)"/>
<path style="fill-rule:nonzero;fill:rgb(0%,0%,0%);fill-opacity:1;stroke-width:0.3985;stroke-linecap:butt;stroke-linejoin:miter;stroke:rgb(0%,0%,0%);stroke-opacity:1;stroke-miterlimit:10;" d="M 29.842469 14.174609 C 29.842469 14.998828 29.170594 15.666796 28.346375 15.666796 C 27.522156 15.666796 26.854188 14.998828 26.854188 14.174609 C 26.854188 13.346484 27.522156 12.678515 28.346375 12.678515 C 29.170594 12.678515 29.842469 13.346484 29.842469 14.174609 Z M 29.842469 14.174609 " transform="matrix(1,0,0,-1,11.763,130.28789)"/>
<path style="fill:none;stroke-width:0.79701;stroke-linecap:butt;stroke-linejoin:miter;stroke:rgb(0%,0%,0%);stroke-opacity:1;stroke-miterlimit:10;" d="M -0.00128125 14.174609 L 28.346375 14.174609 " transform="matrix(1,0,0,-1,11.763,130.28789)"/>
<path style="fill:none;stroke-width:0.79701;stroke-linecap:butt;stroke-linejoin:miter;stroke:rgb(0%,0%,0%);stroke-opacity:1;stroke-miterlimit:10;" d="M -0.00128125 -0.0011725 L -0.00128125 28.346484 " transform="matrix(1,0,0,-1,11.763,130.28789)"/>
<path style="fill:none;stroke-width:0.79701;stroke-linecap:butt;stroke-linejoin:miter;stroke:rgb(0%,0%,0%);stroke-opacity:1;stroke-dasharray:2.98883,2.98883;stroke-miterlimit:10;" d="M -10.630187 -0.0011725 L 10.631531 -0.0011725 " transform="matrix(1,0,0,-1,11.763,130.28789)"/>
<path style=" stroke:none;fill-rule:nonzero;fill:rgb(0%,0%,0%);fill-opacity:1;" d="M 55.777344 130.289062 C 55.777344 129.460938 55.109375 128.792969 54.28125 128.792969 C 53.457031 128.792969 52.789062 129.460938 52.789062 130.289062 C 52.789062 131.113281 53.457031 131.78125 54.28125 131.78125 C 55.109375 131.78125 55.777344 131.113281 55.777344 130.289062 Z M 55.777344 130.289062 "/>
<g clip-path="url(#clip2)" clip-rule="nonzero">
<path style="fill:none;stroke-width:0.3985;stroke-linecap:butt;stroke-linejoin:miter;stroke:rgb(0%,0%,0%);stroke-opacity:1;stroke-miterlimit:10;" d="M 44.014344 -0.0011725 C 44.014344 0.826953 43.346375 1.494921 42.51825 1.494921 C 41.694031 1.494921 41.026063 0.826953 41.026063 -0.0011725 C 41.026063 -0.825391 41.694031 -1.49336 42.51825 -1.49336 C 43.346375 -1.49336 44.014344 -0.825391 44.014344 -0.0011725 Z M 44.014344 -0.0011725 " transform="matrix(1,0,0,-1,11.763,130.28789)"/>
</g>
<path style="fill-rule:nonzero;fill:rgb(0%,0%,0%);fill-opacity:1;stroke-width:0.3985;stroke-linecap:butt;stroke-linejoin:miter;stroke:rgb(0%,0%,0%);stroke-opacity:1;stroke-miterlimit:10;" d="M 44.014344 14.174609 C 44.014344 14.998828 43.346375 15.666796 42.51825 15.666796 C 41.694031 15.666796 41.026063 14.998828 41.026063 14.174609 C 41.026063 13.346484 41.694031 12.678515 42.51825 12.678515 C 43.346375 12.678515 44.014344 13.346484 44.014344 14.174609 Z M 44.014344 14.174609 " transform="matrix(1,0,0,-1,11.763,130.28789)"/>
<path style="fill-rule:nonzero;fill:rgb(0%,0%,0%);fill-opacity:1;stroke-width:0.3985;stroke-linecap:butt;stroke-linejoin:miter;stroke:rgb(0%,0%,0%);stroke-opacity:1;stroke-miterlimit:10;" d="M 44.014344 28.346484 C 44.014344 29.170703 43.346375 29.842578 42.51825 29.842578 C 41.694031 29.842578 41.026063 29.170703 41.026063 28.346484 C 41.026063 27.522265 41.694031 26.854296 42.51825 26.854296 C 43.346375 26.854296 44.014344 27.522265 44.014344 28.346484 Z M 44.014344 28.346484 " transform="matrix(1,0,0,-1,11.763,130.28789)"/>
<path style="fill-rule:nonzero;fill:rgb(0%,0%,0%);fill-opacity:1;stroke-width:0.3985;stroke-linecap:butt;stroke-linejoin:miter;stroke:rgb(0%,0%,0%);stroke-opacity:1;stroke-miterlimit:10;" d="M 44.014344 42.518359 C 44.014344 43.346484 43.346375 44.014453 42.51825 44.014453 C 41.694031 44.014453 41.026063 43.346484 41.026063 42.518359 C 41.026063 41.69414 41.694031 41.026171 42.51825 41.026171 C 43.346375 41.026171 44.014344 41.69414 44.014344 42.518359 Z M 44.014344 42.518359 " transform="matrix(1,0,0,-1,11.763,130.28789)"/>
<path style="fill-rule:nonzero;fill:rgb(0%,0%,0%);fill-opacity:1;stroke-width:0.3985;stroke-linecap:butt;stroke-linejoin:miter;stroke:rgb(0%,0%,0%);stroke-opacity:1;stroke-miterlimit:10;" d="M 58.186219 14.174609 C 58.186219 14.998828 57.51825 15.666796 56.694031 15.666796 C 55.869813 15.666796 55.197938 14.998828 55.197938 14.174609 C 55.197938 13.346484 55.869813 12.678515 56.694031 12.678515 C 57.51825 12.678515 58.186219 13.346484 58.186219 14.174609 Z M 58.186219 14.174609 " transform="matrix(1,0,0,-1,11.763,130.28789)"/>
<path style="fill-rule:nonzero;fill:rgb(0%,0%,0%);fill-opacity:1;stroke-width:0.3985;stroke-linecap:butt;stroke-linejoin:miter;stroke:rgb(0%,0%,0%);stroke-opacity:1;stroke-miterlimit:10;" d="M 72.362 14.174609 C 72.362 14.998828 71.694031 15.666796 70.865906 15.666796 C 70.041687 15.666796 69.373719 14.998828 69.373719 14.174609 C 69.373719 13.346484 70.041687 12.678515 70.865906 12.678515 C 71.694031 12.678515 72.362 13.346484 72.362 14.174609 Z M 72.362 14.174609 " transform="matrix(1,0,0,-1,11.763,130.28789)"/>
<path style="fill:none;stroke-width:0.79701;stroke-linecap:butt;stroke-linejoin:miter;stroke:rgb(0%,0%,0%);stroke-opacity:1;stroke-miterlimit:10;" d="M 42.51825 14.174609 L 70.865906 14.174609 " transform="matrix(1,0,0,-1,11.763,130.28789)"/>
<path style="fill-rule:nonzero;fill:rgb(0%,0%,0%);fill-opacity:1;stroke-width:0.3985;stroke-linecap:butt;stroke-linejoin:miter;stroke:rgb(0%,0%,0%);stroke-opacity:1;stroke-miterlimit:10;" d="M 58.186219 28.346484 C 58.186219 29.170703 57.51825 29.842578 56.694031 29.842578 C 55.869813 29.842578 55.197938 29.170703 55.197938 28.346484 C 55.197938 27.522265 55.869813 26.854296 56.694031 26.854296 C 57.51825 26.854296 58.186219 27.522265 58.186219 28.346484 Z M 58.186219 28.346484 " transform="matrix(1,0,0,-1,11.763,130.28789)"/>
<path style="fill-rule:nonzero;fill:rgb(0%,0%,0%);fill-opacity:1;stroke-width:0.3985;stroke-linecap:butt;stroke-linejoin:miter;stroke:rgb(0%,0%,0%);stroke-opacity:1;stroke-miterlimit:10;" d="M 72.362 28.346484 C 72.362 29.170703 71.694031 29.842578 70.865906 29.842578 C 70.041687 29.842578 69.373719 29.170703 69.373719 28.346484 C 69.373719 27.522265 70.041687 26.854296 70.865906 26.854296 C 71.694031 26.854296 72.362 27.522265 72.362 28.346484 Z M 72.362 28.346484 " transform="matrix(1,0,0,-1,11.763,130.28789)"/>
<path style="fill:none;stroke-width:0.79701;stroke-linecap:butt;stroke-linejoin:miter;stroke:rgb(0%,0%,0%);stroke-opacity:1;stroke-miterlimit:10;" d="M 42.51825 28.346484 L 70.865906 28.346484 " transform="matrix(1,0,0,-1,11.763,130.28789)"/>
<path style="fill:none;stroke-width:0.79701;stroke-linecap:butt;stroke-linejoin:miter;stroke:rgb(0%,0%,0%);stroke-opacity:1;stroke-miterlimit:10;" d="M 42.51825 -0.0011725 L 42.51825 42.518359 " transform="matrix(1,0,0,-1,11.763,130.28789)"/>
<path style="fill:none;stroke-width:0.79701;stroke-linecap:butt;stroke-linejoin:miter;stroke:rgb(0%,0%,0%);stroke-opacity:1;stroke-dasharray:2.98883,2.98883;stroke-miterlimit:10;" d="M 31.889344 -0.0011725 L 53.151063 -0.0011725 " transform="matrix(1,0,0,-1,11.763,130.28789)"/>
<path style=" stroke:none;fill-rule:nonzero;fill:rgb(0%,0%,0%);fill-opacity:1;" d="M 98.296875 130.289062 C 98.296875 129.460938 97.628906 128.792969 96.804688 128.792969 C 95.976562 128.792969 95.308594 129.460938 95.308594 130.289062 C 95.308594 131.113281 95.976562 131.78125 96.804688 131.78125 C 97.628906 131.78125 98.296875 131.113281 98.296875 130.289062 Z M 98.296875 130.289062 "/>
<g clip-path="url(#clip3)" clip-rule="nonzero">
<path style="fill:none;stroke-width:0.3985;stroke-linecap:butt;stroke-linejoin:miter;stroke:rgb(0%,0%,0%);stroke-opacity:1;stroke-miterlimit:10;" d="M 86.533875 -0.0011725 C 86.533875 0.826953 85.865906 1.494921 85.041687 1.494921 C 84.213562 1.494921 83.545594 0.826953 83.545594 -0.0011725 C 83.545594 -0.825391 84.213562 -1.49336 85.041687 -1.49336 C 85.865906 -1.49336 86.533875 -0.825391 86.533875 -0.0011725 Z M 86.533875 -0.0011725 " transform="matrix(1,0,0,-1,11.763,130.28789)"/>
</g>
<path style="fill-rule:nonzero;fill:rgb(0%,0%,0%);fill-opacity:1;stroke-width:0.3985;stroke-linecap:butt;stroke-linejoin:miter;stroke:rgb(0%,0%,0%);stroke-opacity:1;stroke-miterlimit:10;" d="M 86.533875 14.174609 C 86.533875 14.998828 85.865906 15.666796 85.041687 15.666796 C 84.213562 15.666796 83.545594 14.998828 83.545594 14.174609 C 83.545594 13.346484 84.213562 12.678515 85.041687 12.678515 C 85.865906 12.678515 86.533875 13.346484 86.533875 14.174609 Z M 86.533875 14.174609 " transform="matrix(1,0,0,-1,11.763,130.28789)"/>
<path style="fill-rule:nonzero;fill:rgb(0%,0%,0%);fill-opacity:1;stroke-width:0.3985;stroke-linecap:butt;stroke-linejoin:miter;stroke:rgb(0%,0%,0%);stroke-opacity:1;stroke-miterlimit:10;" d="M 86.533875 28.346484 C 86.533875 29.170703 85.865906 29.842578 85.041687 29.842578 C 84.213562 29.842578 83.545594 29.170703 83.545594 28.346484 C 83.545594 27.522265 84.213562 26.854296 85.041687 26.854296 C 85.865906 26.854296 86.533875 27.522265 86.533875 28.346484 Z M 86.533875 28.346484 " transform="matrix(1,0,0,-1,11.763,130.28789)"/>
<path style="fill-rule:nonzero;fill:rgb(0%,0%,0%);fill-opacity:1;stroke-width:0.3985;stroke-linecap:butt;stroke-linejoin:miter;stroke:rgb(0%,0%,0%);stroke-opacity:1;stroke-miterlimit:10;" d="M 86.533875 42.518359 C 86.533875 43.346484 85.865906 44.014453 85.041687 44.014453 C 84.213562 44.014453 83.545594 43.346484 83.545594 42.518359 C 83.545594 41.69414 84.213562 41.026171 85.041687 41.026171 C 85.865906 41.026171 86.533875 41.69414 86.533875 42.518359 Z M 86.533875 42.518359 " transform="matrix(1,0,0,-1,11.763,130.28789)"/>
<path style="fill-rule:nonzero;fill:rgb(0%,0%,0%);fill-opacity:1;stroke-width:0.3985;stroke-linecap:butt;stroke-linejoin:miter;stroke:rgb(0%,0%,0%);stroke-opacity:1;stroke-miterlimit:10;" d="M 86.533875 56.69414 C 86.533875 57.518359 85.865906 58.186328 85.041687 58.186328 C 84.213562 58.186328 83.545594 57.518359 83.545594 56.69414 C 83.545594 55.869921 84.213562 55.198046 85.041687 55.198046 C 85.865906 55.198046 86.533875 55.869921 86.533875 56.69414 Z M 86.533875 56.69414 " transform="matrix(1,0,0,-1,11.763,130.28789)"/>
<path style="fill-rule:nonzero;fill:rgb(0%,0%,0%);fill-opacity:1;stroke-width:0.3985;stroke-linecap:butt;stroke-linejoin:miter;stroke:rgb(0%,0%,0%);stroke-opacity:1;stroke-miterlimit:10;" d="M 100.709656 14.174609 C 100.709656 14.998828 100.037781 15.666796 99.213562 15.666796 C 98.389344 15.666796 97.717469 14.998828 97.717469 14.174609 C 97.717469 13.346484 98.389344 12.678515 99.213562 12.678515 C 100.037781 12.678515 100.709656 13.346484 100.709656 14.174609 Z M 100.709656 14.174609 " transform="matrix(1,0,0,-1,11.763,130.28789)"/>
<path style="fill-rule:nonzero;fill:rgb(0%,0%,0%);fill-opacity:1;stroke-width:0.3985;stroke-linecap:butt;stroke-linejoin:miter;stroke:rgb(0%,0%,0%);stroke-opacity:1;stroke-miterlimit:10;" d="M 114.881531 14.174609 C 114.881531 14.998828 114.213562 15.666796 113.385437 15.666796 C 112.561219 15.666796 111.89325 14.998828 111.89325 14.174609 C 111.89325 13.346484 112.561219 12.678515 113.385437 12.678515 C 114.213562 12.678515 114.881531 13.346484 114.881531 14.174609 Z M 114.881531 14.174609 " transform="matrix(1,0,0,-1,11.763,130.28789)"/>
<path style="fill:none;stroke-width:0.79701;stroke-linecap:butt;stroke-linejoin:miter;stroke:rgb(0%,0%,0%);stroke-opacity:1;stroke-miterlimit:10;" d="M 85.041687 14.174609 L 113.385437 14.174609 " transform="matrix(1,0,0,-1,11.763,130.28789)"/>
<path style="fill-rule:nonzero;fill:rgb(0%,0%,0%);fill-opacity:1;stroke-width:0.3985;stroke-linecap:butt;stroke-linejoin:miter;stroke:rgb(0%,0%,0%);stroke-opacity:1;stroke-miterlimit:10;" d="M 100.709656 28.346484 C 100.709656 29.170703 100.037781 29.842578 99.213562 29.842578 C 98.389344 29.842578 97.717469 29.170703 97.717469 28.346484 C 97.717469 27.522265 98.389344 26.854296 99.213562 26.854296 C 100.037781 26.854296 100.709656 27.522265 100.709656 28.346484 Z M 100.709656 28.346484 " transform="matrix(1,0,0,-1,11.763,130.28789)"/>
<path style="fill-rule:nonzero;fill:rgb(0%,0%,0%);fill-opacity:1;stroke-width:0.3985;stroke-linecap:butt;stroke-linejoin:miter;stroke:rgb(0%,0%,0%);stroke-opacity:1;stroke-miterlimit:10;" d="M 114.881531 28.346484 C 114.881531 29.170703 114.213562 29.842578 113.385437 29.842578 C 112.561219 29.842578 111.89325 29.170703 111.89325 28.346484 C 111.89325 27.522265 112.561219 26.854296 113.385437 26.854296 C 114.213562 26.854296 114.881531 27.522265 114.881531 28.346484 Z M 114.881531 28.346484 " transform="matrix(1,0,0,-1,11.763,130.28789)"/>
<path style="fill:none;stroke-width:0.79701;stroke-linecap:butt;stroke-linejoin:miter;stroke:rgb(0%,0%,0%);stroke-opacity:1;stroke-miterlimit:10;" d="M 85.041687 28.346484 L 113.385437 28.346484 " transform="matrix(1,0,0,-1,11.763,130.28789)"/>
<path style="fill-rule:nonzero;fill:rgb(0%,0%,0%);fill-opacity:1;stroke-width:0.3985;stroke-linecap:butt;stroke-linejoin:miter;stroke:rgb(0%,0%,0%);stroke-opacity:1;stroke-miterlimit:10;" d="M 100.709656 42.518359 C 100.709656 43.346484 100.037781 44.014453 99.213562 44.014453 C 98.389344 44.014453 97.717469 43.346484 97.717469 42.518359 C 97.717469 41.69414 98.389344 41.026171 99.213562 41.026171 C 100.037781 41.026171 100.709656 41.69414 100.709656 42.518359 Z M 100.709656 42.518359 " transform="matrix(1,0,0,-1,11.763,130.28789)"/>
<path style="fill-rule:nonzero;fill:rgb(0%,0%,0%);fill-opacity:1;stroke-width:0.3985;stroke-linecap:butt;stroke-linejoin:miter;stroke:rgb(0%,0%,0%);stroke-opacity:1;stroke-miterlimit:10;" d="M 114.881531 42.518359 C 114.881531 43.346484 114.213562 44.014453 113.385437 44.014453 C 112.561219 44.014453 111.89325 43.346484 111.89325 42.518359 C 111.89325 41.69414 112.561219 41.026171 113.385437 41.026171 C 114.213562 41.026171 114.881531 41.69414 114.881531 42.518359 Z M 114.881531 42.518359 " transform="matrix(1,0,0,-1,11.763,130.28789)"/>
<path style="fill:none;stroke-width:0.79701;stroke-linecap:butt;stroke-linejoin:miter;stroke:rgb(0%,0%,0%);stroke-opacity:1;stroke-miterlimit:10;" d="M 85.041687 42.518359 L 113.385437 42.518359 " transform="matrix(1,0,0,-1,11.763,130.28789)"/>
<path style="fill:none;stroke-width:0.79701;stroke-linecap:butt;stroke-linejoin:miter;stroke:rgb(0%,0%,0%);stroke-opacity:1;stroke-miterlimit:10;" d="M 85.041687 -0.0011725 L 85.041687 56.69414 " transform="matrix(1,0,0,-1,11.763,130.28789)"/>
<path style="fill:none;stroke-width:0.79701;stroke-linecap:butt;stroke-linejoin:miter;stroke:rgb(0%,0%,0%);stroke-opacity:1;stroke-dasharray:2.98883,2.98883;stroke-miterlimit:10;" d="M 74.408875 -0.0011725 L 95.670594 -0.0011725 " transform="matrix(1,0,0,-1,11.763,130.28789)"/>
<path style=" stroke:none;fill-rule:nonzero;fill:rgb(0%,0%,0%);fill-opacity:1;" d="M 140.816406 130.289062 C 140.816406 129.460938 140.148438 128.792969 139.324219 128.792969 C 138.5 128.792969 137.828125 129.460938 137.828125 130.289062 C 137.828125 131.113281 138.5 131.78125 139.324219 131.78125 C 140.148438 131.78125 140.816406 131.113281 140.816406 130.289062 Z M 140.816406 130.289062 "/>
<g clip-path="url(#clip4)" clip-rule="nonzero">
<path style="fill:none;stroke-width:0.3985;stroke-linecap:butt;stroke-linejoin:miter;stroke:rgb(0%,0%,0%);stroke-opacity:1;stroke-miterlimit:10;" d="M 129.053406 -0.0011725 C 129.053406 0.826953 128.385437 1.494921 127.561219 1.494921 C 126.737 1.494921 126.065125 0.826953 126.065125 -0.0011725 C 126.065125 -0.825391 126.737 -1.49336 127.561219 -1.49336 C 128.385437 -1.49336 129.053406 -0.825391 129.053406 -0.0011725 Z M 129.053406 -0.0011725 " transform="matrix(1,0,0,-1,11.763,130.28789)"/>
</g>
<path style="fill-rule:nonzero;fill:rgb(0%,0%,0%);fill-opacity:1;stroke-width:0.3985;stroke-linecap:butt;stroke-linejoin:miter;stroke:rgb(0%,0%,0%);stroke-opacity:1;stroke-miterlimit:10;" d="M 129.053406 14.174609 C 129.053406 14.998828 128.385437 15.666796 127.561219 15.666796 C 126.737 15.666796 126.065125 14.998828 126.065125 14.174609 C 126.065125 13.346484 126.737 12.678515 127.561219 12.678515 C 128.385437 12.678515 129.053406 13.346484 129.053406 14.174609 Z M 129.053406 14.174609 " transform="matrix(1,0,0,-1,11.763,130.28789)"/>
<path style="fill-rule:nonzero;fill:rgb(0%,0%,0%);fill-opacity:1;stroke-width:0.3985;stroke-linecap:butt;stroke-linejoin:miter;stroke:rgb(0%,0%,0%);stroke-opacity:1;stroke-miterlimit:10;" d="M 129.053406 28.346484 C 129.053406 29.170703 128.385437 29.842578 127.561219 29.842578 C 126.737 29.842578 126.065125 29.170703 126.065125 28.346484 C 126.065125 27.522265 126.737 26.854296 127.561219 26.854296 C 128.385437 26.854296 129.053406 27.522265 129.053406 28.346484 Z M 129.053406 28.346484 " transform="matrix(1,0,0,-1,11.763,130.28789)"/>
<path style="fill-rule:nonzero;fill:rgb(0%,0%,0%);fill-opacity:1;stroke-width:0.3985;stroke-linecap:butt;stroke-linejoin:miter;stroke:rgb(0%,0%,0%);stroke-opacity:1;stroke-miterlimit:10;" d="M 129.053406 42.518359 C 129.053406 43.346484 128.385437 44.014453 127.561219 44.014453 C 126.737 44.014453 126.065125 43.346484 126.065125 42.518359 C 126.065125 41.69414 126.737 41.026171 127.561219 41.026171 C 128.385437 41.026171 129.053406 41.69414 129.053406 42.518359 Z M 129.053406 42.518359 " transform="matrix(1,0,0,-1,11.763,130.28789)"/>
<path style="fill-rule:nonzero;fill:rgb(0%,0%,0%);fill-opacity:1;stroke-width:0.3985;stroke-linecap:butt;stroke-linejoin:miter;stroke:rgb(0%,0%,0%);stroke-opacity:1;stroke-miterlimit:10;" d="M 129.053406 56.69414 C 129.053406 57.518359 128.385437 58.186328 127.561219 58.186328 C 126.737 58.186328 126.065125 57.518359 126.065125 56.69414 C 126.065125 55.869921 126.737 55.198046 127.561219 55.198046 C 128.385437 55.198046 129.053406 55.869921 129.053406 56.69414 Z M 129.053406 56.69414 " transform="matrix(1,0,0,-1,11.763,130.28789)"/>
<path style="fill-rule:nonzero;fill:rgb(0%,0%,0%);fill-opacity:1;stroke-width:0.3985;stroke-linecap:butt;stroke-linejoin:miter;stroke:rgb(0%,0%,0%);stroke-opacity:1;stroke-miterlimit:10;" d="M 129.053406 70.866015 C 129.053406 71.69414 128.385437 72.362109 127.561219 72.362109 C 126.737 72.362109 126.065125 71.69414 126.065125 70.866015 C 126.065125 70.041796 126.737 69.373828 127.561219 69.373828 C 128.385437 69.373828 129.053406 70.041796 129.053406 70.866015 Z M 129.053406 70.866015 " transform="matrix(1,0,0,-1,11.763,130.28789)"/>
<path style="fill-rule:nonzero;fill:rgb(0%,0%,0%);fill-opacity:1;stroke-width:0.3985;stroke-linecap:butt;stroke-linejoin:miter;stroke:rgb(0%,0%,0%);stroke-opacity:1;stroke-miterlimit:10;" d="M 143.229187 14.174609 C 143.229187 14.998828 142.561219 15.666796 141.733094 15.666796 C 140.908875 15.666796 140.240906 14.998828 140.240906 14.174609 C 140.240906 13.346484 140.908875 12.678515 141.733094 12.678515 C 142.561219 12.678515 143.229187 13.346484 143.229187 14.174609 Z M 143.229187 14.174609 " transform="matrix(1,0,0,-1,11.763,130.28789)"/>
<path style="fill-rule:nonzero;fill:rgb(0%,0%,0%);fill-opacity:1;stroke-width:0.3985;stroke-linecap:butt;stroke-linejoin:miter;stroke:rgb(0%,0%,0%);stroke-opacity:1;stroke-miterlimit:10;" d="M 157.401062 14.174609 C 157.401062 14.998828 156.733094 15.666796 155.908875 15.666796 C 155.08075 15.666796 154.412781 14.998828 154.412781 14.174609 C 154.412781 13.346484 155.08075 12.678515 155.908875 12.678515 C 156.733094 12.678515 157.401062 13.346484 157.401062 14.174609 Z M 157.401062 14.174609 " transform="matrix(1,0,0,-1,11.763,130.28789)"/>
<path style="fill:none;stroke-width:0.79701;stroke-linecap:butt;stroke-linejoin:miter;stroke:rgb(0%,0%,0%);stroke-opacity:1;stroke-miterlimit:10;" d="M 127.561219 14.174609 L 155.908875 14.174609 " transform="matrix(1,0,0,-1,11.763,130.28789)"/>
<path style="fill-rule:nonzero;fill:rgb(0%,0%,0%);fill-opacity:1;stroke-width:0.3985;stroke-linecap:butt;stroke-linejoin:miter;stroke:rgb(0%,0%,0%);stroke-opacity:1;stroke-miterlimit:10;" d="M 143.229187 28.346484 C 143.229187 29.170703 142.561219 29.842578 141.733094 29.842578 C 140.908875 29.842578 140.240906 29.170703 140.240906 28.346484 C 140.240906 27.522265 140.908875 26.854296 141.733094 26.854296 C 142.561219 26.854296 143.229187 27.522265 143.229187 28.346484 Z M 143.229187 28.346484 " transform="matrix(1,0,0,-1,11.763,130.28789)"/>
<path style="fill-rule:nonzero;fill:rgb(0%,0%,0%);fill-opacity:1;stroke-width:0.3985;stroke-linecap:butt;stroke-linejoin:miter;stroke:rgb(0%,0%,0%);stroke-opacity:1;stroke-miterlimit:10;" d="M 157.401062 28.346484 C 157.401062 29.170703 156.733094 29.842578 155.908875 29.842578 C 155.08075 29.842578 154.412781 29.170703 154.412781 28.346484 C 154.412781 27.522265 155.08075 26.854296 155.908875 26.854296 C 156.733094 26.854296 157.401062 27.522265 157.401062 28.346484 Z M 157.401062 28.346484 " transform="matrix(1,0,0,-1,11.763,130.28789)"/>
<path style="fill:none;stroke-width:0.79701;stroke-linecap:butt;stroke-linejoin:miter;stroke:rgb(0%,0%,0%);stroke-opacity:1;stroke-miterlimit:10;" d="M 127.561219 28.346484 L 155.908875 28.346484 " transform="matrix(1,0,0,-1,11.763,130.28789)"/>
<path style="fill-rule:nonzero;fill:rgb(0%,0%,0%);fill-opacity:1;stroke-width:0.3985;stroke-linecap:butt;stroke-linejoin:miter;stroke:rgb(0%,0%,0%);stroke-opacity:1;stroke-miterlimit:10;" d="M 143.229187 42.518359 C 143.229187 43.346484 142.561219 44.014453 141.733094 44.014453 C 140.908875 44.014453 140.240906 43.346484 140.240906 42.518359 C 140.240906 41.69414 140.908875 41.026171 141.733094 41.026171 C 142.561219 41.026171 143.229187 41.69414 143.229187 42.518359 Z M 143.229187 42.518359 " transform="matrix(1,0,0,-1,11.763,130.28789)"/>
<path style="fill-rule:nonzero;fill:rgb(0%,0%,0%);fill-opacity:1;stroke-width:0.3985;stroke-linecap:butt;stroke-linejoin:miter;stroke:rgb(0%,0%,0%);stroke-opacity:1;stroke-miterlimit:10;" d="M 157.401062 42.518359 C 157.401062 43.346484 156.733094 44.014453 155.908875 44.014453 C 155.08075 44.014453 154.412781 43.346484 154.412781 42.518359 C 154.412781 41.69414 155.08075 41.026171 155.908875 41.026171 C 156.733094 41.026171 157.401062 41.69414 157.401062 42.518359 Z M 157.401062 42.518359 " transform="matrix(1,0,0,-1,11.763,130.28789)"/>
<path style="fill:none;stroke-width:0.79701;stroke-linecap:butt;stroke-linejoin:miter;stroke:rgb(0%,0%,0%);stroke-opacity:1;stroke-miterlimit:10;" d="M 127.561219 42.518359 L 155.908875 42.518359 " transform="matrix(1,0,0,-1,11.763,130.28789)"/>
<path style="fill-rule:nonzero;fill:rgb(0%,0%,0%);fill-opacity:1;stroke-width:0.3985;stroke-linecap:butt;stroke-linejoin:miter;stroke:rgb(0%,0%,0%);stroke-opacity:1;stroke-miterlimit:10;" d="M 143.229187 56.69414 C 143.229187 57.518359 142.561219 58.186328 141.733094 58.186328 C 140.908875 58.186328 140.240906 57.518359 140.240906 56.69414 C 140.240906 55.869921 140.908875 55.198046 141.733094 55.198046 C 142.561219 55.198046 143.229187 55.869921 143.229187 56.69414 Z M 143.229187 56.69414 " transform="matrix(1,0,0,-1,11.763,130.28789)"/>
<path style="fill-rule:nonzero;fill:rgb(0%,0%,0%);fill-opacity:1;stroke-width:0.3985;stroke-linecap:butt;stroke-linejoin:miter;stroke:rgb(0%,0%,0%);stroke-opacity:1;stroke-miterlimit:10;" d="M 157.401062 56.69414 C 157.401062 57.518359 156.733094 58.186328 155.908875 58.186328 C 155.08075 58.186328 154.412781 57.518359 154.412781 56.69414 C 154.412781 55.869921 155.08075 55.198046 155.908875 55.198046 C 156.733094 55.198046 157.401062 55.869921 157.401062 56.69414 Z M 157.401062 56.69414 " transform="matrix(1,0,0,-1,11.763,130.28789)"/>
<path style="fill:none;stroke-width:0.79701;stroke-linecap:butt;stroke-linejoin:miter;stroke:rgb(0%,0%,0%);stroke-opacity:1;stroke-miterlimit:10;" d="M 127.561219 56.69414 L 155.908875 56.69414 " transform="matrix(1,0,0,-1,11.763,130.28789)"/>
<path style="fill:none;stroke-width:0.79701;stroke-linecap:butt;stroke-linejoin:miter;stroke:rgb(0%,0%,0%);stroke-opacity:1;stroke-miterlimit:10;" d="M 127.561219 -0.0011725 L 127.561219 70.866015 " transform="matrix(1,0,0,-1,11.763,130.28789)"/>
<path style="fill:none;stroke-width:0.79701;stroke-linecap:butt;stroke-linejoin:miter;stroke:rgb(0%,0%,0%);stroke-opacity:1;stroke-dasharray:2.98883,2.98883;stroke-miterlimit:10;" d="M 116.932312 -0.0011725 L 138.190125 -0.0011725 " transform="matrix(1,0,0,-1,11.763,130.28789)"/>
<path style=" stroke:none;fill-rule:nonzero;fill:rgb(0%,0%,0%);fill-opacity:1;" d="M 183.339844 130.289062 C 183.339844 129.460938 182.667969 128.792969 181.84375 128.792969 C 181.019531 128.792969 180.347656 129.460938 180.347656 130.289062 C 180.347656 131.113281 181.019531 131.78125 181.84375 131.78125 C 182.667969 131.78125 183.339844 131.113281 183.339844 130.289062 Z M 183.339844 130.289062 "/>
<g clip-path="url(#clip5)" clip-rule="nonzero">
<path style="fill:none;stroke-width:0.3985;stroke-linecap:butt;stroke-linejoin:miter;stroke:rgb(0%,0%,0%);stroke-opacity:1;stroke-miterlimit:10;" d="M 171.576844 -0.0011725 C 171.576844 0.826953 170.904969 1.494921 170.08075 1.494921 C 169.256531 1.494921 168.584656 0.826953 168.584656 -0.0011725 C 168.584656 -0.825391 169.256531 -1.49336 170.08075 -1.49336 C 170.904969 -1.49336 171.576844 -0.825391 171.576844 -0.0011725 Z M 171.576844 -0.0011725 " transform="matrix(1,0,0,-1,11.763,130.28789)"/>
</g>
<path style="fill-rule:nonzero;fill:rgb(0%,0%,0%);fill-opacity:1;stroke-width:0.3985;stroke-linecap:butt;stroke-linejoin:miter;stroke:rgb(0%,0%,0%);stroke-opacity:1;stroke-miterlimit:10;" d="M 171.576844 14.174609 C 171.576844 14.998828 170.904969 15.666796 170.08075 15.666796 C 169.256531 15.666796 168.584656 14.998828 168.584656 14.174609 C 168.584656 13.346484 169.256531 12.678515 170.08075 12.678515 C 170.904969 12.678515 171.576844 13.346484 171.576844 14.174609 Z M 171.576844 14.174609 " transform="matrix(1,0,0,-1,11.763,130.28789)"/>
<path style="fill-rule:nonzero;fill:rgb(0%,0%,0%);fill-opacity:1;stroke-width:0.3985;stroke-linecap:butt;stroke-linejoin:miter;stroke:rgb(0%,0%,0%);stroke-opacity:1;stroke-miterlimit:10;" d="M 171.576844 28.346484 C 171.576844 29.170703 170.904969 29.842578 170.08075 29.842578 C 169.256531 29.842578 168.584656 29.170703 168.584656 28.346484 C 168.584656 27.522265 169.256531 26.854296 170.08075 26.854296 C 170.904969 26.854296 171.576844 27.522265 171.576844 28.346484 Z M 171.576844 28.346484 " transform="matrix(1,0,0,-1,11.763,130.28789)"/>
<path style="fill-rule:nonzero;fill:rgb(0%,0%,0%);fill-opacity:1;stroke-width:0.3985;stroke-linecap:butt;stroke-linejoin:miter;stroke:rgb(0%,0%,0%);stroke-opacity:1;stroke-miterlimit:10;" d="M 171.576844 42.518359 C 171.576844 43.346484 170.904969 44.014453 170.08075 44.014453 C 169.256531 44.014453 168.584656 43.346484 168.584656 42.518359 C 168.584656 41.69414 169.256531 41.026171 170.08075 41.026171 C 170.904969 41.026171 171.576844 41.69414 171.576844 42.518359 Z M 171.576844 42.518359 " transform="matrix(1,0,0,-1,11.763,130.28789)"/>
<path style="fill-rule:nonzero;fill:rgb(0%,0%,0%);fill-opacity:1;stroke-width:0.3985;stroke-linecap:butt;stroke-linejoin:miter;stroke:rgb(0%,0%,0%);stroke-opacity:1;stroke-miterlimit:10;" d="M 171.576844 56.69414 C 171.576844 57.518359 170.904969 58.186328 170.08075 58.186328 C 169.256531 58.186328 168.584656 57.518359 168.584656 56.69414 C 168.584656 55.869921 169.256531 55.198046 170.08075 55.198046 C 170.904969 55.198046 171.576844 55.869921 171.576844 56.69414 Z M 171.576844 56.69414 " transform="matrix(1,0,0,-1,11.763,130.28789)"/>
<path style="fill-rule:nonzero;fill:rgb(0%,0%,0%);fill-opacity:1;stroke-width:0.3985;stroke-linecap:butt;stroke-linejoin:miter;stroke:rgb(0%,0%,0%);stroke-opacity:1;stroke-miterlimit:10;" d="M 171.576844 70.866015 C 171.576844 71.69414 170.904969 72.362109 170.08075 72.362109 C 169.256531 72.362109 168.584656 71.69414 168.584656 70.866015 C 168.584656 70.041796 169.256531 69.373828 170.08075 69.373828 C 170.904969 69.373828 171.576844 70.041796 171.576844 70.866015 Z M 171.576844 70.866015 " transform="matrix(1,0,0,-1,11.763,130.28789)"/>
<path style="fill-rule:nonzero;fill:rgb(0%,0%,0%);fill-opacity:1;stroke-width:0.3985;stroke-linecap:butt;stroke-linejoin:miter;stroke:rgb(0%,0%,0%);stroke-opacity:1;stroke-miterlimit:10;" d="M 171.576844 85.041796 C 171.576844 85.866015 170.904969 86.533984 170.08075 86.533984 C 169.256531 86.533984 168.584656 85.866015 168.584656 85.041796 C 168.584656 84.213671 169.256531 83.545703 170.08075 83.545703 C 170.904969 83.545703 171.576844 84.213671 171.576844 85.041796 Z M 171.576844 85.041796 " transform="matrix(1,0,0,-1,11.763,130.28789)"/>
<path style="fill-rule:nonzero;fill:rgb(0%,0%,0%);fill-opacity:1;stroke-width:0.3985;stroke-linecap:butt;stroke-linejoin:miter;stroke:rgb(0%,0%,0%);stroke-opacity:1;stroke-miterlimit:10;" d="M 185.748719 14.174609 C 185.748719 14.998828 185.08075 15.666796 184.252625 15.666796 C 183.428406 15.666796 182.760437 14.998828 182.760437 14.174609 C 182.760437 13.346484 183.428406 12.678515 184.252625 12.678515 C 185.08075 12.678515 185.748719 13.346484 185.748719 14.174609 Z M 185.748719 14.174609 " transform="matrix(1,0,0,-1,11.763,130.28789)"/>
<path style="fill-rule:nonzero;fill:rgb(0%,0%,0%);fill-opacity:1;stroke-width:0.3985;stroke-linecap:butt;stroke-linejoin:miter;stroke:rgb(0%,0%,0%);stroke-opacity:1;stroke-miterlimit:10;" d="M 199.920594 14.174609 C 199.920594 14.998828 199.252625 15.666796 198.428406 15.666796 C 197.604187 15.666796 196.932312 14.998828 196.932312 14.174609 C 196.932312 13.346484 197.604187 12.678515 198.428406 12.678515 C 199.252625 12.678515 199.920594 13.346484 199.920594 14.174609 Z M 199.920594 14.174609 " transform="matrix(1,0,0,-1,11.763,130.28789)"/>
<path style="fill:none;stroke-width:0.79701;stroke-linecap:butt;stroke-linejoin:miter;stroke:rgb(0%,0%,0%);stroke-opacity:1;stroke-miterlimit:10;" d="M 170.08075 14.174609 L 198.428406 14.174609 " transform="matrix(1,0,0,-1,11.763,130.28789)"/>
<path style="fill-rule:nonzero;fill:rgb(0%,0%,0%);fill-opacity:1;stroke-width:0.3985;stroke-linecap:butt;stroke-linejoin:miter;stroke:rgb(0%,0%,0%);stroke-opacity:1;stroke-miterlimit:10;" d="M 185.748719 28.346484 C 185.748719 29.170703 185.08075 29.842578 184.252625 29.842578 C 183.428406 29.842578 182.760437 29.170703 182.760437 28.346484 C 182.760437 27.522265 183.428406 26.854296 184.252625 26.854296 C 185.08075 26.854296 185.748719 27.522265 185.748719 28.346484 Z M 185.748719 28.346484 " transform="matrix(1,0,0,-1,11.763,130.28789)"/>
<path style="fill-rule:nonzero;fill:rgb(0%,0%,0%);fill-opacity:1;stroke-width:0.3985;stroke-linecap:butt;stroke-linejoin:miter;stroke:rgb(0%,0%,0%);stroke-opacity:1;stroke-miterlimit:10;" d="M 199.920594 28.346484 C 199.920594 29.170703 199.252625 29.842578 198.428406 29.842578 C 197.604187 29.842578 196.932312 29.170703 196.932312 28.346484 C 196.932312 27.522265 197.604187 26.854296 198.428406 26.854296 C 199.252625 26.854296 199.920594 27.522265 199.920594 28.346484 Z M 199.920594 28.346484 " transform="matrix(1,0,0,-1,11.763,130.28789)"/>
<path style="fill:none;stroke-width:0.79701;stroke-linecap:butt;stroke-linejoin:miter;stroke:rgb(0%,0%,0%);stroke-opacity:1;stroke-miterlimit:10;" d="M 170.08075 28.346484 L 198.428406 28.346484 " transform="matrix(1,0,0,-1,11.763,130.28789)"/>
<path style="fill-rule:nonzero;fill:rgb(0%,0%,0%);fill-opacity:1;stroke-width:0.3985;stroke-linecap:butt;stroke-linejoin:miter;stroke:rgb(0%,0%,0%);stroke-opacity:1;stroke-miterlimit:10;" d="M 185.748719 42.518359 C 185.748719 43.346484 185.08075 44.014453 184.252625 44.014453 C 183.428406 44.014453 182.760437 43.346484 182.760437 42.518359 C 182.760437 41.69414 183.428406 41.026171 184.252625 41.026171 C 185.08075 41.026171 185.748719 41.69414 185.748719 42.518359 Z M 185.748719 42.518359 " transform="matrix(1,0,0,-1,11.763,130.28789)"/>
<path style="fill-rule:nonzero;fill:rgb(0%,0%,0%);fill-opacity:1;stroke-width:0.3985;stroke-linecap:butt;stroke-linejoin:miter;stroke:rgb(0%,0%,0%);stroke-opacity:1;stroke-miterlimit:10;" d="M 199.920594 42.518359 C 199.920594 43.346484 199.252625 44.014453 198.428406 44.014453 C 197.604187 44.014453 196.932312 43.346484 196.932312 42.518359 C 196.932312 41.69414 197.604187 41.026171 198.428406 41.026171 C 199.252625 41.026171 199.920594 41.69414 199.920594 42.518359 Z M 199.920594 42.518359 " transform="matrix(1,0,0,-1,11.763,130.28789)"/>
<path style="fill:none;stroke-width:0.79701;stroke-linecap:butt;stroke-linejoin:miter;stroke:rgb(0%,0%,0%);stroke-opacity:1;stroke-miterlimit:10;" d="M 170.08075 42.518359 L 198.428406 42.518359 " transform="matrix(1,0,0,-1,11.763,130.28789)"/>
<path style="fill-rule:nonzero;fill:rgb(0%,0%,0%);fill-opacity:1;stroke-width:0.3985;stroke-linecap:butt;stroke-linejoin:miter;stroke:rgb(0%,0%,0%);stroke-opacity:1;stroke-miterlimit:10;" d="M 185.748719 56.69414 C 185.748719 57.518359 185.08075 58.186328 184.252625 58.186328 C 183.428406 58.186328 182.760437 57.518359 182.760437 56.69414 C 182.760437 55.869921 183.428406 55.198046 184.252625 55.198046 C 185.08075 55.198046 185.748719 55.869921 185.748719 56.69414 Z M 185.748719 56.69414 " transform="matrix(1,0,0,-1,11.763,130.28789)"/>
<path style="fill-rule:nonzero;fill:rgb(0%,0%,0%);fill-opacity:1;stroke-width:0.3985;stroke-linecap:butt;stroke-linejoin:miter;stroke:rgb(0%,0%,0%);stroke-opacity:1;stroke-miterlimit:10;" d="M 199.920594 56.69414 C 199.920594 57.518359 199.252625 58.186328 198.428406 58.186328 C 197.604187 58.186328 196.932312 57.518359 196.932312 56.69414 C 196.932312 55.869921 197.604187 55.198046 198.428406 55.198046 C 199.252625 55.198046 199.920594 55.869921 199.920594 56.69414 Z M 199.920594 56.69414 " transform="matrix(1,0,0,-1,11.763,130.28789)"/>
<path style="fill:none;stroke-width:0.79701;stroke-linecap:butt;stroke-linejoin:miter;stroke:rgb(0%,0%,0%);stroke-opacity:1;stroke-miterlimit:10;" d="M 170.08075 56.69414 L 198.428406 56.69414 " transform="matrix(1,0,0,-1,11.763,130.28789)"/>
<path style="fill-rule:nonzero;fill:rgb(0%,0%,0%);fill-opacity:1;stroke-width:0.3985;stroke-linecap:butt;stroke-linejoin:miter;stroke:rgb(0%,0%,0%);stroke-opacity:1;stroke-miterlimit:10;" d="M 185.748719 70.866015 C 185.748719 71.69414 185.08075 72.362109 184.252625 72.362109 C 183.428406 72.362109 182.760437 71.69414 182.760437 70.866015 C 182.760437 70.041796 183.428406 69.373828 184.252625 69.373828 C 185.08075 69.373828 185.748719 70.041796 185.748719 70.866015 Z M 185.748719 70.866015 " transform="matrix(1,0,0,-1,11.763,130.28789)"/>
<path style="fill-rule:nonzero;fill:rgb(0%,0%,0%);fill-opacity:1;stroke-width:0.3985;stroke-linecap:butt;stroke-linejoin:miter;stroke:rgb(0%,0%,0%);stroke-opacity:1;stroke-miterlimit:10;" d="M 199.920594 70.866015 C 199.920594 71.69414 199.252625 72.362109 198.428406 72.362109 C 197.604187 72.362109 196.932312 71.69414 196.932312 70.866015 C 196.932312 70.041796 197.604187 69.373828 198.428406 69.373828 C 199.252625 69.373828 199.920594 70.041796 199.920594 70.866015 Z M 199.920594 70.866015 " transform="matrix(1,0,0,-1,11.763,130.28789)"/>
<path style="fill:none;stroke-width:0.79701;stroke-linecap:butt;stroke-linejoin:miter;stroke:rgb(0%,0%,0%);stroke-opacity:1;stroke-miterlimit:10;" d="M 170.08075 70.866015 L 198.428406 70.866015 " transform="matrix(1,0,0,-1,11.763,130.28789)"/>
<path style="fill:none;stroke-width:0.79701;stroke-linecap:butt;stroke-linejoin:miter;stroke:rgb(0%,0%,0%);stroke-opacity:1;stroke-miterlimit:10;" d="M 170.08075 -0.0011725 L 170.08075 85.041796 " transform="matrix(1,0,0,-1,11.763,130.28789)"/>
<path style="fill:none;stroke-width:0.79701;stroke-linecap:butt;stroke-linejoin:miter;stroke:rgb(0%,0%,0%);stroke-opacity:1;stroke-dasharray:2.98883,2.98883;stroke-miterlimit:10;" d="M 159.451844 -0.0011725 L 180.709656 -0.0011725 " transform="matrix(1,0,0,-1,11.763,130.28789)"/>
<path style=" stroke:none;fill-rule:nonzero;fill:rgb(0%,0%,0%);fill-opacity:1;" d="M 225.859375 130.289062 C 225.859375 129.460938 225.1875 128.792969 224.363281 128.792969 C 223.539062 128.792969 222.871094 129.460938 222.871094 130.289062 C 222.871094 131.113281 223.539062 131.78125 224.363281 131.78125 C 225.1875 131.78125 225.859375 131.113281 225.859375 130.289062 Z M 225.859375 130.289062 "/>
<g clip-path="url(#clip6)" clip-rule="nonzero">
<path style="fill:none;stroke-width:0.3985;stroke-linecap:butt;stroke-linejoin:miter;stroke:rgb(0%,0%,0%);stroke-opacity:1;stroke-miterlimit:10;" d="M 214.096375 -0.0011725 C 214.096375 0.826953 213.4245 1.494921 212.600281 1.494921 C 211.776062 1.494921 211.108094 0.826953 211.108094 -0.0011725 C 211.108094 -0.825391 211.776062 -1.49336 212.600281 -1.49336 C 213.4245 -1.49336 214.096375 -0.825391 214.096375 -0.0011725 Z M 214.096375 -0.0011725 " transform="matrix(1,0,0,-1,11.763,130.28789)"/>
</g>
<path style="fill-rule:nonzero;fill:rgb(0%,0%,0%);fill-opacity:1;stroke-width:0.3985;stroke-linecap:butt;stroke-linejoin:miter;stroke:rgb(0%,0%,0%);stroke-opacity:1;stroke-miterlimit:10;" d="M 214.096375 14.174609 C 214.096375 14.998828 213.4245 15.666796 212.600281 15.666796 C 211.776062 15.666796 211.108094 14.998828 211.108094 14.174609 C 211.108094 13.346484 211.776062 12.678515 212.600281 12.678515 C 213.4245 12.678515 214.096375 13.346484 214.096375 14.174609 Z M 214.096375 14.174609 " transform="matrix(1,0,0,-1,11.763,130.28789)"/>
<path style="fill-rule:nonzero;fill:rgb(0%,0%,0%);fill-opacity:1;stroke-width:0.3985;stroke-linecap:butt;stroke-linejoin:miter;stroke:rgb(0%,0%,0%);stroke-opacity:1;stroke-miterlimit:10;" d="M 214.096375 28.346484 C 214.096375 29.170703 213.4245 29.842578 212.600281 29.842578 C 211.776062 29.842578 211.108094 29.170703 211.108094 28.346484 C 211.108094 27.522265 211.776062 26.854296 212.600281 26.854296 C 213.4245 26.854296 214.096375 27.522265 214.096375 28.346484 Z M 214.096375 28.346484 " transform="matrix(1,0,0,-1,11.763,130.28789)"/>
<path style="fill-rule:nonzero;fill:rgb(0%,0%,0%);fill-opacity:1;stroke-width:0.3985;stroke-linecap:butt;stroke-linejoin:miter;stroke:rgb(0%,0%,0%);stroke-opacity:1;stroke-miterlimit:10;" d="M 214.096375 42.518359 C 214.096375 43.346484 213.4245 44.014453 212.600281 44.014453 C 211.776062 44.014453 211.108094 43.346484 211.108094 42.518359 C 211.108094 41.69414 211.776062 41.026171 212.600281 41.026171 C 213.4245 41.026171 214.096375 41.69414 214.096375 42.518359 Z M 214.096375 42.518359 " transform="matrix(1,0,0,-1,11.763,130.28789)"/>
<path style="fill-rule:nonzero;fill:rgb(0%,0%,0%);fill-opacity:1;stroke-width:0.3985;stroke-linecap:butt;stroke-linejoin:miter;stroke:rgb(0%,0%,0%);stroke-opacity:1;stroke-miterlimit:10;" d="M 214.096375 56.69414 C 214.096375 57.518359 213.4245 58.186328 212.600281 58.186328 C 211.776062 58.186328 211.108094 57.518359 211.108094 56.69414 C 211.108094 55.869921 211.776062 55.198046 212.600281 55.198046 C 213.4245 55.198046 214.096375 55.869921 214.096375 56.69414 Z M 214.096375 56.69414 " transform="matrix(1,0,0,-1,11.763,130.28789)"/>
<path style="fill-rule:nonzero;fill:rgb(0%,0%,0%);fill-opacity:1;stroke-width:0.3985;stroke-linecap:butt;stroke-linejoin:miter;stroke:rgb(0%,0%,0%);stroke-opacity:1;stroke-miterlimit:10;" d="M 214.096375 70.866015 C 214.096375 71.69414 213.4245 72.362109 212.600281 72.362109 C 211.776062 72.362109 211.108094 71.69414 211.108094 70.866015 C 211.108094 70.041796 211.776062 69.373828 212.600281 69.373828 C 213.4245 69.373828 214.096375 70.041796 214.096375 70.866015 Z M 214.096375 70.866015 " transform="matrix(1,0,0,-1,11.763,130.28789)"/>
<path style="fill-rule:nonzero;fill:rgb(0%,0%,0%);fill-opacity:1;stroke-width:0.3985;stroke-linecap:butt;stroke-linejoin:miter;stroke:rgb(0%,0%,0%);stroke-opacity:1;stroke-miterlimit:10;" d="M 214.096375 85.041796 C 214.096375 85.866015 213.4245 86.533984 212.600281 86.533984 C 211.776062 86.533984 211.108094 85.866015 211.108094 85.041796 C 211.108094 84.213671 211.776062 83.545703 212.600281 83.545703 C 213.4245 83.545703 214.096375 84.213671 214.096375 85.041796 Z M 214.096375 85.041796 " transform="matrix(1,0,0,-1,11.763,130.28789)"/>
<path style="fill-rule:nonzero;fill:rgb(0%,0%,0%);fill-opacity:1;stroke-width:0.3985;stroke-linecap:butt;stroke-linejoin:miter;stroke:rgb(0%,0%,0%);stroke-opacity:1;stroke-miterlimit:10;" d="M 214.096375 99.213671 C 214.096375 100.03789 213.4245 100.709765 212.600281 100.709765 C 211.776062 100.709765 211.108094 100.03789 211.108094 99.213671 C 211.108094 98.389453 211.776062 97.717578 212.600281 97.717578 C 213.4245 97.717578 214.096375 98.389453 214.096375 99.213671 Z M 214.096375 99.213671 " transform="matrix(1,0,0,-1,11.763,130.28789)"/>
<path style="fill-rule:nonzero;fill:rgb(0%,0%,0%);fill-opacity:1;stroke-width:0.3985;stroke-linecap:butt;stroke-linejoin:miter;stroke:rgb(0%,0%,0%);stroke-opacity:1;stroke-miterlimit:10;" d="M 228.26825 14.174609 C 228.26825 14.998828 227.600281 15.666796 226.776062 15.666796 C 225.947937 15.666796 225.279969 14.998828 225.279969 14.174609 C 225.279969 13.346484 225.947937 12.678515 226.776062 12.678515 C 227.600281 12.678515 228.26825 13.346484 228.26825 14.174609 Z M 228.26825 14.174609 " transform="matrix(1,0,0,-1,11.763,130.28789)"/>
<path style="fill-rule:nonzero;fill:rgb(0%,0%,0%);fill-opacity:1;stroke-width:0.3985;stroke-linecap:butt;stroke-linejoin:miter;stroke:rgb(0%,0%,0%);stroke-opacity:1;stroke-miterlimit:10;" d="M 242.444031 14.174609 C 242.444031 14.998828 241.772156 15.666796 240.947937 15.666796 C 240.123719 15.666796 239.451844 14.998828 239.451844 14.174609 C 239.451844 13.346484 240.123719 12.678515 240.947937 12.678515 C 241.772156 12.678515 242.444031 13.346484 242.444031 14.174609 Z M 242.444031 14.174609 " transform="matrix(1,0,0,-1,11.763,130.28789)"/>
<path style="fill:none;stroke-width:0.79701;stroke-linecap:butt;stroke-linejoin:miter;stroke:rgb(0%,0%,0%);stroke-opacity:1;stroke-miterlimit:10;" d="M 212.600281 14.174609 L 240.947937 14.174609 " transform="matrix(1,0,0,-1,11.763,130.28789)"/>
<path style="fill-rule:nonzero;fill:rgb(0%,0%,0%);fill-opacity:1;stroke-width:0.3985;stroke-linecap:butt;stroke-linejoin:miter;stroke:rgb(0%,0%,0%);stroke-opacity:1;stroke-miterlimit:10;" d="M 228.26825 28.346484 C 228.26825 29.170703 227.600281 29.842578 226.776062 29.842578 C 225.947937 29.842578 225.279969 29.170703 225.279969 28.346484 C 225.279969 27.522265 225.947937 26.854296 226.776062 26.854296 C 227.600281 26.854296 228.26825 27.522265 228.26825 28.346484 Z M 228.26825 28.346484 " transform="matrix(1,0,0,-1,11.763,130.28789)"/>
<path style="fill-rule:nonzero;fill:rgb(0%,0%,0%);fill-opacity:1;stroke-width:0.3985;stroke-linecap:butt;stroke-linejoin:miter;stroke:rgb(0%,0%,0%);stroke-opacity:1;stroke-miterlimit:10;" d="M 242.444031 28.346484 C 242.444031 29.170703 241.772156 29.842578 240.947937 29.842578 C 240.123719 29.842578 239.451844 29.170703 239.451844 28.346484 C 239.451844 27.522265 240.123719 26.854296 240.947937 26.854296 C 241.772156 26.854296 242.444031 27.522265 242.444031 28.346484 Z M 242.444031 28.346484 " transform="matrix(1,0,0,-1,11.763,130.28789)"/>
<path style="fill:none;stroke-width:0.79701;stroke-linecap:butt;stroke-linejoin:miter;stroke:rgb(0%,0%,0%);stroke-opacity:1;stroke-miterlimit:10;" d="M 212.600281 28.346484 L 240.947937 28.346484 " transform="matrix(1,0,0,-1,11.763,130.28789)"/>
<path style="fill-rule:nonzero;fill:rgb(0%,0%,0%);fill-opacity:1;stroke-width:0.3985;stroke-linecap:butt;stroke-linejoin:miter;stroke:rgb(0%,0%,0%);stroke-opacity:1;stroke-miterlimit:10;" d="M 228.26825 42.518359 C 228.26825 43.346484 227.600281 44.014453 226.776062 44.014453 C 225.947937 44.014453 225.279969 43.346484 225.279969 42.518359 C 225.279969 41.69414 225.947937 41.026171 226.776062 41.026171 C 227.600281 41.026171 228.26825 41.69414 228.26825 42.518359 Z M 228.26825 42.518359 " transform="matrix(1,0,0,-1,11.763,130.28789)"/>
<path style="fill-rule:nonzero;fill:rgb(0%,0%,0%);fill-opacity:1;stroke-width:0.3985;stroke-linecap:butt;stroke-linejoin:miter;stroke:rgb(0%,0%,0%);stroke-opacity:1;stroke-miterlimit:10;" d="M 242.444031 42.518359 C 242.444031 43.346484 241.772156 44.014453 240.947937 44.014453 C 240.123719 44.014453 239.451844 43.346484 239.451844 42.518359 C 239.451844 41.69414 240.123719 41.026171 240.947937 41.026171 C 241.772156 41.026171 242.444031 41.69414 242.444031 42.518359 Z M 242.444031 42.518359 " transform="matrix(1,0,0,-1,11.763,130.28789)"/>
<path style="fill:none;stroke-width:0.79701;stroke-linecap:butt;stroke-linejoin:miter;stroke:rgb(0%,0%,0%);stroke-opacity:1;stroke-miterlimit:10;" d="M 212.600281 42.518359 L 240.947937 42.518359 " transform="matrix(1,0,0,-1,11.763,130.28789)"/>
<path style="fill-rule:nonzero;fill:rgb(0%,0%,0%);fill-opacity:1;stroke-width:0.3985;stroke-linecap:butt;stroke-linejoin:miter;stroke:rgb(0%,0%,0%);stroke-opacity:1;stroke-miterlimit:10;" d="M 228.26825 56.69414 C 228.26825 57.518359 227.600281 58.186328 226.776062 58.186328 C 225.947937 58.186328 225.279969 57.518359 225.279969 56.69414 C 225.279969 55.869921 225.947937 55.198046 226.776062 55.198046 C 227.600281 55.198046 228.26825 55.869921 228.26825 56.69414 Z M 228.26825 56.69414 " transform="matrix(1,0,0,-1,11.763,130.28789)"/>
<path style="fill-rule:nonzero;fill:rgb(0%,0%,0%);fill-opacity:1;stroke-width:0.3985;stroke-linecap:butt;stroke-linejoin:miter;stroke:rgb(0%,0%,0%);stroke-opacity:1;stroke-miterlimit:10;" d="M 242.444031 56.69414 C 242.444031 57.518359 241.772156 58.186328 240.947937 58.186328 C 240.123719 58.186328 239.451844 57.518359 239.451844 56.69414 C 239.451844 55.869921 240.123719 55.198046 240.947937 55.198046 C 241.772156 55.198046 242.444031 55.869921 242.444031 56.69414 Z M 242.444031 56.69414 " transform="matrix(1,0,0,-1,11.763,130.28789)"/>
<path style="fill:none;stroke-width:0.79701;stroke-linecap:butt;stroke-linejoin:miter;stroke:rgb(0%,0%,0%);stroke-opacity:1;stroke-miterlimit:10;" d="M 212.600281 56.69414 L 240.947937 56.69414 " transform="matrix(1,0,0,-1,11.763,130.28789)"/>
<path style="fill-rule:nonzero;fill:rgb(0%,0%,0%);fill-opacity:1;stroke-width:0.3985;stroke-linecap:butt;stroke-linejoin:miter;stroke:rgb(0%,0%,0%);stroke-opacity:1;stroke-miterlimit:10;" d="M 228.26825 70.866015 C 228.26825 71.69414 227.600281 72.362109 226.776062 72.362109 C 225.947937 72.362109 225.279969 71.69414 225.279969 70.866015 C 225.279969 70.041796 225.947937 69.373828 226.776062 69.373828 C 227.600281 69.373828 228.26825 70.041796 228.26825 70.866015 Z M 228.26825 70.866015 " transform="matrix(1,0,0,-1,11.763,130.28789)"/>
<path style="fill-rule:nonzero;fill:rgb(0%,0%,0%);fill-opacity:1;stroke-width:0.3985;stroke-linecap:butt;stroke-linejoin:miter;stroke:rgb(0%,0%,0%);stroke-opacity:1;stroke-miterlimit:10;" d="M 242.444031 70.866015 C 242.444031 71.69414 241.772156 72.362109 240.947937 72.362109 C 240.123719 72.362109 239.451844 71.69414 239.451844 70.866015 C 239.451844 70.041796 240.123719 69.373828 240.947937 69.373828 C 241.772156 69.373828 242.444031 70.041796 242.444031 70.866015 Z M 242.444031 70.866015 " transform="matrix(1,0,0,-1,11.763,130.28789)"/>
<path style="fill:none;stroke-width:0.79701;stroke-linecap:butt;stroke-linejoin:miter;stroke:rgb(0%,0%,0%);stroke-opacity:1;stroke-miterlimit:10;" d="M 212.600281 70.866015 L 240.947937 70.866015 " transform="matrix(1,0,0,-1,11.763,130.28789)"/>
<path style="fill-rule:nonzero;fill:rgb(0%,0%,0%);fill-opacity:1;stroke-width:0.3985;stroke-linecap:butt;stroke-linejoin:miter;stroke:rgb(0%,0%,0%);stroke-opacity:1;stroke-miterlimit:10;" d="M 228.26825 85.041796 C 228.26825 85.866015 227.600281 86.533984 226.776062 86.533984 C 225.947937 86.533984 225.279969 85.866015 225.279969 85.041796 C 225.279969 84.213671 225.947937 83.545703 226.776062 83.545703 C 227.600281 83.545703 228.26825 84.213671 228.26825 85.041796 Z M 228.26825 85.041796 " transform="matrix(1,0,0,-1,11.763,130.28789)"/>
<path style="fill-rule:nonzero;fill:rgb(0%,0%,0%);fill-opacity:1;stroke-width:0.3985;stroke-linecap:butt;stroke-linejoin:miter;stroke:rgb(0%,0%,0%);stroke-opacity:1;stroke-miterlimit:10;" d="M 242.444031 85.041796 C 242.444031 85.866015 241.772156 86.533984 240.947937 86.533984 C 240.123719 86.533984 239.451844 85.866015 239.451844 85.041796 C 239.451844 84.213671 240.123719 83.545703 240.947937 83.545703 C 241.772156 83.545703 242.444031 84.213671 242.444031 85.041796 Z M 242.444031 85.041796 " transform="matrix(1,0,0,-1,11.763,130.28789)"/>
<path style="fill:none;stroke-width:0.79701;stroke-linecap:butt;stroke-linejoin:miter;stroke:rgb(0%,0%,0%);stroke-opacity:1;stroke-miterlimit:10;" d="M 212.600281 85.041796 L 240.947937 85.041796 " transform="matrix(1,0,0,-1,11.763,130.28789)"/>
<path style="fill:none;stroke-width:0.79701;stroke-linecap:butt;stroke-linejoin:miter;stroke:rgb(0%,0%,0%);stroke-opacity:1;stroke-miterlimit:10;" d="M 212.600281 -0.0011725 L 212.600281 99.213671 " transform="matrix(1,0,0,-1,11.763,130.28789)"/>
<path style="fill:none;stroke-width:0.79701;stroke-linecap:butt;stroke-linejoin:miter;stroke:rgb(0%,0%,0%);stroke-opacity:1;stroke-dasharray:2.98883,2.98883;stroke-miterlimit:10;" d="M 201.971375 -0.0011725 L 223.229187 -0.0011725 " transform="matrix(1,0,0,-1,11.763,130.28789)"/>
<path style=" stroke:none;fill-rule:nonzero;fill:rgb(0%,0%,0%);fill-opacity:1;" d="M 268.378906 130.289062 C 268.378906 129.460938 267.710938 128.792969 266.882812 128.792969 C 266.058594 128.792969 265.390625 129.460938 265.390625 130.289062 C 265.390625 131.113281 266.058594 131.78125 266.882812 131.78125 C 267.710938 131.78125 268.378906 131.113281 268.378906 130.289062 Z M 268.378906 130.289062 "/>
<g clip-path="url(#clip7)" clip-rule="nonzero">
<path style="fill:none;stroke-width:0.3985;stroke-linecap:butt;stroke-linejoin:miter;stroke:rgb(0%,0%,0%);stroke-opacity:1;stroke-miterlimit:10;" d="M 256.615906 -0.0011725 C 256.615906 0.826953 255.947937 1.494921 255.119812 1.494921 C 254.295594 1.494921 253.627625 0.826953 253.627625 -0.0011725 C 253.627625 -0.825391 254.295594 -1.49336 255.119812 -1.49336 C 255.947937 -1.49336 256.615906 -0.825391 256.615906 -0.0011725 Z M 256.615906 -0.0011725 " transform="matrix(1,0,0,-1,11.763,130.28789)"/>
</g>
<path style="fill-rule:nonzero;fill:rgb(0%,0%,0%);fill-opacity:1;stroke-width:0.3985;stroke-linecap:butt;stroke-linejoin:miter;stroke:rgb(0%,0%,0%);stroke-opacity:1;stroke-miterlimit:10;" d="M 256.615906 14.174609 C 256.615906 14.998828 255.947937 15.666796 255.119812 15.666796 C 254.295594 15.666796 253.627625 14.998828 253.627625 14.174609 C 253.627625 13.346484 254.295594 12.678515 255.119812 12.678515 C 255.947937 12.678515 256.615906 13.346484 256.615906 14.174609 Z M 256.615906 14.174609 " transform="matrix(1,0,0,-1,11.763,130.28789)"/>
<path style="fill-rule:nonzero;fill:rgb(0%,0%,0%);fill-opacity:1;stroke-width:0.3985;stroke-linecap:butt;stroke-linejoin:miter;stroke:rgb(0%,0%,0%);stroke-opacity:1;stroke-miterlimit:10;" d="M 256.615906 28.346484 C 256.615906 29.170703 255.947937 29.842578 255.119812 29.842578 C 254.295594 29.842578 253.627625 29.170703 253.627625 28.346484 C 253.627625 27.522265 254.295594 26.854296 255.119812 26.854296 C 255.947937 26.854296 256.615906 27.522265 256.615906 28.346484 Z M 256.615906 28.346484 " transform="matrix(1,0,0,-1,11.763,130.28789)"/>
<path style="fill-rule:nonzero;fill:rgb(0%,0%,0%);fill-opacity:1;stroke-width:0.3985;stroke-linecap:butt;stroke-linejoin:miter;stroke:rgb(0%,0%,0%);stroke-opacity:1;stroke-miterlimit:10;" d="M 256.615906 42.518359 C 256.615906 43.346484 255.947937 44.014453 255.119812 44.014453 C 254.295594 44.014453 253.627625 43.346484 253.627625 42.518359 C 253.627625 41.69414 254.295594 41.026171 255.119812 41.026171 C 255.947937 41.026171 256.615906 41.69414 256.615906 42.518359 Z M 256.615906 42.518359 " transform="matrix(1,0,0,-1,11.763,130.28789)"/>
<path style="fill-rule:nonzero;fill:rgb(0%,0%,0%);fill-opacity:1;stroke-width:0.3985;stroke-linecap:butt;stroke-linejoin:miter;stroke:rgb(0%,0%,0%);stroke-opacity:1;stroke-miterlimit:10;" d="M 256.615906 56.69414 C 256.615906 57.518359 255.947937 58.186328 255.119812 58.186328 C 254.295594 58.186328 253.627625 57.518359 253.627625 56.69414 C 253.627625 55.869921 254.295594 55.198046 255.119812 55.198046 C 255.947937 55.198046 256.615906 55.869921 256.615906 56.69414 Z M 256.615906 56.69414 " transform="matrix(1,0,0,-1,11.763,130.28789)"/>
<path style="fill-rule:nonzero;fill:rgb(0%,0%,0%);fill-opacity:1;stroke-width:0.3985;stroke-linecap:butt;stroke-linejoin:miter;stroke:rgb(0%,0%,0%);stroke-opacity:1;stroke-miterlimit:10;" d="M 256.615906 70.866015 C 256.615906 71.69414 255.947937 72.362109 255.119812 72.362109 C 254.295594 72.362109 253.627625 71.69414 253.627625 70.866015 C 253.627625 70.041796 254.295594 69.373828 255.119812 69.373828 C 255.947937 69.373828 256.615906 70.041796 256.615906 70.866015 Z M 256.615906 70.866015 " transform="matrix(1,0,0,-1,11.763,130.28789)"/>
<path style="fill-rule:nonzero;fill:rgb(0%,0%,0%);fill-opacity:1;stroke-width:0.3985;stroke-linecap:butt;stroke-linejoin:miter;stroke:rgb(0%,0%,0%);stroke-opacity:1;stroke-miterlimit:10;" d="M 256.615906 85.041796 C 256.615906 85.866015 255.947937 86.533984 255.119812 86.533984 C 254.295594 86.533984 253.627625 85.866015 253.627625 85.041796 C 253.627625 84.213671 254.295594 83.545703 255.119812 83.545703 C 255.947937 83.545703 256.615906 84.213671 256.615906 85.041796 Z M 256.615906 85.041796 " transform="matrix(1,0,0,-1,11.763,130.28789)"/>
<path style="fill-rule:nonzero;fill:rgb(0%,0%,0%);fill-opacity:1;stroke-width:0.3985;stroke-linecap:butt;stroke-linejoin:miter;stroke:rgb(0%,0%,0%);stroke-opacity:1;stroke-miterlimit:10;" d="M 256.615906 99.213671 C 256.615906 100.03789 255.947937 100.709765 255.119812 100.709765 C 254.295594 100.709765 253.627625 100.03789 253.627625 99.213671 C 253.627625 98.389453 254.295594 97.717578 255.119812 97.717578 C 255.947937 97.717578 256.615906 98.389453 256.615906 99.213671 Z M 256.615906 99.213671 " transform="matrix(1,0,0,-1,11.763,130.28789)"/>
<path style="fill-rule:nonzero;fill:rgb(0%,0%,0%);fill-opacity:1;stroke-width:0.3985;stroke-linecap:butt;stroke-linejoin:miter;stroke:rgb(0%,0%,0%);stroke-opacity:1;stroke-miterlimit:10;" d="M 256.615906 113.385546 C 256.615906 114.213671 255.947937 114.88164 255.119812 114.88164 C 254.295594 114.88164 253.627625 114.213671 253.627625 113.385546 C 253.627625 112.561328 254.295594 111.893359 255.119812 111.893359 C 255.947937 111.893359 256.615906 112.561328 256.615906 113.385546 Z M 256.615906 113.385546 " transform="matrix(1,0,0,-1,11.763,130.28789)"/>
<path style="fill-rule:nonzero;fill:rgb(0%,0%,0%);fill-opacity:1;stroke-width:0.3985;stroke-linecap:butt;stroke-linejoin:miter;stroke:rgb(0%,0%,0%);stroke-opacity:1;stroke-miterlimit:10;" d="M 270.787781 14.174609 C 270.787781 14.998828 270.119813 15.666796 269.295594 15.666796 C 268.467469 15.666796 267.7995 14.998828 267.7995 14.174609 C 267.7995 13.346484 268.467469 12.678515 269.295594 12.678515 C 270.119813 12.678515 270.787781 13.346484 270.787781 14.174609 Z M 270.787781 14.174609 " transform="matrix(1,0,0,-1,11.763,130.28789)"/>
<path style="fill-rule:nonzero;fill:rgb(0%,0%,0%);fill-opacity:1;stroke-width:0.3985;stroke-linecap:butt;stroke-linejoin:miter;stroke:rgb(0%,0%,0%);stroke-opacity:1;stroke-miterlimit:10;" d="M 284.963563 14.174609 C 284.963563 14.998828 284.291688 15.666796 283.467469 15.666796 C 282.64325 15.666796 281.975281 14.998828 281.975281 14.174609 C 281.975281 13.346484 282.64325 12.678515 283.467469 12.678515 C 284.291688 12.678515 284.963563 13.346484 284.963563 14.174609 Z M 284.963563 14.174609 " transform="matrix(1,0,0,-1,11.763,130.28789)"/>
<path style="fill:none;stroke-width:0.79701;stroke-linecap:butt;stroke-linejoin:miter;stroke:rgb(0%,0%,0%);stroke-opacity:1;stroke-miterlimit:10;" d="M 255.119812 14.174609 L 283.467469 14.174609 " transform="matrix(1,0,0,-1,11.763,130.28789)"/>
<path style="fill-rule:nonzero;fill:rgb(0%,0%,0%);fill-opacity:1;stroke-width:0.3985;stroke-linecap:butt;stroke-linejoin:miter;stroke:rgb(0%,0%,0%);stroke-opacity:1;stroke-miterlimit:10;" d="M 270.787781 28.346484 C 270.787781 29.170703 270.119813 29.842578 269.295594 29.842578 C 268.467469 29.842578 267.7995 29.170703 267.7995 28.346484 C 267.7995 27.522265 268.467469 26.854296 269.295594 26.854296 C 270.119813 26.854296 270.787781 27.522265 270.787781 28.346484 Z M 270.787781 28.346484 " transform="matrix(1,0,0,-1,11.763,130.28789)"/>
<path style="fill-rule:nonzero;fill:rgb(0%,0%,0%);fill-opacity:1;stroke-width:0.3985;stroke-linecap:butt;stroke-linejoin:miter;stroke:rgb(0%,0%,0%);stroke-opacity:1;stroke-miterlimit:10;" d="M 284.963563 28.346484 C 284.963563 29.170703 284.291688 29.842578 283.467469 29.842578 C 282.64325 29.842578 281.975281 29.170703 281.975281 28.346484 C 281.975281 27.522265 282.64325 26.854296 283.467469 26.854296 C 284.291688 26.854296 284.963563 27.522265 284.963563 28.346484 Z M 284.963563 28.346484 " transform="matrix(1,0,0,-1,11.763,130.28789)"/>
<path style="fill:none;stroke-width:0.79701;stroke-linecap:butt;stroke-linejoin:miter;stroke:rgb(0%,0%,0%);stroke-opacity:1;stroke-miterlimit:10;" d="M 255.119812 28.346484 L 283.467469 28.346484 " transform="matrix(1,0,0,-1,11.763,130.28789)"/>
<path style="fill-rule:nonzero;fill:rgb(0%,0%,0%);fill-opacity:1;stroke-width:0.3985;stroke-linecap:butt;stroke-linejoin:miter;stroke:rgb(0%,0%,0%);stroke-opacity:1;stroke-miterlimit:10;" d="M 270.787781 42.518359 C 270.787781 43.346484 270.119813 44.014453 269.295594 44.014453 C 268.467469 44.014453 267.7995 43.346484 267.7995 42.518359 C 267.7995 41.69414 268.467469 41.026171 269.295594 41.026171 C 270.119813 41.026171 270.787781 41.69414 270.787781 42.518359 Z M 270.787781 42.518359 " transform="matrix(1,0,0,-1,11.763,130.28789)"/>
<path style="fill-rule:nonzero;fill:rgb(0%,0%,0%);fill-opacity:1;stroke-width:0.3985;stroke-linecap:butt;stroke-linejoin:miter;stroke:rgb(0%,0%,0%);stroke-opacity:1;stroke-miterlimit:10;" d="M 284.963563 42.518359 C 284.963563 43.346484 284.291688 44.014453 283.467469 44.014453 C 282.64325 44.014453 281.975281 43.346484 281.975281 42.518359 C 281.975281 41.69414 282.64325 41.026171 283.467469 41.026171 C 284.291688 41.026171 284.963563 41.69414 284.963563 42.518359 Z M 284.963563 42.518359 " transform="matrix(1,0,0,-1,11.763,130.28789)"/>
<path style="fill:none;stroke-width:0.79701;stroke-linecap:butt;stroke-linejoin:miter;stroke:rgb(0%,0%,0%);stroke-opacity:1;stroke-miterlimit:10;" d="M 255.119812 42.518359 L 283.467469 42.518359 " transform="matrix(1,0,0,-1,11.763,130.28789)"/>
<path style="fill-rule:nonzero;fill:rgb(0%,0%,0%);fill-opacity:1;stroke-width:0.3985;stroke-linecap:butt;stroke-linejoin:miter;stroke:rgb(0%,0%,0%);stroke-opacity:1;stroke-miterlimit:10;" d="M 270.787781 56.69414 C 270.787781 57.518359 270.119813 58.186328 269.295594 58.186328 C 268.467469 58.186328 267.7995 57.518359 267.7995 56.69414 C 267.7995 55.869921 268.467469 55.198046 269.295594 55.198046 C 270.119813 55.198046 270.787781 55.869921 270.787781 56.69414 Z M 270.787781 56.69414 " transform="matrix(1,0,0,-1,11.763,130.28789)"/>
<path style="fill-rule:nonzero;fill:rgb(0%,0%,0%);fill-opacity:1;stroke-width:0.3985;stroke-linecap:butt;stroke-linejoin:miter;stroke:rgb(0%,0%,0%);stroke-opacity:1;stroke-miterlimit:10;" d="M 284.963563 56.69414 C 284.963563 57.518359 284.291688 58.186328 283.467469 58.186328 C 282.64325 58.186328 281.975281 57.518359 281.975281 56.69414 C 281.975281 55.869921 282.64325 55.198046 283.467469 55.198046 C 284.291688 55.198046 284.963563 55.869921 284.963563 56.69414 Z M 284.963563 56.69414 " transform="matrix(1,0,0,-1,11.763,130.28789)"/>
<path style="fill:none;stroke-width:0.79701;stroke-linecap:butt;stroke-linejoin:miter;stroke:rgb(0%,0%,0%);stroke-opacity:1;stroke-miterlimit:10;" d="M 255.119812 56.69414 L 283.467469 56.69414 " transform="matrix(1,0,0,-1,11.763,130.28789)"/>
<path style="fill-rule:nonzero;fill:rgb(0%,0%,0%);fill-opacity:1;stroke-width:0.3985;stroke-linecap:butt;stroke-linejoin:miter;stroke:rgb(0%,0%,0%);stroke-opacity:1;stroke-miterlimit:10;" d="M 270.787781 70.866015 C 270.787781 71.69414 270.119813 72.362109 269.295594 72.362109 C 268.467469 72.362109 267.7995 71.69414 267.7995 70.866015 C 267.7995 70.041796 268.467469 69.373828 269.295594 69.373828 C 270.119813 69.373828 270.787781 70.041796 270.787781 70.866015 Z M 270.787781 70.866015 " transform="matrix(1,0,0,-1,11.763,130.28789)"/>
<path style="fill-rule:nonzero;fill:rgb(0%,0%,0%);fill-opacity:1;stroke-width:0.3985;stroke-linecap:butt;stroke-linejoin:miter;stroke:rgb(0%,0%,0%);stroke-opacity:1;stroke-miterlimit:10;" d="M 284.963563 70.866015 C 284.963563 71.69414 284.291688 72.362109 283.467469 72.362109 C 282.64325 72.362109 281.975281 71.69414 281.975281 70.866015 C 281.975281 70.041796 282.64325 69.373828 283.467469 69.373828 C 284.291688 69.373828 284.963563 70.041796 284.963563 70.866015 Z M 284.963563 70.866015 " transform="matrix(1,0,0,-1,11.763,130.28789)"/>
<path style="fill:none;stroke-width:0.79701;stroke-linecap:butt;stroke-linejoin:miter;stroke:rgb(0%,0%,0%);stroke-opacity:1;stroke-miterlimit:10;" d="M 255.119812 70.866015 L 283.467469 70.866015 " transform="matrix(1,0,0,-1,11.763,130.28789)"/>
<path style="fill-rule:nonzero;fill:rgb(0%,0%,0%);fill-opacity:1;stroke-width:0.3985;stroke-linecap:butt;stroke-linejoin:miter;stroke:rgb(0%,0%,0%);stroke-opacity:1;stroke-miterlimit:10;" d="M 270.787781 85.041796 C 270.787781 85.866015 270.119813 86.533984 269.295594 86.533984 C 268.467469 86.533984 267.7995 85.866015 267.7995 85.041796 C 267.7995 84.213671 268.467469 83.545703 269.295594 83.545703 C 270.119813 83.545703 270.787781 84.213671 270.787781 85.041796 Z M 270.787781 85.041796 " transform="matrix(1,0,0,-1,11.763,130.28789)"/>
<path style="fill-rule:nonzero;fill:rgb(0%,0%,0%);fill-opacity:1;stroke-width:0.3985;stroke-linecap:butt;stroke-linejoin:miter;stroke:rgb(0%,0%,0%);stroke-opacity:1;stroke-miterlimit:10;" d="M 284.963563 85.041796 C 284.963563 85.866015 284.291688 86.533984 283.467469 86.533984 C 282.64325 86.533984 281.975281 85.866015 281.975281 85.041796 C 281.975281 84.213671 282.64325 83.545703 283.467469 83.545703 C 284.291688 83.545703 284.963563 84.213671 284.963563 85.041796 Z M 284.963563 85.041796 " transform="matrix(1,0,0,-1,11.763,130.28789)"/>
<path style="fill:none;stroke-width:0.79701;stroke-linecap:butt;stroke-linejoin:miter;stroke:rgb(0%,0%,0%);stroke-opacity:1;stroke-miterlimit:10;" d="M 255.119812 85.041796 L 283.467469 85.041796 " transform="matrix(1,0,0,-1,11.763,130.28789)"/>
<path style="fill-rule:nonzero;fill:rgb(0%,0%,0%);fill-opacity:1;stroke-width:0.3985;stroke-linecap:butt;stroke-linejoin:miter;stroke:rgb(0%,0%,0%);stroke-opacity:1;stroke-miterlimit:10;" d="M 270.787781 99.213671 C 270.787781 100.03789 270.119813 100.709765 269.295594 100.709765 C 268.467469 100.709765 267.7995 100.03789 267.7995 99.213671 C 267.7995 98.389453 268.467469 97.717578 269.295594 97.717578 C 270.119813 97.717578 270.787781 98.389453 270.787781 99.213671 Z M 270.787781 99.213671 " transform="matrix(1,0,0,-1,11.763,130.28789)"/>
<path style="fill-rule:nonzero;fill:rgb(0%,0%,0%);fill-opacity:1;stroke-width:0.3985;stroke-linecap:butt;stroke-linejoin:miter;stroke:rgb(0%,0%,0%);stroke-opacity:1;stroke-miterlimit:10;" d="M 284.963563 99.213671 C 284.963563 100.03789 284.291688 100.709765 283.467469 100.709765 C 282.64325 100.709765 281.975281 100.03789 281.975281 99.213671 C 281.975281 98.389453 282.64325 97.717578 283.467469 97.717578 C 284.291688 97.717578 284.963563 98.389453 284.963563 99.213671 Z M 284.963563 99.213671 " transform="matrix(1,0,0,-1,11.763,130.28789)"/>
<path style="fill:none;stroke-width:0.79701;stroke-linecap:butt;stroke-linejoin:miter;stroke:rgb(0%,0%,0%);stroke-opacity:1;stroke-miterlimit:10;" d="M 255.119812 99.213671 L 283.467469 99.213671 " transform="matrix(1,0,0,-1,11.763,130.28789)"/>
<path style="fill:none;stroke-width:0.79701;stroke-linecap:butt;stroke-linejoin:miter;stroke:rgb(0%,0%,0%);stroke-opacity:1;stroke-miterlimit:10;" d="M 255.119812 -0.0011725 L 255.119812 113.385546 " transform="matrix(1,0,0,-1,11.763,130.28789)"/>
<path style="fill:none;stroke-width:0.79701;stroke-linecap:butt;stroke-linejoin:miter;stroke:rgb(0%,0%,0%);stroke-opacity:1;stroke-dasharray:2.98883,2.98883;stroke-miterlimit:10;" d="M 244.490906 -0.0011725 L 265.752625 -0.0011725 " transform="matrix(1,0,0,-1,11.763,130.28789)"/>
<path style=" stroke:none;fill-rule:nonzero;fill:rgb(0%,0%,0%);fill-opacity:1;" d="M 310.898438 130.289062 C 310.898438 129.460938 310.230469 128.792969 309.40625 128.792969 C 308.578125 128.792969 307.910156 129.460938 307.910156 130.289062 C 307.910156 131.113281 308.578125 131.78125 309.40625 131.78125 C 310.230469 131.78125 310.898438 131.113281 310.898438 130.289062 Z M 310.898438 130.289062 "/>
<g clip-path="url(#clip8)" clip-rule="nonzero">
<path style="fill:none;stroke-width:0.3985;stroke-linecap:butt;stroke-linejoin:miter;stroke:rgb(0%,0%,0%);stroke-opacity:1;stroke-miterlimit:10;" d="M 299.135438 -0.0011725 C 299.135438 0.826953 298.467469 1.494921 297.64325 1.494921 C 296.815125 1.494921 296.147156 0.826953 296.147156 -0.0011725 C 296.147156 -0.825391 296.815125 -1.49336 297.64325 -1.49336 C 298.467469 -1.49336 299.135438 -0.825391 299.135438 -0.0011725 Z M 299.135438 -0.0011725 " transform="matrix(1,0,0,-1,11.763,130.28789)"/>
</g>
<path style="fill-rule:nonzero;fill:rgb(0%,0%,0%);fill-opacity:1;stroke-width:0.3985;stroke-linecap:butt;stroke-linejoin:miter;stroke:rgb(0%,0%,0%);stroke-opacity:1;stroke-miterlimit:10;" d="M 299.135438 14.174609 C 299.135438 14.998828 298.467469 15.666796 297.64325 15.666796 C 296.815125 15.666796 296.147156 14.998828 296.147156 14.174609 C 296.147156 13.346484 296.815125 12.678515 297.64325 12.678515 C 298.467469 12.678515 299.135438 13.346484 299.135438 14.174609 Z M 299.135438 14.174609 " transform="matrix(1,0,0,-1,11.763,130.28789)"/>
<path style="fill-rule:nonzero;fill:rgb(0%,0%,0%);fill-opacity:1;stroke-width:0.3985;stroke-linecap:butt;stroke-linejoin:miter;stroke:rgb(0%,0%,0%);stroke-opacity:1;stroke-miterlimit:10;" d="M 299.135438 28.346484 C 299.135438 29.170703 298.467469 29.842578 297.64325 29.842578 C 296.815125 29.842578 296.147156 29.170703 296.147156 28.346484 C 296.147156 27.522265 296.815125 26.854296 297.64325 26.854296 C 298.467469 26.854296 299.135438 27.522265 299.135438 28.346484 Z M 299.135438 28.346484 " transform="matrix(1,0,0,-1,11.763,130.28789)"/>
<path style="fill-rule:nonzero;fill:rgb(0%,0%,0%);fill-opacity:1;stroke-width:0.3985;stroke-linecap:butt;stroke-linejoin:miter;stroke:rgb(0%,0%,0%);stroke-opacity:1;stroke-miterlimit:10;" d="M 299.135438 42.518359 C 299.135438 43.346484 298.467469 44.014453 297.64325 44.014453 C 296.815125 44.014453 296.147156 43.346484 296.147156 42.518359 C 296.147156 41.69414 296.815125 41.026171 297.64325 41.026171 C 298.467469 41.026171 299.135438 41.69414 299.135438 42.518359 Z M 299.135438 42.518359 " transform="matrix(1,0,0,-1,11.763,130.28789)"/>
<path style="fill-rule:nonzero;fill:rgb(0%,0%,0%);fill-opacity:1;stroke-width:0.3985;stroke-linecap:butt;stroke-linejoin:miter;stroke:rgb(0%,0%,0%);stroke-opacity:1;stroke-miterlimit:10;" d="M 299.135438 56.69414 C 299.135438 57.518359 298.467469 58.186328 297.64325 58.186328 C 296.815125 58.186328 296.147156 57.518359 296.147156 56.69414 C 296.147156 55.869921 296.815125 55.198046 297.64325 55.198046 C 298.467469 55.198046 299.135438 55.869921 299.135438 56.69414 Z M 299.135438 56.69414 " transform="matrix(1,0,0,-1,11.763,130.28789)"/>
<path style="fill-rule:nonzero;fill:rgb(0%,0%,0%);fill-opacity:1;stroke-width:0.3985;stroke-linecap:butt;stroke-linejoin:miter;stroke:rgb(0%,0%,0%);stroke-opacity:1;stroke-miterlimit:10;" d="M 299.135438 70.866015 C 299.135438 71.69414 298.467469 72.362109 297.64325 72.362109 C 296.815125 72.362109 296.147156 71.69414 296.147156 70.866015 C 296.147156 70.041796 296.815125 69.373828 297.64325 69.373828 C 298.467469 69.373828 299.135438 70.041796 299.135438 70.866015 Z M 299.135438 70.866015 " transform="matrix(1,0,0,-1,11.763,130.28789)"/>
<path style="fill-rule:nonzero;fill:rgb(0%,0%,0%);fill-opacity:1;stroke-width:0.3985;stroke-linecap:butt;stroke-linejoin:miter;stroke:rgb(0%,0%,0%);stroke-opacity:1;stroke-miterlimit:10;" d="M 299.135438 85.041796 C 299.135438 85.866015 298.467469 86.533984 297.64325 86.533984 C 296.815125 86.533984 296.147156 85.866015 296.147156 85.041796 C 296.147156 84.213671 296.815125 83.545703 297.64325 83.545703 C 298.467469 83.545703 299.135438 84.213671 299.135438 85.041796 Z M 299.135438 85.041796 " transform="matrix(1,0,0,-1,11.763,130.28789)"/>
<path style="fill-rule:nonzero;fill:rgb(0%,0%,0%);fill-opacity:1;stroke-width:0.3985;stroke-linecap:butt;stroke-linejoin:miter;stroke:rgb(0%,0%,0%);stroke-opacity:1;stroke-miterlimit:10;" d="M 299.135438 99.213671 C 299.135438 100.03789 298.467469 100.709765 297.64325 100.709765 C 296.815125 100.709765 296.147156 100.03789 296.147156 99.213671 C 296.147156 98.389453 296.815125 97.717578 297.64325 97.717578 C 298.467469 97.717578 299.135438 98.389453 299.135438 99.213671 Z M 299.135438 99.213671 " transform="matrix(1,0,0,-1,11.763,130.28789)"/>
<path style="fill-rule:nonzero;fill:rgb(0%,0%,0%);fill-opacity:1;stroke-width:0.3985;stroke-linecap:butt;stroke-linejoin:miter;stroke:rgb(0%,0%,0%);stroke-opacity:1;stroke-miterlimit:10;" d="M 299.135438 113.385546 C 299.135438 114.213671 298.467469 114.88164 297.64325 114.88164 C 296.815125 114.88164 296.147156 114.213671 296.147156 113.385546 C 296.147156 112.561328 296.815125 111.893359 297.64325 111.893359 C 298.467469 111.893359 299.135438 112.561328 299.135438 113.385546 Z M 299.135438 113.385546 " transform="matrix(1,0,0,-1,11.763,130.28789)"/>
<path style="fill-rule:nonzero;fill:rgb(0%,0%,0%);fill-opacity:1;stroke-width:0.3985;stroke-linecap:butt;stroke-linejoin:miter;stroke:rgb(0%,0%,0%);stroke-opacity:1;stroke-miterlimit:10;" d="M 299.135438 127.561328 C 299.135438 128.385546 298.467469 129.053515 297.64325 129.053515 C 296.815125 129.053515 296.147156 128.385546 296.147156 127.561328 C 296.147156 126.737109 296.815125 126.065234 297.64325 126.065234 C 298.467469 126.065234 299.135438 126.737109 299.135438 127.561328 Z M 299.135438 127.561328 " transform="matrix(1,0,0,-1,11.763,130.28789)"/>
<path style="fill-rule:nonzero;fill:rgb(0%,0%,0%);fill-opacity:1;stroke-width:0.3985;stroke-linecap:butt;stroke-linejoin:miter;stroke:rgb(0%,0%,0%);stroke-opacity:1;stroke-miterlimit:10;" d="M 313.311219 14.174609 C 313.311219 14.998828 312.639344 15.666796 311.815125 15.666796 C 310.990906 15.666796 310.319031 14.998828 310.319031 14.174609 C 310.319031 13.346484 310.990906 12.678515 311.815125 12.678515 C 312.639344 12.678515 313.311219 13.346484 313.311219 14.174609 Z M 313.311219 14.174609 " transform="matrix(1,0,0,-1,11.763,130.28789)"/>
<path style="fill-rule:nonzero;fill:rgb(0%,0%,0%);fill-opacity:1;stroke-width:0.3985;stroke-linecap:butt;stroke-linejoin:miter;stroke:rgb(0%,0%,0%);stroke-opacity:1;stroke-miterlimit:10;" d="M 327.483094 14.174609 C 327.483094 14.998828 326.815125 15.666796 325.987 15.666796 C 325.162781 15.666796 324.494813 14.998828 324.494813 14.174609 C 324.494813 13.346484 325.162781 12.678515 325.987 12.678515 C 326.815125 12.678515 327.483094 13.346484 327.483094 14.174609 Z M 327.483094 14.174609 " transform="matrix(1,0,0,-1,11.763,130.28789)"/>
<path style="fill:none;stroke-width:0.79701;stroke-linecap:butt;stroke-linejoin:miter;stroke:rgb(0%,0%,0%);stroke-opacity:1;stroke-miterlimit:10;" d="M 297.64325 14.174609 L 325.987 14.174609 " transform="matrix(1,0,0,-1,11.763,130.28789)"/>
<path style="fill-rule:nonzero;fill:rgb(0%,0%,0%);fill-opacity:1;stroke-width:0.3985;stroke-linecap:butt;stroke-linejoin:miter;stroke:rgb(0%,0%,0%);stroke-opacity:1;stroke-miterlimit:10;" d="M 313.311219 28.346484 C 313.311219 29.170703 312.639344 29.842578 311.815125 29.842578 C 310.990906 29.842578 310.319031 29.170703 310.319031 28.346484 C 310.319031 27.522265 310.990906 26.854296 311.815125 26.854296 C 312.639344 26.854296 313.311219 27.522265 313.311219 28.346484 Z M 313.311219 28.346484 " transform="matrix(1,0,0,-1,11.763,130.28789)"/>
<path style="fill-rule:nonzero;fill:rgb(0%,0%,0%);fill-opacity:1;stroke-width:0.3985;stroke-linecap:butt;stroke-linejoin:miter;stroke:rgb(0%,0%,0%);stroke-opacity:1;stroke-miterlimit:10;" d="M 327.483094 28.346484 C 327.483094 29.170703 326.815125 29.842578 325.987 29.842578 C 325.162781 29.842578 324.494813 29.170703 324.494813 28.346484 C 324.494813 27.522265 325.162781 26.854296 325.987 26.854296 C 326.815125 26.854296 327.483094 27.522265 327.483094 28.346484 Z M 327.483094 28.346484 " transform="matrix(1,0,0,-1,11.763,130.28789)"/>
<path style="fill:none;stroke-width:0.79701;stroke-linecap:butt;stroke-linejoin:miter;stroke:rgb(0%,0%,0%);stroke-opacity:1;stroke-miterlimit:10;" d="M 297.64325 28.346484 L 325.987 28.346484 " transform="matrix(1,0,0,-1,11.763,130.28789)"/>
<path style="fill-rule:nonzero;fill:rgb(0%,0%,0%);fill-opacity:1;stroke-width:0.3985;stroke-linecap:butt;stroke-linejoin:miter;stroke:rgb(0%,0%,0%);stroke-opacity:1;stroke-miterlimit:10;" d="M 313.311219 42.518359 C 313.311219 43.346484 312.639344 44.014453 311.815125 44.014453 C 310.990906 44.014453 310.319031 43.346484 310.319031 42.518359 C 310.319031 41.69414 310.990906 41.026171 311.815125 41.026171 C 312.639344 41.026171 313.311219 41.69414 313.311219 42.518359 Z M 313.311219 42.518359 " transform="matrix(1,0,0,-1,11.763,130.28789)"/>
<path style="fill-rule:nonzero;fill:rgb(0%,0%,0%);fill-opacity:1;stroke-width:0.3985;stroke-linecap:butt;stroke-linejoin:miter;stroke:rgb(0%,0%,0%);stroke-opacity:1;stroke-miterlimit:10;" d="M 327.483094 42.518359 C 327.483094 43.346484 326.815125 44.014453 325.987 44.014453 C 325.162781 44.014453 324.494813 43.346484 324.494813 42.518359 C 324.494813 41.69414 325.162781 41.026171 325.987 41.026171 C 326.815125 41.026171 327.483094 41.69414 327.483094 42.518359 Z M 327.483094 42.518359 " transform="matrix(1,0,0,-1,11.763,130.28789)"/>
<path style="fill:none;stroke-width:0.79701;stroke-linecap:butt;stroke-linejoin:miter;stroke:rgb(0%,0%,0%);stroke-opacity:1;stroke-miterlimit:10;" d="M 297.64325 42.518359 L 325.987 42.518359 " transform="matrix(1,0,0,-1,11.763,130.28789)"/>
<path style="fill-rule:nonzero;fill:rgb(0%,0%,0%);fill-opacity:1;stroke-width:0.3985;stroke-linecap:butt;stroke-linejoin:miter;stroke:rgb(0%,0%,0%);stroke-opacity:1;stroke-miterlimit:10;" d="M 313.311219 56.69414 C 313.311219 57.518359 312.639344 58.186328 311.815125 58.186328 C 310.990906 58.186328 310.319031 57.518359 310.319031 56.69414 C 310.319031 55.869921 310.990906 55.198046 311.815125 55.198046 C 312.639344 55.198046 313.311219 55.869921 313.311219 56.69414 Z M 313.311219 56.69414 " transform="matrix(1,0,0,-1,11.763,130.28789)"/>
<path style="fill-rule:nonzero;fill:rgb(0%,0%,0%);fill-opacity:1;stroke-width:0.3985;stroke-linecap:butt;stroke-linejoin:miter;stroke:rgb(0%,0%,0%);stroke-opacity:1;stroke-miterlimit:10;" d="M 327.483094 56.69414 C 327.483094 57.518359 326.815125 58.186328 325.987 58.186328 C 325.162781 58.186328 324.494813 57.518359 324.494813 56.69414 C 324.494813 55.869921 325.162781 55.198046 325.987 55.198046 C 326.815125 55.198046 327.483094 55.869921 327.483094 56.69414 Z M 327.483094 56.69414 " transform="matrix(1,0,0,-1,11.763,130.28789)"/>
<path style="fill:none;stroke-width:0.79701;stroke-linecap:butt;stroke-linejoin:miter;stroke:rgb(0%,0%,0%);stroke-opacity:1;stroke-miterlimit:10;" d="M 297.64325 56.69414 L 325.987 56.69414 " transform="matrix(1,0,0,-1,11.763,130.28789)"/>
<path style="fill-rule:nonzero;fill:rgb(0%,0%,0%);fill-opacity:1;stroke-width:0.3985;stroke-linecap:butt;stroke-linejoin:miter;stroke:rgb(0%,0%,0%);stroke-opacity:1;stroke-miterlimit:10;" d="M 313.311219 70.866015 C 313.311219 71.69414 312.639344 72.362109 311.815125 72.362109 C 310.990906 72.362109 310.319031 71.69414 310.319031 70.866015 C 310.319031 70.041796 310.990906 69.373828 311.815125 69.373828 C 312.639344 69.373828 313.311219 70.041796 313.311219 70.866015 Z M 313.311219 70.866015 " transform="matrix(1,0,0,-1,11.763,130.28789)"/>
<path style="fill-rule:nonzero;fill:rgb(0%,0%,0%);fill-opacity:1;stroke-width:0.3985;stroke-linecap:butt;stroke-linejoin:miter;stroke:rgb(0%,0%,0%);stroke-opacity:1;stroke-miterlimit:10;" d="M 327.483094 70.866015 C 327.483094 71.69414 326.815125 72.362109 325.987 72.362109 C 325.162781 72.362109 324.494813 71.69414 324.494813 70.866015 C 324.494813 70.041796 325.162781 69.373828 325.987 69.373828 C 326.815125 69.373828 327.483094 70.041796 327.483094 70.866015 Z M 327.483094 70.866015 " transform="matrix(1,0,0,-1,11.763,130.28789)"/>
<path style="fill:none;stroke-width:0.79701;stroke-linecap:butt;stroke-linejoin:miter;stroke:rgb(0%,0%,0%);stroke-opacity:1;stroke-miterlimit:10;" d="M 297.64325 70.866015 L 325.987 70.866015 " transform="matrix(1,0,0,-1,11.763,130.28789)"/>
<path style="fill-rule:nonzero;fill:rgb(0%,0%,0%);fill-opacity:1;stroke-width:0.3985;stroke-linecap:butt;stroke-linejoin:miter;stroke:rgb(0%,0%,0%);stroke-opacity:1;stroke-miterlimit:10;" d="M 313.311219 85.041796 C 313.311219 85.866015 312.639344 86.533984 311.815125 86.533984 C 310.990906 86.533984 310.319031 85.866015 310.319031 85.041796 C 310.319031 84.213671 310.990906 83.545703 311.815125 83.545703 C 312.639344 83.545703 313.311219 84.213671 313.311219 85.041796 Z M 313.311219 85.041796 " transform="matrix(1,0,0,-1,11.763,130.28789)"/>
<path style="fill-rule:nonzero;fill:rgb(0%,0%,0%);fill-opacity:1;stroke-width:0.3985;stroke-linecap:butt;stroke-linejoin:miter;stroke:rgb(0%,0%,0%);stroke-opacity:1;stroke-miterlimit:10;" d="M 327.483094 85.041796 C 327.483094 85.866015 326.815125 86.533984 325.987 86.533984 C 325.162781 86.533984 324.494813 85.866015 324.494813 85.041796 C 324.494813 84.213671 325.162781 83.545703 325.987 83.545703 C 326.815125 83.545703 327.483094 84.213671 327.483094 85.041796 Z M 327.483094 85.041796 " transform="matrix(1,0,0,-1,11.763,130.28789)"/>
<path style="fill:none;stroke-width:0.79701;stroke-linecap:butt;stroke-linejoin:miter;stroke:rgb(0%,0%,0%);stroke-opacity:1;stroke-miterlimit:10;" d="M 297.64325 85.041796 L 325.987 85.041796 " transform="matrix(1,0,0,-1,11.763,130.28789)"/>
<path style="fill-rule:nonzero;fill:rgb(0%,0%,0%);fill-opacity:1;stroke-width:0.3985;stroke-linecap:butt;stroke-linejoin:miter;stroke:rgb(0%,0%,0%);stroke-opacity:1;stroke-miterlimit:10;" d="M 313.311219 99.213671 C 313.311219 100.03789 312.639344 100.709765 311.815125 100.709765 C 310.990906 100.709765 310.319031 100.03789 310.319031 99.213671 C 310.319031 98.389453 310.990906 97.717578 311.815125 97.717578 C 312.639344 97.717578 313.311219 98.389453 313.311219 99.213671 Z M 313.311219 99.213671 " transform="matrix(1,0,0,-1,11.763,130.28789)"/>
<path style="fill-rule:nonzero;fill:rgb(0%,0%,0%);fill-opacity:1;stroke-width:0.3985;stroke-linecap:butt;stroke-linejoin:miter;stroke:rgb(0%,0%,0%);stroke-opacity:1;stroke-miterlimit:10;" d="M 327.483094 99.213671 C 327.483094 100.03789 326.815125 100.709765 325.987 100.709765 C 325.162781 100.709765 324.494813 100.03789 324.494813 99.213671 C 324.494813 98.389453 325.162781 97.717578 325.987 97.717578 C 326.815125 97.717578 327.483094 98.389453 327.483094 99.213671 Z M 327.483094 99.213671 " transform="matrix(1,0,0,-1,11.763,130.28789)"/>
<path style="fill:none;stroke-width:0.79701;stroke-linecap:butt;stroke-linejoin:miter;stroke:rgb(0%,0%,0%);stroke-opacity:1;stroke-miterlimit:10;" d="M 297.64325 99.213671 L 325.987 99.213671 " transform="matrix(1,0,0,-1,11.763,130.28789)"/>
<path style="fill-rule:nonzero;fill:rgb(0%,0%,0%);fill-opacity:1;stroke-width:0.3985;stroke-linecap:butt;stroke-linejoin:miter;stroke:rgb(0%,0%,0%);stroke-opacity:1;stroke-miterlimit:10;" d="M 313.311219 113.385546 C 313.311219 114.213671 312.639344 114.88164 311.815125 114.88164 C 310.990906 114.88164 310.319031 114.213671 310.319031 113.385546 C 310.319031 112.561328 310.990906 111.893359 311.815125 111.893359 C 312.639344 111.893359 313.311219 112.561328 313.311219 113.385546 Z M 313.311219 113.385546 " transform="matrix(1,0,0,-1,11.763,130.28789)"/>
<path style="fill-rule:nonzero;fill:rgb(0%,0%,0%);fill-opacity:1;stroke-width:0.3985;stroke-linecap:butt;stroke-linejoin:miter;stroke:rgb(0%,0%,0%);stroke-opacity:1;stroke-miterlimit:10;" d="M 327.483094 113.385546 C 327.483094 114.213671 326.815125 114.88164 325.987 114.88164 C 325.162781 114.88164 324.494813 114.213671 324.494813 113.385546 C 324.494813 112.561328 325.162781 111.893359 325.987 111.893359 C 326.815125 111.893359 327.483094 112.561328 327.483094 113.385546 Z M 327.483094 113.385546 " transform="matrix(1,0,0,-1,11.763,130.28789)"/>
<path style="fill:none;stroke-width:0.79701;stroke-linecap:butt;stroke-linejoin:miter;stroke:rgb(0%,0%,0%);stroke-opacity:1;stroke-miterlimit:10;" d="M 297.64325 113.385546 L 325.987 113.385546 " transform="matrix(1,0,0,-1,11.763,130.28789)"/>
<path style="fill:none;stroke-width:0.79701;stroke-linecap:butt;stroke-linejoin:miter;stroke:rgb(0%,0%,0%);stroke-opacity:1;stroke-miterlimit:10;" d="M 297.64325 -0.0011725 L 297.64325 127.561328 " transform="matrix(1,0,0,-1,11.763,130.28789)"/>
<path style="fill:none;stroke-width:0.79701;stroke-linecap:butt;stroke-linejoin:miter;stroke:rgb(0%,0%,0%);stroke-opacity:1;stroke-dasharray:2.98883,2.98883;stroke-miterlimit:10;" d="M 287.010438 -0.0011725 L 308.272156 -0.0011725 " transform="matrix(1,0,0,-1,11.763,130.28789)"/>
<path style="fill-rule:nonzero;fill:rgb(0%,0%,0%);fill-opacity:1;stroke-width:0.3985;stroke-linecap:butt;stroke-linejoin:miter;stroke:rgb(0%,0%,0%);stroke-opacity:1;stroke-miterlimit:10;" d="M 341.158875 35.432421 C 341.158875 35.983203 340.713563 36.428515 340.162781 36.428515 C 339.612 36.428515 339.166688 35.983203 339.166688 35.432421 C 339.166688 34.88164 339.612 34.436328 340.162781 34.436328 C 340.713563 34.436328 341.158875 34.88164 341.158875 35.432421 Z M 341.158875 35.432421 " transform="matrix(1,0,0,-1,11.763,130.28789)"/>
<path style="fill-rule:nonzero;fill:rgb(0%,0%,0%);fill-opacity:1;stroke-width:0.3985;stroke-linecap:butt;stroke-linejoin:miter;stroke:rgb(0%,0%,0%);stroke-opacity:1;stroke-miterlimit:10;" d="M 348.244813 35.432421 C 348.244813 35.983203 347.7995 36.428515 347.248719 36.428515 C 346.697938 36.428515 346.252625 35.983203 346.252625 35.432421 C 346.252625 34.88164 346.697938 34.436328 347.248719 34.436328 C 347.7995 34.436328 348.244813 34.88164 348.244813 35.432421 Z M 348.244813 35.432421 " transform="matrix(1,0,0,-1,11.763,130.28789)"/>
<path style=" stroke:none;fill-rule:nonzero;fill:rgb(0%,0%,0%);fill-opacity:1;" d="M 367.09375 94.855469 C 367.09375 94.304688 366.648438 93.859375 366.097656 93.859375 C 365.546875 93.859375 365.101562 94.304688 365.101562 94.855469 C 365.101562 95.40625 365.546875 95.851562 366.097656 95.851562 C 366.648438 95.851562 367.09375 95.40625 367.09375 94.855469 Z M 367.09375 94.855469 "/>
<g clip-path="url(#clip9)" clip-rule="nonzero">
<path style="fill:none;stroke-width:0.3985;stroke-linecap:butt;stroke-linejoin:miter;stroke:rgb(0%,0%,0%);stroke-opacity:1;stroke-miterlimit:10;" d="M 355.33075 35.432421 C 355.33075 35.983203 354.885438 36.428515 354.334656 36.428515 C 353.783875 36.428515 353.338563 35.983203 353.338563 35.432421 C 353.338563 34.88164 353.783875 34.436328 354.334656 34.436328 C 354.885438 34.436328 355.33075 34.88164 355.33075 35.432421 Z M 355.33075 35.432421 " transform="matrix(1,0,0,-1,11.763,130.28789)"/>
</g>
</g>
</svg>
