<?xml version="1.0" encoding="UTF-8"?>
<svg xmlns="http://www.w3.org/2000/svg" xmlns:xlink="http://www.w3.org/1999/xlink" width="397.04pt" height="91.22593pt" viewBox="0 0 397.04 91.22593" version="1.1">
<defs>
<clipPath id="clip1">
  <path d="M 22 80 L 38 80 L 38 91.226562 L 22 91.226562 Z M 22 80 "/>
</clipPath>
<clipPath id="clip2">
  <path d="M 108 80 L 123 80 L 123 91.226562 L 108 91.226562 Z M 108 80 "/>
</clipPath>
<clipPath id="clip3">
  <path d="M 193 80 L 208 80 L 208 91.226562 L 193 91.226562 Z M 193 80 "/>
</clipPath>
<clipPath id="clip4">
  <path d="M 278 80 L 293 80 L 293 91.226562 L 278 91.226562 Z M 278 80 "/>
</clipPath>
<clipPath id="clip5">
  <path d="M 363 80 L 379 80 L 379 91.226562 L 363 91.226562 Z M 363 80 "/>
</clipPath>
</defs>
<g id="surface1">
<path style="fill:none;stroke-width:0.3985;stroke-linecap:butt;stroke-linejoin:miter;stroke:rgb(0%,0%,0%);stroke-opacity:1;stroke-dasharray:2.98883,2.98883;stroke-miterlimit:10;" d="M -25.51375 0.00148375 L 25.513594 0.00148375 " transform="matrix(1,0,0,-1,30.42,88.06789)"/>
<path style=" stroke:none;fill-rule:nonzero;fill:rgb(0%,0%,0%);fill-opacity:1;" d="M 32.214844 88.066406 C 32.214844 87.078125 31.410156 86.273438 30.421875 86.273438 C 29.429688 86.273438 28.625 87.078125 28.625 88.066406 C 28.625 89.058594 29.429688 89.859375 30.421875 89.859375 C 31.410156 89.859375 32.214844 89.058594 32.214844 88.066406 Z M 32.214844 88.066406 "/>
<g clip-path="url(#clip1)" clip-rule="nonzero">
<path style="fill:none;stroke-width:0.3985;stroke-linecap:butt;stroke-linejoin:miter;stroke:rgb(0%,0%,0%);stroke-opacity:1;stroke-miterlimit:10;" d="M 1.794844 0.00148375 C 1.794844 0.989765 0.990156 1.794452 0.001875 1.794452 C -0.990313 1.794452 -1.795 0.989765 -1.795 0.00148375 C -1.795 -0.990704 -0.990313 -1.791485 0.001875 -1.791485 C 0.990156 -1.791485 1.794844 -0.990704 1.794844 0.00148375 Z M 1.794844 0.00148375 " transform="matrix(1,0,0,-1,30.42,88.06789)"/>
</g>
<path style="fill-rule:nonzero;fill:rgb(0%,0%,0%);fill-opacity:1;stroke-width:0.3985;stroke-linecap:butt;stroke-linejoin:miter;stroke:rgb(0%,0%,0%);stroke-opacity:1;stroke-miterlimit:10;" d="M 1.794844 17.009296 C 1.794844 17.997577 0.990156 18.802265 0.001875 18.802265 C -0.990313 18.802265 -1.795 17.997577 -1.795 17.009296 C -1.795 16.017109 -0.990313 15.216327 0.001875 15.216327 C 0.990156 15.216327 1.794844 16.017109 1.794844 17.009296 Z M 1.794844 17.009296 " transform="matrix(1,0,0,-1,30.42,88.06789)"/>
<path style="fill-rule:nonzero;fill:rgb(0%,0%,0%);fill-opacity:1;stroke-width:0.3985;stroke-linecap:butt;stroke-linejoin:miter;stroke:rgb(0%,0%,0%);stroke-opacity:1;stroke-miterlimit:10;" d="M 1.794844 34.017109 C 1.794844 35.00539 0.990156 35.810077 0.001875 35.810077 C -0.990313 35.810077 -1.795 35.00539 -1.795 34.017109 C -1.795 33.024921 -0.990313 32.22414 0.001875 32.22414 C 0.990156 32.22414 1.794844 33.024921 1.794844 34.017109 Z M 1.794844 34.017109 " transform="matrix(1,0,0,-1,30.42,88.06789)"/>
<path style="fill-rule:nonzero;fill:rgb(0%,0%,0%);fill-opacity:1;stroke-width:0.3985;stroke-linecap:butt;stroke-linejoin:miter;stroke:rgb(0%,0%,0%);stroke-opacity:1;stroke-miterlimit:10;" d="M 1.794844 51.024921 C 1.794844 52.017109 0.990156 52.81789 0.001875 52.81789 C -0.990313 52.81789 -1.795 52.017109 -1.795 51.024921 C -1.795 50.032734 -0.990313 49.231952 0.001875 49.231952 C 0.990156 49.231952 1.794844 50.032734 1.794844 51.024921 Z M 1.794844 51.024921 " transform="matrix(1,0,0,-1,30.42,88.06789)"/>
<path style="fill-rule:nonzero;fill:rgb(0%,0%,0%);fill-opacity:1;stroke-width:0.3985;stroke-linecap:butt;stroke-linejoin:miter;stroke:rgb(0%,0%,0%);stroke-opacity:1;stroke-miterlimit:10;" d="M 1.794844 68.032734 C 1.794844 69.024921 0.990156 69.825702 0.001875 69.825702 C -0.990313 69.825702 -1.795 69.024921 -1.795 68.032734 C -1.795 67.044452 -0.990313 66.239765 0.001875 66.239765 C 0.990156 66.239765 1.794844 67.044452 1.794844 68.032734 Z M 1.794844 68.032734 " transform="matrix(1,0,0,-1,30.42,88.06789)"/>
<path style="fill:none;stroke-width:0.79701;stroke-linecap:butt;stroke-linejoin:miter;stroke:rgb(0%,0%,0%);stroke-opacity:1;stroke-miterlimit:10;" d="M 0.001875 0.00148375 L 0.001875 68.032734 " transform="matrix(1,0,0,-1,30.42,88.06789)"/>
<path style="fill-rule:nonzero;fill:rgb(0%,0%,0%);fill-opacity:1;stroke-width:0.3985;stroke-linecap:butt;stroke-linejoin:miter;stroke:rgb(0%,0%,0%);stroke-opacity:1;stroke-miterlimit:10;" d="M -11.814531 27.212421 C -11.814531 28.204609 -12.615313 29.00539 -13.6075 29.00539 C -14.595781 29.00539 -15.400469 28.204609 -15.400469 27.212421 C -15.400469 26.22414 -14.595781 25.419452 -13.6075 25.419452 C -12.615313 25.419452 -11.814531 26.22414 -11.814531 27.212421 Z M -11.814531 27.212421 " transform="matrix(1,0,0,-1,30.42,88.06789)"/>
<path style="fill-rule:nonzero;fill:rgb(0%,0%,0%);fill-opacity:1;stroke-width:0.3985;stroke-linecap:butt;stroke-linejoin:miter;stroke:rgb(0%,0%,0%);stroke-opacity:1;stroke-miterlimit:10;" d="M 15.400312 44.220234 C 15.400312 45.212421 14.595625 46.013202 13.607344 46.013202 C 12.615156 46.013202 11.814375 45.212421 11.814375 44.220234 C 11.814375 43.231952 12.615156 42.427265 13.607344 42.427265 C 14.595625 42.427265 15.400312 43.231952 15.400312 44.220234 Z M 15.400312 44.220234 " transform="matrix(1,0,0,-1,30.42,88.06789)"/>
<path style="fill-rule:nonzero;fill:rgb(0%,0%,0%);fill-opacity:1;stroke-width:0.3985;stroke-linecap:butt;stroke-linejoin:miter;stroke:rgb(0%,0%,0%);stroke-opacity:1;stroke-miterlimit:10;" d="M 29.005781 54.427265 C 29.005781 55.415546 28.205 56.220234 27.212812 56.220234 C 26.224531 56.220234 25.419844 55.415546 25.419844 54.427265 C 25.419844 53.435077 26.224531 52.634296 27.212812 52.634296 C 28.205 52.634296 29.005781 53.435077 29.005781 54.427265 Z M 29.005781 54.427265 " transform="matrix(1,0,0,-1,30.42,88.06789)"/>
<path style="fill:none;stroke-width:0.79701;stroke-linecap:butt;stroke-linejoin:miter;stroke:rgb(0%,0%,0%);stroke-opacity:1;stroke-miterlimit:10;" d="M 0.001875 17.009296 L -13.6075 27.212421 " transform="matrix(1,0,0,-1,30.42,88.06789)"/>
<path style="fill:none;stroke-width:0.79701;stroke-linecap:butt;stroke-linejoin:miter;stroke:rgb(0%,0%,0%);stroke-opacity:1;stroke-miterlimit:10;" d="M 0.001875 34.017109 L 27.212812 54.427265 " transform="matrix(1,0,0,-1,30.42,88.06789)"/>
<path style="fill-rule:nonzero;fill:rgb(0%,0%,0%);fill-opacity:1;stroke-width:0.3985;stroke-linecap:butt;stroke-linejoin:miter;stroke:rgb(0%,0%,0%);stroke-opacity:1;stroke-miterlimit:10;" d="M -11.814531 27.212421 C -11.814531 28.204609 -12.615313 29.00539 -13.6075 29.00539 C -14.595781 29.00539 -15.400469 28.204609 -15.400469 27.212421 C -15.400469 26.22414 -14.595781 25.419452 -13.6075 25.419452 C -12.615313 25.419452 -11.814531 26.22414 -11.814531 27.212421 Z M -11.814531 27.212421 " transform="matrix(1,0,0,-1,30.42,88.06789)"/>
<path style="fill-rule:nonzero;fill:rgb(0%,0%,0%);fill-opacity:1;stroke-width:0.3985;stroke-linecap:butt;stroke-linejoin:miter;stroke:rgb(0%,0%,0%);stroke-opacity:1;stroke-miterlimit:10;" d="M 15.400312 44.220234 C 15.400312 45.212421 14.595625 46.013202 13.607344 46.013202 C 12.615156 46.013202 11.814375 45.212421 11.814375 44.220234 C 11.814375 43.231952 12.615156 42.427265 13.607344 42.427265 C 14.595625 42.427265 15.400312 43.231952 15.400312 44.220234 Z M 15.400312 44.220234 " transform="matrix(1,0,0,-1,30.42,88.06789)"/>
<path style="fill-rule:nonzero;fill:rgb(0%,0%,0%);fill-opacity:1;stroke-width:0.3985;stroke-linecap:butt;stroke-linejoin:miter;stroke:rgb(0%,0%,0%);stroke-opacity:1;stroke-miterlimit:10;" d="M 29.005781 54.427265 C 29.005781 55.415546 28.205 56.220234 27.212812 56.220234 C 26.224531 56.220234 25.419844 55.415546 25.419844 54.427265 C 25.419844 53.435077 26.224531 52.634296 27.212812 52.634296 C 28.205 52.634296 29.005781 53.435077 29.005781 54.427265 Z M 29.005781 54.427265 " transform="matrix(1,0,0,-1,30.42,88.06789)"/>
<path style="fill-rule:nonzero;fill:rgb(0%,0%,0%);fill-opacity:1;stroke-width:0.3985;stroke-linecap:butt;stroke-linejoin:miter;stroke:rgb(0%,0%,0%);stroke-opacity:1;stroke-miterlimit:10;" d="M 15.400312 61.228046 C 15.400312 62.220234 14.595625 63.024921 13.607344 63.024921 C 12.615156 63.024921 11.814375 62.220234 11.814375 61.228046 C 11.814375 60.239765 12.615156 59.435077 13.607344 59.435077 C 14.595625 59.435077 15.400312 60.239765 15.400312 61.228046 Z M 15.400312 61.228046 " transform="matrix(1,0,0,-1,30.42,88.06789)"/>
<path style="fill-rule:nonzero;fill:rgb(0%,0%,0%);fill-opacity:1;stroke-width:0.3985;stroke-linecap:butt;stroke-linejoin:miter;stroke:rgb(0%,0%,0%);stroke-opacity:1;stroke-miterlimit:10;" d="M 29.005781 71.435077 C 29.005781 72.423359 28.205 73.228046 27.212812 73.228046 C 26.224531 73.228046 25.419844 72.423359 25.419844 71.435077 C 25.419844 70.44289 26.224531 69.642109 27.212812 69.642109 C 28.205 69.642109 29.005781 70.44289 29.005781 71.435077 Z M 29.005781 71.435077 " transform="matrix(1,0,0,-1,30.42,88.06789)"/>
<path style="fill:none;stroke-width:0.79701;stroke-linecap:butt;stroke-linejoin:miter;stroke:rgb(0%,0%,0%);stroke-opacity:1;stroke-miterlimit:10;" d="M -27.212969 71.435077 L 0.001875 51.024921 L 27.212812 71.435077 " transform="matrix(1,0,0,-1,30.42,88.06789)"/>
<path style="fill-rule:nonzero;fill:rgb(0%,0%,0%);fill-opacity:1;stroke-width:0.3985;stroke-linecap:butt;stroke-linejoin:miter;stroke:rgb(0%,0%,0%);stroke-opacity:1;stroke-miterlimit:10;" d="M -11.814531 61.228046 C -11.814531 62.220234 -12.615313 63.024921 -13.6075 63.024921 C -14.595781 63.024921 -15.400469 62.220234 -15.400469 61.228046 C -15.400469 60.239765 -14.595781 59.435077 -13.6075 59.435077 C -12.615313 59.435077 -11.814531 60.239765 -11.814531 61.228046 Z M -11.814531 61.228046 " transform="matrix(1,0,0,-1,30.42,88.06789)"/>
<path style="fill-rule:nonzero;fill:rgb(0%,0%,0%);fill-opacity:1;stroke-width:0.3985;stroke-linecap:butt;stroke-linejoin:miter;stroke:rgb(0%,0%,0%);stroke-opacity:1;stroke-miterlimit:10;" d="M -25.42 71.435077 C -25.42 72.423359 -26.224688 73.228046 -27.212969 73.228046 C -28.205156 73.228046 -29.005938 72.423359 -29.005938 71.435077 C -29.005938 70.44289 -28.205156 69.642109 -27.212969 69.642109 C -26.224688 69.642109 -25.42 70.44289 -25.42 71.435077 Z M -25.42 71.435077 " transform="matrix(1,0,0,-1,30.42,88.06789)"/>
<path style="fill-rule:nonzero;fill:rgb(0%,0%,0%);fill-opacity:1;stroke-width:0.3985;stroke-linecap:butt;stroke-linejoin:miter;stroke:rgb(0%,0%,0%);stroke-opacity:1;stroke-miterlimit:10;" d="M -15.212969 76.53664 C -15.212969 77.528827 -16.017656 78.329609 -17.009844 78.329609 C -17.998125 78.329609 -18.802813 77.528827 -18.802813 76.53664 C -18.802813 75.548359 -17.998125 74.743671 -17.009844 74.743671 C -16.017656 74.743671 -15.212969 75.548359 -15.212969 76.53664 Z M -15.212969 76.53664 " transform="matrix(1,0,0,-1,30.42,88.06789)"/>
<path style="fill:none;stroke-width:0.79701;stroke-linecap:butt;stroke-linejoin:miter;stroke:rgb(0%,0%,0%);stroke-opacity:1;stroke-miterlimit:10;" d="M -13.6075 61.228046 L -17.009844 76.53664 " transform="matrix(1,0,0,-1,30.42,88.06789)"/>
<path style="fill:none;stroke-width:0.3985;stroke-linecap:butt;stroke-linejoin:miter;stroke:rgb(0%,0%,0%);stroke-opacity:1;stroke-dasharray:2.98883,2.98883;stroke-miterlimit:10;" d="M 59.529219 0.00148375 L 110.552656 0.00148375 " transform="matrix(1,0,0,-1,30.42,88.06789)"/>
<path style=" stroke:none;fill-rule:nonzero;fill:rgb(0%,0%,0%);fill-opacity:1;" d="M 117.253906 88.066406 C 117.253906 87.078125 116.453125 86.273438 115.460938 86.273438 C 114.472656 86.273438 113.667969 87.078125 113.667969 88.066406 C 113.667969 89.058594 114.472656 89.859375 115.460938 89.859375 C 116.453125 89.859375 117.253906 89.058594 117.253906 88.066406 Z M 117.253906 88.066406 "/>
<g clip-path="url(#clip2)" clip-rule="nonzero">
<path style="fill:none;stroke-width:0.3985;stroke-linecap:butt;stroke-linejoin:miter;stroke:rgb(0%,0%,0%);stroke-opacity:1;stroke-miterlimit:10;" d="M 86.833906 0.00148375 C 86.833906 0.989765 86.033125 1.794452 85.040937 1.794452 C 84.052656 1.794452 83.247969 0.989765 83.247969 0.00148375 C 83.247969 -0.990704 84.052656 -1.791485 85.040937 -1.791485 C 86.033125 -1.791485 86.833906 -0.990704 86.833906 0.00148375 Z M 86.833906 0.00148375 " transform="matrix(1,0,0,-1,30.42,88.06789)"/>
</g>
<path style="fill-rule:nonzero;fill:rgb(0%,0%,0%);fill-opacity:1;stroke-width:0.3985;stroke-linecap:butt;stroke-linejoin:miter;stroke:rgb(0%,0%,0%);stroke-opacity:1;stroke-miterlimit:10;" d="M 86.833906 17.009296 C 86.833906 17.997577 86.033125 18.802265 85.040937 18.802265 C 84.052656 18.802265 83.247969 17.997577 83.247969 17.009296 C 83.247969 16.017109 84.052656 15.216327 85.040937 15.216327 C 86.033125 15.216327 86.833906 16.017109 86.833906 17.009296 Z M 86.833906 17.009296 " transform="matrix(1,0,0,-1,30.42,88.06789)"/>
<path style="fill-rule:nonzero;fill:rgb(0%,0%,0%);fill-opacity:1;stroke-width:0.3985;stroke-linecap:butt;stroke-linejoin:miter;stroke:rgb(0%,0%,0%);stroke-opacity:1;stroke-miterlimit:10;" d="M 86.833906 34.017109 C 86.833906 35.00539 86.033125 35.810077 85.040937 35.810077 C 84.052656 35.810077 83.247969 35.00539 83.247969 34.017109 C 83.247969 33.024921 84.052656 32.22414 85.040937 32.22414 C 86.033125 32.22414 86.833906 33.024921 86.833906 34.017109 Z M 86.833906 34.017109 " transform="matrix(1,0,0,-1,30.42,88.06789)"/>
<path style="fill-rule:nonzero;fill:rgb(0%,0%,0%);fill-opacity:1;stroke-width:0.3985;stroke-linecap:butt;stroke-linejoin:miter;stroke:rgb(0%,0%,0%);stroke-opacity:1;stroke-miterlimit:10;" d="M 86.833906 51.024921 C 86.833906 52.017109 86.033125 52.81789 85.040937 52.81789 C 84.052656 52.81789 83.247969 52.017109 83.247969 51.024921 C 83.247969 50.032734 84.052656 49.231952 85.040937 49.231952 C 86.033125 49.231952 86.833906 50.032734 86.833906 51.024921 Z M 86.833906 51.024921 " transform="matrix(1,0,0,-1,30.42,88.06789)"/>
<path style="fill-rule:nonzero;fill:rgb(0%,0%,0%);fill-opacity:1;stroke-width:0.3985;stroke-linecap:butt;stroke-linejoin:miter;stroke:rgb(0%,0%,0%);stroke-opacity:1;stroke-miterlimit:10;" d="M 86.833906 68.032734 C 86.833906 69.024921 86.033125 69.825702 85.040937 69.825702 C 84.052656 69.825702 83.247969 69.024921 83.247969 68.032734 C 83.247969 67.044452 84.052656 66.239765 85.040937 66.239765 C 86.033125 66.239765 86.833906 67.044452 86.833906 68.032734 Z M 86.833906 68.032734 " transform="matrix(1,0,0,-1,30.42,88.06789)"/>
<path style="fill:none;stroke-width:0.79701;stroke-linecap:butt;stroke-linejoin:miter;stroke:rgb(0%,0%,0%);stroke-opacity:1;stroke-miterlimit:10;" d="M 85.040937 0.00148375 L 85.040937 68.032734 " transform="matrix(1,0,0,-1,30.42,88.06789)"/>
<path style="fill-rule:nonzero;fill:rgb(0%,0%,0%);fill-opacity:1;stroke-width:0.3985;stroke-linecap:butt;stroke-linejoin:miter;stroke:rgb(0%,0%,0%);stroke-opacity:1;stroke-miterlimit:10;" d="M 73.228437 27.212421 C 73.228437 28.204609 72.42375 29.00539 71.435469 29.00539 C 70.443281 29.00539 69.6425 28.204609 69.6425 27.212421 C 69.6425 26.22414 70.443281 25.419452 71.435469 25.419452 C 72.42375 25.419452 73.228437 26.22414 73.228437 27.212421 Z M 73.228437 27.212421 " transform="matrix(1,0,0,-1,30.42,88.06789)"/>
<path style="fill-rule:nonzero;fill:rgb(0%,0%,0%);fill-opacity:1;stroke-width:0.3985;stroke-linecap:butt;stroke-linejoin:miter;stroke:rgb(0%,0%,0%);stroke-opacity:1;stroke-miterlimit:10;" d="M 100.439375 44.220234 C 100.439375 45.212421 99.638594 46.013202 98.646406 46.013202 C 97.658125 46.013202 96.853437 45.212421 96.853437 44.220234 C 96.853437 43.231952 97.658125 42.427265 98.646406 42.427265 C 99.638594 42.427265 100.439375 43.231952 100.439375 44.220234 Z M 100.439375 44.220234 " transform="matrix(1,0,0,-1,30.42,88.06789)"/>
<path style="fill-rule:nonzero;fill:rgb(0%,0%,0%);fill-opacity:1;stroke-width:0.3985;stroke-linecap:butt;stroke-linejoin:miter;stroke:rgb(0%,0%,0%);stroke-opacity:1;stroke-miterlimit:10;" d="M 114.04875 54.427265 C 114.04875 55.415546 113.244062 56.220234 112.255781 56.220234 C 111.263594 56.220234 110.462812 55.415546 110.462812 54.427265 C 110.462812 53.435077 111.263594 52.634296 112.255781 52.634296 C 113.244062 52.634296 114.04875 53.435077 114.04875 54.427265 Z M 114.04875 54.427265 " transform="matrix(1,0,0,-1,30.42,88.06789)"/>
<path style="fill:none;stroke-width:0.79701;stroke-linecap:butt;stroke-linejoin:miter;stroke:rgb(0%,0%,0%);stroke-opacity:1;stroke-miterlimit:10;" d="M 85.040937 17.009296 L 71.435469 27.212421 " transform="matrix(1,0,0,-1,30.42,88.06789)"/>
<path style="fill:none;stroke-width:0.79701;stroke-linecap:butt;stroke-linejoin:miter;stroke:rgb(0%,0%,0%);stroke-opacity:1;stroke-miterlimit:10;" d="M 85.040937 34.017109 L 112.255781 54.427265 " transform="matrix(1,0,0,-1,30.42,88.06789)"/>
<path style="fill-rule:nonzero;fill:rgb(0%,0%,0%);fill-opacity:1;stroke-width:0.3985;stroke-linecap:butt;stroke-linejoin:miter;stroke:rgb(0%,0%,0%);stroke-opacity:1;stroke-miterlimit:10;" d="M 73.228437 27.212421 C 73.228437 28.204609 72.42375 29.00539 71.435469 29.00539 C 70.443281 29.00539 69.6425 28.204609 69.6425 27.212421 C 69.6425 26.22414 70.443281 25.419452 71.435469 25.419452 C 72.42375 25.419452 73.228437 26.22414 73.228437 27.212421 Z M 73.228437 27.212421 " transform="matrix(1,0,0,-1,30.42,88.06789)"/>
<path style="fill-rule:nonzero;fill:rgb(0%,0%,0%);fill-opacity:1;stroke-width:0.3985;stroke-linecap:butt;stroke-linejoin:miter;stroke:rgb(0%,0%,0%);stroke-opacity:1;stroke-miterlimit:10;" d="M 100.439375 44.220234 C 100.439375 45.212421 99.638594 46.013202 98.646406 46.013202 C 97.658125 46.013202 96.853437 45.212421 96.853437 44.220234 C 96.853437 43.231952 97.658125 42.427265 98.646406 42.427265 C 99.638594 42.427265 100.439375 43.231952 100.439375 44.220234 Z M 100.439375 44.220234 " transform="matrix(1,0,0,-1,30.42,88.06789)"/>
<path style="fill-rule:nonzero;fill:rgb(0%,0%,0%);fill-opacity:1;stroke-width:0.3985;stroke-linecap:butt;stroke-linejoin:miter;stroke:rgb(0%,0%,0%);stroke-opacity:1;stroke-miterlimit:10;" d="M 114.04875 54.427265 C 114.04875 55.415546 113.244062 56.220234 112.255781 56.220234 C 111.263594 56.220234 110.462812 55.415546 110.462812 54.427265 C 110.462812 53.435077 111.263594 52.634296 112.255781 52.634296 C 113.244062 52.634296 114.04875 53.435077 114.04875 54.427265 Z M 114.04875 54.427265 " transform="matrix(1,0,0,-1,30.42,88.06789)"/>
<path style="fill-rule:nonzero;fill:rgb(0%,0%,0%);fill-opacity:1;stroke-width:0.3985;stroke-linecap:butt;stroke-linejoin:miter;stroke:rgb(0%,0%,0%);stroke-opacity:1;stroke-miterlimit:10;" d="M 100.439375 61.228046 C 100.439375 62.220234 99.638594 63.024921 98.646406 63.024921 C 97.658125 63.024921 96.853437 62.220234 96.853437 61.228046 C 96.853437 60.239765 97.658125 59.435077 98.646406 59.435077 C 99.638594 59.435077 100.439375 60.239765 100.439375 61.228046 Z M 100.439375 61.228046 " transform="matrix(1,0,0,-1,30.42,88.06789)"/>
<path style="fill-rule:nonzero;fill:rgb(0%,0%,0%);fill-opacity:1;stroke-width:0.3985;stroke-linecap:butt;stroke-linejoin:miter;stroke:rgb(0%,0%,0%);stroke-opacity:1;stroke-miterlimit:10;" d="M 114.04875 71.435077 C 114.04875 72.423359 113.244062 73.228046 112.255781 73.228046 C 111.263594 73.228046 110.462812 72.423359 110.462812 71.435077 C 110.462812 70.44289 111.263594 69.642109 112.255781 69.642109 C 113.244062 69.642109 114.04875 70.44289 114.04875 71.435077 Z M 114.04875 71.435077 " transform="matrix(1,0,0,-1,30.42,88.06789)"/>
<path style="fill:none;stroke-width:0.79701;stroke-linecap:butt;stroke-linejoin:miter;stroke:rgb(0%,0%,0%);stroke-opacity:1;stroke-miterlimit:10;" d="M 71.435469 61.228046 L 85.040937 51.024921 L 112.255781 71.435077 " transform="matrix(1,0,0,-1,30.42,88.06789)"/>
<path style="fill-rule:nonzero;fill:rgb(0%,0%,0%);fill-opacity:1;stroke-width:0.3985;stroke-linecap:butt;stroke-linejoin:miter;stroke:rgb(0%,0%,0%);stroke-opacity:1;stroke-miterlimit:10;" d="M 73.228437 61.228046 C 73.228437 62.220234 72.42375 63.024921 71.435469 63.024921 C 70.443281 63.024921 69.6425 62.220234 69.6425 61.228046 C 69.6425 60.239765 70.443281 59.435077 71.435469 59.435077 C 72.42375 59.435077 73.228437 60.239765 73.228437 61.228046 Z M 73.228437 61.228046 " transform="matrix(1,0,0,-1,30.42,88.06789)"/>
<path style="fill:none;stroke-width:0.3985;stroke-linecap:butt;stroke-linejoin:miter;stroke:rgb(0%,0%,0%);stroke-opacity:1;stroke-dasharray:2.98883,2.98883;stroke-miterlimit:10;" d="M 144.568281 0.00148375 L 195.595625 0.00148375 " transform="matrix(1,0,0,-1,30.42,88.06789)"/>
<path style=" stroke:none;fill-rule:nonzero;fill:rgb(0%,0%,0%);fill-opacity:1;" d="M 202.296875 88.066406 C 202.296875 87.078125 201.492188 86.273438 200.503906 86.273438 C 199.511719 86.273438 198.710938 87.078125 198.710938 88.066406 C 198.710938 89.058594 199.511719 89.859375 200.503906 89.859375 C 201.492188 89.859375 202.296875 89.058594 202.296875 88.066406 Z M 202.296875 88.066406 "/>
<g clip-path="url(#clip3)" clip-rule="nonzero">
<path style="fill:none;stroke-width:0.3985;stroke-linecap:butt;stroke-linejoin:miter;stroke:rgb(0%,0%,0%);stroke-opacity:1;stroke-miterlimit:10;" d="M 171.876875 0.00148375 C 171.876875 0.989765 171.072187 1.794452 170.083906 1.794452 C 169.091719 1.794452 168.290937 0.989765 168.290937 0.00148375 C 168.290937 -0.990704 169.091719 -1.791485 170.083906 -1.791485 C 171.072187 -1.791485 171.876875 -0.990704 171.876875 0.00148375 Z M 171.876875 0.00148375 " transform="matrix(1,0,0,-1,30.42,88.06789)"/>
</g>
<path style="fill-rule:nonzero;fill:rgb(0%,0%,0%);fill-opacity:1;stroke-width:0.3985;stroke-linecap:butt;stroke-linejoin:miter;stroke:rgb(0%,0%,0%);stroke-opacity:1;stroke-miterlimit:10;" d="M 171.876875 17.009296 C 171.876875 17.997577 171.072187 18.802265 170.083906 18.802265 C 169.091719 18.802265 168.290937 17.997577 168.290937 17.009296 C 168.290937 16.017109 169.091719 15.216327 170.083906 15.216327 C 171.072187 15.216327 171.876875 16.017109 171.876875 17.009296 Z M 171.876875 17.009296 " transform="matrix(1,0,0,-1,30.42,88.06789)"/>
<path style="fill-rule:nonzero;fill:rgb(0%,0%,0%);fill-opacity:1;stroke-width:0.3985;stroke-linecap:butt;stroke-linejoin:miter;stroke:rgb(0%,0%,0%);stroke-opacity:1;stroke-miterlimit:10;" d="M 171.876875 34.017109 C 171.876875 35.00539 171.072187 35.810077 170.083906 35.810077 C 169.091719 35.810077 168.290937 35.00539 168.290937 34.017109 C 168.290937 33.024921 169.091719 32.22414 170.083906 32.22414 C 171.072187 32.22414 171.876875 33.024921 171.876875 34.017109 Z M 171.876875 34.017109 " transform="matrix(1,0,0,-1,30.42,88.06789)"/>
<path style="fill-rule:nonzero;fill:rgb(0%,0%,0%);fill-opacity:1;stroke-width:0.3985;stroke-linecap:butt;stroke-linejoin:miter;stroke:rgb(0%,0%,0%);stroke-opacity:1;stroke-miterlimit:10;" d="M 171.876875 51.024921 C 171.876875 52.017109 171.072187 52.81789 170.083906 52.81789 C 169.091719 52.81789 168.290937 52.017109 168.290937 51.024921 C 168.290937 50.032734 169.091719 49.231952 170.083906 49.231952 C 171.072187 49.231952 171.876875 50.032734 171.876875 51.024921 Z M 171.876875 51.024921 " transform="matrix(1,0,0,-1,30.42,88.06789)"/>
<path style="fill-rule:nonzero;fill:rgb(0%,0%,0%);fill-opacity:1;stroke-width:0.3985;stroke-linecap:butt;stroke-linejoin:miter;stroke:rgb(0%,0%,0%);stroke-opacity:1;stroke-miterlimit:10;" d="M 171.876875 68.032734 C 171.876875 69.024921 171.072187 69.825702 170.083906 69.825702 C 169.091719 69.825702 168.290937 69.024921 168.290937 68.032734 C 168.290937 67.044452 169.091719 66.239765 170.083906 66.239765 C 171.072187 66.239765 171.876875 67.044452 171.876875 68.032734 Z M 171.876875 68.032734 " transform="matrix(1,0,0,-1,30.42,88.06789)"/>
<path style="fill-rule:nonzero;fill:rgb(0%,0%,0%);fill-opacity:1;stroke-width:0.3985;stroke-linecap:butt;stroke-linejoin:miter;stroke:rgb(0%,0%,0%);stroke-opacity:1;stroke-miterlimit:10;" d="M 171.876875 85.040546 C 171.876875 86.032734 171.072187 86.833515 170.083906 86.833515 C 169.091719 86.833515 168.290937 86.032734 168.290937 85.040546 C 168.290937 84.052265 169.091719 83.247577 170.083906 83.247577 C 171.072187 83.247577 171.876875 84.052265 171.876875 85.040546 Z M 171.876875 85.040546 " transform="matrix(1,0,0,-1,30.42,88.06789)"/>
<path style="fill:none;stroke-width:0.79701;stroke-linecap:butt;stroke-linejoin:miter;stroke:rgb(0%,0%,0%);stroke-opacity:1;stroke-miterlimit:10;" d="M 170.083906 0.00148375 L 170.083906 85.040546 " transform="matrix(1,0,0,-1,30.42,88.06789)"/>
<path style="fill-rule:nonzero;fill:rgb(0%,0%,0%);fill-opacity:1;stroke-width:0.3985;stroke-linecap:butt;stroke-linejoin:miter;stroke:rgb(0%,0%,0%);stroke-opacity:1;stroke-miterlimit:10;" d="M 158.2675 27.212421 C 158.2675 28.204609 157.466719 29.00539 156.474531 29.00539 C 155.48625 29.00539 154.681562 28.204609 154.681562 27.212421 C 154.681562 26.22414 155.48625 25.419452 156.474531 25.419452 C 157.466719 25.419452 158.2675 26.22414 158.2675 27.212421 Z M 158.2675 27.212421 " transform="matrix(1,0,0,-1,30.42,88.06789)"/>
<path style="fill-rule:nonzero;fill:rgb(0%,0%,0%);fill-opacity:1;stroke-width:0.3985;stroke-linecap:butt;stroke-linejoin:miter;stroke:rgb(0%,0%,0%);stroke-opacity:1;stroke-miterlimit:10;" d="M 185.482344 44.220234 C 185.482344 45.212421 184.681562 46.013202 183.689375 46.013202 C 182.697187 46.013202 181.896406 45.212421 181.896406 44.220234 C 181.896406 43.231952 182.697187 42.427265 183.689375 42.427265 C 184.681562 42.427265 185.482344 43.231952 185.482344 44.220234 Z M 185.482344 44.220234 " transform="matrix(1,0,0,-1,30.42,88.06789)"/>
<path style="fill-rule:nonzero;fill:rgb(0%,0%,0%);fill-opacity:1;stroke-width:0.3985;stroke-linecap:butt;stroke-linejoin:miter;stroke:rgb(0%,0%,0%);stroke-opacity:1;stroke-miterlimit:10;" d="M 199.087812 54.427265 C 199.087812 55.415546 198.287031 56.220234 197.294844 56.220234 C 196.306562 56.220234 195.501875 55.415546 195.501875 54.427265 C 195.501875 53.435077 196.306562 52.634296 197.294844 52.634296 C 198.287031 52.634296 199.087812 53.435077 199.087812 54.427265 Z M 199.087812 54.427265 " transform="matrix(1,0,0,-1,30.42,88.06789)"/>
<path style="fill:none;stroke-width:0.79701;stroke-linecap:butt;stroke-linejoin:miter;stroke:rgb(0%,0%,0%);stroke-opacity:1;stroke-miterlimit:10;" d="M 170.083906 17.009296 L 156.474531 27.212421 " transform="matrix(1,0,0,-1,30.42,88.06789)"/>
<path style="fill:none;stroke-width:0.79701;stroke-linecap:butt;stroke-linejoin:miter;stroke:rgb(0%,0%,0%);stroke-opacity:1;stroke-miterlimit:10;" d="M 170.083906 34.017109 L 197.294844 54.427265 " transform="matrix(1,0,0,-1,30.42,88.06789)"/>
<path style="fill-rule:nonzero;fill:rgb(0%,0%,0%);fill-opacity:1;stroke-width:0.3985;stroke-linecap:butt;stroke-linejoin:miter;stroke:rgb(0%,0%,0%);stroke-opacity:1;stroke-miterlimit:10;" d="M 158.2675 27.212421 C 158.2675 28.204609 157.466719 29.00539 156.474531 29.00539 C 155.48625 29.00539 154.681562 28.204609 154.681562 27.212421 C 154.681562 26.22414 155.48625 25.419452 156.474531 25.419452 C 157.466719 25.419452 158.2675 26.22414 158.2675 27.212421 Z M 158.2675 27.212421 " transform="matrix(1,0,0,-1,30.42,88.06789)"/>
<path style="fill-rule:nonzero;fill:rgb(0%,0%,0%);fill-opacity:1;stroke-width:0.3985;stroke-linecap:butt;stroke-linejoin:miter;stroke:rgb(0%,0%,0%);stroke-opacity:1;stroke-miterlimit:10;" d="M 185.482344 44.220234 C 185.482344 45.212421 184.681562 46.013202 183.689375 46.013202 C 182.697187 46.013202 181.896406 45.212421 181.896406 44.220234 C 181.896406 43.231952 182.697187 42.427265 183.689375 42.427265 C 184.681562 42.427265 185.482344 43.231952 185.482344 44.220234 Z M 185.482344 44.220234 " transform="matrix(1,0,0,-1,30.42,88.06789)"/>
<path style="fill-rule:nonzero;fill:rgb(0%,0%,0%);fill-opacity:1;stroke-width:0.3985;stroke-linecap:butt;stroke-linejoin:miter;stroke:rgb(0%,0%,0%);stroke-opacity:1;stroke-miterlimit:10;" d="M 199.087812 54.427265 C 199.087812 55.415546 198.287031 56.220234 197.294844 56.220234 C 196.306562 56.220234 195.501875 55.415546 195.501875 54.427265 C 195.501875 53.435077 196.306562 52.634296 197.294844 52.634296 C 198.287031 52.634296 199.087812 53.435077 199.087812 54.427265 Z M 199.087812 54.427265 " transform="matrix(1,0,0,-1,30.42,88.06789)"/>
<path style="fill:none;stroke-width:0.3985;stroke-linecap:butt;stroke-linejoin:miter;stroke:rgb(0%,0%,0%);stroke-opacity:1;stroke-dasharray:2.98883,2.98883;stroke-miterlimit:10;" d="M 229.61125 0.00148375 L 280.634687 0.00148375 " transform="matrix(1,0,0,-1,30.42,88.06789)"/>
<path style=" stroke:none;fill-rule:nonzero;fill:rgb(0%,0%,0%);fill-opacity:1;" d="M 287.335938 88.066406 C 287.335938 87.078125 286.535156 86.273438 285.542969 86.273438 C 284.554688 86.273438 283.75 87.078125 283.75 88.066406 C 283.75 89.058594 284.554688 89.859375 285.542969 89.859375 C 286.535156 89.859375 287.335938 89.058594 287.335938 88.066406 Z M 287.335938 88.066406 "/>
<g clip-path="url(#clip4)" clip-rule="nonzero">
<path style="fill:none;stroke-width:0.3985;stroke-linecap:butt;stroke-linejoin:miter;stroke:rgb(0%,0%,0%);stroke-opacity:1;stroke-miterlimit:10;" d="M 256.915937 0.00148375 C 256.915937 0.989765 256.115156 1.794452 255.122969 1.794452 C 254.134687 1.794452 253.33 0.989765 253.33 0.00148375 C 253.33 -0.990704 254.134687 -1.791485 255.122969 -1.791485 C 256.115156 -1.791485 256.915937 -0.990704 256.915937 0.00148375 Z M 256.915937 0.00148375 " transform="matrix(1,0,0,-1,30.42,88.06789)"/>
</g>
<path style="fill-rule:nonzero;fill:rgb(0%,0%,0%);fill-opacity:1;stroke-width:0.3985;stroke-linecap:butt;stroke-linejoin:miter;stroke:rgb(0%,0%,0%);stroke-opacity:1;stroke-miterlimit:10;" d="M 256.915937 17.009296 C 256.915937 17.997577 256.115156 18.802265 255.122969 18.802265 C 254.134687 18.802265 253.33 17.997577 253.33 17.009296 C 253.33 16.017109 254.134687 15.216327 255.122969 15.216327 C 256.115156 15.216327 256.915937 16.017109 256.915937 17.009296 Z M 256.915937 17.009296 " transform="matrix(1,0,0,-1,30.42,88.06789)"/>
<path style="fill-rule:nonzero;fill:rgb(0%,0%,0%);fill-opacity:1;stroke-width:0.3985;stroke-linecap:butt;stroke-linejoin:miter;stroke:rgb(0%,0%,0%);stroke-opacity:1;stroke-miterlimit:10;" d="M 256.915937 34.017109 C 256.915937 35.00539 256.115156 35.810077 255.122969 35.810077 C 254.134687 35.810077 253.33 35.00539 253.33 34.017109 C 253.33 33.024921 254.134687 32.22414 255.122969 32.22414 C 256.115156 32.22414 256.915937 33.024921 256.915937 34.017109 Z M 256.915937 34.017109 " transform="matrix(1,0,0,-1,30.42,88.06789)"/>
<path style="fill-rule:nonzero;fill:rgb(0%,0%,0%);fill-opacity:1;stroke-width:0.3985;stroke-linecap:butt;stroke-linejoin:miter;stroke:rgb(0%,0%,0%);stroke-opacity:1;stroke-miterlimit:10;" d="M 256.915937 51.024921 C 256.915937 52.017109 256.115156 52.81789 255.122969 52.81789 C 254.134687 52.81789 253.33 52.017109 253.33 51.024921 C 253.33 50.032734 254.134687 49.231952 255.122969 49.231952 C 256.115156 49.231952 256.915937 50.032734 256.915937 51.024921 Z M 256.915937 51.024921 " transform="matrix(1,0,0,-1,30.42,88.06789)"/>
<path style="fill:none;stroke-width:0.79701;stroke-linecap:butt;stroke-linejoin:miter;stroke:rgb(0%,0%,0%);stroke-opacity:1;stroke-miterlimit:10;" d="M 255.122969 0.00148375 L 255.122969 51.024921 " transform="matrix(1,0,0,-1,30.42,88.06789)"/>
<path style="fill-rule:nonzero;fill:rgb(0%,0%,0%);fill-opacity:1;stroke-width:0.3985;stroke-linecap:butt;stroke-linejoin:miter;stroke:rgb(0%,0%,0%);stroke-opacity:1;stroke-miterlimit:10;" d="M 243.310469 27.212421 C 243.310469 28.204609 242.505781 29.00539 241.5175 29.00539 C 240.525312 29.00539 239.724531 28.204609 239.724531 27.212421 C 239.724531 26.22414 240.525312 25.419452 241.5175 25.419452 C 242.505781 25.419452 243.310469 26.22414 243.310469 27.212421 Z M 243.310469 27.212421 " transform="matrix(1,0,0,-1,30.42,88.06789)"/>
<path style="fill:none;stroke-width:0.79701;stroke-linecap:butt;stroke-linejoin:miter;stroke:rgb(0%,0%,0%);stroke-opacity:1;stroke-miterlimit:10;" d="M 255.122969 17.009296 L 241.5175 27.212421 " transform="matrix(1,0,0,-1,30.42,88.06789)"/>
<path style="fill-rule:nonzero;fill:rgb(0%,0%,0%);fill-opacity:1;stroke-width:0.3985;stroke-linecap:butt;stroke-linejoin:miter;stroke:rgb(0%,0%,0%);stroke-opacity:1;stroke-miterlimit:10;" d="M 243.310469 27.212421 C 243.310469 28.204609 242.505781 29.00539 241.5175 29.00539 C 240.525312 29.00539 239.724531 28.204609 239.724531 27.212421 C 239.724531 26.22414 240.525312 25.419452 241.5175 25.419452 C 242.505781 25.419452 243.310469 26.22414 243.310469 27.212421 Z M 243.310469 27.212421 " transform="matrix(1,0,0,-1,30.42,88.06789)"/>
<path style="fill:none;stroke-width:0.3985;stroke-linecap:butt;stroke-linejoin:miter;stroke:rgb(0%,0%,0%);stroke-opacity:1;stroke-dasharray:2.98883,2.98883;stroke-miterlimit:10;" d="M 314.654219 0.00148375 L 365.677656 0.00148375 " transform="matrix(1,0,0,-1,30.42,88.06789)"/>
<path style=" stroke:none;fill-rule:nonzero;fill:rgb(0%,0%,0%);fill-opacity:1;" d="M 372.378906 88.066406 C 372.378906 87.078125 371.574219 86.273438 370.585938 86.273438 C 369.59375 86.273438 368.792969 87.078125 368.792969 88.066406 C 368.792969 89.058594 369.59375 89.859375 370.585938 89.859375 C 371.574219 89.859375 372.378906 89.058594 372.378906 88.066406 Z M 372.378906 88.066406 "/>
<g clip-path="url(#clip5)" clip-rule="nonzero">
<path style="fill:none;stroke-width:0.3985;stroke-linecap:butt;stroke-linejoin:miter;stroke:rgb(0%,0%,0%);stroke-opacity:1;stroke-miterlimit:10;" d="M 341.958906 0.00148375 C 341.958906 0.989765 341.154219 1.794452 340.165937 1.794452 C 339.17375 1.794452 338.372969 0.989765 338.372969 0.00148375 C 338.372969 -0.990704 339.17375 -1.791485 340.165937 -1.791485 C 341.154219 -1.791485 341.958906 -0.990704 341.958906 0.00148375 Z M 341.958906 0.00148375 " transform="matrix(1,0,0,-1,30.42,88.06789)"/>
</g>
<path style="fill-rule:nonzero;fill:rgb(0%,0%,0%);fill-opacity:1;stroke-width:0.3985;stroke-linecap:butt;stroke-linejoin:miter;stroke:rgb(0%,0%,0%);stroke-opacity:1;stroke-miterlimit:10;" d="M 341.958906 17.009296 C 341.958906 17.997577 341.154219 18.802265 340.165937 18.802265 C 339.17375 18.802265 338.372969 17.997577 338.372969 17.009296 C 338.372969 16.017109 339.17375 15.216327 340.165937 15.216327 C 341.154219 15.216327 341.958906 16.017109 341.958906 17.009296 Z M 341.958906 17.009296 " transform="matrix(1,0,0,-1,30.42,88.06789)"/>
<path style="fill-rule:nonzero;fill:rgb(0%,0%,0%);fill-opacity:1;stroke-width:0.3985;stroke-linecap:butt;stroke-linejoin:miter;stroke:rgb(0%,0%,0%);stroke-opacity:1;stroke-miterlimit:10;" d="M 341.958906 34.017109 C 341.958906 35.00539 341.154219 35.810077 340.165937 35.810077 C 339.17375 35.810077 338.372969 35.00539 338.372969 34.017109 C 338.372969 33.024921 339.17375 32.22414 340.165937 32.22414 C 341.154219 32.22414 341.958906 33.024921 341.958906 34.017109 Z M 341.958906 34.017109 " transform="matrix(1,0,0,-1,30.42,88.06789)"/>
<path style="fill-rule:nonzero;fill:rgb(0%,0%,0%);fill-opacity:1;stroke-width:0.3985;stroke-linecap:butt;stroke-linejoin:miter;stroke:rgb(0%,0%,0%);stroke-opacity:1;stroke-miterlimit:10;" d="M 341.958906 51.024921 C 341.958906 52.017109 341.154219 52.81789 340.165937 52.81789 C 339.17375 52.81789 338.372969 52.017109 338.372969 51.024921 C 338.372969 50.032734 339.17375 49.231952 340.165937 49.231952 C 341.154219 49.231952 341.958906 50.032734 341.958906 51.024921 Z M 341.958906 51.024921 " transform="matrix(1,0,0,-1,30.42,88.06789)"/>
<path style="fill-rule:nonzero;fill:rgb(0%,0%,0%);fill-opacity:1;stroke-width:0.3985;stroke-linecap:butt;stroke-linejoin:miter;stroke:rgb(0%,0%,0%);stroke-opacity:1;stroke-miterlimit:10;" d="M 341.958906 68.032734 C 341.958906 69.024921 341.154219 69.825702 340.165937 69.825702 C 339.17375 69.825702 338.372969 69.024921 338.372969 68.032734 C 338.372969 67.044452 339.17375 66.239765 340.165937 66.239765 C 341.154219 66.239765 341.958906 67.044452 341.958906 68.032734 Z M 341.958906 68.032734 " transform="matrix(1,0,0,-1,30.42,88.06789)"/>
<path style="fill:none;stroke-width:0.79701;stroke-linecap:butt;stroke-linejoin:miter;stroke:rgb(0%,0%,0%);stroke-opacity:1;stroke-miterlimit:10;" d="M 340.165937 0.00148375 L 340.165937 68.032734 " transform="matrix(1,0,0,-1,30.42,88.06789)"/>
</g>
</svg>
