<?xml version="1.0" encoding="UTF-8"?>
<svg xmlns="http://www.w3.org/2000/svg" xmlns:xlink="http://www.w3.org/1999/xlink" width="380.72pt" height="392.00364pt" viewBox="0 0 380.72 392.00364" version="1.1">
<defs>
<clipPath id="clip1">
  <path d="M 365 81 L 380.71875 81 L 380.71875 128 L 365 128 Z M 365 81 "/>
</clipPath>
<clipPath id="clip2">
  <path d="M 365 308 L 380.71875 308 L 380.71875 355 L 365 355 Z M 365 308 "/>
</clipPath>
</defs>
<g id="surface1">
<path style="fill:none;stroke-width:0.3985;stroke-linecap:butt;stroke-linejoin:miter;stroke:rgb(0%,0%,0%);stroke-opacity:1;stroke-miterlimit:10;" d="M -4.183031 -3.137446 L -52.511156 -39.38354 " transform="matrix(1,0,0,-1,72.226,-1.69604)"/>
<path style="fill:none;stroke-width:0.3985;stroke-linecap:butt;stroke-linejoin:miter;stroke:rgb(0%,0%,0%);stroke-opacity:1;stroke-miterlimit:10;" d="M -58.089281 -46.703852 L -69.472094 -80.856196 " transform="matrix(1,0,0,-1,72.226,-1.69604)"/>
<path style="fill:none;stroke-width:0.3985;stroke-linecap:butt;stroke-linejoin:miter;stroke:rgb(0%,0%,0%);stroke-opacity:1;stroke-miterlimit:10;" d="M -70.866625 -89.223384 L -70.866625 -123.375727 " transform="matrix(1,0,0,-1,72.226,-1.69604)"/>
<path style="fill:none;stroke-width:0.3985;stroke-linecap:butt;stroke-linejoin:miter;stroke:rgb(0%,0%,0%);stroke-opacity:1;stroke-miterlimit:10;" d="M -70.866625 -131.742915 L -70.866625 -165.895259 " transform="matrix(1,0,0,-1,72.226,-1.69604)"/>
<path style="fill:none;stroke-width:0.3985;stroke-linecap:butt;stroke-linejoin:miter;stroke:rgb(0%,0%,0%);stroke-opacity:1;stroke-miterlimit:10;" d="M -55.300219 -46.703852 L -43.9135 -80.856196 " transform="matrix(1,0,0,-1,72.226,-1.69604)"/>
<path style="fill:none;stroke-width:0.3985;stroke-linecap:butt;stroke-linejoin:miter;stroke:rgb(0%,0%,0%);stroke-opacity:1;stroke-miterlimit:10;" d="M -42.518969 -89.223384 L -42.518969 -123.375727 " transform="matrix(1,0,0,-1,72.226,-1.69604)"/>
<path style="fill:none;stroke-width:0.3985;stroke-linecap:butt;stroke-linejoin:miter;stroke:rgb(0%,0%,0%);stroke-opacity:1;stroke-miterlimit:10;" d="M 0.0005625 -4.184321 L 0.0005625 -38.336665 " transform="matrix(1,0,0,-1,72.226,-1.69604)"/>
<path style="fill:none;stroke-width:0.3985;stroke-linecap:butt;stroke-linejoin:miter;stroke:rgb(0%,0%,0%);stroke-opacity:1;stroke-miterlimit:10;" d="M 0.0005625 -46.703852 L 0.0005625 -80.856196 " transform="matrix(1,0,0,-1,72.226,-1.69604)"/>
<path style="fill:none;stroke-width:0.3985;stroke-linecap:butt;stroke-linejoin:miter;stroke:rgb(0%,0%,0%);stroke-opacity:1;stroke-miterlimit:10;" d="M 0.0005625 -89.223384 L 0.0005625 -123.375727 " transform="matrix(1,0,0,-1,72.226,-1.69604)"/>
<path style="fill:none;stroke-width:0.3985;stroke-linecap:butt;stroke-linejoin:miter;stroke:rgb(0%,0%,0%);stroke-opacity:1;stroke-miterlimit:10;" d="M 0.0005625 -131.742915 L 0.0005625 -165.895259 " transform="matrix(1,0,0,-1,72.226,-1.69604)"/>
<path style="fill:none;stroke-width:0.3985;stroke-linecap:butt;stroke-linejoin:miter;stroke:rgb(0%,0%,0%);stroke-opacity:1;stroke-miterlimit:10;" d="M 4.184156 -3.137446 L 52.508375 -39.38354 " transform="matrix(1,0,0,-1,72.226,-1.69604)"/>
<path style="fill:none;stroke-width:0.3985;stroke-linecap:butt;stroke-linejoin:miter;stroke:rgb(0%,0%,0%);stroke-opacity:1;stroke-miterlimit:10;" d="M 55.297437 -46.703852 L 43.914625 -80.856196 " transform="matrix(1,0,0,-1,72.226,-1.69604)"/>
<path style="fill:none;stroke-width:0.3985;stroke-linecap:butt;stroke-linejoin:miter;stroke:rgb(0%,0%,0%);stroke-opacity:1;stroke-miterlimit:10;" d="M 42.520094 -89.223384 L 42.520094 -123.375727 " transform="matrix(1,0,0,-1,72.226,-1.69604)"/>
<path style="fill:none;stroke-width:0.3985;stroke-linecap:butt;stroke-linejoin:miter;stroke:rgb(0%,0%,0%);stroke-opacity:1;stroke-miterlimit:10;" d="M 42.520094 -131.742915 L 42.520094 -165.895259 " transform="matrix(1,0,0,-1,72.226,-1.69604)"/>
<path style="fill:none;stroke-width:0.3985;stroke-linecap:butt;stroke-linejoin:miter;stroke:rgb(0%,0%,0%);stroke-opacity:1;stroke-miterlimit:10;" d="M 58.0865 -46.703852 L 69.473219 -80.856196 " transform="matrix(1,0,0,-1,72.226,-1.69604)"/>
<path style="fill:none;stroke-width:0.3985;stroke-linecap:butt;stroke-linejoin:miter;stroke:rgb(0%,0%,0%);stroke-opacity:1;stroke-miterlimit:10;" d="M 69.938062 -89.223384 L 62.348219 -123.375727 " transform="matrix(1,0,0,-1,72.226,-1.69604)"/>
<path style="fill:none;stroke-width:0.3985;stroke-linecap:butt;stroke-linejoin:miter;stroke:rgb(0%,0%,0%);stroke-opacity:1;stroke-miterlimit:10;" d="M 71.797437 -89.223384 L 79.387281 -123.375727 " transform="matrix(1,0,0,-1,72.226,-1.69604)"/>
<path style="fill:none;stroke-width:0.3985;stroke-linecap:butt;stroke-linejoin:miter;stroke:rgb(0%,0%,0%);stroke-opacity:1;stroke-miterlimit:10;" d="M 80.316969 -131.742915 L 80.316969 -165.895259 " transform="matrix(1,0,0,-1,72.226,-1.69604)"/>
<path style="fill:none;stroke-width:0.79701;stroke-linecap:butt;stroke-linejoin:miter;stroke:rgb(0%,0%,0%);stroke-opacity:1;stroke-miterlimit:10;" d="M 92.125562 -99.215571 L 129.984938 -99.215571 " transform="matrix(1,0,0,-1,72.226,-1.69604)"/>
<path style=" stroke:none;fill-rule:nonzero;fill:rgb(0%,0%,0%);fill-opacity:1;" d="M 206.875 97.519531 C 205.492188 97.257812 203.246094 96.480469 201.691406 95.574219 L 201.691406 99.460938 C 203.246094 98.554688 205.492188 97.777344 206.875 97.519531 "/>
<path style="fill:none;stroke-width:0.79701;stroke-linecap:butt;stroke-linejoin:miter;stroke:rgb(0%,0%,0%);stroke-opacity:1;stroke-miterlimit:10;" d="M 198.426344 -184.254634 L 61.035719 -239.211665 " transform="matrix(1,0,0,-1,72.226,-1.69604)"/>
<path style=" stroke:none;fill-rule:nonzero;fill:rgb(0%,0%,0%);fill-opacity:1;" d="M 128.917969 239.25 C 130.304688 238.976562 132.683594 238.867188 134.46875 239.132812 L 133.023438 235.511719 C 131.910156 236.933594 130.109375 238.496094 128.917969 239.25 "/>
<path style="fill:none;stroke-width:0.79701;stroke-linecap:butt;stroke-linejoin:miter;stroke:rgb(0%,0%,0%);stroke-opacity:1;stroke-miterlimit:10;" d="M 92.125562 -325.989009 L 129.984938 -325.989009 " transform="matrix(1,0,0,-1,72.226,-1.69604)"/>
<path style=" stroke:none;fill-rule:nonzero;fill:rgb(0%,0%,0%);fill-opacity:1;" d="M 206.875 324.292969 C 205.492188 324.035156 203.246094 323.257812 201.691406 322.347656 L 201.691406 326.234375 C 203.246094 325.328125 205.492188 324.550781 206.875 324.292969 "/>
<path style="fill:none;stroke-width:0.3985;stroke-linecap:butt;stroke-linejoin:miter;stroke:rgb(0%,0%,0%);stroke-opacity:1;stroke-miterlimit:10;" d="M 222.590406 -3.137446 L 174.266188 -39.38354 " transform="matrix(1,0,0,-1,72.226,-1.69604)"/>
<path style="fill:none;stroke-width:0.3985;stroke-linecap:butt;stroke-linejoin:miter;stroke:rgb(0%,0%,0%);stroke-opacity:1;stroke-miterlimit:10;" d="M 168.688063 -46.703852 L 157.301344 -80.856196 " transform="matrix(1,0,0,-1,72.226,-1.69604)"/>
<path style="fill:none;stroke-width:0.3985;stroke-linecap:butt;stroke-linejoin:miter;stroke:rgb(0%,0%,0%);stroke-opacity:1;stroke-miterlimit:10;" d="M 155.906813 -89.223384 L 155.906813 -123.375727 " transform="matrix(1,0,0,-1,72.226,-1.69604)"/>
<path style="fill:none;stroke-width:0.3985;stroke-linecap:butt;stroke-linejoin:miter;stroke:rgb(0%,0%,0%);stroke-opacity:1;stroke-miterlimit:10;" d="M 155.906813 -131.742915 L 155.906813 -165.895259 " transform="matrix(1,0,0,-1,72.226,-1.69604)"/>
<path style="fill:none;stroke-width:0.3985;stroke-linecap:butt;stroke-linejoin:miter;stroke:rgb(0%,0%,0%);stroke-opacity:1;stroke-miterlimit:10;" d="M 171.477125 -46.703852 L 182.859938 -80.856196 " transform="matrix(1,0,0,-1,72.226,-1.69604)"/>
<path style="fill:none;stroke-width:0.3985;stroke-linecap:butt;stroke-linejoin:miter;stroke:rgb(0%,0%,0%);stroke-opacity:1;stroke-miterlimit:10;" d="M 184.254469 -89.223384 L 184.254469 -123.375727 " transform="matrix(1,0,0,-1,72.226,-1.69604)"/>
<path style="fill:none;stroke-width:0.3985;stroke-linecap:butt;stroke-linejoin:miter;stroke:rgb(0%,0%,0%);stroke-opacity:1;stroke-miterlimit:10;" d="M 226.774 -4.184321 L 226.774 -38.336665 " transform="matrix(1,0,0,-1,72.226,-1.69604)"/>
<path style="fill:none;stroke-width:0.3985;stroke-linecap:butt;stroke-linejoin:miter;stroke:rgb(0%,0%,0%);stroke-opacity:1;stroke-miterlimit:10;" d="M 226.774 -46.703852 L 226.774 -80.856196 " transform="matrix(1,0,0,-1,72.226,-1.69604)"/>
<path style="fill:none;stroke-width:0.3985;stroke-linecap:butt;stroke-linejoin:miter;stroke:rgb(0%,0%,0%);stroke-opacity:1;stroke-miterlimit:10;" d="M 226.774 -89.223384 L 226.774 -123.375727 " transform="matrix(1,0,0,-1,72.226,-1.69604)"/>
<path style="fill:none;stroke-width:0.3985;stroke-linecap:butt;stroke-linejoin:miter;stroke:rgb(0%,0%,0%);stroke-opacity:1;stroke-miterlimit:10;" d="M 226.774 -131.742915 L 226.774 -165.895259 " transform="matrix(1,0,0,-1,72.226,-1.69604)"/>
<path style="fill:none;stroke-width:0.3985;stroke-linecap:butt;stroke-linejoin:miter;stroke:rgb(0%,0%,0%);stroke-opacity:1;stroke-miterlimit:10;" d="M 230.957594 -3.137446 L 279.285719 -39.38354 " transform="matrix(1,0,0,-1,72.226,-1.69604)"/>
<path style="fill:none;stroke-width:0.3985;stroke-linecap:butt;stroke-linejoin:miter;stroke:rgb(0%,0%,0%);stroke-opacity:1;stroke-miterlimit:10;" d="M 282.074781 -46.703852 L 270.688063 -80.856196 " transform="matrix(1,0,0,-1,72.226,-1.69604)"/>
<path style="fill:none;stroke-width:0.3985;stroke-linecap:butt;stroke-linejoin:miter;stroke:rgb(0%,0%,0%);stroke-opacity:1;stroke-miterlimit:10;" d="M 269.293531 -89.223384 L 269.293531 -123.375727 " transform="matrix(1,0,0,-1,72.226,-1.69604)"/>
<path style="fill:none;stroke-width:0.3985;stroke-linecap:butt;stroke-linejoin:miter;stroke:rgb(0%,0%,0%);stroke-opacity:1;stroke-miterlimit:10;" d="M 269.293531 -131.742915 L 269.293531 -165.895259 " transform="matrix(1,0,0,-1,72.226,-1.69604)"/>
<path style="fill:none;stroke-width:0.3985;stroke-linecap:butt;stroke-linejoin:miter;stroke:rgb(0%,0%,0%);stroke-opacity:1;stroke-miterlimit:10;" d="M 284.863844 -46.703852 L 296.246656 -80.856196 " transform="matrix(1,0,0,-1,72.226,-1.69604)"/>
<path style="fill:none;stroke-width:0.3985;stroke-linecap:butt;stroke-linejoin:miter;stroke:rgb(0%,0%,0%);stroke-opacity:1;stroke-miterlimit:10;" d="M 296.7115 -89.223384 L 289.121656 -123.375727 " transform="matrix(1,0,0,-1,72.226,-1.69604)"/>
<g clip-path="url(#clip1)" clip-rule="nonzero">
<path style="fill:none;stroke-width:0.3985;stroke-linecap:butt;stroke-linejoin:miter;stroke:rgb(0%,0%,0%);stroke-opacity:1;stroke-miterlimit:10;" d="M 298.570875 -89.223384 L 306.160719 -123.375727 " transform="matrix(1,0,0,-1,72.226,-1.69604)"/>
</g>
<path style="fill:none;stroke-width:0.3985;stroke-linecap:butt;stroke-linejoin:miter;stroke:rgb(0%,0%,0%);stroke-opacity:1;stroke-miterlimit:10;" d="M 307.090406 -131.742915 L 307.090406 -165.895259 " transform="matrix(1,0,0,-1,72.226,-1.69604)"/>
<path style="fill:none;stroke-width:0.3985;stroke-linecap:butt;stroke-linejoin:miter;stroke:rgb(0%,0%,0%);stroke-opacity:1;stroke-miterlimit:10;" d="M -4.183031 -229.910884 L -52.511156 -266.156977 " transform="matrix(1,0,0,-1,72.226,-1.69604)"/>
<path style="fill:none;stroke-width:0.3985;stroke-linecap:butt;stroke-linejoin:miter;stroke:rgb(0%,0%,0%);stroke-opacity:1;stroke-miterlimit:10;" d="M -58.089281 -273.47729 L -69.472094 -307.629634 " transform="matrix(1,0,0,-1,72.226,-1.69604)"/>
<path style="fill:none;stroke-width:0.3985;stroke-linecap:butt;stroke-linejoin:miter;stroke:rgb(0%,0%,0%);stroke-opacity:1;stroke-miterlimit:10;" d="M -70.866625 -316.000727 L -70.866625 -350.153071 " transform="matrix(1,0,0,-1,72.226,-1.69604)"/>
<path style="fill:none;stroke-width:0.3985;stroke-linecap:butt;stroke-linejoin:miter;stroke:rgb(0%,0%,0%);stroke-opacity:1;stroke-miterlimit:10;" d="M -70.866625 -358.520259 L -70.866625 -392.672602 " transform="matrix(1,0,0,-1,72.226,-1.69604)"/>
<path style="fill:none;stroke-width:0.3985;stroke-linecap:butt;stroke-linejoin:miter;stroke:rgb(0%,0%,0%);stroke-opacity:1;stroke-miterlimit:10;" d="M -55.300219 -273.47729 L -43.9135 -307.629634 " transform="matrix(1,0,0,-1,72.226,-1.69604)"/>
<path style="fill:none;stroke-width:0.3985;stroke-linecap:butt;stroke-linejoin:miter;stroke:rgb(0%,0%,0%);stroke-opacity:1;stroke-miterlimit:10;" d="M -42.518969 -316.000727 L -42.518969 -350.153071 " transform="matrix(1,0,0,-1,72.226,-1.69604)"/>
<path style="fill:none;stroke-width:0.3985;stroke-linecap:butt;stroke-linejoin:miter;stroke:rgb(0%,0%,0%);stroke-opacity:1;stroke-miterlimit:10;" d="M 0.0005625 -230.957759 L 0.0005625 -265.110102 " transform="matrix(1,0,0,-1,72.226,-1.69604)"/>
<path style="fill:none;stroke-width:0.3985;stroke-linecap:butt;stroke-linejoin:miter;stroke:rgb(0%,0%,0%);stroke-opacity:1;stroke-miterlimit:10;" d="M 0.0005625 -273.47729 L 0.0005625 -307.629634 " transform="matrix(1,0,0,-1,72.226,-1.69604)"/>
<path style="fill:none;stroke-width:0.3985;stroke-linecap:butt;stroke-linejoin:miter;stroke:rgb(0%,0%,0%);stroke-opacity:1;stroke-miterlimit:10;" d="M 0.0005625 -316.000727 L 0.0005625 -350.153071 " transform="matrix(1,0,0,-1,72.226,-1.69604)"/>
<path style="fill:none;stroke-width:0.3985;stroke-linecap:butt;stroke-linejoin:miter;stroke:rgb(0%,0%,0%);stroke-opacity:1;stroke-miterlimit:10;" d="M 0.0005625 -358.520259 L 0.0005625 -392.672602 " transform="matrix(1,0,0,-1,72.226,-1.69604)"/>
<path style="fill:none;stroke-width:0.3985;stroke-linecap:butt;stroke-linejoin:miter;stroke:rgb(0%,0%,0%);stroke-opacity:1;stroke-miterlimit:10;" d="M 4.184156 -229.910884 L 52.508375 -266.156977 " transform="matrix(1,0,0,-1,72.226,-1.69604)"/>
<path style="fill:none;stroke-width:0.3985;stroke-linecap:butt;stroke-linejoin:miter;stroke:rgb(0%,0%,0%);stroke-opacity:1;stroke-miterlimit:10;" d="M 55.297437 -273.47729 L 43.914625 -307.629634 " transform="matrix(1,0,0,-1,72.226,-1.69604)"/>
<path style="fill:none;stroke-width:0.3985;stroke-linecap:butt;stroke-linejoin:miter;stroke:rgb(0%,0%,0%);stroke-opacity:1;stroke-miterlimit:10;" d="M 42.520094 -316.000727 L 42.520094 -350.153071 " transform="matrix(1,0,0,-1,72.226,-1.69604)"/>
<path style="fill:none;stroke-width:0.3985;stroke-linecap:butt;stroke-linejoin:miter;stroke:rgb(0%,0%,0%);stroke-opacity:1;stroke-miterlimit:10;" d="M 42.520094 -358.520259 L 42.520094 -392.672602 " transform="matrix(1,0,0,-1,72.226,-1.69604)"/>
<path style="fill:none;stroke-width:0.3985;stroke-linecap:butt;stroke-linejoin:miter;stroke:rgb(0%,0%,0%);stroke-opacity:1;stroke-miterlimit:10;" d="M 58.0865 -273.47729 L 69.473219 -307.629634 " transform="matrix(1,0,0,-1,72.226,-1.69604)"/>
<path style="fill:none;stroke-width:0.3985;stroke-linecap:butt;stroke-linejoin:miter;stroke:rgb(0%,0%,0%);stroke-opacity:1;stroke-miterlimit:10;" d="M 69.938062 -316.000727 L 62.348219 -350.153071 " transform="matrix(1,0,0,-1,72.226,-1.69604)"/>
<path style="fill:none;stroke-width:0.3985;stroke-linecap:butt;stroke-linejoin:miter;stroke:rgb(0%,0%,0%);stroke-opacity:1;stroke-miterlimit:10;" d="M 71.797437 -316.000727 L 79.387281 -350.153071 " transform="matrix(1,0,0,-1,72.226,-1.69604)"/>
<path style="fill:none;stroke-width:0.3985;stroke-linecap:butt;stroke-linejoin:miter;stroke:rgb(0%,0%,0%);stroke-opacity:1;stroke-miterlimit:10;" d="M 80.316969 -358.520259 L 80.316969 -392.672602 " transform="matrix(1,0,0,-1,72.226,-1.69604)"/>
<path style="fill:none;stroke-width:0.3985;stroke-linecap:butt;stroke-linejoin:miter;stroke:rgb(0%,0%,0%);stroke-opacity:1;stroke-miterlimit:10;" d="M 222.590406 -229.910884 L 174.266188 -266.156977 " transform="matrix(1,0,0,-1,72.226,-1.69604)"/>
<path style="fill:none;stroke-width:0.3985;stroke-linecap:butt;stroke-linejoin:miter;stroke:rgb(0%,0%,0%);stroke-opacity:1;stroke-miterlimit:10;" d="M 168.688063 -273.47729 L 157.301344 -307.629634 " transform="matrix(1,0,0,-1,72.226,-1.69604)"/>
<path style="fill:none;stroke-width:0.3985;stroke-linecap:butt;stroke-linejoin:miter;stroke:rgb(0%,0%,0%);stroke-opacity:1;stroke-miterlimit:10;" d="M 155.906813 -316.000727 L 155.906813 -350.153071 " transform="matrix(1,0,0,-1,72.226,-1.69604)"/>
<path style="fill:none;stroke-width:0.3985;stroke-linecap:butt;stroke-linejoin:miter;stroke:rgb(0%,0%,0%);stroke-opacity:1;stroke-miterlimit:10;" d="M 155.906813 -358.520259 L 155.906813 -392.672602 " transform="matrix(1,0,0,-1,72.226,-1.69604)"/>
<path style="fill:none;stroke-width:0.3985;stroke-linecap:butt;stroke-linejoin:miter;stroke:rgb(0%,0%,0%);stroke-opacity:1;stroke-miterlimit:10;" d="M 171.477125 -273.47729 L 182.859938 -307.629634 " transform="matrix(1,0,0,-1,72.226,-1.69604)"/>
<path style="fill:none;stroke-width:0.3985;stroke-linecap:butt;stroke-linejoin:miter;stroke:rgb(0%,0%,0%);stroke-opacity:1;stroke-miterlimit:10;" d="M 184.254469 -316.000727 L 184.254469 -350.153071 " transform="matrix(1,0,0,-1,72.226,-1.69604)"/>
<path style="fill:none;stroke-width:0.3985;stroke-linecap:butt;stroke-linejoin:miter;stroke:rgb(0%,0%,0%);stroke-opacity:1;stroke-miterlimit:10;" d="M 226.774 -230.957759 L 226.774 -265.110102 " transform="matrix(1,0,0,-1,72.226,-1.69604)"/>
<path style="fill:none;stroke-width:0.3985;stroke-linecap:butt;stroke-linejoin:miter;stroke:rgb(0%,0%,0%);stroke-opacity:1;stroke-miterlimit:10;" d="M 226.774 -273.47729 L 226.774 -307.629634 " transform="matrix(1,0,0,-1,72.226,-1.69604)"/>
<path style="fill:none;stroke-width:0.3985;stroke-linecap:butt;stroke-linejoin:miter;stroke:rgb(0%,0%,0%);stroke-opacity:1;stroke-miterlimit:10;" d="M 226.774 -316.000727 L 226.774 -350.153071 " transform="matrix(1,0,0,-1,72.226,-1.69604)"/>
<path style="fill:none;stroke-width:0.3985;stroke-linecap:butt;stroke-linejoin:miter;stroke:rgb(0%,0%,0%);stroke-opacity:1;stroke-miterlimit:10;" d="M 226.774 -358.520259 L 226.774 -392.672602 " transform="matrix(1,0,0,-1,72.226,-1.69604)"/>
<path style="fill:none;stroke-width:0.3985;stroke-linecap:butt;stroke-linejoin:miter;stroke:rgb(0%,0%,0%);stroke-opacity:1;stroke-miterlimit:10;" d="M 230.957594 -229.910884 L 279.285719 -266.156977 " transform="matrix(1,0,0,-1,72.226,-1.69604)"/>
<path style="fill:none;stroke-width:0.3985;stroke-linecap:butt;stroke-linejoin:miter;stroke:rgb(0%,0%,0%);stroke-opacity:1;stroke-miterlimit:10;" d="M 282.074781 -273.47729 L 270.688063 -307.629634 " transform="matrix(1,0,0,-1,72.226,-1.69604)"/>
<path style="fill:none;stroke-width:0.3985;stroke-linecap:butt;stroke-linejoin:miter;stroke:rgb(0%,0%,0%);stroke-opacity:1;stroke-miterlimit:10;" d="M 269.293531 -316.000727 L 269.293531 -350.153071 " transform="matrix(1,0,0,-1,72.226,-1.69604)"/>
<path style="fill:none;stroke-width:0.3985;stroke-linecap:butt;stroke-linejoin:miter;stroke:rgb(0%,0%,0%);stroke-opacity:1;stroke-miterlimit:10;" d="M 269.293531 -358.520259 L 269.293531 -392.672602 " transform="matrix(1,0,0,-1,72.226,-1.69604)"/>
<path style="fill:none;stroke-width:0.3985;stroke-linecap:butt;stroke-linejoin:miter;stroke:rgb(0%,0%,0%);stroke-opacity:1;stroke-miterlimit:10;" d="M 284.863844 -273.47729 L 296.246656 -307.629634 " transform="matrix(1,0,0,-1,72.226,-1.69604)"/>
<path style="fill:none;stroke-width:0.3985;stroke-linecap:butt;stroke-linejoin:miter;stroke:rgb(0%,0%,0%);stroke-opacity:1;stroke-miterlimit:10;" d="M 296.7115 -316.000727 L 289.121656 -350.153071 " transform="matrix(1,0,0,-1,72.226,-1.69604)"/>
<g clip-path="url(#clip2)" clip-rule="nonzero">
<path style="fill:none;stroke-width:0.3985;stroke-linecap:butt;stroke-linejoin:miter;stroke:rgb(0%,0%,0%);stroke-opacity:1;stroke-miterlimit:10;" d="M 298.570875 -316.000727 L 306.160719 -350.153071 " transform="matrix(1,0,0,-1,72.226,-1.69604)"/>
</g>
<path style="fill:none;stroke-width:0.3985;stroke-linecap:butt;stroke-linejoin:miter;stroke:rgb(0%,0%,0%);stroke-opacity:1;stroke-miterlimit:10;" d="M 307.090406 -358.520259 L 307.090406 -392.672602 " transform="matrix(1,0,0,-1,72.226,-1.69604)"/>
</g>
</svg>
