<?xml version="1.0" encoding="UTF-8"?>
<svg xmlns="http://www.w3.org/2000/svg" xmlns:xlink="http://www.w3.org/1999/xlink" width="423.44pt" height="133.44034pt" viewBox="0 0 423.44 133.44034" version="1.1">
<defs>
<clipPath id="clip1">
  <path d="M 401 67 L 423.441406 67 L 423.441406 105 L 401 105 Z M 401 67 "/>
</clipPath>
</defs>
<g id="surface1">
<path style="fill:none;stroke-width:0.3985;stroke-linecap:butt;stroke-linejoin:miter;stroke:rgb(0%,0%,0%);stroke-opacity:1;stroke-miterlimit:10;" d="M -4.177969 -0.926974 L -148.888906 -33.08713 " transform="matrix(1,0,0,-1,201.135,0.56912)"/>
<path style="fill:none;stroke-width:0.3985;stroke-linecap:butt;stroke-linejoin:miter;stroke:rgb(0%,0%,0%);stroke-opacity:1;stroke-miterlimit:10;" d="M -157.256094 -36.801974 L -199.912344 -65.24338 " transform="matrix(1,0,0,-1,201.135,0.56912)"/>
<path style="fill:none;stroke-width:0.3985;stroke-linecap:butt;stroke-linejoin:miter;stroke:rgb(0%,0%,0%);stroke-opacity:1;stroke-miterlimit:10;" d="M -153.0725 -38.200411 L -153.0725 -63.848849 " transform="matrix(1,0,0,-1,201.135,0.56912)"/>
<path style="fill:none;stroke-width:0.3985;stroke-linecap:butt;stroke-linejoin:miter;stroke:rgb(0%,0%,0%);stroke-opacity:1;stroke-miterlimit:10;" d="M -153.0725 -72.216036 L -153.0725 -97.864474 " transform="matrix(1,0,0,-1,201.135,0.56912)"/>
<path style="fill:none;stroke-width:0.3985;stroke-linecap:butt;stroke-linejoin:miter;stroke:rgb(0%,0%,0%);stroke-opacity:1;stroke-miterlimit:10;" d="M -148.892812 -36.801974 L -106.232656 -65.24338 " transform="matrix(1,0,0,-1,201.135,0.56912)"/>
<path style="fill:none;stroke-width:0.3985;stroke-linecap:butt;stroke-linejoin:miter;stroke:rgb(0%,0%,0%);stroke-opacity:1;stroke-miterlimit:10;" d="M -104.138906 -72.216036 L -116.967031 -97.864474 " transform="matrix(1,0,0,-1,201.135,0.56912)"/>
<path style="fill:none;stroke-width:0.3985;stroke-linecap:butt;stroke-linejoin:miter;stroke:rgb(0%,0%,0%);stroke-opacity:1;stroke-miterlimit:10;" d="M -99.959219 -72.216036 L -87.131094 -97.864474 " transform="matrix(1,0,0,-1,201.135,0.56912)"/>
<path style="fill:none;stroke-width:0.3985;stroke-linecap:butt;stroke-linejoin:miter;stroke:rgb(0%,0%,0%);stroke-opacity:1;stroke-miterlimit:10;" d="M -85.04125 -106.231661 L -85.04125 -131.880099 " transform="matrix(1,0,0,-1,201.135,0.56912)"/>
<path style="fill:none;stroke-width:0.3985;stroke-linecap:butt;stroke-linejoin:miter;stroke:rgb(0%,0%,0%);stroke-opacity:1;stroke-miterlimit:10;" d="M -4.181875 -2.786349 L -46.842031 -31.227755 " transform="matrix(1,0,0,-1,201.135,0.56912)"/>
<path style="fill:none;stroke-width:0.3985;stroke-linecap:butt;stroke-linejoin:miter;stroke:rgb(0%,0%,0%);stroke-opacity:1;stroke-miterlimit:10;" d="M -51.025625 -38.200411 L -51.025625 -63.848849 " transform="matrix(1,0,0,-1,201.135,0.56912)"/>
<path style="fill:none;stroke-width:0.3985;stroke-linecap:butt;stroke-linejoin:miter;stroke:rgb(0%,0%,0%);stroke-opacity:1;stroke-miterlimit:10;" d="M 4.181406 -2.786349 L 46.841563 -31.227755 " transform="matrix(1,0,0,-1,201.135,0.56912)"/>
<path style="fill:none;stroke-width:0.3985;stroke-linecap:butt;stroke-linejoin:miter;stroke:rgb(0%,0%,0%);stroke-opacity:1;stroke-miterlimit:10;" d="M 51.025156 -38.200411 L 51.025156 -63.848849 " transform="matrix(1,0,0,-1,201.135,0.56912)"/>
<path style="fill:none;stroke-width:0.3985;stroke-linecap:butt;stroke-linejoin:miter;stroke:rgb(0%,0%,0%);stroke-opacity:1;stroke-miterlimit:10;" d="M 51.025156 -72.216036 L 51.025156 -97.864474 " transform="matrix(1,0,0,-1,201.135,0.56912)"/>
<path style="fill:none;stroke-width:0.3985;stroke-linecap:butt;stroke-linejoin:miter;stroke:rgb(0%,0%,0%);stroke-opacity:1;stroke-miterlimit:10;" d="M 4.1775 -0.926974 L 148.888438 -33.08713 " transform="matrix(1,0,0,-1,201.135,0.56912)"/>
<path style="fill:none;stroke-width:0.3985;stroke-linecap:butt;stroke-linejoin:miter;stroke:rgb(0%,0%,0%);stroke-opacity:1;stroke-miterlimit:10;" d="M 148.892344 -36.801974 L 106.232188 -65.24338 " transform="matrix(1,0,0,-1,201.135,0.56912)"/>
<path style="fill:none;stroke-width:0.3985;stroke-linecap:butt;stroke-linejoin:miter;stroke:rgb(0%,0%,0%);stroke-opacity:1;stroke-miterlimit:10;" d="M 102.048594 -72.216036 L 102.048594 -97.864474 " transform="matrix(1,0,0,-1,201.135,0.56912)"/>
<path style="fill:none;stroke-width:0.3985;stroke-linecap:butt;stroke-linejoin:miter;stroke:rgb(0%,0%,0%);stroke-opacity:1;stroke-miterlimit:10;" d="M 102.048594 -106.231661 L 102.048594 -131.880099 " transform="matrix(1,0,0,-1,201.135,0.56912)"/>
<path style="fill:none;stroke-width:0.3985;stroke-linecap:butt;stroke-linejoin:miter;stroke:rgb(0%,0%,0%);stroke-opacity:1;stroke-miterlimit:10;" d="M 153.072031 -38.200411 L 153.072031 -63.848849 " transform="matrix(1,0,0,-1,201.135,0.56912)"/>
<path style="fill:none;stroke-width:0.3985;stroke-linecap:butt;stroke-linejoin:miter;stroke:rgb(0%,0%,0%);stroke-opacity:1;stroke-miterlimit:10;" d="M 153.072031 -72.216036 L 153.072031 -97.864474 " transform="matrix(1,0,0,-1,201.135,0.56912)"/>
<path style="fill:none;stroke-width:0.3985;stroke-linecap:butt;stroke-linejoin:miter;stroke:rgb(0%,0%,0%);stroke-opacity:1;stroke-miterlimit:10;" d="M 157.255625 -36.801974 L 199.911875 -65.24338 " transform="matrix(1,0,0,-1,201.135,0.56912)"/>
<path style="fill:none;stroke-width:0.3985;stroke-linecap:butt;stroke-linejoin:miter;stroke:rgb(0%,0%,0%);stroke-opacity:1;stroke-miterlimit:10;" d="M 202.005625 -72.216036 L 189.181406 -97.864474 " transform="matrix(1,0,0,-1,201.135,0.56912)"/>
<g clip-path="url(#clip1)" clip-rule="nonzero">
<path style="fill:none;stroke-width:0.3985;stroke-linecap:butt;stroke-linejoin:miter;stroke:rgb(0%,0%,0%);stroke-opacity:1;stroke-miterlimit:10;" d="M 206.189219 -72.216036 L 219.013438 -97.864474 " transform="matrix(1,0,0,-1,201.135,0.56912)"/>
</g>
<path style="fill:none;stroke-width:0.3985;stroke-linecap:butt;stroke-linejoin:miter;stroke:rgb(0%,0%,0%);stroke-opacity:1;stroke-miterlimit:10;" d="M 221.107188 -106.231661 L 221.107188 -131.880099 " transform="matrix(1,0,0,-1,201.135,0.56912)"/>
</g>
</svg>
