<?xml version="1.0" encoding="UTF-8"?>
<svg xmlns="http://www.w3.org/2000/svg" xmlns:xlink="http://www.w3.org/1999/xlink" width="417.68pt" height="167.01999pt" viewBox="0 0 417.68 167.01999" version="1.1">
<defs>
<clipPath id="clip1">
  <path d="M 362 40 L 417.679688 40 L 417.679688 88 L 362 88 Z M 362 40 "/>
</clipPath>
</defs>
<g id="surface1">
<path style="fill:none;stroke-width:0.3985;stroke-linecap:butt;stroke-linejoin:miter;stroke:rgb(0%,0%,0%);stroke-opacity:1;stroke-miterlimit:10;" d="M -4.185812 -1.128763 L -153.138937 -41.390481 " transform="matrix(1,0,0,-1,206.803,0.2228)"/>
<path style="fill:none;stroke-width:0.3985;stroke-linecap:butt;stroke-linejoin:miter;stroke:rgb(0%,0%,0%);stroke-opacity:1;stroke-miterlimit:10;" d="M -161.510031 -45.910013 L -205.58425 -81.648294 " transform="matrix(1,0,0,-1,206.803,0.2228)"/>
<path style="fill:none;stroke-width:0.3985;stroke-linecap:butt;stroke-linejoin:miter;stroke:rgb(0%,0%,0%);stroke-opacity:1;stroke-miterlimit:10;" d="M -157.326437 -46.702981 L -157.326437 -80.855325 " transform="matrix(1,0,0,-1,206.803,0.2228)"/>
<path style="fill:none;stroke-width:0.3985;stroke-linecap:butt;stroke-linejoin:miter;stroke:rgb(0%,0%,0%);stroke-opacity:1;stroke-miterlimit:10;" d="M -157.326437 -89.222513 L -157.326437 -123.374856 " transform="matrix(1,0,0,-1,206.803,0.2228)"/>
<path style="fill:none;stroke-width:0.3985;stroke-linecap:butt;stroke-linejoin:miter;stroke:rgb(0%,0%,0%);stroke-opacity:1;stroke-miterlimit:10;" d="M -153.138937 -45.910013 L -109.068625 -81.648294 " transform="matrix(1,0,0,-1,206.803,0.2228)"/>
<path style="fill:none;stroke-width:0.3985;stroke-linecap:butt;stroke-linejoin:miter;stroke:rgb(0%,0%,0%);stroke-opacity:1;stroke-miterlimit:10;" d="M -106.603781 -89.222513 L -120.642844 -123.374856 " transform="matrix(1,0,0,-1,206.803,0.2228)"/>
<path style="fill:none;stroke-width:0.3985;stroke-linecap:butt;stroke-linejoin:miter;stroke:rgb(0%,0%,0%);stroke-opacity:1;stroke-miterlimit:10;" d="M -103.162375 -89.222513 L -89.123312 -123.374856 " transform="matrix(1,0,0,-1,206.803,0.2228)"/>
<path style="fill:none;stroke-width:0.3985;stroke-linecap:butt;stroke-linejoin:miter;stroke:rgb(0%,0%,0%);stroke-opacity:1;stroke-miterlimit:10;" d="M -87.404562 -131.74595 L -87.404562 -165.898294 " transform="matrix(1,0,0,-1,206.803,0.2228)"/>
<path style="fill:none;stroke-width:0.3985;stroke-linecap:butt;stroke-linejoin:miter;stroke:rgb(0%,0%,0%);stroke-opacity:1;stroke-miterlimit:10;" d="M -4.185812 -3.390481 L -48.256125 -39.128763 " transform="matrix(1,0,0,-1,206.803,0.2228)"/>
<path style="fill:none;stroke-width:0.3985;stroke-linecap:butt;stroke-linejoin:miter;stroke:rgb(0%,0%,0%);stroke-opacity:1;stroke-miterlimit:10;" d="M -52.439719 -46.702981 L -52.439719 -80.855325 " transform="matrix(1,0,0,-1,206.803,0.2228)"/>
<path style="fill:none;stroke-width:0.3985;stroke-linecap:butt;stroke-linejoin:miter;stroke:rgb(0%,0%,0%);stroke-opacity:1;stroke-miterlimit:10;" d="M 4.185281 -3.390481 L 48.2595 -39.128763 " transform="matrix(1,0,0,-1,206.803,0.2228)"/>
<path style="fill:none;stroke-width:0.3985;stroke-linecap:butt;stroke-linejoin:miter;stroke:rgb(0%,0%,0%);stroke-opacity:1;stroke-miterlimit:10;" d="M 52.443094 -46.702981 L 52.443094 -80.855325 " transform="matrix(1,0,0,-1,206.803,0.2228)"/>
<path style="fill:none;stroke-width:0.3985;stroke-linecap:butt;stroke-linejoin:miter;stroke:rgb(0%,0%,0%);stroke-opacity:1;stroke-miterlimit:10;" d="M 52.443094 -89.222513 L 52.443094 -123.374856 " transform="matrix(1,0,0,-1,206.803,0.2228)"/>
<path style="fill:none;stroke-width:0.3985;stroke-linecap:butt;stroke-linejoin:miter;stroke:rgb(0%,0%,0%);stroke-opacity:1;stroke-miterlimit:10;" d="M 4.185281 -1.128763 L 153.142313 -41.390481 " transform="matrix(1,0,0,-1,206.803,0.2228)"/>
<path style="fill:none;stroke-width:0.3985;stroke-linecap:butt;stroke-linejoin:miter;stroke:rgb(0%,0%,0%);stroke-opacity:1;stroke-miterlimit:10;" d="M 153.142313 -45.910013 L 109.068094 -81.648294 " transform="matrix(1,0,0,-1,206.803,0.2228)"/>
<path style="fill:none;stroke-width:0.3985;stroke-linecap:butt;stroke-linejoin:miter;stroke:rgb(0%,0%,0%);stroke-opacity:1;stroke-miterlimit:10;" d="M 103.161844 -89.222513 L 89.122781 -123.374856 " transform="matrix(1,0,0,-1,206.803,0.2228)"/>
<path style="fill:none;stroke-width:0.3985;stroke-linecap:butt;stroke-linejoin:miter;stroke:rgb(0%,0%,0%);stroke-opacity:1;stroke-miterlimit:10;" d="M 106.60325 -89.222513 L 120.646219 -123.374856 " transform="matrix(1,0,0,-1,206.803,0.2228)"/>
<path style="fill:none;stroke-width:0.3985;stroke-linecap:butt;stroke-linejoin:miter;stroke:rgb(0%,0%,0%);stroke-opacity:1;stroke-miterlimit:10;" d="M 122.364969 -131.74595 L 122.364969 -165.898294 " transform="matrix(1,0,0,-1,206.803,0.2228)"/>
<path style="fill:none;stroke-width:0.3985;stroke-linecap:butt;stroke-linejoin:miter;stroke:rgb(0%,0%,0%);stroke-opacity:1;stroke-miterlimit:10;" d="M 157.325906 -46.702981 L 157.325906 -80.855325 " transform="matrix(1,0,0,-1,206.803,0.2228)"/>
<path style="fill:none;stroke-width:0.3985;stroke-linecap:butt;stroke-linejoin:miter;stroke:rgb(0%,0%,0%);stroke-opacity:1;stroke-miterlimit:10;" d="M 157.325906 -89.222513 L 157.325906 -123.374856 " transform="matrix(1,0,0,-1,206.803,0.2228)"/>
<g clip-path="url(#clip1)" clip-rule="nonzero">
<path style="fill:none;stroke-width:0.3985;stroke-linecap:butt;stroke-linejoin:miter;stroke:rgb(0%,0%,0%);stroke-opacity:1;stroke-miterlimit:10;" d="M 161.5095 -45.910013 L 205.583719 -81.648294 " transform="matrix(1,0,0,-1,206.803,0.2228)"/>
</g>
<path style="fill:none;stroke-width:0.3985;stroke-linecap:butt;stroke-linejoin:miter;stroke:rgb(0%,0%,0%);stroke-opacity:1;stroke-miterlimit:10;" d="M 209.767313 -89.222513 L 209.767313 -123.374856 " transform="matrix(1,0,0,-1,206.803,0.2228)"/>
<path style="fill:none;stroke-width:0.3985;stroke-linecap:butt;stroke-linejoin:miter;stroke:rgb(0%,0%,0%);stroke-opacity:1;stroke-miterlimit:10;" d="M 209.767313 -131.74595 L 209.767313 -165.898294 " transform="matrix(1,0,0,-1,206.803,0.2228)"/>
</g>
</svg>
