<?xml version="1.0" encoding="UTF-8" standalone="no"?>
<!-- Created with Inkscape (http://www.inkscape.org/) -->

<svg
   xmlns:osb="http://www.openswatchbook.org/uri/2009/osb"
   xmlns:dc="http://purl.org/dc/elements/1.1/"
   xmlns:cc="http://creativecommons.org/ns#"
   xmlns:rdf="http://www.w3.org/1999/02/22-rdf-syntax-ns#"
   xmlns:svg="http://www.w3.org/2000/svg"
   xmlns="http://www.w3.org/2000/svg"
   xmlns:sodipodi="http://sodipodi.sourceforge.net/DTD/sodipodi-0.dtd"
   xmlns:inkscape="http://www.inkscape.org/namespaces/inkscape"
   width="744.09448819"
   height="1052.3622047"
   id="svg2"
   version="1.1"
   inkscape:version="0.48.1 r9760"
   sodipodi:docname="sports.svg">
  <defs
     id="defs4">
    <inkscape:perspective
       sodipodi:type="inkscape:persp3d"
       inkscape:vp_x="0 : 526.18109 : 1"
       inkscape:vp_y="0 : 1000 : 0"
       inkscape:vp_z="744.09448 : 526.18109 : 1"
       inkscape:persp3d-origin="372.04724 : 350.78739 : 1"
       id="perspective3929" />
    <linearGradient
       id="linearGradient5254"
       osb:paint="solid">
      <stop
         style="stop-color:#000000;stop-opacity:1;"
         offset="0"
         id="stop5256" />
    </linearGradient>
    <linearGradient
       id="linearGradient3802"
       osb:paint="solid">
      <stop
         style="stop-color:#000000;stop-opacity:1;"
         offset="0"
         id="stop3804" />
    </linearGradient>
  </defs>
  <sodipodi:namedview
     id="base"
     pagecolor="#ffffff"
     bordercolor="#666666"
     borderopacity="1.0"
     inkscape:pageopacity="0.0"
     inkscape:pageshadow="2"
     inkscape:zoom="2.8"
     inkscape:cx="370.38306"
     inkscape:cy="916.57743"
     inkscape:document-units="px"
     inkscape:current-layer="layer1"
     showgrid="true"
     inkscape:window-width="1184"
     inkscape:window-height="786"
     inkscape:window-x="363"
     inkscape:window-y="32"
     inkscape:window-maximized="0"
     inkscape:snap-global="false">
    <inkscape:grid
       type="xygrid"
       id="grid5561" />
  </sodipodi:namedview>
  <metadata
     id="metadata7">
    <rdf:RDF>
      <cc:Work
         rdf:about="">
        <dc:format>image/svg+xml</dc:format>
        <dc:type
           rdf:resource="http://purl.org/dc/dcmitype/StillImage" />
        <dc:title />
      </cc:Work>
    </rdf:RDF>
  </metadata>
  <g
     inkscape:label="Layer 1"
     inkscape:groupmode="layer"
     id="layer1">
    <path
       style="fill:none;stroke:#000000;stroke-width:1;stroke-linecap:butt;stroke-linejoin:miter;stroke-opacity:1;stroke-miterlimit:4;stroke-dasharray:6,2;stroke-dashoffset:0"
       d="m 137.38075,238.17923 c 151.52288,2.02031 151.52288,0 151.52288,0"
       id="path2993"
       inkscape:connector-curvature="0" />
    <path
       style="fill:none;stroke:#000000;stroke-width:1px;stroke-linecap:butt;stroke-linejoin:miter;stroke-opacity:1"
       d="m 180,238.07647 c 23.21429,-47.85715 23.21429,-47.85715 23.21429,-47.85715"
       id="path3765"
       inkscape:connector-curvature="0" />
    <path
       style="fill:none;stroke:#000000;stroke-width:1px;stroke-linecap:butt;stroke-linejoin:miter;stroke-opacity:1"
       d="m 219.64286,238.43361 3.57143,-23.21429"
       id="path3767"
       inkscape:connector-curvature="0" />
    <path
       style="fill:none;stroke:#000000;stroke-width:1;stroke-linecap:butt;stroke-linejoin:miter;stroke-opacity:1;stroke-miterlimit:4;stroke-dasharray:none"
       d="m 204.64286,189.50504 18.92857,24.64286"
       id="path3769"
       inkscape:connector-curvature="0" />
    <path
       style="fill:none;stroke:#000000;stroke-width:1px;stroke-linecap:butt;stroke-linejoin:miter;stroke-opacity:1"
       d="m 203.57143,189.86218 5,-37.5 -22.5,18.57143 -7.5,-14.64286"
       id="path3771"
       inkscape:connector-curvature="0" />
    <path
       style="fill:none;stroke:#000000;stroke-width:1px;stroke-linecap:butt;stroke-linejoin:miter;stroke-opacity:1"
       d="M 209.28571,152.71932 247.5,146.6479"
       id="path3773"
       inkscape:connector-curvature="0" />
    <path
       sodipodi:type="arc"
       style="stroke-width:1;stroke-miterlimit:4;stroke-dasharray:none;stroke-dashoffset:0;fill-rule:nonzero;fill:none"
       id="path3798"
       sodipodi:cx="201.60715"
       sodipodi:cy="142.71933"
       sodipodi:rx="9.8214283"
       sodipodi:ry="11.428572"
       d="m 211.42858,142.71933 a 9.8214283,11.428572 0 1 1 -19.64286,0 9.8214283,11.428572 0 1 1 19.64286,0 z" />
    <path
       sodipodi:type="arc"
       style="fill:none;stroke:#000000;stroke-width:1;stroke-miterlimit:4;stroke-opacity:1;stroke-dasharray:none;stroke-dashoffset:0"
       id="path3808"
       sodipodi:cx="180.89285"
       sodipodi:cy="126.82647"
       sodipodi:rx="13.392858"
       sodipodi:ry="13.75"
       d="m 194.28571,126.82647 a 13.392858,13.75 0 1 1 -26.78571,0 13.392858,13.75 0 1 1 26.78571,0 z"
       transform="matrix(1.0647683,0,0,1.037112,15.176735,5.8289331)" />
    <path
       sodipodi:type="arc"
       style="fill:none;stroke:#000000;stroke-width:1;stroke-miterlimit:4;stroke-opacity:1;stroke-dasharray:none;stroke-dashoffset:0"
       id="path5262"
       sodipodi:cx="168.39285"
       sodipodi:cy="152.18361"
       sodipodi:rx="11.607142"
       sodipodi:ry="7.3214288"
       d="m 180,152.18361 a 11.607142,7.3214288 0 1 1 -23.21429,0 11.607142,7.3214288 0 1 1 23.21429,0 z"
       transform="matrix(0.86445894,-0.50270344,0.50270344,0.86445894,-46.48174,102.50087)" />
    <path
       sodipodi:type="arc"
       style="fill:none;stroke:#000000;stroke-width:1;stroke-miterlimit:4;stroke-opacity:1;stroke-dasharray:none;stroke-dashoffset:0"
       id="path5264"
       sodipodi:cx="252.5"
       sodipodi:cy="143.25504"
       sodipodi:rx="5.7142859"
       sodipodi:ry="3.0357144"
       d="m 258.21429,143.25504 a 5.7142859,3.0357144 0 1 1 -11.42858,0 5.7142859,3.0357144 0 1 1 11.42858,0 z"
       transform="matrix(0.90177503,-0.24162989,0.30258622,1.1292672,-18.123058,44.206481)" />
    <path
       style="fill:#000000;fill-opacity:1;stroke:#000000;stroke-width:1px;stroke-linecap:butt;stroke-linejoin:miter;stroke-opacity:1"
       d="m 166.54891,155.09418 19.31917,-11.86929"
       id="path5266"
       inkscape:connector-curvature="0" />
    <text
       xml:space="preserve"
       style="font-size:40px;font-style:normal;font-weight:normal;line-height:125%;letter-spacing:0px;word-spacing:0px;fill:#000000;fill-opacity:1;stroke:none;font-family:Sans"
       x="359.10922"
       y="111.40509"
       id="text5553"
       sodipodi:linespacing="125%"><tspan
         sodipodi:role="line"
         id="tspan5555"
         x="359.10922"
         y="111.40509" /></text>
    <path
       sodipodi:type="arc"
       style="fill:#000000;fill-opacity:1;fill-rule:evenodd;stroke:#000000;stroke-width:1;stroke-miterlimit:4;stroke-opacity:1;stroke-dasharray:none;stroke-dashoffset:0"
       id="path5557"
       sodipodi:cx="314.91507"
       sodipodi:cy="144.48758"
       sodipodi:rx="2.2728431"
       sodipodi:ry="2.2728431"
       d="m 317.18791,144.48758 a 2.2728431,2.2728431 0 1 1 -4.54568,0 2.2728431,2.2728431 0 1 1 4.54568,0 z"
       transform="translate(-67.13715,2.369527)" />
    <path
       sodipodi:type="arc"
       style="fill:#000000;fill-opacity:1;fill-rule:evenodd;stroke:#000000;stroke-width:1;stroke-miterlimit:4;stroke-opacity:1;stroke-dasharray:none;stroke-dashoffset:0"
       id="path5559"
       sodipodi:cx="327.28943"
       sodipodi:cy="145.24519"
       sodipodi:rx="2.5253813"
       sodipodi:ry="2.5253813"
       d="m 329.81481,145.24519 a 2.5253813,2.5253813 0 1 1 -5.05076,0 2.5253813,2.5253813 0 1 1 5.05076,0 z"
       transform="translate(-118.7539,7.1169891)" />
    <path
       sodipodi:type="arc"
       style="fill:#000000;fill-opacity:1;fill-rule:evenodd;stroke:#000000;stroke-width:1;stroke-miterlimit:4;stroke-opacity:1;stroke-dasharray:none;stroke-dashoffset:0"
       id="path5563"
       sodipodi:cx="342.5"
       sodipodi:cy="144.86218"
       sodipodi:rx="2.5"
       sodipodi:ry="2.5"
       d="m 345,144.86218 a 2.5,2.5 0 1 1 -5,0 2.5,2.5 0 1 1 5,0 z"
       transform="translate(-156.92643,-0.98477118)" />
    <path
       sodipodi:type="arc"
       style="fill:#000000;fill-opacity:1;fill-rule:evenodd;stroke:#000000;stroke-width:1;stroke-miterlimit:4;stroke-opacity:1;stroke-dasharray:none;stroke-dashoffset:0"
       id="path5565"
       sodipodi:cx="357.5"
       sodipodi:cy="144.86218"
       sodipodi:rx="2.5"
       sodipodi:ry="2.5"
       d="m 360,144.86218 a 2.5,2.5 0 1 1 -5,0 2.5,2.5 0 1 1 5,0 z"
       transform="translate(-191.42391,10.101525)" />
    <path
       sodipodi:type="arc"
       style="fill:#000000;fill-opacity:1;fill-rule:evenodd;stroke:#000000;stroke-width:1;stroke-miterlimit:4;stroke-opacity:1;stroke-dasharray:none;stroke-dashoffset:0"
       id="path5567"
       sodipodi:cx="372.5"
       sodipodi:cy="144.86218"
       sodipodi:rx="2.5"
       sodipodi:ry="2.5"
       d="m 375,144.86218 a 2.5,2.5 0 1 1 -5,0 2.5,2.5 0 1 1 5,0 z"
       transform="translate(-193.44421,11.616754)" />
    <path
       sodipodi:type="arc"
       style="fill:#000000;fill-opacity:1;fill-rule:evenodd;stroke:#000000;stroke-width:1;stroke-miterlimit:4;stroke-opacity:1;stroke-dasharray:none;stroke-dashoffset:0"
       id="path5569"
       sodipodi:cx="387.5"
       sodipodi:cy="144.86218"
       sodipodi:rx="2.5"
       sodipodi:ry="2.5"
       d="m 390,144.86218 a 2.5,2.5 0 1 1 -5,0 2.5,2.5 0 1 1 5,0 z"
       transform="translate(-183.34269,44.446712)" />
    <path
       sodipodi:type="arc"
       style="fill:#000000;fill-opacity:1;fill-rule:evenodd;stroke:#000000;stroke-width:1;stroke-miterlimit:4;stroke-opacity:1;stroke-dasharray:none;stroke-dashoffset:0"
       id="path5571"
       sodipodi:cx="402.5"
       sodipodi:cy="144.86218"
       sodipodi:rx="2.5"
       sodipodi:ry="2.5"
       d="m 405,144.86218 a 2.5,2.5 0 1 1 -5,0 2.5,2.5 0 1 1 5,0 z"
       transform="translate(-182.83761,93.944187)" />
    <path
       sodipodi:type="arc"
       style="fill:#000000;fill-opacity:1;fill-rule:evenodd;stroke:#000000;stroke-width:1;stroke-miterlimit:4;stroke-opacity:1;stroke-dasharray:none;stroke-dashoffset:0"
       id="path5573"
       sodipodi:cx="412.5"
       sodipodi:cy="144.86218"
       sodipodi:rx="2.5"
       sodipodi:ry="2.5"
       d="m 415,144.86218 a 2.5,2.5 0 1 1 -5,0 2.5,2.5 0 1 1 5,0 z"
       transform="translate(-188.89853,69.700526)" />
    <path
       sodipodi:type="arc"
       style="fill:#000000;fill-opacity:1;fill-rule:evenodd;stroke:#000000;stroke-width:1;stroke-miterlimit:4;stroke-opacity:1;stroke-dasharray:none;stroke-dashoffset:0"
       id="path5575"
       sodipodi:cx="422.5"
       sodipodi:cy="144.86218"
       sodipodi:rx="2.5"
       sodipodi:ry="2.5"
       d="m 425,144.86218 a 2.5,2.5 0 1 1 -5,0 2.5,2.5 0 1 1 5,0 z"
       transform="translate(-241.42646,93.43911)" />
    <path
       style="fill:none;stroke:#000000;stroke-width:1;stroke-linecap:butt;stroke-linejoin:miter;stroke-opacity:1;stroke-miterlimit:4;stroke-dasharray:6,2;stroke-dashoffset:0"
       d="m 380,237.36218 115,0 0,0"
       id="path5598"
       inkscape:connector-curvature="0" />
    <path
       style="fill:none;stroke:#000000;stroke-width:1px;stroke-linecap:butt;stroke-linejoin:miter;stroke-opacity:1"
       d="m 405,237.36218 25,-45"
       id="path5608"
       inkscape:connector-curvature="0" />
    <path
       style="fill:none;stroke:#000000;stroke-width:1px;stroke-linecap:butt;stroke-linejoin:miter;stroke-opacity:1"
       d="m 450,237.36218 c 0,0 10,-25 -20,-45 l 5,-45"
       id="path5610"
       inkscape:connector-curvature="0" />
    <path
       style="fill:none;stroke:#000000;stroke-width:1px;stroke-linecap:butt;stroke-linejoin:miter;stroke-opacity:1"
       d="m 435,167.36218 15,10 15,-5"
       id="path5612"
       inkscape:connector-curvature="0" />
    <path
       style="fill:none;stroke:#000000;stroke-width:1px;stroke-linecap:butt;stroke-linejoin:miter;stroke-opacity:1"
       d="m 435,157.36218 35,-5"
       id="path5614"
       inkscape:connector-curvature="0" />
    <path
       style="fill:none;stroke:#000000;stroke-width:1px;stroke-linecap:butt;stroke-linejoin:miter;stroke-opacity:1"
       d="m 465,172.36218 5,-20 c 10,-30 25,-35 25,-35 l 0,60"
       id="path5618"
       inkscape:connector-curvature="0" />
    <path
       sodipodi:type="arc"
       style="fill:none;stroke:#000000;stroke-width:1;stroke-miterlimit:4;stroke-opacity:1;stroke-dasharray:none;stroke-dashoffset:0"
       id="path5620"
       sodipodi:cx="437.5"
       sodipodi:cy="134.86218"
       sodipodi:rx="7.5"
       sodipodi:ry="12.5"
       d="m 445,134.86218 a 7.5,12.5 0 1 1 -15,0 7.5,12.5 0 1 1 15,0 z"
       transform="translate(-2,0)" />
    <path
       style="fill:none;stroke:#000000;stroke-width:1px;stroke-linecap:butt;stroke-linejoin:miter;stroke-opacity:1"
       d="m 430,132.36218 20,0"
       id="path5622"
       inkscape:connector-curvature="0" />
    <path
       sodipodi:type="arc"
       style="fill:#000000;fill-opacity:1;stroke:#000000;stroke-width:1;stroke-miterlimit:4;stroke-opacity:1;stroke-dasharray:none;stroke-dashoffset:0"
       id="path5630"
       sodipodi:cx="377.5"
       sodipodi:cy="149.86218"
       sodipodi:rx="2.5"
       sodipodi:ry="2.5"
       d="m 380,149.86218 a 2.5,2.5 0 1 1 -5,0 2.5,2.5 0 1 1 5,0 z"
       transform="translate(117.43023,27.779195)" />
    <path
       sodipodi:type="arc"
       style="fill:#000000;fill-opacity:1;fill-rule:evenodd;stroke:#000000;stroke-width:1;stroke-miterlimit:4;stroke-opacity:1;stroke-dasharray:none;stroke-dashoffset:0"
       id="path5632"
       sodipodi:cx="377.5"
       sodipodi:cy="159.86218"
       sodipodi:rx="2.5"
       sodipodi:ry="2.5"
       d="m 380,159.86218 a 2.5,2.5 0 1 1 -5,0 2.5,2.5 0 1 1 5,0 z"
       transform="translate(64.902301,-27.274119)" />
    <path
       sodipodi:type="arc"
       style="fill:#000000;fill-opacity:1;fill-rule:evenodd;stroke:#000000;stroke-width:1;stroke-miterlimit:4;stroke-opacity:1;stroke-dasharray:none;stroke-dashoffset:0"
       id="path5634"
       sodipodi:cx="377.5"
       sodipodi:cy="169.86218"
       sodipodi:rx="2.5"
       sodipodi:ry="2.5"
       d="m 380,169.86218 a 2.5,2.5 0 1 1 -5,0 2.5,2.5 0 1 1 5,0 z"
       transform="translate(50.760165,-37.375644)" />
    <path
       sodipodi:type="arc"
       style="fill:#000000;fill-opacity:1;fill-rule:evenodd;stroke:#000000;stroke-width:1;stroke-miterlimit:4;stroke-opacity:1;stroke-dasharray:none;stroke-dashoffset:0"
       id="path5636"
       sodipodi:cx="377.5"
       sodipodi:cy="179.86218"
       sodipodi:rx="2.5"
       sodipodi:ry="2.5"
       d="m 380,179.86218 a 2.5,2.5 0 1 1 -5,0 2.5,2.5 0 1 1 5,0 z"
       transform="translate(56.316004,-23.233509)" />
    <path
       sodipodi:type="arc"
       style="fill:#000000;fill-opacity:1;fill-rule:evenodd;stroke:#000000;stroke-width:1;stroke-miterlimit:4;stroke-opacity:1;stroke-dasharray:none;stroke-dashoffset:0"
       id="path5638"
       sodipodi:cx="377.5"
       sodipodi:cy="189.86218"
       sodipodi:rx="2.5"
       sodipodi:ry="2.5"
       d="m 380,189.86218 a 2.5,2.5 0 1 1 -5,0 2.5,2.5 0 1 1 5,0 z"
       transform="translate(55.810928,-22.728432)" />
    <path
       sodipodi:type="arc"
       style="fill:#000000;fill-opacity:1;fill-rule:evenodd;stroke:#000000;stroke-width:1;stroke-miterlimit:4;stroke-opacity:1;stroke-dasharray:none;stroke-dashoffset:0"
       id="path5640"
       sodipodi:cx="377.5"
       sodipodi:cy="199.86218"
       sodipodi:rx="2.5"
       sodipodi:ry="2.5"
       d="m 380,199.86218 a 2.5,2.5 0 1 1 -5,0 2.5,2.5 0 1 1 5,0 z"
       transform="translate(52.527932,-7.0710678)" />
    <path
       sodipodi:type="arc"
       style="fill:#000000;fill-opacity:1;fill-rule:evenodd;stroke:#000000;stroke-width:1;stroke-miterlimit:4;stroke-opacity:1;stroke-dasharray:none;stroke-dashoffset:0"
       id="path5642"
       sodipodi:cx="377.5"
       sodipodi:cy="209.86218"
       sodipodi:rx="2.5"
       sodipodi:ry="2.5"
       d="m 380,209.86218 a 2.5,2.5 0 1 1 -5,0 2.5,2.5 0 1 1 5,0 z"
       transform="translate(72.983521,27.526657)" />
    <path
       sodipodi:type="arc"
       style="fill:#000000;fill-opacity:1;fill-rule:evenodd;stroke:#000000;stroke-width:1;stroke-miterlimit:4;stroke-opacity:1;stroke-dasharray:none;stroke-dashoffset:0"
       id="path5644"
       sodipodi:cx="377.5"
       sodipodi:cy="219.86218"
       sodipodi:rx="2.5"
       sodipodi:ry="2.5"
       d="m 380,219.86218 a 2.5,2.5 0 1 1 -5,0 2.5,2.5 0 1 1 5,0 z"
       transform="translate(28.031733,17.703051)" />
    <path
       sodipodi:type="arc"
       style="fill:#000000;fill-opacity:1;fill-rule:evenodd;stroke:#000000;stroke-width:1;stroke-miterlimit:4;stroke-opacity:1;stroke-dasharray:none;stroke-dashoffset:0"
       id="path5646"
       sodipodi:cx="362.5"
       sodipodi:cy="149.86218"
       sodipodi:rx="2.5"
       sodipodi:ry="2.5"
       d="m 365,149.86218 a 2.5,2.5 0 1 1 -5,0 2.5,2.5 0 1 1 5,0 z"
       transform="translate(90.408653,-17.172593)" />
    <path
       sodipodi:type="arc"
       style="fill:#000000;fill-opacity:1;fill-rule:evenodd;stroke:#000000;stroke-width:1;stroke-miterlimit:4;stroke-opacity:1;stroke-dasharray:none;stroke-dashoffset:0"
       id="path5654"
       sodipodi:cx="362.5"
       sodipodi:cy="189.86218"
       sodipodi:rx="2.5"
       sodipodi:ry="2.5"
       d="m 365,189.86218 a 2.5,2.5 0 1 1 -5,0 2.5,2.5 0 1 1 5,0 z"
       transform="translate(132.83506,-72.983521)" />
    <path
       sodipodi:type="arc"
       style="fill:#000000;fill-opacity:1;fill-rule:evenodd;stroke:#000000;stroke-width:1;stroke-miterlimit:4;stroke-opacity:1;stroke-dasharray:none;stroke-dashoffset:0"
       id="path5656"
       sodipodi:cx="362.5"
       sodipodi:cy="199.86218"
       sodipodi:rx="2.5"
       sodipodi:ry="2.5"
       d="m 365,199.86218 a 2.5,2.5 0 1 1 -5,0 2.5,2.5 0 1 1 5,0 z"
       transform="translate(107.32871,-46.719555)" />
    <path
       sodipodi:type="arc"
       style="fill:#000000;fill-opacity:1;fill-rule:evenodd;stroke:#000000;stroke-width:1;stroke-miterlimit:4;stroke-opacity:1;stroke-dasharray:none;stroke-dashoffset:0"
       id="path5658"
       sodipodi:cx="362.5"
       sodipodi:cy="209.86218"
       sodipodi:rx="2.5"
       sodipodi:ry="2.5"
       d="m 365,209.86218 a 2.5,2.5 0 1 1 -5,0 2.5,2.5 0 1 1 5,0 z"
       transform="translate(102.53048,-37.375644)" />
    <path
       sodipodi:type="arc"
       style="fill:#000000;fill-opacity:1;fill-rule:evenodd;stroke:#000000;stroke-width:1;stroke-miterlimit:4;stroke-opacity:1;stroke-dasharray:none;stroke-dashoffset:0"
       id="path5660"
       sodipodi:cx="362.5"
       sodipodi:cy="219.86218"
       sodipodi:rx="2.5"
       sodipodi:ry="2.5"
       d="m 365,219.86218 a 2.5,2.5 0 1 1 -5,0 2.5,2.5 0 1 1 5,0 z"
       transform="translate(87.630733,-42.678945)" />
    <path
       sodipodi:type="arc"
       style="fill:#000000;fill-opacity:1;fill-rule:evenodd;stroke:#000000;stroke-width:1;stroke-miterlimit:4;stroke-opacity:1;stroke-dasharray:none;stroke-dashoffset:0"
       id="path5662"
       sodipodi:cx="372.5"
       sodipodi:cy="119.86218"
       sodipodi:rx="2.5"
       sodipodi:ry="2.5"
       d="m 375,119.86218 a 2.5,2.5 0 1 1 -5,0 2.5,2.5 0 1 1 5,0 z"
       transform="translate(116.42857,92.5)" />
    <path
       sodipodi:type="arc"
       style="fill:#000000;fill-opacity:1;fill-rule:evenodd;stroke:#000000;stroke-width:1;stroke-miterlimit:4;stroke-opacity:1;stroke-dasharray:none;stroke-dashoffset:0"
       id="path5664"
       sodipodi:cx="361.78571"
       sodipodi:cy="89.326469"
       sodipodi:rx="2.1428571"
       sodipodi:ry="2.3214285"
       d="m 363.92856,89.326469 a 2.1428571,2.3214285 0 1 1 -4.28571,0 2.1428571,2.3214285 0 1 1 4.28571,0 z"
       transform="translate(133.57143,112.14286)" />
    <path
       sodipodi:type="arc"
       style="fill:#000000;fill-opacity:1;fill-rule:evenodd;stroke:#000000;stroke-width:1;stroke-miterlimit:4;stroke-opacity:1;stroke-dasharray:none;stroke-dashoffset:0"
       id="path5668"
       sodipodi:cx="382.5"
       sodipodi:cy="84.862183"
       sodipodi:rx="2.5"
       sodipodi:ry="2.5"
       d="m 385,84.862183 a 2.5,2.5 0 1 1 -5,0 2.5,2.5 0 1 1 5,0 z"
       transform="translate(118.21429,127.5)" />
    <path
       sodipodi:type="arc"
       style="fill:none;stroke:#000000;stroke-width:1;stroke-miterlimit:4;stroke-opacity:1;stroke-dasharray:none;stroke-dashoffset:0"
       id="path5670"
       sodipodi:cx="527.5"
       sodipodi:cy="189.86218"
       sodipodi:rx="7.5"
       sodipodi:ry="12.5"
       d="m 535,189.86218 a 7.5,12.5 0 1 1 -15,0 7.5,12.5 0 1 1 15,0 z"
       transform="translate(-32.5,0)" />
    <path
       style="fill:none;stroke:#000000;stroke-width:1px;stroke-linecap:butt;stroke-linejoin:miter;stroke-opacity:1"
       d="m 495,202.71932 -5,10 10,0 z"
       id="path5676"
       inkscape:connector-curvature="0" />
    <path
       style="fill:none;stroke:#000000;stroke-width:1;stroke-linecap:butt;stroke-linejoin:miter;stroke-opacity:1;stroke-miterlimit:4;stroke-dasharray:6,2;stroke-dashoffset:0"
       d="m 130,392.36218 175,0"
       id="path5678"
       inkscape:connector-curvature="0" />
    <path
       sodipodi:type="arc"
       style="fill:none;stroke:#000000;stroke-width:1;stroke-miterlimit:4;stroke-opacity:1;stroke-dasharray:none;stroke-dashoffset:0"
       id="path5680"
       sodipodi:cx="135"
       sodipodi:cy="334.86218"
       sodipodi:rx="25"
       sodipodi:ry="22.5"
       d="m 160,334.86218 a 25,22.5 0 1 1 -50,0 25,22.5 0 1 1 50,0 z"
       transform="translate(35,35)" />
    <path
       sodipodi:type="arc"
       style="fill:none;stroke:#000000;stroke-width:1;stroke-miterlimit:4;stroke-opacity:1;stroke-dasharray:none;stroke-dashoffset:0"
       id="path5682"
       sodipodi:cx="235"
       sodipodi:cy="354.86218"
       sodipodi:rx="25"
       sodipodi:ry="22.5"
       d="m 260,354.86218 a 25,22.5 0 1 1 -50,0 25,22.5 0 1 1 50,0 z"
       transform="translate(30,15)" />
    <path
       style="fill:none;stroke:#000000;stroke-width:1px;stroke-linecap:butt;stroke-linejoin:miter;stroke-opacity:1"
       d="m 185,352.36218 65,0"
       id="path5686"
       inkscape:connector-curvature="0" />
    <path
       style="fill:none;stroke:#000000;stroke-width:1px;stroke-linecap:butt;stroke-linejoin:miter;stroke-opacity:1"
       d="m 210,377.36218 c 0,0 15,-10 -5,-25 -30,-20 30,-40 30,-40"
       id="path5688"
       inkscape:connector-curvature="0" />
    <path
       style="fill:none;stroke:#000000;stroke-width:1px;stroke-linecap:butt;stroke-linejoin:miter;stroke-opacity:1"
       d="m 260,347.36218 c -15,-15 25,-20 25,-20"
       id="path5690"
       inkscape:connector-curvature="0" />
    <path
       sodipodi:type="arc"
       style="fill:none;stroke:#000000;stroke-width:1;stroke-miterlimit:4;stroke-opacity:1;stroke-dasharray:none;stroke-dashoffset:0"
       id="path5692"
       sodipodi:cx="265"
       sodipodi:cy="304.86218"
       sodipodi:rx="15"
       sodipodi:ry="12.5"
       d="m 280,304.86218 a 15,12.5 0 1 1 -30,0 15,12.5 0 1 1 30,0 z"
       transform="translate(-20,0)" />
    <path
       style="fill:none;stroke:#000000;stroke-width:1px;stroke-linecap:butt;stroke-linejoin:miter;stroke-opacity:1"
       d="m 235,312.36218 c -15,20 25,20 25,20"
       id="path5694"
       inkscape:connector-curvature="0" />
    <path
       sodipodi:type="arc"
       style="fill:#000000;fill-opacity:1;stroke:#000000;stroke-width:1;stroke-miterlimit:4;stroke-opacity:1;stroke-dasharray:none;stroke-dashoffset:0"
       id="path5696"
       sodipodi:cx="77.5"
       sodipodi:cy="319.86218"
       sodipodi:rx="2.5"
       sodipodi:ry="2.5"
       d="m 80,319.86218 a 2.5,2.5 0 1 1 -5,0 2.5,2.5 0 1 1 5,0 z"
       transform="translate(205.06097,8.5862966)" />
    <path
       sodipodi:type="arc"
       style="fill:#000000;fill-opacity:1;fill-rule:evenodd;stroke:#000000;stroke-width:1;stroke-miterlimit:4;stroke-opacity:1;stroke-dasharray:none;stroke-dashoffset:0"
       id="path5698"
       sodipodi:cx="77.5"
       sodipodi:cy="329.86218"
       sodipodi:rx="2.5"
       sodipodi:ry="2.5"
       d="m 80,329.86218 a 2.5,2.5 0 1 1 -5,0 2.5,2.5 0 1 1 5,0 z"
       transform="translate(182.83761,18.182746)" />
    <path
       sodipodi:type="arc"
       style="fill:#000000;fill-opacity:1;fill-rule:evenodd;stroke:#000000;stroke-width:1;stroke-miterlimit:4;stroke-opacity:1;stroke-dasharray:none;stroke-dashoffset:0"
       id="path5700"
       sodipodi:cx="77.5"
       sodipodi:cy="339.86218"
       sodipodi:rx="2.5"
       sodipodi:ry="2.5"
       d="m 80,339.86218 a 2.5,2.5 0 1 1 -5,0 2.5,2.5 0 1 1 5,0 z"
       transform="translate(132.32998,37.88072)" />
    <path
       sodipodi:type="arc"
       style="fill:#000000;fill-opacity:1;fill-rule:evenodd;stroke:#000000;stroke-width:1;stroke-miterlimit:4;stroke-opacity:1;stroke-dasharray:none;stroke-dashoffset:0"
       id="path5702"
       sodipodi:cx="77.5"
       sodipodi:cy="349.86218"
       sodipodi:rx="2.5"
       sodipodi:ry="2.5"
       d="m 80,349.86218 a 2.5,2.5 0 1 1 -5,0 2.5,2.5 0 1 1 5,0 z"
       transform="translate(188.39345,42.931483)" />
    <path
       sodipodi:type="arc"
       style="fill:#000000;fill-opacity:1;fill-rule:evenodd;stroke:#000000;stroke-width:1;stroke-miterlimit:4;stroke-opacity:1;stroke-dasharray:none;stroke-dashoffset:0"
       id="path5704"
       sodipodi:cx="77.5"
       sodipodi:cy="359.86218"
       sodipodi:rx="2.5"
       sodipodi:ry="2.5"
       d="m 80,359.86218 a 2.5,2.5 0 1 1 -5,0 2.5,2.5 0 1 1 5,0 z"
       transform="translate(91.923882,32.324881)" />
    <path
       sodipodi:type="arc"
       style="fill:#000000;fill-opacity:1;fill-rule:evenodd;stroke:#000000;stroke-width:1;stroke-miterlimit:4;stroke-opacity:1;stroke-dasharray:none;stroke-dashoffset:0"
       id="path5706"
       sodipodi:cx="92.5"
       sodipodi:cy="319.86218"
       sodipodi:rx="2.5"
       sodipodi:ry="2.5"
       d="m 95,319.86218 a 2.5,2.5 0 1 1 -5,0 2.5,2.5 0 1 1 5,0 z"
       transform="translate(141.92643,-7.0456865)" />
    <path
       sodipodi:type="arc"
       style="fill:#000000;fill-opacity:1;fill-rule:evenodd;stroke:#000000;stroke-width:1;stroke-miterlimit:4;stroke-opacity:1;stroke-dasharray:none;stroke-dashoffset:0"
       id="path5708"
       sodipodi:cx="92.5"
       sodipodi:cy="329.86218"
       sodipodi:rx="2.5"
       sodipodi:ry="2.5"
       d="m 95,329.86218 a 2.5,2.5 0 1 1 -5,0 2.5,2.5 0 1 1 5,0 z"
       transform="translate(169.70563,3.5355339)" />
    <path
       sodipodi:type="arc"
       style="fill:#000000;fill-opacity:1;fill-rule:evenodd;stroke:#000000;stroke-width:1;stroke-miterlimit:4;stroke-opacity:1;stroke-dasharray:none;stroke-dashoffset:0"
       id="path5710"
       sodipodi:cx="92.5"
       sodipodi:cy="339.86218"
       sodipodi:rx="2.5"
       sodipodi:ry="2.5"
       d="m 95,339.86218 a 2.5,2.5 0 1 1 -5,0 2.5,2.5 0 1 1 5,0 z"
       transform="translate(112.63201,13.131983)" />
    <path
       sodipodi:type="arc"
       style="fill:#000000;fill-opacity:1;fill-rule:evenodd;stroke:#000000;stroke-width:1;stroke-miterlimit:4;stroke-opacity:1;stroke-dasharray:none;stroke-dashoffset:0"
       id="path5712"
       sodipodi:cx="92.5"
       sodipodi:cy="349.86218"
       sodipodi:rx="2.5"
       sodipodi:ry="2.5"
       d="m 95,349.86218 a 2.5,2.5 0 1 1 -5,0 2.5,2.5 0 1 1 5,0 z"
       transform="translate(156.57364,3.0304576)" />
    <path
       sodipodi:type="arc"
       style="fill:#000000;fill-opacity:1;fill-rule:evenodd;stroke:#000000;stroke-width:1;stroke-miterlimit:4;stroke-opacity:1;stroke-dasharray:none;stroke-dashoffset:0"
       id="path5714"
       sodipodi:cx="92.5"
       sodipodi:cy="359.86218"
       sodipodi:rx="2.5"
       sodipodi:ry="2.5"
       d="m 95,359.86218 a 2.5,2.5 0 1 1 -5,0 2.5,2.5 0 1 1 5,0 z"
       transform="translate(92.934034,-7.0710678)" />
    <path
       style="fill:none;stroke:#000000;stroke-width:1;stroke-linecap:butt;stroke-linejoin:miter;stroke-opacity:1;stroke-miterlimit:4;stroke-dasharray:6,2;stroke-dashoffset:0"
       d="m 370,392.36218 c 175,0 175,0 175,0"
       id="path3129"
       inkscape:connector-curvature="0" />
    <path
       style="fill:none;stroke:#000000;stroke-width:1px;stroke-linecap:butt;stroke-linejoin:miter;stroke-opacity:1"
       d="m 410,392.36218 c -5,-25 5,-45 5,-45"
       id="path3899"
       inkscape:connector-curvature="0" />
    <path
       style="fill:none;stroke:#000000;stroke-width:1px;stroke-linecap:butt;stroke-linejoin:miter;stroke-opacity:1"
       d="m 375,337.36218 c 15,-10 40,10 40,10 l 0,0 0,0 0,0 c 25,10 65,0 65,0 15,25 0,45 0,45"
       id="path3901"
       inkscape:connector-curvature="0" />
    <path
       style="fill:none;stroke:#000000;stroke-width:1px;stroke-linecap:butt;stroke-linejoin:miter;stroke-opacity:1"
       d="m 480,347.36218 c 15,-5 15,-20 15,-20 l 0,0 c 0,-10 15,-15 15,-15 5,15 20,20 20,20"
       id="path3903"
       inkscape:connector-curvature="0" />
    <path
       style="fill:none;stroke:#000000;stroke-width:1px;stroke-linecap:butt;stroke-linejoin:miter;stroke-opacity:1"
       d="m 495,327.36218 c 5,10 25,15 25,15 10,0 10,-10 10,-10"
       id="path3905"
       inkscape:connector-curvature="0" />
    <path
       style="fill:none;stroke:#000000;stroke-width:1px;stroke-linecap:butt;stroke-linejoin:miter;stroke-opacity:1"
       d="m 445,367.36218 c 25,-25 0,-25 0,-25 l 0,0 c -40,-20 10,-25 10,-25 15,5 15,0 15,0"
       id="path3907"
       inkscape:connector-curvature="0" />
    <path
       style="fill:none;stroke:#000000;stroke-width:1px;stroke-linecap:butt;stroke-linejoin:miter;stroke-opacity:1"
       d="m 460,317.36218 c 10,20 25,25 25,25"
       id="path3909"
       inkscape:connector-curvature="0" />
    <path
       sodipodi:type="arc"
       style="fill:none;stroke:#000000;stroke-width:1;stroke-miterlimit:4;stroke-opacity:1;stroke-dasharray:none;stroke-dashoffset:0"
       id="path3911"
       sodipodi:cx="497.5"
       sodipodi:cy="292.36218"
       sodipodi:rx="12.5"
       sodipodi:ry="10"
       d="m 510,292.36218 a 12.5,10 0 1 1 -25,0 12.5,10 0 1 1 25,0 z"
       transform="matrix(0.70710677,-0.70710679,0.70710679,0.70710677,-81.445835,454.4876)" />
    <path
       style="fill:none;stroke:#000000;stroke-width:1px;stroke-linecap:butt;stroke-linejoin:miter;stroke-opacity:1"
       d="m 510,312.36218 -5,-10"
       id="path3913"
       inkscape:connector-curvature="0" />
    <path
       style="fill:none;stroke:#000000;stroke-width:1px;stroke-linecap:butt;stroke-linejoin:miter;stroke-opacity:1"
       d="m 500,317.36218 -5,-10"
       id="path3915"
       inkscape:connector-curvature="0" />
    <path
       sodipodi:type="arc"
       style="fill:none;stroke:#000000;stroke-width:0;stroke-miterlimit:4;stroke-opacity:1;stroke-dasharray:none;stroke-dashoffset:0"
       id="path3919"
       sodipodi:cx="332.5"
       sodipodi:cy="279.86218"
       sodipodi:rx="2.5"
       sodipodi:ry="2.5"
       d="m 335,279.86218 a 2.5,2.5 0 1 1 -5,0 2.5,2.5 0 1 1 5,0 z" />
    <path
       sodipodi:type="arc"
       style="fill:none;stroke:#000000;stroke-width:0;stroke-miterlimit:4;stroke-opacity:1;stroke-dasharray:none;stroke-dashoffset:0"
       id="path3921"
       sodipodi:cx="342.5"
       sodipodi:cy="289.86218"
       sodipodi:rx="2.5"
       sodipodi:ry="2.5"
       d="m 345,289.86218 a 2.5,2.5 0 1 1 -5,0 2.5,2.5 0 1 1 5,0 z" />
    <path
       sodipodi:type="arc"
       style="fill:none;stroke:#000000;stroke-width:0;stroke-miterlimit:4;stroke-opacity:1;stroke-dasharray:none;stroke-dashoffset:0"
       id="path3923"
       sodipodi:cx="340"
       sodipodi:cy="297.36218"
       sodipodi:rx="5"
       sodipodi:ry="5"
       d="m 345,297.36218 a 5,5 0 1 1 -10,0 5,5 0 1 1 10,0 z" />
    <path
       sodipodi:type="arc"
       style="fill:none;stroke:#000000;stroke-width:0;stroke-miterlimit:4;stroke-opacity:1;stroke-dasharray:none;stroke-dashoffset:0"
       id="path3925"
       sodipodi:cx="330"
       sodipodi:cy="294.86218"
       sodipodi:rx="5"
       sodipodi:ry="7.5"
       d="m 335,294.86218 a 5,7.5 0 1 1 -10,0 5,7.5 0 1 1 10,0 z" />
    <path
       sodipodi:type="arc"
       style="fill:none;stroke:#000000;stroke-width:0;stroke-miterlimit:4;stroke-opacity:1;stroke-dasharray:none;stroke-dashoffset:0"
       id="path3927"
       sodipodi:cx="315"
       sodipodi:cy="292.36218"
       sodipodi:rx="15"
       sodipodi:ry="15"
       d="m 330,292.36218 a 15,15 0 1 1 -30,0 15,15 0 1 1 30,0 z" />
    <path
       sodipodi:type="arc"
       style="fill:none;stroke:#000000;stroke-width:0;stroke-miterlimit:4;stroke-opacity:1;stroke-dasharray:none;stroke-dashoffset:0"
       id="path3945"
       sodipodi:cx="345"
       sodipodi:cy="277.36218"
       sodipodi:rx="5"
       sodipodi:ry="5"
       d="m 350,277.36218 a 5,5 0 1 1 -10,0 5,5 0 1 1 10,0 z" />
    <path
       transform="translate(28.031733,17.703051)"
       d="m 380,219.86218 a 2.5,2.5 0 1 1 -5,0 2.5,2.5 0 1 1 5,0 z"
       sodipodi:ry="2.5"
       sodipodi:rx="2.5"
       sodipodi:cy="219.86218"
       sodipodi:cx="377.5"
       id="path3952"
       style="fill:#000000;fill-opacity:1;fill-rule:evenodd;stroke:#000000;stroke-width:1;stroke-miterlimit:4;stroke-opacity:1;stroke-dasharray:none;stroke-dashoffset:0"
       sodipodi:type="arc" />
    <path
       sodipodi:type="arc"
       style="fill:none;stroke:#000000;stroke-width:0;stroke-miterlimit:4;stroke-opacity:1;stroke-dasharray:none;stroke-dashoffset:0"
       id="path3071"
       sodipodi:cx="345"
       sodipodi:cy="262.36218"
       sodipodi:rx="5"
       sodipodi:ry="5"
       d="m 350,262.36218 a 5,5 0 1 1 -10,0 5,5 0 1 1 10,0 z"
       transform="translate(143.44166,43.436559)" />
    <path
       sodipodi:type="arc"
       style="fill:none;stroke:#000000;stroke-width:0;stroke-miterlimit:4;stroke-opacity:1;stroke-dasharray:none;stroke-dashoffset:0"
       id="path3088"
       sodipodi:cx="322.5"
       sodipodi:cy="257.36218"
       sodipodi:rx="2.5"
       sodipodi:ry="5"
       d="m 325,257.36218 a 2.5,5 0 1 1 -5,0 2.5,5 0 1 1 5,0 z" />
    <path
       sodipodi:type="arc"
       style="fill:#000000;fill-opacity:1;stroke:#000000;stroke-width:0;stroke-miterlimit:4;stroke-opacity:1;stroke-dasharray:none;stroke-dashoffset:0"
       id="path3862"
       sodipodi:cx="322.5"
       sodipodi:cy="219.86218"
       sodipodi:rx="2.5"
       sodipodi:ry="2.5"
       d="m 325,219.86218 a 2.5,2.5 0 1 1 -5,0 2.5,2.5 0 1 1 5,0 z"
       transform="translate(87.378195,172.73608)" />
    <path
       sodipodi:type="arc"
       style="fill:#000000;fill-opacity:1;stroke:#000000;stroke-width:0;stroke-miterlimit:4;stroke-opacity:1;stroke-dasharray:none;stroke-dashoffset:0"
       id="path3864"
       sodipodi:cx="322.5"
       sodipodi:cy="239.86218"
       sodipodi:rx="2.5"
       sodipodi:ry="2.5"
       d="m 325,239.86218 a 2.5,2.5 0 1 1 -5,0 2.5,2.5 0 1 1 5,0 z"
       transform="translate(147.48227,78.791898)" />
    <path
       sodipodi:type="arc"
       style="fill:#000000;fill-opacity:1;stroke:#000000;stroke-width:0;stroke-miterlimit:4;stroke-opacity:1;stroke-dasharray:none;stroke-dashoffset:0"
       id="path3866"
       sodipodi:cx="322.5"
       sodipodi:cy="249.86218"
       sodipodi:rx="2.5"
       sodipodi:ry="2.5"
       d="m 325,249.86218 a 2.5,2.5 0 1 1 -5,0 2.5,2.5 0 1 1 5,0 z"
       transform="translate(182.83761,53.033008)" />
    <path
       sodipodi:type="arc"
       style="fill:#000000;fill-opacity:1;stroke:#000000;stroke-width:0;stroke-miterlimit:4;stroke-opacity:1;stroke-dasharray:none;stroke-dashoffset:0"
       id="path3868"
       sodipodi:cx="322.5"
       sodipodi:cy="259.86218"
       sodipodi:rx="2.5"
       sodipodi:ry="2.5"
       d="m 325,259.86218 a 2.5,2.5 0 1 1 -5,0 2.5,2.5 0 1 1 5,0 z"
       transform="translate(155.5635,88.388347)" />
    <path
       sodipodi:type="arc"
       style="fill:#000000;fill-opacity:1;stroke:#000000;stroke-width:0;stroke-miterlimit:4;stroke-opacity:1;stroke-dasharray:none;stroke-dashoffset:0"
       id="path3874"
       sodipodi:cx="332.5"
       sodipodi:cy="219.86218"
       sodipodi:rx="2.5"
       sodipodi:ry="2.5"
       d="m 335,219.86218 a 2.5,2.5 0 1 1 -5,0 2.5,2.5 0 1 1 5,0 z"
       transform="translate(123.23861,131.31983)" />
    <path
       sodipodi:type="arc"
       style="fill:#000000;fill-opacity:1;stroke:#000000;stroke-width:0;stroke-miterlimit:4;stroke-opacity:1;stroke-dasharray:none;stroke-dashoffset:0"
       id="path3876"
       sodipodi:cx="332.5"
       sodipodi:cy="229.86218"
       sodipodi:rx="2.5"
       sodipodi:ry="2.5"
       d="m 335,229.86218 a 2.5,2.5 0 1 1 -5,0 2.5,2.5 0 1 1 5,0 z"
       transform="translate(112.63201,137.38075)" />
    <path
       sodipodi:type="arc"
       style="fill:#000000;fill-opacity:1;stroke:#000000;stroke-width:0;stroke-miterlimit:4;stroke-opacity:1;stroke-dasharray:none;stroke-dashoffset:0"
       id="path3878"
       sodipodi:cx="332.5"
       sodipodi:cy="239.86218"
       sodipodi:rx="2.5"
       sodipodi:ry="2.5"
       d="m 335,239.86218 a 2.5,2.5 0 1 1 -5,0 2.5,2.5 0 1 1 5,0 z"
       transform="translate(154.04826,104.04571)" />
    <path
       sodipodi:type="arc"
       style="fill:#000000;fill-opacity:1;stroke:#000000;stroke-width:0;stroke-miterlimit:4;stroke-opacity:1;stroke-dasharray:none;stroke-dashoffset:0"
       id="path3880"
       sodipodi:cx="332.5"
       sodipodi:cy="249.86218"
       sodipodi:rx="2.5"
       sodipodi:ry="2.5"
       d="m 335,249.86218 a 2.5,2.5 0 1 1 -5,0 2.5,2.5 0 1 1 5,0 z"
       transform="translate(177.78685,63.63961)" />
    <path
       sodipodi:type="arc"
       style="fill:#000000;fill-opacity:1;stroke:#000000;stroke-width:0;stroke-miterlimit:4;stroke-opacity:1;stroke-dasharray:none;stroke-dashoffset:0"
       id="path3882"
       sodipodi:cx="332.5"
       sodipodi:cy="259.86218"
       sodipodi:rx="2.5"
       sodipodi:ry="2.5"
       d="m 335,259.86218 a 2.5,2.5 0 1 1 -5,0 2.5,2.5 0 1 1 5,0 z"
       transform="translate(148.9975,132.32998)" />
    <path
       sodipodi:type="arc"
       style="fill:#000000;fill-opacity:1;stroke:#000000;stroke-width:0;stroke-miterlimit:4;stroke-opacity:1;stroke-dasharray:none;stroke-dashoffset:0"
       id="path3888"
       sodipodi:cx="342.5"
       sodipodi:cy="219.86218"
       sodipodi:rx="2.5"
       sodipodi:ry="2.5"
       d="m 345,219.86218 a 2.5,2.5 0 1 1 -5,0 2.5,2.5 0 1 1 5,0 z"
       transform="translate(72.225907,127.27922)" />
    <path
       sodipodi:type="arc"
       style="fill:#000000;fill-opacity:1;stroke:#000000;stroke-width:0;stroke-miterlimit:4;stroke-opacity:1;stroke-dasharray:none;stroke-dashoffset:0"
       id="path3890"
       sodipodi:cx="342.5"
       sodipodi:cy="229.86218"
       sodipodi:rx="2.5"
       sodipodi:ry="2.5"
       d="m 345,229.86218 a 2.5,2.5 0 1 1 -5,0 2.5,2.5 0 1 1 5,0 z"
       transform="translate(32.829958,108.08632)" />
    <path
       sodipodi:type="arc"
       style="fill:#000000;fill-opacity:1;stroke:#000000;stroke-width:0;stroke-miterlimit:4;stroke-opacity:1;stroke-dasharray:none;stroke-dashoffset:0"
       id="path3892"
       sodipodi:cx="342.5"
       sodipodi:cy="239.86218"
       sodipodi:rx="2.5"
       sodipodi:ry="2.5"
       d="m 345,239.86218 a 2.5,2.5 0 1 1 -5,0 2.5,2.5 0 1 1 5,0 z"
       transform="translate(118.69292,79.802051)" />
    <path
       sodipodi:type="arc"
       style="fill:#000000;fill-opacity:1;stroke:#000000;stroke-width:0;stroke-miterlimit:4;stroke-opacity:1;stroke-dasharray:none;stroke-dashoffset:0"
       id="path3894"
       sodipodi:cx="342.5"
       sodipodi:cy="249.86218"
       sodipodi:rx="2.5"
       sodipodi:ry="2.5"
       d="m 345,249.86218 a 2.5,2.5 0 1 1 -5,0 2.5,2.5 0 1 1 5,0 z"
       transform="translate(158.08887,68.185296)" />
    <path
       sodipodi:type="arc"
       style="fill:#000000;fill-opacity:1;stroke:#000000;stroke-width:0;stroke-miterlimit:4;stroke-opacity:1;stroke-dasharray:none;stroke-dashoffset:0"
       id="path3896"
       sodipodi:cx="342.5"
       sodipodi:cy="259.86218"
       sodipodi:rx="2.5"
       sodipodi:ry="2.5"
       d="m 345,259.86218 a 2.5,2.5 0 1 1 -5,0 2.5,2.5 0 1 1 5,0 z"
       transform="translate(153.03811,47.982246)" />
    <path
       sodipodi:type="arc"
       style="fill:#000000;fill-opacity:1;stroke:#000000;stroke-width:0;stroke-miterlimit:4;stroke-opacity:1;stroke-dasharray:none;stroke-dashoffset:0"
       id="path3898"
       sodipodi:cx="342.5"
       sodipodi:cy="269.86218"
       sodipodi:rx="2.5"
       sodipodi:ry="2.5"
       d="m 345,269.86218 a 2.5,2.5 0 1 1 -5,0 2.5,2.5 0 1 1 5,0 z"
       transform="translate(187.3833,62.629457)" />
    <path
       sodipodi:type="arc"
       style="fill:#000000;fill-opacity:1;stroke:#000000;stroke-width:0;stroke-miterlimit:4;stroke-opacity:1;stroke-dasharray:none;stroke-dashoffset:0"
       id="path3900"
       sodipodi:cx="342.5"
       sodipodi:cy="279.86218"
       sodipodi:rx="2.5"
       sodipodi:ry="2.5"
       d="m 345,279.86218 a 2.5,2.5 0 1 1 -5,0 2.5,2.5 0 1 1 5,0 z"
       transform="translate(152.02796,48.487322)" />
    <path
       sodipodi:type="arc"
       style="fill:#000000;fill-opacity:1;stroke:#000000;stroke-width:0;stroke-linecap:butt;stroke-linejoin:miter;stroke-miterlimit:4;stroke-opacity:1;stroke-dasharray:none;stroke-dashoffset:0"
       id="path3093"
       sodipodi:cx="263.39285"
       sodipodi:cy="166.11218"
       sodipodi:rx="3.0357141"
       sodipodi:ry="3.0357141"
       d="m 266.42857,166.11218 a 3.0357141,3.0357141 0 1 1 -4e-4,-0.0488"
       sodipodi:start="0"
       sodipodi:end="6.2671028"
       sodipodi:open="true"
       transform="translate(-77.5,4.6428571)" />
    <path
       sodipodi:type="arc"
       style="fill:#000000;fill-opacity:1;stroke:#000000;stroke-width:0;stroke-linecap:butt;stroke-linejoin:miter;stroke-miterlimit:4;stroke-opacity:1;stroke-dasharray:none;stroke-dashoffset:0"
       id="path3095"
       sodipodi:cx="277.85715"
       sodipodi:cy="166.11218"
       sodipodi:rx="3.2142856"
       sodipodi:ry="3.0357141"
       d="m 281.07143,166.11218 a 3.2142856,3.0357141 0 1 1 -4.1e-4,-0.0488"
       sodipodi:start="0"
       sodipodi:end="6.2671028"
       sodipodi:open="true"
       transform="translate(157.14286,-19.642857)" />
  </g>
</svg>
