<?xml version="1.0" encoding="UTF-8" standalone="no"?>
<!-- Created with Inkscape (http://www.inkscape.org/) -->

<svg
   xmlns:dc="http://purl.org/dc/elements/1.1/"
   xmlns:cc="http://creativecommons.org/ns#"
   xmlns:rdf="http://www.w3.org/1999/02/22-rdf-syntax-ns#"
   xmlns:svg="http://www.w3.org/2000/svg"
   xmlns="http://www.w3.org/2000/svg"
   xmlns:sodipodi="http://sodipodi.sourceforge.net/DTD/sodipodi-0.dtd"
   xmlns:inkscape="http://www.inkscape.org/namespaces/inkscape"
   width="744.09448819"
   height="1052.3622047"
   id="svg3921"
   version="1.1"
   inkscape:version="0.48.1 r9760"
   sodipodi:docname="trees.svg">
  <defs
     id="defs3923" />
  <sodipodi:namedview
     id="base"
     pagecolor="#ffffff"
     bordercolor="#666666"
     borderopacity="1.0"
     inkscape:pageopacity="0.0"
     inkscape:pageshadow="2"
     inkscape:zoom="1.979899"
     inkscape:cx="146.10675"
     inkscape:cy="708.16533"
     inkscape:document-units="px"
     inkscape:current-layer="layer1"
     showgrid="false"
     inkscape:window-width="1038"
     inkscape:window-height="730"
     inkscape:window-x="268"
     inkscape:window-y="21"
     inkscape:window-maximized="0">
    <inkscape:grid
       type="xygrid"
       id="grid3929" />
  </sodipodi:namedview>
  <metadata
     id="metadata3926">
    <rdf:RDF>
      <cc:Work
         rdf:about="">
        <dc:format>image/svg+xml</dc:format>
        <dc:type
           rdf:resource="http://purl.org/dc/dcmitype/StillImage" />
        <dc:title />
      </cc:Work>
    </rdf:RDF>
  </metadata>
  <g
     inkscape:label="Layer 1"
     inkscape:groupmode="layer"
     id="layer1">
    <path
       style="fill:none;stroke:#000000;stroke-width:1px;stroke-linecap:butt;stroke-linejoin:miter;stroke-opacity:1"
       d="m 147.85714,252.36218 0,-30 0,0"
       id="path4441"
       inkscape:connector-curvature="0" />
    <path
       style="fill:none;stroke:#000000;stroke-width:1px;stroke-linecap:butt;stroke-linejoin:miter;stroke-opacity:1"
       d="m 147.85714,222.36218 0,-55"
       id="path4443"
       inkscape:connector-curvature="0" />
    <path
       style="fill:none;stroke:#000000;stroke-width:1px;stroke-linecap:butt;stroke-linejoin:miter;stroke-opacity:1"
       d="m 147.85714,232.36218 30,-5 10,-15"
       id="path4445"
       inkscape:connector-curvature="0" />
    <path
       style="fill:none;stroke:#000000;stroke-width:1px;stroke-linecap:butt;stroke-linejoin:miter;stroke-opacity:1"
       d="m 177.85714,227.36218 15,-5"
       id="path4447"
       inkscape:connector-curvature="0" />
    <path
       style="fill:none;stroke:#000000;stroke-width:1px;stroke-linecap:butt;stroke-linejoin:miter;stroke-opacity:1"
       d="m 147.85714,217.36218 20,-10 5,-10"
       id="path4449"
       inkscape:connector-curvature="0" />
    <path
       style="fill:none;stroke:#000000;stroke-width:1px;stroke-linecap:butt;stroke-linejoin:miter;stroke-opacity:1"
       d="m 147.85714,202.36218 -20,-5 -10,-15 5,-15"
       id="path4451"
       inkscape:connector-curvature="0" />
    <path
       style="fill:none;stroke:#000000;stroke-width:1px;stroke-linecap:butt;stroke-linejoin:miter;stroke-opacity:1"
       d="m 117.85714,182.36218 -15,-5"
       id="path4453"
       inkscape:connector-curvature="0" />
    <path
       style="fill:none;stroke:#000000;stroke-width:1px;stroke-linecap:butt;stroke-linejoin:miter;stroke-opacity:1"
       d="m 147.85714,232.36218 -20,-10 -5,-15"
       id="path4455"
       inkscape:connector-curvature="0" />
    <path
       style="fill:none;stroke:#000000;stroke-width:1px;stroke-linecap:butt;stroke-linejoin:miter;stroke-opacity:1"
       d="m 127.85714,222.36218 -25,-5 -9.999997,-10"
       id="path4457"
       inkscape:connector-curvature="0" />
    <path
       style="fill:none;stroke:#000000;stroke-width:1;stroke-linecap:butt;stroke-linejoin:miter;stroke-miterlimit:4;stroke-opacity:1;stroke-dasharray:6, 2;stroke-dashoffset:0"
       d="m 112.85714,252.36218 70,0"
       id="path4465"
       inkscape:connector-curvature="0" />
    <path
       sodipodi:type="arc"
       style="fill:#000000;fill-opacity:1;stroke:#000000;stroke-width:1;stroke-miterlimit:4;stroke-opacity:1;stroke-dasharray:none;stroke-dashoffset:0"
       id="path4467"
       sodipodi:cx="202.5"
       sodipodi:cy="194.86218"
       sodipodi:rx="2.5"
       sodipodi:ry="2.5"
       d="m 205,194.86218 a 2.5,2.5 0 1 1 -5,0 2.5,2.5 0 1 1 5,0 z"
       transform="translate(-33.928571,13.214286)" />
    <path
       sodipodi:type="arc"
       style="fill:#000000;fill-opacity:1;stroke:#000000;stroke-width:1;stroke-miterlimit:4;stroke-opacity:1;stroke-dasharray:none;stroke-dashoffset:0"
       id="path4473"
       sodipodi:cx="217.5"
       sodipodi:cy="219.86218"
       sodipodi:rx="2.5"
       sodipodi:ry="2.5"
       d="m 220,219.86218 a 2.5,2.5 0 1 1 -5,0 2.5,2.5 0 1 1 5,0 z"
       transform="translate(-43.571429,-23.928571)" />
    <path
       sodipodi:type="arc"
       style="fill:#000000;fill-opacity:1;stroke:#000000;stroke-width:1;stroke-miterlimit:4;stroke-opacity:1;stroke-dasharray:none;stroke-dashoffset:0"
       id="path4475"
       sodipodi:cx="217.5"
       sodipodi:cy="229.86218"
       sodipodi:rx="2.5"
       sodipodi:ry="2.5"
       d="m 220,229.86218 a 2.5,2.5 0 1 1 -5,0 2.5,2.5 0 1 1 5,0 z"
       transform="translate(-23.214286,-7.857143)" />
    <path
       sodipodi:type="arc"
       style="fill:#000000;fill-opacity:1;stroke:#000000;stroke-width:1;stroke-miterlimit:4;stroke-opacity:1;stroke-dasharray:none;stroke-dashoffset:0"
       id="path4477"
       sodipodi:cx="217.5"
       sodipodi:cy="239.86218"
       sodipodi:rx="2.5"
       sodipodi:ry="2.5"
       d="m 220,239.86218 a 2.5,2.5 0 1 1 -5,0 2.5,2.5 0 1 1 5,0 z"
       transform="translate(-29.285714,-28.214286)" />
    <path
       sodipodi:type="arc"
       style="fill:#000000;fill-opacity:1;stroke:#000000;stroke-width:1;stroke-miterlimit:4;stroke-opacity:1;stroke-dasharray:none;stroke-dashoffset:0"
       id="path4479"
       sodipodi:cx="217.5"
       sodipodi:cy="249.86218"
       sodipodi:rx="2.5"
       sodipodi:ry="2.5"
       d="m 220,249.86218 a 2.5,2.5 0 1 1 -5,0 2.5,2.5 0 1 1 5,0 z"
       transform="translate(-68.928571,-33.214286)" />
    <path
       sodipodi:type="arc"
       style="fill:#000000;fill-opacity:1;stroke:#000000;stroke-width:1;stroke-miterlimit:4;stroke-opacity:1;stroke-dasharray:none;stroke-dashoffset:0"
       id="path4481"
       sodipodi:cx="217.5"
       sodipodi:cy="259.86218"
       sodipodi:rx="2.5"
       sodipodi:ry="2.5"
       d="m 220,259.86218 a 2.5,2.5 0 1 1 -5,0 2.5,2.5 0 1 1 5,0 z"
       transform="translate(-95,-52.857143)" />
    <path
       sodipodi:type="arc"
       style="fill:#000000;fill-opacity:1;stroke:#000000;stroke-width:1;stroke-miterlimit:4;stroke-opacity:1;stroke-dasharray:none;stroke-dashoffset:0"
       id="path4483"
       sodipodi:cx="217.5"
       sodipodi:cy="269.86218"
       sodipodi:rx="2.5"
       sodipodi:ry="2.5"
       d="m 220,269.86218 a 2.5,2.5 0 1 1 -5,0 2.5,2.5 0 1 1 5,0 z"
       transform="translate(-125,-62.857143)" />
    <path
       sodipodi:type="arc"
       style="fill:#000000;fill-opacity:1;stroke:#000000;stroke-width:1;stroke-miterlimit:4;stroke-opacity:1;stroke-dasharray:none;stroke-dashoffset:0"
       id="path4485"
       sodipodi:cx="217.5"
       sodipodi:cy="279.86218"
       sodipodi:rx="2.5"
       sodipodi:ry="2.5"
       d="m 220,279.86218 a 2.5,2.5 0 1 1 -5,0 2.5,2.5 0 1 1 5,0 z"
       transform="translate(-39.285714,-52.142857)" />
    <path
       sodipodi:type="arc"
       style="fill:#000000;fill-opacity:1;stroke:#000000;stroke-width:1;stroke-miterlimit:4;stroke-opacity:1;stroke-dasharray:none;stroke-dashoffset:0"
       id="path4487"
       sodipodi:cx="232.5"
       sodipodi:cy="219.86218"
       sodipodi:rx="2.5"
       sodipodi:ry="2.5"
       d="m 235,219.86218 a 2.5,2.5 0 1 1 -5,0 2.5,2.5 0 1 1 5,0 z"
       transform="translate(-84.642857,-35.357143)" />
    <path
       sodipodi:type="arc"
       style="fill:#000000;fill-opacity:1;stroke:#000000;stroke-width:1;stroke-miterlimit:4;stroke-opacity:1;stroke-dasharray:none;stroke-dashoffset:0"
       id="path4489"
       sodipodi:cx="232.5"
       sodipodi:cy="229.86218"
       sodipodi:rx="2.5"
       sodipodi:ry="2.5"
       d="m 235,229.86218 a 2.5,2.5 0 1 1 -5,0 2.5,2.5 0 1 1 5,0 z"
       transform="translate(-84.642857,-61.785714)" />
    <path
       sodipodi:type="arc"
       style="fill:#000000;fill-opacity:1;stroke:#000000;stroke-width:1;stroke-miterlimit:4;stroke-opacity:1;stroke-dasharray:none;stroke-dashoffset:0"
       id="path4491"
       sodipodi:cx="232.5"
       sodipodi:cy="239.86218"
       sodipodi:rx="2.5"
       sodipodi:ry="2.5"
       d="m 235,239.86218 a 2.5,2.5 0 1 1 -5,0 2.5,2.5 0 1 1 5,0 z"
       transform="translate(-109.64286,-72.142857)" />
    <path
       sodipodi:type="arc"
       style="fill:#000000;fill-opacity:1;stroke:#000000;stroke-width:1;stroke-miterlimit:4;stroke-opacity:1;stroke-dasharray:none;stroke-dashoffset:0"
       id="path4493"
       sodipodi:cx="232.5"
       sodipodi:cy="204.86218"
       sodipodi:rx="2.5"
       sodipodi:ry="2.5"
       d="m 235,204.86218 a 2.5,2.5 0 1 1 -5,0 2.5,2.5 0 1 1 5,0 z"
       transform="translate(-85,-2.5)" />
    <path
       sodipodi:type="arc"
       style="fill:#000000;fill-opacity:1;stroke:#000000;stroke-width:1;stroke-miterlimit:4;stroke-opacity:1;stroke-dasharray:none;stroke-dashoffset:0"
       id="path4495"
       sodipodi:cx="232.5"
       sodipodi:cy="254.86218"
       sodipodi:rx="2.5"
       sodipodi:ry="2.5"
       d="m 235,254.86218 a 2.5,2.5 0 1 1 -5,0 2.5,2.5 0 1 1 5,0 z"
       transform="translate(-105,-32.857143)" />
    <path
       sodipodi:type="arc"
       style="fill:#000000;fill-opacity:1;stroke:#000000;stroke-width:1;stroke-miterlimit:4;stroke-opacity:1;stroke-dasharray:none;stroke-dashoffset:0"
       id="path4497"
       sodipodi:cx="232.5"
       sodipodi:cy="264.86218"
       sodipodi:rx="2.5"
       sodipodi:ry="2.5"
       d="m 235,264.86218 a 2.5,2.5 0 1 1 -5,0 2.5,2.5 0 1 1 5,0 z"
       transform="translate(-104.28572,-67.5)" />
    <path
       sodipodi:type="arc"
       style="fill:#000000;fill-opacity:1;stroke:#000000;stroke-width:1;stroke-miterlimit:4;stroke-opacity:1;stroke-dasharray:none;stroke-dashoffset:0"
       id="path4499"
       sodipodi:cx="232.5"
       sodipodi:cy="274.86218"
       sodipodi:rx="2.5"
       sodipodi:ry="2.5"
       d="m 235,274.86218 a 2.5,2.5 0 1 1 -5,0 2.5,2.5 0 1 1 5,0 z"
       transform="translate(-115,-92.857143)" />
    <path
       sodipodi:type="arc"
       style="fill:#000000;fill-opacity:1;stroke:#000000;stroke-width:1;stroke-miterlimit:4;stroke-opacity:1;stroke-dasharray:none;stroke-dashoffset:0"
       id="path4501"
       sodipodi:cx="232.5"
       sodipodi:cy="284.86218"
       sodipodi:rx="2.5"
       sodipodi:ry="2.5"
       d="m 235,284.86218 a 2.5,2.5 0 1 1 -5,0 2.5,2.5 0 1 1 5,0 z"
       transform="translate(-129.64286,-67.5)" />
    <path
       sodipodi:type="arc"
       style="fill:#000000;fill-opacity:1;stroke:#000000;stroke-width:1;stroke-miterlimit:4;stroke-opacity:1;stroke-dasharray:none;stroke-dashoffset:0"
       id="path4503"
       sodipodi:cx="222.5"
       sodipodi:cy="289.86218"
       sodipodi:rx="2.5"
       sodipodi:ry="2.5"
       d="m 225,289.86218 a 2.5,2.5 0 1 1 -5,0 2.5,2.5 0 1 1 5,0 z"
       transform="translate(-121.07143,-112.14286)" />
    <path
       sodipodi:type="arc"
       style="fill:#000000;fill-opacity:1;stroke:#000000;stroke-width:1;stroke-miterlimit:4;stroke-opacity:1;stroke-dasharray:none;stroke-dashoffset:0"
       id="path4505"
       sodipodi:cx="202.5"
       sodipodi:cy="254.86218"
       sodipodi:rx="2.5"
       sodipodi:ry="2.5"
       d="m 205,254.86218 a 2.5,2.5 0 1 1 -5,0 2.5,2.5 0 1 1 5,0 z"
       transform="translate(-54.285714,-22.857143)" />
    <path
       sodipodi:type="arc"
       style="fill:#000000;fill-opacity:1;stroke:#000000;stroke-width:1;stroke-miterlimit:4;stroke-opacity:1;stroke-dasharray:none;stroke-dashoffset:0"
       id="path4507"
       sodipodi:cx="202.5"
       sodipodi:cy="269.86218"
       sodipodi:rx="2.5"
       sodipodi:ry="2.5"
       d="m 205,269.86218 a 2.5,2.5 0 1 1 -5,0 2.5,2.5 0 1 1 5,0 z"
       transform="translate(-54.285714,-17.5)" />
    <path
       sodipodi:type="arc"
       style="fill:#000000;fill-opacity:1;stroke:#000000;stroke-width:1;stroke-miterlimit:4;stroke-opacity:1;stroke-dasharray:none;stroke-dashoffset:0"
       id="path4509"
       sodipodi:cx="197.5"
       sodipodi:cy="194.86218"
       sodipodi:rx="2.5"
       sodipodi:ry="2.5"
       d="m 200,194.86218 a 2.5,2.5 0 1 1 -5,0 2.5,2.5 0 1 1 5,0 z"
       transform="translate(-86.071428,38.928571)" />
    <path
       style="fill:none;stroke:#000000;stroke-width:1px;stroke-linecap:butt;stroke-linejoin:miter;stroke-opacity:1"
       d="m 127.85714,222.36218 -15,10"
       id="path4511"
       inkscape:connector-curvature="0" />
    <path
       style="fill:none;stroke:#000000;stroke-width:1;stroke-linecap:butt;stroke-linejoin:miter;stroke-miterlimit:4;stroke-opacity:1;stroke-dasharray:6, 2;stroke-dashoffset:0"
       d="m 320.35714,250.93361 -75,0 0,0"
       id="path4513"
       inkscape:connector-curvature="0" />
    <path
       style="fill:none;stroke:#000000;stroke-width:1px;stroke-linecap:butt;stroke-linejoin:miter;stroke-opacity:1"
       d="m 285.35714,250.93361 0,-20 -15,-15 -20,-5"
       id="path4515"
       inkscape:connector-curvature="0" />
    <path
       style="fill:none;stroke:#000000;stroke-width:1px;stroke-linecap:butt;stroke-linejoin:miter;stroke-opacity:1"
       d="m 285.35714,230.93361 15,-25 -10,-20 5,-20"
       id="path4517"
       inkscape:connector-curvature="0" />
    <path
       style="fill:none;stroke:#000000;stroke-width:1px;stroke-linecap:butt;stroke-linejoin:miter;stroke-opacity:1"
       d="m 270.35714,215.93361 -5,-25 -15,-10"
       id="path4519"
       inkscape:connector-curvature="0" />
    <path
       style="fill:none;stroke:#000000;stroke-width:1px;stroke-linecap:butt;stroke-linejoin:miter;stroke-opacity:1"
       d="m 310.35714,175.93361 5,15 -15,15 -20,-10"
       id="path4521"
       inkscape:connector-curvature="0" />
    <path
       style="fill:none;stroke:#000000;stroke-width:1px;stroke-linecap:butt;stroke-linejoin:miter;stroke-opacity:1"
       d="m 265.35714,190.93361 5,-20"
       id="path4523"
       inkscape:connector-curvature="0" />
    <path
       sodipodi:type="arc"
       style="fill:#000000;fill-opacity:1;stroke:#000000;stroke-width:1;stroke-miterlimit:4;stroke-opacity:1;stroke-dasharray:none;stroke-dashoffset:0"
       id="path4527"
       sodipodi:cx="217.5"
       sodipodi:cy="284.86218"
       sodipodi:rx="2.5"
       sodipodi:ry="2.5"
       d="m 220,284.86218 a 2.5,2.5 0 1 1 -5,0 2.5,2.5 0 1 1 5,0 z"
       transform="translate(78.214286,-120)" />
    <path
       sodipodi:type="arc"
       style="fill:#000000;fill-opacity:1;stroke:#000000;stroke-width:1;stroke-miterlimit:4;stroke-opacity:1;stroke-dasharray:none;stroke-dashoffset:0"
       id="path4529"
       sodipodi:cx="227.5"
       sodipodi:cy="284.86218"
       sodipodi:rx="2.5"
       sodipodi:ry="2.5"
       d="m 230,284.86218 a 2.5,2.5 0 1 1 -5,0 2.5,2.5 0 1 1 5,0 z"
       transform="translate(42.857143,-113.57143)" />
    <path
       sodipodi:type="arc"
       style="fill:#000000;fill-opacity:1;stroke:#000000;stroke-width:1;stroke-miterlimit:4;stroke-opacity:1;stroke-dasharray:none;stroke-dashoffset:0"
       id="path4533"
       sodipodi:cx="237.5"
       sodipodi:cy="284.86218"
       sodipodi:rx="2.5"
       sodipodi:ry="2.5"
       d="m 240,284.86218 a 2.5,2.5 0 1 1 -5,0 2.5,2.5 0 1 1 5,0 z"
       transform="translate(12.5,-103.57143)" />
    <path
       sodipodi:type="arc"
       style="fill:#000000;fill-opacity:1;stroke:#000000;stroke-width:1;stroke-miterlimit:4;stroke-opacity:1;stroke-dasharray:none;stroke-dashoffset:0"
       id="path4535"
       sodipodi:cx="227.5"
       sodipodi:cy="294.86218"
       sodipodi:rx="2.5"
       sodipodi:ry="2.5"
       d="m 230,294.86218 a 2.5,2.5 0 1 1 -5,0 2.5,2.5 0 1 1 5,0 z"
       transform="translate(63.214286,-109.28571)" />
    <path
       sodipodi:type="arc"
       style="fill:#000000;fill-opacity:1;stroke:#000000;stroke-width:1;stroke-miterlimit:4;stroke-opacity:1;stroke-dasharray:none;stroke-dashoffset:0"
       id="path4537"
       sodipodi:cx="237.5"
       sodipodi:cy="294.86218"
       sodipodi:rx="2.5"
       sodipodi:ry="2.5"
       d="m 240,294.86218 a 2.5,2.5 0 1 1 -5,0 2.5,2.5 0 1 1 5,0 z"
       transform="translate(72.857143,-119.28571)" />
    <path
       sodipodi:type="arc"
       style="fill:#000000;fill-opacity:1;stroke:#000000;stroke-width:1;stroke-miterlimit:4;stroke-opacity:1;stroke-dasharray:none;stroke-dashoffset:0"
       id="path4539"
       sodipodi:cx="247.5"
       sodipodi:cy="284.86218"
       sodipodi:rx="2.5"
       sodipodi:ry="2.5"
       d="m 250,284.86218 a 2.5,2.5 0 1 1 -5,0 2.5,2.5 0 1 1 5,0 z"
       transform="translate(33.214286,-87.857143)" />
    <path
       sodipodi:type="arc"
       style="fill:#000000;fill-opacity:1;stroke:#000000;stroke-width:1;stroke-miterlimit:4;stroke-opacity:1;stroke-dasharray:none;stroke-dashoffset:0"
       id="path4541"
       sodipodi:cx="247.5"
       sodipodi:cy="294.86218"
       sodipodi:rx="2.5"
       sodipodi:ry="2.5"
       d="m 250,294.86218 a 2.5,2.5 0 1 1 -5,0 2.5,2.5 0 1 1 5,0 z"
       transform="translate(67.857143,-104.64286)" />
    <path
       sodipodi:type="arc"
       style="fill:#000000;fill-opacity:1;stroke:#000000;stroke-width:1;stroke-miterlimit:4;stroke-opacity:1;stroke-dasharray:none;stroke-dashoffset:0"
       id="path4543"
       sodipodi:cx="257.5"
       sodipodi:cy="284.86218"
       sodipodi:rx="2.5"
       sodipodi:ry="2.5"
       d="m 260,284.86218 a 2.5,2.5 0 1 1 -5,0 2.5,2.5 0 1 1 5,0 z"
       transform="translate(-6.4285715,-73.214285)" />
    <path
       sodipodi:type="arc"
       style="fill:#000000;fill-opacity:1;stroke:#000000;stroke-width:1;stroke-miterlimit:4;stroke-opacity:1;stroke-dasharray:none;stroke-dashoffset:0"
       id="path4545"
       sodipodi:cx="257.5"
       sodipodi:cy="294.86218"
       sodipodi:rx="2.5"
       sodipodi:ry="2.5"
       d="m 260,294.86218 a 2.5,2.5 0 1 1 -5,0 2.5,2.5 0 1 1 5,0 z"
       transform="translate(7.1428571,-105)" />
    <path
       sodipodi:type="arc"
       style="fill:#000000;fill-opacity:1;stroke:#000000;stroke-width:1;stroke-miterlimit:4;stroke-opacity:1;stroke-dasharray:none;stroke-dashoffset:0"
       id="path4547"
       sodipodi:cx="267.5"
       sodipodi:cy="284.86218"
       sodipodi:rx="2.5"
       sodipodi:ry="2.5"
       d="m 270,284.86218 a 2.5,2.5 0 1 1 -5,0 2.5,2.5 0 1 1 5,0 z"
       transform="translate(2.8571428,-69.285714)" />
    <path
       sodipodi:type="arc"
       style="fill:#000000;fill-opacity:1;stroke:#000000;stroke-width:1;stroke-miterlimit:4;stroke-opacity:1;stroke-dasharray:none;stroke-dashoffset:0"
       id="path4549"
       sodipodi:cx="267.5"
       sodipodi:cy="294.86218"
       sodipodi:rx="2.5"
       sodipodi:ry="2.5"
       d="m 270,294.86218 a 2.5,2.5 0 1 1 -5,0 2.5,2.5 0 1 1 5,0 z"
       transform="translate(32.5,-88.928571)" />
    <path
       sodipodi:type="arc"
       style="fill:#000000;fill-opacity:1;stroke:#000000;stroke-width:1;stroke-miterlimit:4;stroke-opacity:1;stroke-dasharray:none;stroke-dashoffset:0"
       id="path4551"
       sodipodi:cx="277.5"
       sodipodi:cy="284.86218"
       sodipodi:rx="2.5"
       sodipodi:ry="2.5"
       d="m 280,284.86218 a 2.5,2.5 0 1 1 -5,0 2.5,2.5 0 1 1 5,0 z"
       transform="translate(7.8571428,-34.285714)" />
    <path
       sodipodi:type="arc"
       style="fill:#000000;fill-opacity:1;stroke:#000000;stroke-width:1;stroke-miterlimit:4;stroke-opacity:1;stroke-dasharray:none;stroke-dashoffset:0"
       id="path4553"
       sodipodi:cx="277.5"
       sodipodi:cy="294.86218"
       sodipodi:rx="2.5"
       sodipodi:ry="2.5"
       d="m 280,294.86218 a 2.5,2.5 0 1 1 -5,0 2.5,2.5 0 1 1 5,0 z"
       transform="translate(7.5,-65)" />
    <path
       style="fill:none;stroke:#000000;stroke-width:1;stroke-linecap:butt;stroke-linejoin:miter;stroke-opacity:1;stroke-miterlimit:4;stroke-dasharray:6,2;stroke-dashoffset:0"
       d="m 110,397.36218 185,0"
       id="path4574"
       inkscape:connector-curvature="0" />
    <path
       style="fill:none;stroke:#000000;stroke-width:1px;stroke-linecap:butt;stroke-linejoin:miter;stroke-opacity:1"
       d="m 145,397.36218 -15,-10 -5,-15 -10,-15"
       id="path4576"
       inkscape:connector-curvature="0" />
    <path
       style="fill:none;stroke:#000000;stroke-width:1px;stroke-linecap:butt;stroke-linejoin:miter;stroke-opacity:1"
       d="m 125,372.36218 5,-15"
       id="path4578"
       inkscape:connector-curvature="0" />
    <path
       style="fill:none;stroke:#000000;stroke-width:1px;stroke-linecap:butt;stroke-linejoin:miter;stroke-opacity:1"
       d="m 145,397.36218 -5,-20 0,-15 -10,-15"
       id="path4580"
       inkscape:connector-curvature="0" />
    <path
       style="fill:none;stroke:#000000;stroke-width:1px;stroke-linecap:butt;stroke-linejoin:miter;stroke-opacity:1"
       d="m 140,377.36218 10,-15"
       id="path4582"
       inkscape:connector-curvature="0" />
    <path
       style="fill:none;stroke:#000000;stroke-width:1px;stroke-linecap:butt;stroke-linejoin:miter;stroke-opacity:1"
       d="m 145,397.36218 15,-15 5,-25"
       id="path4586"
       inkscape:connector-curvature="0" />
    <path
       style="fill:none;stroke:#000000;stroke-width:1px;stroke-linecap:butt;stroke-linejoin:miter;stroke-opacity:1"
       d="m 160,382.36218 15,-10"
       id="path4588"
       inkscape:connector-curvature="0" />
    <path
       style="fill:none;stroke:#000000;stroke-width:1px;stroke-linecap:butt;stroke-linejoin:miter;stroke-opacity:1"
       d="m 155,342.36218 10,15 10,-15"
       id="path4590"
       inkscape:connector-curvature="0" />
    <path
       style="fill:none;stroke:#000000;stroke-width:1px;stroke-linecap:butt;stroke-linejoin:miter;stroke-opacity:1"
       d="m 165,357.36218 0,-25"
       id="path4592"
       inkscape:connector-curvature="0" />
    <path
       style="fill:none;stroke:#000000;stroke-width:1px;stroke-linecap:butt;stroke-linejoin:miter;stroke-opacity:1"
       d="m 210,397.36218 0,-70 0,0 -20,-15 -20,5"
       id="path4594"
       inkscape:connector-curvature="0" />
    <path
       style="fill:none;stroke:#000000;stroke-width:1px;stroke-linecap:butt;stroke-linejoin:miter;stroke-opacity:1"
       d="m 265,317.36218 -15,-10 -20,5 -20,15 15,-30 20,-10 20,10"
       id="path4596"
       inkscape:connector-curvature="0" />
    <path
       style="fill:none;stroke:#000000;stroke-width:1px;stroke-linecap:butt;stroke-linejoin:miter;stroke-opacity:1"
       d="m 210,327.36218 -10,-25 -25,-5 -20,10"
       id="path4600"
       inkscape:connector-curvature="0" />
    <path
       style="fill:none;stroke:#000000;stroke-width:1px;stroke-linecap:butt;stroke-linejoin:miter;stroke-opacity:1"
       d="m 210,327.36218 -5,-30 -20,-10"
       id="path4602"
       inkscape:connector-curvature="0" />
    <path
       style="fill:none;stroke:#000000;stroke-width:1px;stroke-linecap:butt;stroke-linejoin:miter;stroke-opacity:1"
       d="m 205,297.36218 15,-15 15,-5"
       id="path4604"
       inkscape:connector-curvature="0" />
    <path
       style="fill:none;stroke:#000000;stroke-width:1px;stroke-linecap:butt;stroke-linejoin:miter;stroke-opacity:1"
       d="m 275,372.36218 5,-20 -5,-20 10,-20"
       id="path4608"
       inkscape:connector-curvature="0" />
    <path
       sodipodi:type="arc"
       style="fill:#000000;fill-opacity:1;stroke:#000000;stroke-width:1;stroke-miterlimit:4;stroke-opacity:1;stroke-dasharray:none;stroke-dashoffset:0"
       id="path4610"
       sodipodi:cx="322.5"
       sodipodi:cy="294.86218"
       sodipodi:rx="2.5"
       sodipodi:ry="2.5"
       d="m 325,294.86218 a 2.5,2.5 0 1 1 -5,0 2.5,2.5 0 1 1 5,0 z"
       transform="translate(-96.974644,3.0304576)" />
    <path
       sodipodi:type="arc"
       style="fill:#000000;fill-opacity:1;stroke:#000000;stroke-width:1;stroke-miterlimit:4;stroke-opacity:1;stroke-dasharray:none;stroke-dashoffset:0"
       id="path4612"
       sodipodi:cx="322.5"
       sodipodi:cy="304.86218"
       sodipodi:rx="2.5"
       sodipodi:ry="2.5"
       d="m 325,304.86218 a 2.5,2.5 0 1 1 -5,0 2.5,2.5 0 1 1 5,0 z"
       transform="translate(-147.48227,-7.5761441)" />
    <path
       sodipodi:type="arc"
       style="fill:#000000;fill-opacity:1;stroke:#000000;stroke-width:1;stroke-miterlimit:4;stroke-opacity:1;stroke-dasharray:none;stroke-dashoffset:0"
       id="path4614"
       sodipodi:cx="322.5"
       sodipodi:cy="314.86218"
       sodipodi:rx="2.5"
       sodipodi:ry="2.5"
       d="m 325,314.86218 a 2.5,2.5 0 1 1 -5,0 2.5,2.5 0 1 1 5,0 z"
       transform="translate(-146.9772,27.274119)" />
    <path
       sodipodi:type="arc"
       style="fill:#000000;fill-opacity:1;stroke:#000000;stroke-width:1;stroke-miterlimit:4;stroke-opacity:1;stroke-dasharray:none;stroke-dashoffset:0"
       id="path4616"
       sodipodi:cx="322.5"
       sodipodi:cy="324.86218"
       sodipodi:rx="2.5"
       sodipodi:ry="2.5"
       d="m 325,324.86218 a 2.5,2.5 0 1 1 -5,0 2.5,2.5 0 1 1 5,0 z"
       transform="translate(-168.1904,16.667517)" />
    <path
       sodipodi:type="arc"
       style="fill:#000000;fill-opacity:1;stroke:#000000;stroke-width:1;stroke-miterlimit:4;stroke-opacity:1;stroke-dasharray:none;stroke-dashoffset:0"
       id="path4618"
       sodipodi:cx="322.5"
       sodipodi:cy="334.86218"
       sodipodi:rx="2.5"
       sodipodi:ry="2.5"
       d="m 325,334.86218 a 2.5,2.5 0 1 1 -5,0 2.5,2.5 0 1 1 5,0 z"
       transform="translate(-193.44421,24.243661)" />
    <path
       sodipodi:type="arc"
       style="fill:#000000;fill-opacity:1;stroke:#000000;stroke-width:1;stroke-miterlimit:4;stroke-opacity:1;stroke-dasharray:none;stroke-dashoffset:0"
       id="path4620"
       sodipodi:cx="322.5"
       sodipodi:cy="344.86218"
       sodipodi:rx="2.5"
       sodipodi:ry="2.5"
       d="m 325,344.86218 a 2.5,2.5 0 1 1 -5,0 2.5,2.5 0 1 1 5,0 z"
       transform="translate(-197.9899,26.769042)" />
    <path
       sodipodi:type="arc"
       style="fill:#000000;fill-opacity:1;stroke:#000000;stroke-width:1;stroke-miterlimit:4;stroke-opacity:1;stroke-dasharray:none;stroke-dashoffset:0"
       id="path4622"
       sodipodi:cx="322.5"
       sodipodi:cy="354.86218"
       sodipodi:rx="2.5"
       sodipodi:ry="2.5"
       d="m 325,354.86218 a 2.5,2.5 0 1 1 -5,0 2.5,2.5 0 1 1 5,0 z"
       transform="translate(-178.29192,41.921331)" />
    <path
       sodipodi:type="arc"
       style="fill:#000000;fill-opacity:1;stroke:#000000;stroke-width:1;stroke-miterlimit:4;stroke-opacity:1;stroke-dasharray:none;stroke-dashoffset:0"
       id="path4624"
       sodipodi:cx="322.5"
       sodipodi:cy="364.86218"
       sodipodi:rx="2.5"
       sodipodi:ry="2.5"
       d="m 325,364.86218 a 2.5,2.5 0 1 1 -5,0 2.5,2.5 0 1 1 5,0 z"
       transform="translate(-91.418805,-52.527932)" />
    <path
       sodipodi:type="arc"
       style="fill:#000000;fill-opacity:1;stroke:#000000;stroke-width:1;stroke-miterlimit:4;stroke-opacity:1;stroke-dasharray:none;stroke-dashoffset:0"
       id="path4626"
       sodipodi:cx="322.5"
       sodipodi:cy="374.86218"
       sodipodi:rx="2.5"
       sodipodi:ry="2.5"
       d="m 325,374.86218 a 2.5,2.5 0 1 1 -5,0 2.5,2.5 0 1 1 5,0 z" />
    <path
       sodipodi:type="arc"
       style="fill:#000000;fill-opacity:1;stroke:#000000;stroke-width:1;stroke-miterlimit:4;stroke-opacity:1;stroke-dasharray:none;stroke-dashoffset:0"
       id="path4628"
       sodipodi:cx="322.5"
       sodipodi:cy="384.86218"
       sodipodi:rx="2.5"
       sodipodi:ry="2.5"
       d="m 325,384.86218 a 2.5,2.5 0 1 1 -5,0 2.5,2.5 0 1 1 5,0 z" />
    <path
       sodipodi:type="arc"
       style="fill:#000000;fill-opacity:1;stroke:#000000;stroke-width:1;stroke-miterlimit:4;stroke-opacity:1;stroke-dasharray:none;stroke-dashoffset:0"
       id="path4630"
       sodipodi:cx="322.5"
       sodipodi:cy="394.86218"
       sodipodi:rx="2.5"
       sodipodi:ry="2.5"
       d="m 325,394.86218 a 2.5,2.5 0 1 1 -5,0 2.5,2.5 0 1 1 5,0 z" />
    <path
       sodipodi:type="arc"
       style="fill:#000000;fill-opacity:1;stroke:#000000;stroke-width:1;stroke-miterlimit:4;stroke-opacity:1;stroke-dasharray:none;stroke-dashoffset:0"
       id="path4632"
       sodipodi:cx="322.5"
       sodipodi:cy="404.86218"
       sodipodi:rx="2.5"
       sodipodi:ry="2.5"
       d="m 325,404.86218 a 2.5,2.5 0 1 1 -5,0 2.5,2.5 0 1 1 5,0 z" />
    <path
       sodipodi:type="arc"
       style="fill:#000000;fill-opacity:1;stroke:#000000;stroke-width:1;stroke-miterlimit:4;stroke-opacity:1;stroke-dasharray:none;stroke-dashoffset:0"
       id="path4634"
       sodipodi:cx="322.5"
       sodipodi:cy="414.86218"
       sodipodi:rx="2.5"
       sodipodi:ry="2.5"
       d="m 325,414.86218 a 2.5,2.5 0 1 1 -5,0 2.5,2.5 0 1 1 5,0 z" />
    <path
       sodipodi:type="arc"
       style="fill:#000000;fill-opacity:1;stroke:#000000;stroke-width:1;stroke-miterlimit:4;stroke-opacity:1;stroke-dasharray:none;stroke-dashoffset:0"
       id="path4636"
       sodipodi:cx="332.5"
       sodipodi:cy="294.86218"
       sodipodi:rx="2.5"
       sodipodi:ry="2.5"
       d="m 335,294.86218 a 2.5,2.5 0 1 1 -5,0 2.5,2.5 0 1 1 5,0 z"
       transform="translate(-96.469568,-17.67767)" />
    <path
       sodipodi:type="arc"
       style="fill:#000000;fill-opacity:1;stroke:#000000;stroke-width:1;stroke-miterlimit:4;stroke-opacity:1;stroke-dasharray:none;stroke-dashoffset:0"
       id="path4638"
       sodipodi:cx="332.5"
       sodipodi:cy="304.86218"
       sodipodi:rx="2.5"
       sodipodi:ry="2.5"
       d="m 335,304.86218 a 2.5,2.5 0 1 1 -5,0 2.5,2.5 0 1 1 5,0 z"
       transform="translate(-176.7767,3.0304576)" />
    <path
       sodipodi:type="arc"
       style="fill:#000000;fill-opacity:1;stroke:#000000;stroke-width:1;stroke-miterlimit:4;stroke-opacity:1;stroke-dasharray:none;stroke-dashoffset:0"
       id="path4640"
       sodipodi:cx="332.5"
       sodipodi:cy="314.86218"
       sodipodi:rx="2.5"
       sodipodi:ry="2.5"
       d="m 335,314.86218 a 2.5,2.5 0 1 1 -5,0 2.5,2.5 0 1 1 5,0 z"
       transform="translate(-167.18025,17.172593)" />
    <path
       sodipodi:type="arc"
       style="fill:#000000;fill-opacity:1;stroke:#000000;stroke-width:1;stroke-miterlimit:4;stroke-opacity:1;stroke-dasharray:none;stroke-dashoffset:0"
       id="path4642"
       sodipodi:cx="332.5"
       sodipodi:cy="324.86218"
       sodipodi:rx="2.5"
       sodipodi:ry="2.5"
       d="m 335,324.86218 a 2.5,2.5 0 1 1 -5,0 2.5,2.5 0 1 1 5,0 z"
       transform="translate(-168.69548,32.324881)" />
    <path
       sodipodi:type="arc"
       style="fill:#000000;fill-opacity:1;stroke:#000000;stroke-width:1;stroke-miterlimit:4;stroke-opacity:1;stroke-dasharray:none;stroke-dashoffset:0"
       id="path4644"
       sodipodi:cx="332.5"
       sodipodi:cy="334.86218"
       sodipodi:rx="2.5"
       sodipodi:ry="2.5"
       d="m 335,334.86218 a 2.5,2.5 0 1 1 -5,0 2.5,2.5 0 1 1 5,0 z"
       transform="translate(-218.19295,20.203051)" />
    <path
       sodipodi:type="arc"
       style="fill:#000000;fill-opacity:1;stroke:#000000;stroke-width:1;stroke-miterlimit:4;stroke-opacity:1;stroke-dasharray:none;stroke-dashoffset:0"
       id="path4646"
       sodipodi:cx="332.5"
       sodipodi:cy="344.86218"
       sodipodi:rx="2.5"
       sodipodi:ry="2.5"
       d="m 335,344.86218 a 2.5,2.5 0 1 1 -5,0 2.5,2.5 0 1 1 5,0 z"
       transform="translate(-192.93914,31.314729)" />
    <path
       sodipodi:type="arc"
       style="fill:#000000;fill-opacity:1;stroke:#000000;stroke-width:1;stroke-miterlimit:4;stroke-opacity:1;stroke-dasharray:none;stroke-dashoffset:0"
       id="path4648"
       sodipodi:cx="332.5"
       sodipodi:cy="354.86218"
       sodipodi:rx="2.5"
       sodipodi:ry="2.5"
       d="m 335,354.86218 a 2.5,2.5 0 1 1 -5,0 2.5,2.5 0 1 1 5,0 z"
       transform="translate(-82.832509,-46.467017)" />
    <path
       sodipodi:type="arc"
       style="fill:#000000;fill-opacity:1;stroke:#000000;stroke-width:1;stroke-miterlimit:4;stroke-opacity:1;stroke-dasharray:none;stroke-dashoffset:0"
       id="path4650"
       sodipodi:cx="332.5"
       sodipodi:cy="364.86218"
       sodipodi:rx="2.5"
       sodipodi:ry="2.5"
       d="m 335,364.86218 a 2.5,2.5 0 1 1 -5,0 2.5,2.5 0 1 1 5,0 z" />
    <path
       sodipodi:type="arc"
       style="fill:#000000;fill-opacity:1;stroke:#000000;stroke-width:1;stroke-miterlimit:4;stroke-opacity:1;stroke-dasharray:none;stroke-dashoffset:0"
       id="path4652"
       sodipodi:cx="332.5"
       sodipodi:cy="374.86218"
       sodipodi:rx="2.5"
       sodipodi:ry="2.5"
       d="m 335,374.86218 a 2.5,2.5 0 1 1 -5,0 2.5,2.5 0 1 1 5,0 z" />
    <path
       sodipodi:type="arc"
       style="fill:#000000;fill-opacity:1;stroke:#000000;stroke-width:1;stroke-miterlimit:4;stroke-opacity:1;stroke-dasharray:none;stroke-dashoffset:0"
       id="path4654"
       sodipodi:cx="332.5"
       sodipodi:cy="384.86218"
       sodipodi:rx="2.5"
       sodipodi:ry="2.5"
       d="m 335,384.86218 a 2.5,2.5 0 1 1 -5,0 2.5,2.5 0 1 1 5,0 z"
       transform="translate(-122.73353,-36.365492)" />
    <path
       sodipodi:type="arc"
       style="fill:#000000;fill-opacity:1;stroke:#000000;stroke-width:1;stroke-miterlimit:4;stroke-opacity:1;stroke-dasharray:none;stroke-dashoffset:0"
       id="path4656"
       sodipodi:cx="332.5"
       sodipodi:cy="394.86218"
       sodipodi:rx="2.5"
       sodipodi:ry="2.5"
       d="m 335,394.86218 a 2.5,2.5 0 1 1 -5,0 2.5,2.5 0 1 1 5,0 z" />
    <path
       sodipodi:type="arc"
       style="fill:#000000;fill-opacity:1;stroke:#000000;stroke-width:1;stroke-miterlimit:4;stroke-opacity:1;stroke-dasharray:none;stroke-dashoffset:0"
       id="path4658"
       sodipodi:cx="332.5"
       sodipodi:cy="404.86218"
       sodipodi:rx="2.5"
       sodipodi:ry="2.5"
       d="m 335,404.86218 a 2.5,2.5 0 1 1 -5,0 2.5,2.5 0 1 1 5,0 z"
       transform="translate(10.606601,-21.71828)" />
    <path
       sodipodi:type="arc"
       style="fill:#000000;fill-opacity:1;stroke:#000000;stroke-width:1;stroke-miterlimit:4;stroke-opacity:1;stroke-dasharray:none;stroke-dashoffset:0"
       id="path4660"
       sodipodi:cx="332.5"
       sodipodi:cy="414.86218"
       sodipodi:rx="2.5"
       sodipodi:ry="2.5"
       d="m 335,414.86218 a 2.5,2.5 0 1 1 -5,0 2.5,2.5 0 1 1 5,0 z"
       transform="translate(-122.22846,-18.182746)" />
    <path
       sodipodi:type="arc"
       style="fill:#000000;fill-opacity:1;stroke:#000000;stroke-width:1;stroke-miterlimit:4;stroke-opacity:1;stroke-dasharray:none;stroke-dashoffset:0"
       id="path4662"
       sodipodi:cx="342.5"
       sodipodi:cy="294.86218"
       sodipodi:rx="2.5"
       sodipodi:ry="2.5"
       d="m 345,294.86218 a 2.5,2.5 0 1 1 -5,0 2.5,2.5 0 1 1 5,0 z"
       transform="translate(-122.22846,-12.121831)" />
    <path
       sodipodi:type="arc"
       style="fill:#000000;fill-opacity:1;stroke:#000000;stroke-width:1;stroke-miterlimit:4;stroke-opacity:1;stroke-dasharray:none;stroke-dashoffset:0"
       id="path4664"
       sodipodi:cx="342.5"
       sodipodi:cy="304.86218"
       sodipodi:rx="2.5"
       sodipodi:ry="2.5"
       d="m 345,304.86218 a 2.5,2.5 0 1 1 -5,0 2.5,2.5 0 1 1 5,0 z"
       transform="translate(-143.44166,-1.0101525)" />
    <path
       sodipodi:type="arc"
       style="fill:#000000;fill-opacity:1;stroke:#000000;stroke-width:1;stroke-miterlimit:4;stroke-opacity:1;stroke-dasharray:none;stroke-dashoffset:0"
       id="path4666"
       sodipodi:cx="342.5"
       sodipodi:cy="314.86218"
       sodipodi:rx="2.5"
       sodipodi:ry="2.5"
       d="m 345,314.86218 a 2.5,2.5 0 1 1 -5,0 2.5,2.5 0 1 1 5,0 z"
       transform="translate(-172.73609,3.5355339)" />
    <path
       sodipodi:type="arc"
       style="fill:#000000;fill-opacity:1;stroke:#000000;stroke-width:1;stroke-miterlimit:4;stroke-opacity:1;stroke-dasharray:none;stroke-dashoffset:0"
       id="path4668"
       sodipodi:cx="342.5"
       sodipodi:cy="324.86218"
       sodipodi:rx="2.5"
       sodipodi:ry="2.5"
       d="m 345,324.86218 a 2.5,2.5 0 1 1 -5,0 2.5,2.5 0 1 1 5,0 z"
       transform="translate(-168.1904,47.982246)" />
    <path
       sodipodi:type="arc"
       style="fill:#000000;fill-opacity:1;stroke:#000000;stroke-width:1;stroke-miterlimit:4;stroke-opacity:1;stroke-dasharray:none;stroke-dashoffset:0"
       id="path4670"
       sodipodi:cx="342.5"
       sodipodi:cy="334.86218"
       sodipodi:rx="2.5"
       sodipodi:ry="2.5"
       d="m 345,334.86218 a 2.5,2.5 0 1 1 -5,0 2.5,2.5 0 1 1 5,0 z"
       transform="translate(-202.53559,27.274119)" />
    <path
       sodipodi:type="arc"
       style="fill:#000000;fill-opacity:1;stroke:#000000;stroke-width:1;stroke-miterlimit:4;stroke-opacity:1;stroke-dasharray:none;stroke-dashoffset:0"
       id="path4672"
       sodipodi:cx="342.5"
       sodipodi:cy="344.86218"
       sodipodi:rx="2.5"
       sodipodi:ry="2.5"
       d="m 345,344.86218 a 2.5,2.5 0 1 1 -5,0 2.5,2.5 0 1 1 5,0 z"
       transform="translate(-181.82746,36.870568)" />
    <path
       sodipodi:type="arc"
       style="fill:#000000;fill-opacity:1;stroke:#000000;stroke-width:1;stroke-miterlimit:4;stroke-opacity:1;stroke-dasharray:none;stroke-dashoffset:0"
       id="path4674"
       sodipodi:cx="342.5"
       sodipodi:cy="354.86218"
       sodipodi:rx="2.5"
       sodipodi:ry="2.5"
       d="m 345,354.86218 a 2.5,2.5 0 1 1 -5,0 2.5,2.5 0 1 1 5,0 z" />
    <path
       sodipodi:type="arc"
       style="fill:#000000;fill-opacity:1;stroke:#000000;stroke-width:1;stroke-miterlimit:4;stroke-opacity:1;stroke-dasharray:none;stroke-dashoffset:0"
       id="path4676"
       sodipodi:cx="342.5"
       sodipodi:cy="364.86218"
       sodipodi:rx="2.5"
       sodipodi:ry="2.5"
       d="m 345,364.86218 a 2.5,2.5 0 1 1 -5,0 2.5,2.5 0 1 1 5,0 z" />
    <path
       sodipodi:type="arc"
       style="fill:#000000;fill-opacity:1;stroke:#000000;stroke-width:1;stroke-miterlimit:4;stroke-opacity:1;stroke-dasharray:none;stroke-dashoffset:0"
       id="path4678"
       sodipodi:cx="342.5"
       sodipodi:cy="374.86218"
       sodipodi:rx="2.5"
       sodipodi:ry="2.5"
       d="m 345,374.86218 a 2.5,2.5 0 1 1 -5,0 2.5,2.5 0 1 1 5,0 z" />
    <path
       sodipodi:type="arc"
       style="fill:#000000;fill-opacity:1;stroke:#000000;stroke-width:1;stroke-miterlimit:4;stroke-opacity:1;stroke-dasharray:none;stroke-dashoffset:0"
       id="path4680"
       sodipodi:cx="342.5"
       sodipodi:cy="384.86218"
       sodipodi:rx="2.5"
       sodipodi:ry="2.5"
       d="m 345,384.86218 a 2.5,2.5 0 1 1 -5,0 2.5,2.5 0 1 1 5,0 z"
       transform="translate(-132.32998,-57.578695)" />
    <path
       sodipodi:type="arc"
       style="fill:#000000;fill-opacity:1;stroke:#000000;stroke-width:1;stroke-miterlimit:4;stroke-opacity:1;stroke-dasharray:none;stroke-dashoffset:0"
       id="path4682"
       sodipodi:cx="342.5"
       sodipodi:cy="394.86218"
       sodipodi:rx="2.5"
       sodipodi:ry="2.5"
       d="m 345,394.86218 a 2.5,2.5 0 1 1 -5,0 2.5,2.5 0 1 1 5,0 z"
       transform="translate(-62.629458,-42.931483)" />
    <path
       sodipodi:type="arc"
       style="fill:#000000;fill-opacity:1;stroke:#000000;stroke-width:1;stroke-miterlimit:4;stroke-opacity:1;stroke-dasharray:none;stroke-dashoffset:0"
       id="path4684"
       sodipodi:cx="342.5"
       sodipodi:cy="404.86218"
       sodipodi:rx="2.5"
       sodipodi:ry="2.5"
       d="m 345,404.86218 a 2.5,2.5 0 1 1 -5,0 2.5,2.5 0 1 1 5,0 z"
       transform="translate(-67.680221,-33.84011)" />
    <path
       sodipodi:type="arc"
       style="fill:#000000;fill-opacity:1;stroke:#000000;stroke-width:1;stroke-miterlimit:4;stroke-opacity:1;stroke-dasharray:none;stroke-dashoffset:0"
       id="path4686"
       sodipodi:cx="342.5"
       sodipodi:cy="414.86218"
       sodipodi:rx="2.5"
       sodipodi:ry="2.5"
       d="m 345,414.86218 a 2.5,2.5 0 1 1 -5,0 2.5,2.5 0 1 1 5,0 z"
       transform="translate(-132.32998,-42.426407)" />
    <path
       sodipodi:type="arc"
       style="fill:#000000;fill-opacity:1;stroke:#000000;stroke-width:1;stroke-miterlimit:4;stroke-opacity:1;stroke-dasharray:none;stroke-dashoffset:0"
       id="path4688"
       sodipodi:cx="352.5"
       sodipodi:cy="294.86218"
       sodipodi:rx="2.5"
       sodipodi:ry="2.5"
       d="m 355,294.86218 a 2.5,2.5 0 1 1 -5,0 2.5,2.5 0 1 1 5,0 z"
       transform="translate(-147.48227,2.5253814)" />
    <path
       sodipodi:type="arc"
       style="fill:#000000;fill-opacity:1;stroke:#000000;stroke-width:1;stroke-miterlimit:4;stroke-opacity:1;stroke-dasharray:none;stroke-dashoffset:0"
       id="path4690"
       sodipodi:cx="352.5"
       sodipodi:cy="304.86218"
       sodipodi:rx="2.5"
       sodipodi:ry="2.5"
       d="m 355,304.86218 a 2.5,2.5 0 1 1 -5,0 2.5,2.5 0 1 1 5,0 z"
       transform="translate(-167.68532,-17.172593)" />
    <path
       sodipodi:type="arc"
       style="fill:#000000;fill-opacity:1;stroke:#000000;stroke-width:1;stroke-miterlimit:4;stroke-opacity:1;stroke-dasharray:none;stroke-dashoffset:0"
       id="path4692"
       sodipodi:cx="352.5"
       sodipodi:cy="314.86218"
       sodipodi:rx="2.5"
       sodipodi:ry="2.5"
       d="m 355,314.86218 a 2.5,2.5 0 1 1 -5,0 2.5,2.5 0 1 1 5,0 z"
       transform="translate(-162.63456,-1.5152288)" />
    <path
       sodipodi:type="arc"
       style="fill:#000000;fill-opacity:1;stroke:#000000;stroke-width:1;stroke-miterlimit:4;stroke-opacity:1;stroke-dasharray:none;stroke-dashoffset:0"
       id="path4694"
       sodipodi:cx="352.5"
       sodipodi:cy="324.86218"
       sodipodi:rx="2.5"
       sodipodi:ry="2.5"
       d="m 355,324.86218 a 2.5,2.5 0 1 1 -5,0 2.5,2.5 0 1 1 5,0 z"
       transform="translate(-201.02036,36.870568)" />
    <path
       sodipodi:type="arc"
       style="fill:#000000;fill-opacity:1;stroke:#000000;stroke-width:1;stroke-miterlimit:4;stroke-opacity:1;stroke-dasharray:none;stroke-dashoffset:0"
       id="path4696"
       sodipodi:cx="352.5"
       sodipodi:cy="334.86218"
       sodipodi:rx="2.5"
       sodipodi:ry="2.5"
       d="m 355,334.86218 a 2.5,2.5 0 1 1 -5,0 2.5,2.5 0 1 1 5,0 z"
       transform="translate(-223.74879,11.111678)" />
    <path
       sodipodi:type="arc"
       style="fill:#000000;fill-opacity:1;stroke:#000000;stroke-width:1;stroke-miterlimit:4;stroke-opacity:1;stroke-dasharray:none;stroke-dashoffset:0"
       id="path4698"
       sodipodi:cx="352.5"
       sodipodi:cy="344.86218"
       sodipodi:rx="2.5"
       sodipodi:ry="2.5"
       d="m 355,344.86218 a 2.5,2.5 0 1 1 -5,0 2.5,2.5 0 1 1 5,0 z"
       transform="translate(-106.57109,-56.063466)" />
    <path
       sodipodi:type="arc"
       style="fill:#000000;fill-opacity:1;stroke:#000000;stroke-width:1;stroke-miterlimit:4;stroke-opacity:1;stroke-dasharray:none;stroke-dashoffset:0"
       id="path4700"
       sodipodi:cx="352.5"
       sodipodi:cy="354.86218"
       sodipodi:rx="2.5"
       sodipodi:ry="2.5"
       d="m 355,354.86218 a 2.5,2.5 0 1 1 -5,0 2.5,2.5 0 1 1 5,0 z"
       transform="translate(-86.368043,-73.23606)" />
    <path
       sodipodi:type="arc"
       style="fill:#000000;fill-opacity:1;stroke:#000000;stroke-width:1;stroke-miterlimit:4;stroke-opacity:1;stroke-dasharray:none;stroke-dashoffset:0"
       id="path4702"
       sodipodi:cx="352.5"
       sodipodi:cy="364.86218"
       sodipodi:rx="2.5"
       sodipodi:ry="2.5"
       d="m 355,364.86218 a 2.5,2.5 0 1 1 -5,0 2.5,2.5 0 1 1 5,0 z"
       transform="translate(-87.378195,-46.972093)" />
    <path
       sodipodi:type="arc"
       style="fill:#000000;fill-opacity:1;stroke:#000000;stroke-width:1;stroke-miterlimit:4;stroke-opacity:1;stroke-dasharray:none;stroke-dashoffset:0"
       id="path4704"
       sodipodi:cx="352.5"
       sodipodi:cy="374.86218"
       sodipodi:rx="2.5"
       sodipodi:ry="2.5"
       d="m 355,374.86218 a 2.5,2.5 0 1 1 -5,0 2.5,2.5 0 1 1 5,0 z"
       transform="translate(-86.873119,-76.771593)" />
    <path
       sodipodi:type="arc"
       style="fill:#000000;fill-opacity:1;stroke:#000000;stroke-width:1;stroke-miterlimit:4;stroke-opacity:1;stroke-dasharray:none;stroke-dashoffset:0"
       id="path4706"
       sodipodi:cx="352.5"
       sodipodi:cy="384.86218"
       sodipodi:rx="2.5"
       sodipodi:ry="2.5"
       d="m 355,384.86218 a 2.5,2.5 0 1 1 -5,0 2.5,2.5 0 1 1 5,0 z"
       transform="translate(-67.680221,-73.23606)" />
    <path
       sodipodi:type="arc"
       style="fill:#000000;fill-opacity:1;stroke:#000000;stroke-width:1;stroke-miterlimit:4;stroke-opacity:1;stroke-dasharray:none;stroke-dashoffset:0"
       id="path4708"
       sodipodi:cx="352.5"
       sodipodi:cy="394.86218"
       sodipodi:rx="2.5"
       sodipodi:ry="2.5"
       d="m 355,394.86218 a 2.5,2.5 0 1 1 -5,0 2.5,2.5 0 1 1 5,0 z"
       transform="translate(-92.934034,-42.426407)" />
    <path
       sodipodi:type="arc"
       style="fill:#000000;fill-opacity:1;stroke:#000000;stroke-width:1;stroke-miterlimit:4;stroke-opacity:1;stroke-dasharray:none;stroke-dashoffset:0"
       id="path4710"
       sodipodi:cx="352.5"
       sodipodi:cy="404.86218"
       sodipodi:rx="2.5"
       sodipodi:ry="2.5"
       d="m 355,404.86218 a 2.5,2.5 0 1 1 -5,0 2.5,2.5 0 1 1 5,0 z"
       transform="translate(-76.266517,-72.225907)" />
    <path
       sodipodi:type="arc"
       style="fill:#000000;fill-opacity:1;stroke:#000000;stroke-width:1;stroke-miterlimit:4;stroke-opacity:1;stroke-dasharray:none;stroke-dashoffset:0"
       id="path4712"
       sodipodi:cx="352.5"
       sodipodi:cy="414.86218"
       sodipodi:rx="2.5"
       sodipodi:ry="2.5"
       d="m 355,414.86218 a 2.5,2.5 0 1 1 -5,0 2.5,2.5 0 1 1 5,0 z"
       transform="translate(-77.27667,-18.182746)" />
    <path
       style="fill:none;stroke:#000000;stroke-width:1px;stroke-linecap:butt;stroke-linejoin:miter;stroke-opacity:1"
       d="m 274.76149,396.77318 0,-26.26397 -15.15229,-19.19289"
       id="path4714"
       inkscape:connector-curvature="0" />
    <path
       style="fill:none;stroke:#000000;stroke-width:1px;stroke-linecap:butt;stroke-linejoin:miter;stroke-opacity:1"
       d="m 245.97214,288.18178 20.20306,-6.56599 0,0 0,0"
       id="path4716"
       inkscape:connector-curvature="0" />
  </g>
</svg>
