<?xml version="1.0" encoding="UTF-8" standalone="no"?>
<!-- Created with Inkscape (http://www.inkscape.org/) -->

<svg
   xmlns:dc="http://purl.org/dc/elements/1.1/"
   xmlns:cc="http://creativecommons.org/ns#"
   xmlns:rdf="http://www.w3.org/1999/02/22-rdf-syntax-ns#"
   xmlns:svg="http://www.w3.org/2000/svg"
   xmlns="http://www.w3.org/2000/svg"
   xmlns:sodipodi="http://sodipodi.sourceforge.net/DTD/sodipodi-0.dtd"
   xmlns:inkscape="http://www.inkscape.org/namespaces/inkscape"
   width="744.09448819"
   height="1052.3622047"
   id="svg2"
   version="1.1"
   inkscape:version="0.48.1 r9760"
   sodipodi:docname="volley.png">
  <defs
     id="defs4" />
  <sodipodi:namedview
     id="base"
     pagecolor="#ffffff"
     bordercolor="#666666"
     borderopacity="1.0"
     inkscape:pageopacity="0.0"
     inkscape:pageshadow="2"
     inkscape:zoom="1.4"
     inkscape:cx="210.38639"
     inkscape:cy="855.08349"
     inkscape:document-units="px"
     inkscape:current-layer="layer1"
     showgrid="false"
     inkscape:window-width="1338"
     inkscape:window-height="760"
     inkscape:window-x="0"
     inkscape:window-y="0"
     inkscape:window-maximized="0">
    <inkscape:grid
       type="xygrid"
       id="grid2985" />
  </sodipodi:namedview>
  <metadata
     id="metadata7">
    <rdf:RDF>
      <cc:Work
         rdf:about="">
        <dc:format>image/svg+xml</dc:format>
        <dc:type
           rdf:resource="http://purl.org/dc/dcmitype/StillImage" />
        <dc:title></dc:title>
      </cc:Work>
    </rdf:RDF>
  </metadata>
  <g
     inkscape:label="Layer 1"
     inkscape:groupmode="layer"
     id="layer1">
    <path
       style="fill:none;stroke:#000000;stroke-width:2.08302259;stroke-linecap:butt;stroke-linejoin:miter;stroke-miterlimit:4;stroke-opacity:1;stroke-dasharray:12.49813557,4.16604519;stroke-dashoffset:0"
       d="m 30,312.36218 c 640,0 640,0 640,0 l 0,0 0,0 0,0 0,0 0,0"
       id="path2987"
       inkscape:connector-curvature="0" />
    <path
       style="fill:none;stroke:#000000;stroke-width:2.5;stroke-linecap:butt;stroke-linejoin:miter;stroke-opacity:1;stroke-miterlimit:4;stroke-dasharray:none"
       d="m 380,312.36218 0,-190 0,0"
       id="path3757"
       inkscape:connector-curvature="0" />
    <path
       style="fill:none;stroke:#000000;stroke-width:2;stroke-linecap:butt;stroke-linejoin:miter;stroke-opacity:1;stroke-miterlimit:4;stroke-dasharray:none"
       d="m 370,112.36218 40,30 10,50 -20,40 20,30"
       id="path3759"
       inkscape:connector-curvature="0"
       sodipodi:nodetypes="ccccc" />
    <path
       style="fill:none;stroke:#000000;stroke-width:2;stroke-linecap:butt;stroke-linejoin:miter;stroke-opacity:1;stroke-miterlimit:4;stroke-dasharray:none"
       d="m 420,192.36218 c 10,40 50,50 50,50"
       id="path3761"
       inkscape:connector-curvature="0"
       sodipodi:nodetypes="cc" />
    <path
       style="fill:none;stroke:#000000;stroke-width:2;stroke-linecap:butt;stroke-linejoin:miter;stroke-miterlimit:4;stroke-opacity:1;stroke-dasharray:none"
       d="m 450,192.36218 -16.07143,-27.5 -23.92857,-22.5 0,-10 0,0"
       id="path3763"
       inkscape:connector-curvature="0"
       sodipodi:nodetypes="ccccc" />
    <path
       sodipodi:type="arc"
       style="fill:none;stroke:#000000;stroke-width:2;stroke-miterlimit:4;stroke-opacity:1;stroke-dasharray:none;stroke-dashoffset:0"
       id="path3765"
       sodipodi:cx="410"
       sodipodi:cy="117.36218"
       sodipodi:rx="10"
       sodipodi:ry="15"
       d="m 420,117.36218 a 10,15 0 1 1 -20,0 10,15 0 1 1 20,0 z"
       transform="matrix(0.96592583,0.25881905,-0.25881905,0.96592583,48.345979,-102.11679)" />
    <path
       sodipodi:type="arc"
       style="fill:none;stroke:#000000;stroke-width:2;stroke-miterlimit:4;stroke-opacity:1;stroke-dasharray:none;stroke-dashoffset:0"
       id="path3767"
       sodipodi:cx="355"
       sodipodi:cy="97.362183"
       sodipodi:rx="15"
       sodipodi:ry="15"
       d="m 370,97.362183 a 15,15 0 1 1 -30,0 15,15 0 1 1 30,0 z"
       transform="translate(0,15)" />
    <path
       style="fill:none;stroke:#000000;stroke-width:2;stroke-linecap:butt;stroke-linejoin:miter;stroke-opacity:1;stroke-miterlimit:4;stroke-dasharray:none"
       d="m 310,312.36218 10,-40 -20,-40 -10,40 -20,40 0,0"
       id="path3769"
       inkscape:connector-curvature="0" />
    <path
       style="fill:none;stroke:#000000;stroke-width:2;stroke-linecap:butt;stroke-linejoin:miter;stroke-opacity:1;stroke-miterlimit:4;stroke-dasharray:none"
       d="m 300,232.36218 c 10,-40 0,-60 0,-60 l 0,-10 0,0"
       id="path3771"
       inkscape:connector-curvature="0" />
    <path
       style="fill:none;stroke:#000000;stroke-width:2;stroke-linecap:butt;stroke-linejoin:miter;stroke-miterlimit:4;stroke-opacity:1;stroke-dasharray:none"
       d="m 330.71429,125.93361 0,30 -30,20 -30,-20 -10,-30 0,0"
       id="path3773"
       inkscape:connector-curvature="0"
       sodipodi:nodetypes="cccccc" />
    <path
       sodipodi:type="arc"
       style="fill:none;stroke:#000000;stroke-width:2;stroke-miterlimit:4;stroke-opacity:1;stroke-dasharray:none;stroke-dashoffset:0"
       id="path3775"
       sodipodi:cx="300"
       sodipodi:cy="137.36218"
       sodipodi:rx="10"
       sodipodi:ry="15"
       d="m 310,137.36218 a 10,15 0 1 1 -20,0 10,15 0 1 1 20,0 z"
       transform="translate(0,11)" />
    <path
       style="fill:none;stroke:#000000;stroke-width:2;stroke-linecap:butt;stroke-linejoin:miter;stroke-miterlimit:4;stroke-opacity:1;stroke-dasharray:none"
       d="m 130,312.36218 20,-40 -40,-20 33.57143,-51.42857 0.71429,-10e-6"
       id="path3777"
       inkscape:connector-curvature="0"
       sodipodi:nodetypes="ccccc" />
    <path
       style="fill:none;stroke:#000000;stroke-width:2;stroke-linecap:butt;stroke-linejoin:miter;stroke-opacity:1;stroke-miterlimit:4;stroke-dasharray:none"
       d="m 140,212.36218 40,30 0,0 0,0"
       id="path3779"
       inkscape:connector-curvature="0" />
    <path
       sodipodi:type="arc"
       style="fill:none;stroke:#000000;stroke-width:2.44948983;stroke-miterlimit:4;stroke-opacity:1;stroke-dasharray:none;stroke-dashoffset:0"
       id="path3781"
       sodipodi:cx="165"
       sodipodi:cy="177.36218"
       sodipodi:rx="15"
       sodipodi:ry="15"
       d="m 180,177.36218 a 15,15 0 1 1 -30,0 15,15 0 1 1 30,0 z"
       transform="matrix(0.64395055,0.17254603,-0.25881905,0.96592583,90.938587,-16.140911)" />
    <path
       style="fill:none;stroke:#000000;stroke-width:2;stroke-linecap:butt;stroke-linejoin:miter;stroke-opacity:1;stroke-miterlimit:4;stroke-dasharray:none"
       d="m 538,312.36218 -10,-30 30,-30 -10,30 20,30 0,0"
       id="path3783"
       inkscape:connector-curvature="0" />
    <path
       style="fill:none;stroke:#000000;stroke-width:2;stroke-linecap:butt;stroke-linejoin:miter;stroke-opacity:1;stroke-miterlimit:4;stroke-dasharray:none"
       d="m 558,252.36218 -10,-50 0,-10 0,0 0,0"
       id="path3785"
       inkscape:connector-curvature="0" />
    <path
       style="fill:none;stroke:#000000;stroke-width:2;stroke-linecap:butt;stroke-linejoin:miter;stroke-miterlimit:4;stroke-opacity:1;stroke-dasharray:none"
       d="m 526.78571,254.50504 20,-50 -23.57143,19.28571 -25.35714,-7.85714"
       id="path3787"
       inkscape:connector-curvature="0"
       sodipodi:nodetypes="cccc" />
    <path
       sodipodi:type="arc"
       style="fill:none;stroke:#000000;stroke-width:2;stroke-miterlimit:4;stroke-opacity:1;stroke-dasharray:none;stroke-dashoffset:0"
       id="path3789"
       sodipodi:cx="550"
       sodipodi:cy="177.36218"
       sodipodi:rx="10"
       sodipodi:ry="15"
       d="m 560,177.36218 a 10,15 0 1 1 -20,0 10,15 0 1 1 20,0 z"
       transform="matrix(0.96592583,0.25881905,-0.25881905,0.96592583,64.645506,-136.307)" />
    <path
       sodipodi:type="arc"
       style="fill:#000000;fill-opacity:1;stroke:#000000;stroke-width:2;stroke-miterlimit:4;stroke-opacity:1;stroke-dasharray:none;stroke-dashoffset:0"
       id="path3838"
       sodipodi:cx="237.5"
       sodipodi:cy="184.86218"
       sodipodi:rx="2.5"
       sodipodi:ry="2.5"
       d="m 240,184.86218 a 2.5,2.5 0 1 1 -5,0 2.5,2.5 0 1 1 5,0 z"
       transform="translate(142.85714,-63.571429)" />
    <path
       sodipodi:type="arc"
       style="fill:#000000;fill-opacity:1;stroke:#000000;stroke-width:2;stroke-miterlimit:4;stroke-opacity:1;stroke-dasharray:none;stroke-dashoffset:0"
       id="path3840"
       sodipodi:cx="237.5"
       sodipodi:cy="194.86218"
       sodipodi:rx="2.5"
       sodipodi:ry="2.5"
       d="m 240,194.86218 a 2.5,2.5 0 1 1 -5,0 2.5,2.5 0 1 1 5,0 z"
       transform="translate(21.785714,-70)" />
    <path
       sodipodi:type="arc"
       style="fill:#000000;fill-opacity:1;stroke:#000000;stroke-width:2;stroke-miterlimit:4;stroke-opacity:1;stroke-dasharray:none;stroke-dashoffset:0"
       id="path3842"
       sodipodi:cx="237.5"
       sodipodi:cy="204.86218"
       sodipodi:rx="2.5"
       sodipodi:ry="2.5"
       d="m 240,204.86218 a 2.5,2.5 0 1 1 -5,0 2.5,2.5 0 1 1 5,0 z"
       transform="translate(197.14286,-39.642857)" />
    <path
       sodipodi:type="arc"
       style="fill:#000000;fill-opacity:1;stroke:#000000;stroke-width:2;stroke-miterlimit:4;stroke-opacity:1;stroke-dasharray:none;stroke-dashoffset:0"
       id="path3844"
       sodipodi:cx="237.5"
       sodipodi:cy="214.86218"
       sodipodi:rx="2.5"
       sodipodi:ry="2.5"
       d="m 240,214.86218 a 2.5,2.5 0 1 1 -5,0 2.5,2.5 0 1 1 5,0 z"
       transform="translate(182.14286,47.857143)" />
    <path
       sodipodi:type="arc"
       style="fill:#000000;fill-opacity:1;stroke:#000000;stroke-width:2;stroke-miterlimit:4;stroke-opacity:1;stroke-dasharray:none;stroke-dashoffset:0"
       id="path3865"
       sodipodi:cx="237.5"
       sodipodi:cy="224.86218"
       sodipodi:rx="2.5"
       sodipodi:ry="2.5"
       d="m 240,224.86218 a 2.5,2.5 0 1 1 -5,0 2.5,2.5 0 1 1 5,0 z"
       transform="translate(289.35715,30)" />
    <path
       sodipodi:type="arc"
       style="fill:#000000;fill-opacity:1;stroke:#000000;stroke-width:2;stroke-miterlimit:4;stroke-opacity:1;stroke-dasharray:none;stroke-dashoffset:0"
       id="path3867"
       sodipodi:cx="237.5"
       sodipodi:cy="234.86218"
       sodipodi:rx="2.5"
       sodipodi:ry="2.5"
       d="m 240,234.86218 a 2.5,2.5 0 1 1 -5,0 2.5,2.5 0 1 1 5,0 z"
       transform="translate(285,-10.357143)" />
    <path
       sodipodi:type="arc"
       style="fill:#000000;fill-opacity:1;stroke:#000000;stroke-width:2;stroke-miterlimit:4;stroke-opacity:1;stroke-dasharray:none;stroke-dashoffset:0"
       id="path3869"
       sodipodi:cx="237.5"
       sodipodi:cy="244.86218"
       sodipodi:rx="2.5"
       sodipodi:ry="2.5"
       d="m 240,244.86218 a 2.5,2.5 0 1 1 -5,0 2.5,2.5 0 1 1 5,0 z"
       transform="translate(290.35715,38.214286)" />
    <path
       sodipodi:type="arc"
       style="fill:#000000;fill-opacity:1;stroke:#000000;stroke-width:2;stroke-miterlimit:4;stroke-opacity:1;stroke-dasharray:none;stroke-dashoffset:0"
       id="path3871"
       sodipodi:cx="237.5"
       sodipodi:cy="254.86218"
       sodipodi:rx="2.5"
       sodipodi:ry="2.5"
       d="m 240,254.86218 a 2.5,2.5 0 1 1 -5,0 2.5,2.5 0 1 1 5,0 z"
       transform="translate(-56.428572,-11.785714)" />
    <path
       sodipodi:type="arc"
       style="fill:#000000;fill-opacity:1;stroke:#000000;stroke-width:2;stroke-miterlimit:4;stroke-opacity:1;stroke-dasharray:none;stroke-dashoffset:0"
       id="path3873"
       sodipodi:cx="237.5"
       sodipodi:cy="264.86218"
       sodipodi:rx="2.5"
       sodipodi:ry="2.5"
       d="m 240,264.86218 a 2.5,2.5 0 1 1 -5,0 2.5,2.5 0 1 1 5,0 z"
       transform="translate(-106.78571,47.5)" />
    <path
       sodipodi:type="arc"
       style="fill:#000000;fill-opacity:1;stroke:#000000;stroke-width:2;stroke-miterlimit:4;stroke-opacity:1;stroke-dasharray:none;stroke-dashoffset:0"
       id="path3875"
       sodipodi:cx="247.5"
       sodipodi:cy="184.86218"
       sodipodi:rx="2.5"
       sodipodi:ry="2.5"
       d="m 250,184.86218 a 2.5,2.5 0 1 1 -5,0 2.5,2.5 0 1 1 5,0 z"
       transform="translate(122.14286,-71.785714)" />
    <path
       sodipodi:type="arc"
       style="fill:#000000;fill-opacity:1;stroke:#000000;stroke-width:2;stroke-miterlimit:4;stroke-opacity:1;stroke-dasharray:none;stroke-dashoffset:0"
       id="path3877"
       sodipodi:cx="247.5"
       sodipodi:cy="194.86218"
       sodipodi:rx="2.5"
       sodipodi:ry="2.5"
       d="m 250,194.86218 a 2.5,2.5 0 1 1 -5,0 2.5,2.5 0 1 1 5,0 z"
       transform="translate(83.214286,-69.642857)" />
    <path
       sodipodi:type="arc"
       style="fill:#000000;fill-opacity:1;stroke:#000000;stroke-width:2;stroke-miterlimit:4;stroke-opacity:1;stroke-dasharray:none;stroke-dashoffset:0"
       id="path3879"
       sodipodi:cx="247.5"
       sodipodi:cy="204.86218"
       sodipodi:rx="2.5"
       sodipodi:ry="2.5"
       d="m 250,204.86218 a 2.5,2.5 0 1 1 -5,0 2.5,2.5 0 1 1 5,0 z"
       transform="translate(172.5,-11.071429)" />
    <path
       sodipodi:type="arc"
       style="fill:#000000;fill-opacity:1;stroke:#000000;stroke-width:2;stroke-miterlimit:4;stroke-opacity:1;stroke-dasharray:none;stroke-dashoffset:0"
       id="path3881"
       sodipodi:cx="247.5"
       sodipodi:cy="214.86218"
       sodipodi:rx="2.5"
       sodipodi:ry="2.5"
       d="m 250,214.86218 a 2.5,2.5 0 1 1 -5,0 2.5,2.5 0 1 1 5,0 z"
       transform="translate(152.5,18.571429)" />
    <path
       sodipodi:type="arc"
       style="fill:#000000;fill-opacity:1;stroke:#000000;stroke-width:2;stroke-miterlimit:4;stroke-opacity:1;stroke-dasharray:none;stroke-dashoffset:0"
       id="path3883"
       sodipodi:cx="247.5"
       sodipodi:cy="224.86218"
       sodipodi:rx="2.5"
       sodipodi:ry="2.5"
       d="m 250,224.86218 a 2.5,2.5 0 1 1 -5,0 2.5,2.5 0 1 1 5,0 z"
       transform="translate(290.35714,87.5)" />
    <path
       sodipodi:type="arc"
       style="fill:#000000;fill-opacity:1;stroke:#000000;stroke-width:2;stroke-miterlimit:4;stroke-opacity:1;stroke-dasharray:none;stroke-dashoffset:0"
       id="path3885"
       sodipodi:cx="247.5"
       sodipodi:cy="234.86218"
       sodipodi:rx="2.5"
       sodipodi:ry="2.5"
       d="m 250,234.86218 a 2.5,2.5 0 1 1 -5,0 2.5,2.5 0 1 1 5,0 z"
       transform="translate(300.35714,-42.500001)" />
    <path
       sodipodi:type="arc"
       style="fill:#000000;fill-opacity:1;stroke:#000000;stroke-width:2;stroke-miterlimit:4;stroke-opacity:1;stroke-dasharray:none;stroke-dashoffset:0"
       id="path3887"
       sodipodi:cx="247.5"
       sodipodi:cy="244.86218"
       sodipodi:rx="2.5"
       sodipodi:ry="2.5"
       d="m 250,244.86218 a 2.5,2.5 0 1 1 -5,0 2.5,2.5 0 1 1 5,0 z"
       transform="translate(300.35715,-39.642857)" />
    <path
       sodipodi:type="arc"
       style="fill:#000000;fill-opacity:1;stroke:#000000;stroke-width:2;stroke-miterlimit:4;stroke-opacity:1;stroke-dasharray:none;stroke-dashoffset:0"
       id="path3889"
       sodipodi:cx="247.5"
       sodipodi:cy="254.86218"
       sodipodi:rx="2.5"
       sodipodi:ry="2.5"
       d="m 250,254.86218 a 2.5,2.5 0 1 1 -5,0 2.5,2.5 0 1 1 5,0 z"
       transform="translate(-109.64286,-43.214286)" />
    <path
       sodipodi:type="arc"
       style="fill:#000000;fill-opacity:1;stroke:#000000;stroke-width:2;stroke-miterlimit:4;stroke-opacity:1;stroke-dasharray:none;stroke-dashoffset:0"
       id="path3891"
       sodipodi:cx="247.5"
       sodipodi:cy="264.86218"
       sodipodi:rx="2.5"
       sodipodi:ry="2.5"
       d="m 250,264.86218 a 2.5,2.5 0 1 1 -5,0 2.5,2.5 0 1 1 5,0 z"
       transform="translate(-97.142857,8.5714286)" />
    <path
       sodipodi:type="arc"
       style="fill:#000000;fill-opacity:1;stroke:#000000;stroke-width:2;stroke-miterlimit:4;stroke-opacity:1;stroke-dasharray:none;stroke-dashoffset:0"
       id="path3893"
       sodipodi:cx="257.5"
       sodipodi:cy="184.86218"
       sodipodi:rx="2.5"
       sodipodi:ry="2.5"
       d="m 260,184.86218 a 2.5,2.5 0 1 1 -5,0 2.5,2.5 0 1 1 5,0 z"
       transform="translate(152.85714,-53.571429)" />
    <path
       sodipodi:type="arc"
       style="fill:#000000;fill-opacity:1;stroke:#000000;stroke-width:2;stroke-miterlimit:4;stroke-opacity:1;stroke-dasharray:none;stroke-dashoffset:0"
       id="path3895"
       sodipodi:cx="257.5"
       sodipodi:cy="194.86218"
       sodipodi:rx="2.5"
       sodipodi:ry="2.5"
       d="m 260,194.86218 a 2.5,2.5 0 1 1 -5,0 2.5,2.5 0 1 1 5,0 z"
       transform="translate(152.5,-51.428572)" />
    <path
       sodipodi:type="arc"
       style="fill:#000000;fill-opacity:1;stroke:#000000;stroke-width:2;stroke-miterlimit:4;stroke-opacity:1;stroke-dasharray:none;stroke-dashoffset:0"
       id="path3897"
       sodipodi:cx="257.5"
       sodipodi:cy="204.86218"
       sodipodi:rx="2.5"
       sodipodi:ry="2.5"
       d="m 260,204.86218 a 2.5,2.5 0 1 1 -5,0 2.5,2.5 0 1 1 5,0 z"
       transform="translate(191.78571,-12.5)" />
    <path
       sodipodi:type="arc"
       style="fill:#000000;fill-opacity:1;stroke:#000000;stroke-width:2;stroke-miterlimit:4;stroke-opacity:1;stroke-dasharray:none;stroke-dashoffset:0"
       id="path3899"
       sodipodi:cx="257.5"
       sodipodi:cy="214.86218"
       sodipodi:rx="2.5"
       sodipodi:ry="2.5"
       d="m 260,214.86218 a 2.5,2.5 0 1 1 -5,0 2.5,2.5 0 1 1 5,0 z"
       transform="translate(213.92857,27.5)" />
    <path
       sodipodi:type="arc"
       style="fill:#000000;fill-opacity:1;stroke:#000000;stroke-width:2;stroke-miterlimit:4;stroke-opacity:1;stroke-dasharray:none;stroke-dashoffset:0"
       id="path3901"
       sodipodi:cx="257.5"
       sodipodi:cy="224.86218"
       sodipodi:rx="2.5"
       sodipodi:ry="2.5"
       d="m 260,224.86218 a 2.5,2.5 0 1 1 -5,0 2.5,2.5 0 1 1 5,0 z"
       transform="translate(239.64286,-9.6428576)" />
    <path
       sodipodi:type="arc"
       style="fill:#000000;fill-opacity:1;stroke:#000000;stroke-width:2;stroke-miterlimit:4;stroke-opacity:1;stroke-dasharray:none;stroke-dashoffset:0"
       id="path3903"
       sodipodi:cx="257.5"
       sodipodi:cy="234.86218"
       sodipodi:rx="2.5"
       sodipodi:ry="2.5"
       d="m 260,234.86218 a 2.5,2.5 0 1 1 -5,0 2.5,2.5 0 1 1 5,0 z"
       transform="translate(300.71429,18.571429)" />
    <path
       sodipodi:type="arc"
       style="fill:#000000;fill-opacity:1;stroke:#000000;stroke-width:2;stroke-miterlimit:4;stroke-opacity:1;stroke-dasharray:none;stroke-dashoffset:0"
       id="path3905"
       sodipodi:cx="257.5"
       sodipodi:cy="244.86218"
       sodipodi:rx="2.5"
       sodipodi:ry="2.5"
       d="m 260,244.86218 a 2.5,2.5 0 1 1 -5,0 2.5,2.5 0 1 1 5,0 z"
       transform="translate(290.35714,37.857142)" />
    <path
       sodipodi:type="arc"
       style="fill:#000000;fill-opacity:1;stroke:#000000;stroke-width:2;stroke-miterlimit:4;stroke-opacity:1;stroke-dasharray:none;stroke-dashoffset:0"
       id="path3907"
       sodipodi:cx="257.5"
       sodipodi:cy="254.86218"
       sodipodi:rx="2.5"
       sodipodi:ry="2.5"
       d="m 260,254.86218 a 2.5,2.5 0 1 1 -5,0 2.5,2.5 0 1 1 5,0 z"
       transform="translate(-112.14503,-56.663162)" />
    <path
       sodipodi:type="arc"
       style="fill:#000000;fill-opacity:1;stroke:#000000;stroke-width:2;stroke-miterlimit:4;stroke-opacity:1;stroke-dasharray:none;stroke-dashoffset:0"
       id="path3909"
       sodipodi:cx="257.5"
       sodipodi:cy="264.86218"
       sodipodi:rx="2.5"
       sodipodi:ry="2.5"
       d="m 260,264.86218 a 2.5,2.5 0 1 1 -5,0 2.5,2.5 0 1 1 5,0 z"
       transform="translate(-146.78571,-12.5)" />
    <path
       sodipodi:type="arc"
       style="fill:#000000;fill-opacity:1;stroke:#000000;stroke-width:2;stroke-miterlimit:4;stroke-opacity:1;stroke-dasharray:none;stroke-dashoffset:0"
       id="path3911"
       sodipodi:cx="267.5"
       sodipodi:cy="184.86218"
       sodipodi:rx="2.5"
       sodipodi:ry="2.5"
       d="m 270,184.86218 a 2.5,2.5 0 1 1 -5,0 2.5,2.5 0 1 1 5,0 z"
       transform="translate(32.5,-22.142857)" />
    <path
       sodipodi:type="arc"
       style="fill:#000000;fill-opacity:1;stroke:#000000;stroke-width:2;stroke-miterlimit:4;stroke-opacity:1;stroke-dasharray:none;stroke-dashoffset:0"
       id="path3913"
       sodipodi:cx="267.5"
       sodipodi:cy="194.86218"
       sodipodi:rx="2.5"
       sodipodi:ry="2.5"
       d="m 270,194.86218 a 2.5,2.5 0 1 1 -5,0 2.5,2.5 0 1 1 5,0 z"
       transform="translate(2.8571429,-38.571429)" />
    <path
       sodipodi:type="arc"
       style="fill:#000000;fill-opacity:1;stroke:#000000;stroke-width:2;stroke-miterlimit:4;stroke-opacity:1;stroke-dasharray:none;stroke-dashoffset:0"
       id="path3915"
       sodipodi:cx="267.5"
       sodipodi:cy="204.86218"
       sodipodi:rx="2.5"
       sodipodi:ry="2.5"
       d="m 270,204.86218 a 2.5,2.5 0 1 1 -5,0 2.5,2.5 0 1 1 5,0 z"
       transform="translate(63.571429,-48.571429)" />
    <path
       sodipodi:type="arc"
       style="fill:#000000;fill-opacity:1;stroke:#000000;stroke-width:2;stroke-miterlimit:4;stroke-opacity:1;stroke-dasharray:none;stroke-dashoffset:0"
       id="path3917"
       sodipodi:cx="267.5"
       sodipodi:cy="214.86218"
       sodipodi:rx="2.5"
       sodipodi:ry="2.5"
       d="m 270,214.86218 a 2.5,2.5 0 1 1 -5,0 2.5,2.5 0 1 1 5,0 z"
       transform="translate(32.857143,-40)" />
    <path
       sodipodi:type="arc"
       style="fill:#000000;fill-opacity:1;stroke:#000000;stroke-width:2;stroke-miterlimit:4;stroke-opacity:1;stroke-dasharray:none;stroke-dashoffset:0"
       id="path3919"
       sodipodi:cx="267.5"
       sodipodi:cy="224.86218"
       sodipodi:rx="2.5"
       sodipodi:ry="2.5"
       d="m 270,224.86218 a 2.5,2.5 0 1 1 -5,0 2.5,2.5 0 1 1 5,0 z"
       transform="translate(42.5,87.857143)" />
    <path
       sodipodi:type="arc"
       style="fill:#000000;fill-opacity:1;stroke:#000000;stroke-width:2;stroke-miterlimit:4;stroke-opacity:1;stroke-dasharray:none;stroke-dashoffset:0"
       id="path3921"
       sodipodi:cx="267.5"
       sodipodi:cy="234.86218"
       sodipodi:rx="2.5"
       sodipodi:ry="2.5"
       d="m 270,234.86218 a 2.5,2.5 0 1 1 -5,0 2.5,2.5 0 1 1 5,0 z"
       transform="translate(52.142857,37.857143)" />
    <path
       sodipodi:type="arc"
       style="fill:#000000;fill-opacity:1;stroke:#000000;stroke-width:2;stroke-miterlimit:4;stroke-opacity:1;stroke-dasharray:none;stroke-dashoffset:0"
       id="path3923"
       sodipodi:cx="267.5"
       sodipodi:cy="244.86218"
       sodipodi:rx="2.5"
       sodipodi:ry="2.5"
       d="m 270,244.86218 a 2.5,2.5 0 1 1 -5,0 2.5,2.5 0 1 1 5,0 z"
       transform="translate(32.142857,-10.357143)" />
    <path
       sodipodi:type="arc"
       style="fill:#000000;fill-opacity:1;stroke:#000000;stroke-width:2;stroke-miterlimit:4;stroke-opacity:1;stroke-dasharray:none;stroke-dashoffset:0"
       id="path3925"
       sodipodi:cx="267.5"
       sodipodi:cy="254.86218"
       sodipodi:rx="2.5"
       sodipodi:ry="2.5"
       d="m 270,254.86218 a 2.5,2.5 0 1 1 -5,0 2.5,2.5 0 1 1 5,0 z"
       transform="translate(22.5,19.285714)" />
    <path
       sodipodi:type="arc"
       style="fill:#000000;fill-opacity:1;stroke:#000000;stroke-width:2;stroke-miterlimit:4;stroke-opacity:1;stroke-dasharray:none;stroke-dashoffset:0"
       id="path3927"
       sodipodi:cx="267.5"
       sodipodi:cy="264.86218"
       sodipodi:rx="2.5"
       sodipodi:ry="2.5"
       d="m 270,264.86218 a 2.5,2.5 0 1 1 -5,0 2.5,2.5 0 1 1 5,0 z"
       transform="translate(2.5,47.142857)" />
    <path
       sodipodi:type="arc"
       style="fill:#000000;fill-opacity:1;stroke:#000000;stroke-width:2;stroke-miterlimit:4;stroke-opacity:1;stroke-dasharray:none;stroke-dashoffset:0"
       id="path3929"
       sodipodi:cx="607.5"
       sodipodi:cy="214.86218"
       sodipodi:rx="2.5"
       sodipodi:ry="2.5"
       d="m 610,214.86218 a 2.5,2.5 0 1 1 -5,0 2.5,2.5 0 1 1 5,0 z"
       transform="translate(-39.642857,97.5)" />
    <path
       style="fill:none;stroke:#000000;stroke-width:2;stroke-linecap:butt;stroke-linejoin:miter;stroke-miterlimit:4;stroke-opacity:1;stroke-dasharray:none"
       d="m 112,252.36218 c -10,40 -50,60 -50,60"
       id="path3931"
       inkscape:connector-curvature="0" />
    <path
       sodipodi:type="arc"
       style="fill:#000000;fill-opacity:1;stroke:#000000;stroke-width:2;stroke-miterlimit:4;stroke-opacity:1;stroke-dasharray:none;stroke-dashoffset:0"
       id="path3933"
       sodipodi:cx="237.5"
       sodipodi:cy="199.86218"
       sodipodi:rx="2.5"
       sodipodi:ry="2.5"
       d="m 240,199.86218 a 2.5,2.5 0 1 1 -5,0 2.5,2.5 0 1 1 5,0 z"
       transform="translate(142.12183,-12.5)" />
    <path
       sodipodi:type="arc"
       style="fill:#000000;fill-opacity:1;stroke:#000000;stroke-width:2;stroke-miterlimit:4;stroke-opacity:1;stroke-dasharray:none;stroke-dashoffset:0"
       id="path3935"
       sodipodi:cx="237.5"
       sodipodi:cy="214.86218"
       sodipodi:rx="2.5"
       sodipodi:ry="2.5"
       d="m 240,214.86218 a 2.5,2.5 0 1 1 -5,0 2.5,2.5 0 1 1 5,0 z"
       transform="translate(-173.70563,97.337585)" />
  </g>
</svg>
